<?xml version="1.0" encoding="UTF-8" standalone="no"?>
<!DOCTYPE svg PUBLIC "-//W3C//DTD SVG 1.1//EN" "http://www.w3.org/Graphics/SVG/1.1/DTD/svg11.dtd">
<!-- Generated by Microsoft Visio, SVG Export linux-app-debug-riscfree.svg Page-1 -->
<svg xmlns="http://www.w3.org/2000/svg" xmlns:xlink="http://www.w3.org/1999/xlink" xmlns:ev="http://www.w3.org/2001/xml-events"
		xmlns:v="http://schemas.microsoft.com/visio/2003/SVGExtensions/" width="5.57292in" height="2.86787in"
		viewBox="0 0 401.25 206.486" xml:space="preserve" color-interpolation-filters="sRGB" class="st11">
	<v:documentProperties v:langID="1033" v:viewMarkup="false"/>

	<style type="text/css">
	<![CDATA[
		.st1 {fill:#dbeef3;stroke:#000000;stroke-linecap:round;stroke-linejoin:round;stroke-width:0.75}
		.st2 {fill:#000000;font-family:Calibri;font-size:1.16666em}
		.st3 {fill:#92d050;stroke:#000000;stroke-linecap:round;stroke-linejoin:round;stroke-width:0.75}
		.st4 {font-size:1em}
		.st5 {fill:#000000;stroke:#000000;stroke-linecap:round;stroke-linejoin:round;stroke-width:0.75}
		.st6 {fill:#ffffff;font-family:Calibri;font-size:1.16666em}
		.st7 {fill:#00b0f0;stroke:#000000;stroke-linecap:round;stroke-linejoin:round;stroke-width:0.75}
		.st8 {stroke:#000000;stroke-linecap:round;stroke-linejoin:round;stroke-width:0.75}
		.st9 {fill:none;stroke:none;stroke-linecap:round;stroke-linejoin:round;stroke-width:0.75}
		.st10 {fill:#d8d8d8;stroke:none;stroke-linecap:butt;stroke-width:6.375}
		.st11 {fill:none;fill-rule:evenodd;font-size:12px;overflow:visible;stroke-linecap:square;stroke-miterlimit:3}
	]]>
	</style>

	<g v:mID="0" v:index="1" v:groupContext="foregroundPage">
		<title>Page-1</title>
		<v:pageProperties v:drawingScale="1" v:pageScale="1" v:drawingUnits="19" v:shadowOffsetX="9" v:shadowOffsetY="-9"/>
		<g id="shape14-1" v:mID="14" v:groupContext="shape" transform="translate(260.974,-0.375)">
			<title>Sheet.14</title>
			<desc>Host PC</desc>
			<v:textBlock v:margins="rect(4,4,4,4)" v:verticalAlign="2"/>
			<v:textRect cx="69.9503" cy="103.618" width="139.91" height="205.736"/>
			<rect x="0" y="0.749997" width="139.901" height="205.736" rx="13.5" ry="13.5" class="st1"/>
			<text x="47.88" y="198.29" class="st2" v:langID="1033"><v:paragraph v:horizAlign="1"/><v:tabList/>Host PC</text>		</g>
		<g id="shape1-4" v:mID="1" v:groupContext="shape" transform="translate(0.375,-33.2928)">
			<title>Sheet.1</title>
			<desc>Development Board</desc>
			<v:textBlock v:margins="rect(4,4,4,4)"/>
			<v:textRect cx="45.262" cy="128.307" width="90.53" height="156.36"/>
			<rect x="0" y="50.1267" width="90.524" height="156.36" class="st3"/>
			<text x="6.76" y="124.11" class="st2" v:langID="1033"><v:paragraph v:horizAlign="1"/><v:tabList/>Development<v:lf/><tspan
						x="28.29" dy="1.2em" class="st4">Board</tspan></text>		</g>
		<g id="shape2-8" v:mID="2" v:groupContext="shape" transform="translate(274.69,-116.959)">
			<title>Sheet.2</title>
			<desc>Serial Terminal</desc>
			<v:textBlock v:margins="rect(4,4,4,4)"/>
			<v:textRect cx="56.2346" cy="170.14" width="112.47" height="72.6935"/>
			<rect x="0" y="133.793" width="112.469" height="72.6935" class="st5"/>
			<text x="40.53" y="165.94" class="st6" v:langID="1033"><v:paragraph v:horizAlign="1"/><v:tabList/>Serial <v:lf/><tspan
						x="31.06" dy="1.2em" class="st4">Terminal</tspan></text>		</g>
		<g id="shape3-12" v:mID="3" v:groupContext="shape" transform="translate(274.69,-33.2928)">
			<title>Sheet.3</title>
			<desc>Ashling Risc Free</desc>
			<v:textBlock v:margins="rect(4,4,4,4)"/>
			<v:textRect cx="56.2346" cy="170.14" width="112.47" height="72.6935"/>
			<rect x="0" y="133.793" width="112.469" height="72.6935" class="st7"/>
			<text x="35.58" y="165.94" class="st6" v:langID="1033"><v:paragraph v:horizAlign="1"/><v:tabList/>Ashling<v:newlineChar/><tspan
						x="30.92" dy="1.2em" class="st4">Risc Free</tspan></text>		</g>
		<g id="shape5-16" v:mID="5" v:groupContext="shape" transform="translate(274.69,256.238) rotate(180)">
			<title>Sheet.5</title>
			<path d="M0 206.49 L183.79 206.49" class="st8"/>
		</g>
		<g id="shape6-19" v:mID="6" v:groupContext="shape" transform="translate(160.849,-155.515)">
			<title>Sheet.6</title>
			<desc>USB</desc>
			<v:textBlock v:margins="rect(4,4,4,4)"/>
			<v:textRect cx="24.0026" cy="194.295" width="48.01" height="24.3836"/>
			<rect x="0" y="182.103" width="48.0051" height="24.3836" class="st9"/>
			<text x="12.49" y="198.49" class="st2" v:langID="1033"><v:paragraph v:horizAlign="1"/><v:tabList/>USB</text>		</g>
		<g id="shape8-22" v:mID="8" v:groupContext="shape" transform="translate(275.267,342.647) rotate(180)">
			<title>Sheet.8</title>
			<path d="M0 206.49 L184.37 206.49" class="st8"/>
		</g>
		<g id="shape10-25" v:mID="10" v:groupContext="shape" transform="translate(134.272,-25.0634)">
			<title>Sheet.10</title>
			<path d="M104.73 172.05 C104.3 172.05 103.73 172.05 103.3 172.05 C103.3 172.05 103.3 172.05 103.3 172.05 C103.3 165.05
						 99.87 158.62 94.3 154.62 C88.59 150.62 81.3 149.62 74.73 151.91 C69.3 141.33 57.29 135.9 45.86 138.62 C34.43
						 141.33 26.15 151.62 26.15 163.48 C26.15 163.48 26.15 163.62 26.15 163.77 C18.29 162.48 10.43 165.77 5.57
						 172.05 C0.86 178.48 0 186.91 3.29 194.06 C6.72 201.2 13.86 205.91 21.72 206.34 L21.72 206.49 L104.59 206.49
						 C114.02 206.49 121.73 198.77 121.73 189.34 C121.73 179.91 114.16 172.05 104.73 172.05 Z" class="st10"/>
		</g>
		<g id="shape11-27" v:mID="11" v:groupContext="shape" transform="translate(148.124,-45.7894)">
			<title>Sheet.11</title>
			<desc>Network</desc>
			<v:textBlock v:margins="rect(4,4,4,4)"/>
			<v:textRect cx="33.2988" cy="194.295" width="66.6" height="24.3836"/>
			<rect x="0" y="182.103" width="66.5976" height="24.3836" class="st9"/>
			<text x="8.63" y="198.49" class="st2" v:langID="1033"><v:paragraph v:horizAlign="1"/><v:tabList/>Network</text>		</g>
		<g id="shape13-30" v:mID="13" v:groupContext="shape" transform="translate(86.0985,-68.9538)">
			<title>Sheet.13</title>
			<desc>Ethernet</desc>
			<v:textBlock v:margins="rect(4,4,4,4)"/>
			<v:textRect cx="39.4328" cy="194.295" width="78.87" height="24.3836"/>
			<rect x="0" y="182.103" width="78.8656" height="24.3836" class="st9"/>
			<text x="14.56" y="198.49" class="st2" v:langID="1033"><v:paragraph v:horizAlign="1"/><v:tabList/>Ethernet</text>		</g>
	</g>
</svg>
