<?xml version="1.0" encoding="UTF-8" standalone="no"?>
<!DOCTYPE svg PUBLIC "-//W3C//DTD SVG 1.1//EN" "http://www.w3.org/Graphics/SVG/1.1/DTD/svg11.dtd">
<!-- Generated by Microsoft Visio, SVG Export agilex-gsrd-build-flow.svg Page-1 -->
<svg xmlns="http://www.w3.org/2000/svg" xmlns:xlink="http://www.w3.org/1999/xlink" xmlns:ev="http://www.w3.org/2001/xml-events"
		width="7.26265in" height="4.85062in" viewBox="0 0 522.911 349.245" xml:space="preserve" color-interpolation-filters="sRGB"
		class="st11">
	<style type="text/css">
	<![CDATA[
		.st1 {fill:#00b050;stroke:#000000;stroke-linecap:round;stroke-linejoin:round;stroke-width:0.24}
		.st2 {fill:#000000;font-family:Calibri;font-size:0.833336em}
		.st3 {font-size:1em}
		.st4 {fill:#ebf1df;stroke:#000000;stroke-linecap:round;stroke-linejoin:round;stroke-width:0.24}
		.st5 {marker-end:url(#mrkr13-13);stroke:#000000;stroke-linecap:round;stroke-linejoin:round;stroke-width:0.75}
		.st6 {fill:#000000;fill-opacity:1;stroke:#000000;stroke-opacity:1;stroke-width:0.22935779816514}
		.st7 {fill:#b7dde8;stroke:#000000;stroke-linecap:round;stroke-linejoin:round;stroke-width:0.24}
		.st8 {fill:#7e649e;stroke:#000000;stroke-linecap:round;stroke-linejoin:round;stroke-width:0.24}
		.st9 {fill:#ffffff;font-family:Calibri;font-size:0.833336em}
		.st10 {stroke:#c00000;stroke-linecap:round;stroke-linejoin:round;stroke-width:0.75}
		.st11 {fill:none;fill-rule:evenodd;font-size:12px;overflow:visible;stroke-linecap:square;stroke-miterlimit:3}
	]]>
	</style>

	<defs id="Markers">
		<g id="lend13">
			<path d="M 3 1 L 0 0 L 3 -1 L 3 1 " style="stroke:none"/>
		</g>
		<marker id="mrkr13-13" class="st6" refX="-13.08" orient="auto" markerUnits="strokeWidth" overflow="visible">
			<use xlink:href="#lend13" transform="scale(-4.36,-4.36) "/>
		</marker>
	</defs>
	<g>
		<title>Page-1</title>
		<g id="shape1-1" transform="translate(0.12,-246)">
			<title>Rectangle</title>
			<desc>GHRD (Git)</desc>
			<rect x="0" y="312.495" width="64.8" height="36.75" class="st1"/>
			<text x="20.34" y="327.87" class="st2">GHRD <tspan x="23.39" dy="1.2em" class="st3">(Git)</tspan></text>		</g>
		<g id="shape2-5" transform="translate(87.2411,-246)">
			<title>Rectangle.2</title>
			<desc>Build</desc>
			<rect x="0" y="312.495" width="64.8" height="36.75" rx="5" ry="5" class="st4"/>
			<text x="22.13" y="333.87" class="st2">Build</text>		</g>
		<g id="shape3-8" transform="translate(64.92,-255.375)">
			<title>Dynamic connector</title>
			<path d="M0 340.24 L12.51 340.24" class="st5"/>
		</g>
		<g id="shape8-14" transform="translate(180.183,-312.375)">
			<title>Rectangle.73</title>
			<desc>SOF</desc>
			<rect x="0" y="312.495" width="64.8" height="36.75" class="st7"/>
			<text x="24.49" y="333.87" class="st2">SOF</text>		</g>
		<g id="shape11-17" transform="translate(0.925243,-134.625)">
			<title>Rectangle.11</title>
			<desc>Yocto Build System (Git)</desc>
			<rect x="0" y="312.495" width="64.8" height="36.75" class="st1"/>
			<text x="9.5" y="321.87" class="st2">Yocto Build <tspan x="17.73" dy="1.2em" class="st3">System </tspan><tspan
						x="23.39" dy="1.2em" class="st3">(Git)</tspan></text>		</g>
		<g id="shape12-22" transform="translate(90.5541,-134.625)">
			<title>Rectangle.12</title>
			<desc>Setup</desc>
			<rect x="0" y="312.495" width="64.8" height="36.75" rx="5" ry="5" class="st4"/>
			<text x="20.69" y="333.87" class="st2">Setup</text>		</g>
		<g id="shape13-25" transform="translate(65.7252,-144)">
			<title>Dynamic connector.13</title>
			<path d="M0 340.24 L15.02 340.24" class="st5"/>
		</g>
		<g id="shape14-30" transform="translate(0.925243,-78.9375)">
			<title>Rectangle.14</title>
			<desc>Prebuilt Files</desc>
			<rect x="0" y="312.495" width="64.8" height="36.75" class="st7"/>
			<text x="6.2" y="333.87" class="st2">Prebuilt Files</text>		</g>
		<g id="shape15-33" transform="translate(65.7252,-97.3125)">
			<title>Dynamic connector.15</title>
			<path d="M0 349.24 L8.83 349.24 L8.83 293.56 L15.02 293.56" class="st5"/>
		</g>
		<g id="shape16-38" transform="translate(0.925243,-190.312)">
			<title>Rectangle.16</title>
			<desc>Yocto Recipes (Git)</desc>
			<rect x="0" y="312.495" width="64.8" height="36.75" class="st1"/>
			<text x="4.24" y="327.87" class="st2">Yocto Recipes <tspan x="23.39" dy="1.2em" class="st3">(Git)</tspan></text>		</g>
		<g id="shape17-42" transform="translate(65.7252,-208.687)">
			<title>Dynamic connector.17</title>
			<path d="M0 349.24 L8.83 349.24 L8.83 404.93 L15.02 404.93" class="st5"/>
		</g>
		<g id="shape18-47" transform="translate(180.183,-134.625)">
			<title>Rectangle.18</title>
			<desc>Update Files &#38; Recipes</desc>
			<rect x="0" y="312.495" width="64.8" height="36.75" rx="5" ry="5" class="st4"/>
			<text x="7.21" y="327.87" class="st2">Update Files <tspan x="12.32" dy="1.2em" class="st3">&#38; Recipes</tspan></text>		</g>
		<g id="shape24-51" transform="translate(155.354,-144)">
			<title>Dynamic connector.24</title>
			<path d="M0 340.24 L15.02 340.24" class="st5"/>
		</g>
		<g id="shape25-56" transform="translate(276.562,-134.625)">
			<title>Rectangle.25</title>
			<desc>Build &#38; Package</desc>
			<rect x="0" y="312.495" width="64.8" height="36.75" rx="5" ry="5" class="st4"/>
			<text x="17.59" y="327.87" class="st2">Build &#38; <tspan x="15.8" dy="1.2em" class="st3">Package</tspan></text>		</g>
		<g id="shape30-60" transform="translate(366.191,-134.625)">
			<title>Rectangle.86</title>
			<desc>SD Card Image (.wic)</desc>
			<rect x="0" y="312.495" width="64.8" height="36.75" class="st8"/>
			<text x="16.46" y="321.87" class="st9">SD Card <tspan x="19.91" dy="1.2em" class="st3">Image </tspan><tspan x="21.27"
						dy="1.2em" class="st3">(.wic)</tspan></text>		</g>
		<g id="shape31-65" transform="translate(244.983,-144)">
			<title>Dynamic connector.31</title>
			<path d="M0 340.24 L21.77 340.24" class="st5"/>
		</g>
		<g id="shape32-70" transform="translate(341.362,-144)">
			<title>Dynamic connector.32</title>
			<path d="M0 340.24 L15.02 340.24" class="st5"/>
		</g>
		<g id="shape34-75" transform="translate(152.041,-264.375)">
			<title>Dynamic connector.34</title>
			<path d="M0 349.24 L8.83 349.24 L8.83 282.87 L18.33 282.87" class="st5"/>
		</g>
		<g id="shape35-80" transform="translate(152.041,-273.375)">
			<title>Dynamic connector.35</title>
			<path d="M0 358.24 L18.33 358.24" class="st5"/>
		</g>
		<g id="shape38-85" transform="translate(180.183,-246)">
			<title>Rectangle.38</title>
			<desc>HPS Debug SOF</desc>
			<rect x="0" y="312.495" width="64.8" height="36.75" class="st7"/>
			<text x="10.1" y="327.87" class="st2">HPS Debug<tspan x="24.49" dy="1.2em" class="st3">SOF</tspan></text>		</g>
		<g id="shape40-89" transform="translate(269.701,-246)">
			<title>Rectangle.40</title>
			<desc>Programming File Generator</desc>
			<rect x="0" y="312.495" width="64.8" height="36.75" rx="5" ry="5" class="st4"/>
			<text x="4.83" y="321.87" class="st2">Programming <tspan x="25.32" dy="1.2em" class="st3">File </tspan><tspan x="11.45"
						dy="1.2em" class="st3">Generator</tspan></text>		</g>
		<g id="shape42-94" transform="translate(366.191,-214.125)">
			<title>Rectangle.42</title>
			<desc>Core.RBF</desc>
			<rect x="0" y="312.495" width="64.8" height="36.75" class="st7"/>
			<text x="13.87" y="333.87" class="st2">Core.RBF</text>		</g>
		<g id="shape43-97" transform="translate(366.191,-277.875)">
			<title>Rectangle.43</title>
			<desc>HPS JIC (discard)</desc>
			<rect x="0" y="312.495" width="64.8" height="36.75" class="st7"/>
			<text x="17.75" y="327.87" class="st2">HPS JIC<tspan x="14.76" dy="1.2em" class="st3">(discard)</tspan></text>		</g>
		<g id="shape44-101" transform="translate(334.501,-264.375)">
			<title>Dynamic connector.44</title>
			<path d="M0 349.24 L17.66 349.24 L17.66 317.37 L21.88 317.37" class="st5"/>
		</g>
		<g id="shape46-106" transform="translate(244.983,-255.375)">
			<title>Dynamic connector.46</title>
			<path d="M0 340.24 L14.91 340.24" class="st5"/>
		</g>
		<g id="shape48-111" transform="translate(334.501,-264.375)">
			<title>Dynamic connector.48</title>
			<path d="M0 349.24 L17.66 349.24 L17.66 381.12 L21.88 381.12" class="st5"/>
		</g>
		<g id="shape49-116" transform="translate(538.479,-269.171) rotate(29.5589)">
			<title>Sheet.49</title>
			<path d="M0 349.24 L74.5 349.24" class="st10"/>
		</g>
		<g id="shape50-119" transform="translate(603.279,338.411) rotate(150.441)">
			<title>Sheet.50</title>
			<path d="M0 349.24 L74.5 349.24" class="st10"/>
		</g>
		<g id="shape51-122" transform="translate(398.591,-214.125)">
			<title>Dynamic connector.51</title>
			<path d="M0 349.24 L0 366.9 L-186.01 366.9 L-186.01 382.18" class="st5"/>
		</g>
		<g id="shape52-127" transform="translate(366.191,-64.125)">
			<title>Rectangle.52</title>
			<desc>U-Boot SPL Hex</desc>
			<rect x="0" y="312.495" width="64.8" height="36.75" class="st7"/>
			<text x="9.88" y="327.87" class="st2">U-Boot SPL<tspan x="24.63" dy="1.2em" class="st3">Hex</tspan></text>		</g>
		<g id="shape53-131" transform="translate(341.362,-153)">
			<title>Dynamic connector.53</title>
			<path d="M0 349.24 L8.83 349.24 L8.83 419.74 L15.02 419.74" class="st5"/>
		</g>
		<g id="shape54-136" transform="translate(366.191,-0.375001)">
			<title>Rectangle.54</title>
			<desc>Core.RBF (Discard)</desc>
			<rect x="0" y="312.495" width="64.8" height="36.75" class="st7"/>
			<text x="13.87" y="327.87" class="st2">Core.RBF<tspan x="14.31" dy="1.2em" class="st3">(Discard)</tspan></text>		</g>
		<g id="shape55-140" transform="translate(457.991,-64.125)">
			<title>Rectangle.55</title>
			<desc>Programming File Generator</desc>
			<rect x="0" y="312.495" width="64.8" height="36.75" rx="5" ry="5" class="st4"/>
			<text x="4.83" y="321.87" class="st2">Programming <tspan x="25.32" dy="1.2em" class="st3">File </tspan><tspan x="11.45"
						dy="1.2em" class="st3">Generator</tspan></text>		</g>
		<g id="shape56-145" transform="translate(430.991,-73.5)">
			<title>Dynamic connector.56</title>
			<path d="M0 340.24 L17.19 340.24" class="st5"/>
		</g>
		<g id="shape57-150" transform="translate(244.983,-330.75)">
			<title>Dynamic connector.57</title>
			<path d="M0 349.24 L245.41 349.24 L245.41 569.31" class="st5"/>
		</g>
		<g id="shape60-155" transform="translate(490.391,-64.125)">
			<title>Dynamic connector.60</title>
			<path d="M0 349.24 L0 358.07 L-91.8 358.07 L-91.8 366.43" class="st5"/>
		</g>
		<g id="shape61-160" transform="translate(603.279,615.911) rotate(150.441)">
			<title>Sheet.61</title>
			<path d="M0 349.24 L74.5 349.24" class="st10"/>
		</g>
		<g id="shape62-163" transform="translate(538.479,8.32945) rotate(29.5589)">
			<title>Sheet.62</title>
			<path d="M0 349.24 L74.5 349.24" class="st10"/>
		</g>
		<g id="shape63-166" transform="translate(457.991,-0.375001)">
			<title>Rectangle.63</title>
			<desc>HPS QSPI Image (JIC)</desc>
			<rect x="0" y="312.495" width="64.8" height="36.75" class="st8"/>
			<text x="13.77" y="321.87" class="st9">HPS QSPI <tspan x="19.91" dy="1.2em" class="st3">Image</tspan><tspan x="23.85"
						dy="1.2em" class="st3">(JIC)</tspan></text>		</g>
		<g id="shape64-171" transform="translate(481.391,-64.125)">
			<title>Dynamic connector.64</title>
			<path d="M9 349.24 L9 366.43" class="st5"/>
		</g>
	</g>
</svg>
