<svg width="1550" height="429" xmlns="http://www.w3.org/2000/svg" xmlns:xlink="http://www.w3.org/1999/xlink" xml:space="preserve" overflow="hidden"><g transform="translate(-1425 -1322)"><path d="M1425.42 1414.76 1750.83 1414.76 1750.83 1495.2 1425.42 1495.2Z" fill="#DAF2D0" fill-rule="evenodd"/><path d="M1750.83 1414.76 1874.58 1414.76 1874.58 1495.2 1750.83 1495.2Z" fill="#F2F2F2" fill-rule="evenodd"/><path d="M1874.58 1414.76 2296.25 1414.76 2296.25 1495.2 1874.58 1495.2Z" fill="#F2CEEF" fill-rule="evenodd"/><path d="M2442.92 1414.76 2745.42 1414.76 2745.42 1495.2 2442.92 1495.2Z" fill="#F2F2F2" fill-rule="evenodd"/><path d="M1425.42 1495.2 1750.83 1495.2 1750.83 1575.64 1425.42 1575.64Z" fill="#FBE2D5" fill-rule="evenodd"/><path d="M1750.83 1495.2 1874.58 1495.2 1874.58 1575.64 1750.83 1575.64Z" fill="#F2F2F2" fill-rule="evenodd"/><path d="M1874.58 1495.2 2296.25 1495.2 2296.25 1575.64 1874.58 1575.64Z" fill="#F2CEEF" fill-rule="evenodd"/><path d="M2442.92 1495.2 2745.42 1495.2 2745.42 1575.64 2442.92 1575.64Z" fill="#F2F2F2" fill-rule="evenodd"/><path d="M1425.42 1575.64 1750.83 1575.64 1750.83 1656.07 1425.42 1656.07Z" fill="#CAEDFB" fill-rule="evenodd"/><path d="M1750.83 1575.64 1874.58 1575.64 1874.58 1656.07 1750.83 1656.07Z" fill="#F2F2F2" fill-rule="evenodd"/><path d="M1874.58 1575.64 2296.25 1575.64 2296.25 1656.07 1874.58 1656.07Z" fill="#F2CEEF" fill-rule="evenodd"/><path d="M2442.92 1575.64 2745.42 1575.64 2745.42 1656.07 2442.92 1656.07Z" fill="#F2F2F2" fill-rule="evenodd"/><path d="M1425.42 1656.07 1750.83 1656.07 1750.83 1736.51 1425.42 1736.51Z" fill="#F2CEEF" fill-rule="evenodd"/><path d="M1750.83 1656.07 1874.58 1656.07 1874.58 1736.51 1750.83 1736.51Z" fill="#F2F2F2" fill-rule="evenodd"/><path d="M1874.58 1656.07 2296.25 1656.07 2296.25 1736.51 1874.58 1736.51Z" fill="#F2CEEF" fill-rule="evenodd"/><path d="M2442.92 1656.07 2745.42 1656.07 2745.42 1736.51 2442.92 1736.51Z" fill="#F2F2F2" fill-rule="evenodd"/><g><text font-family="Aptos Narrow,Aptos Narrow_MSFontService,sans-serif" font-weight="700" font-stretch="semi-condensed" font-size="50" transform="matrix(1 0 0 1 2761.46 1384)">delta (ns)</text></g><text font-family="Aptos Narrow,Aptos Narrow_MSFontService,sans-serif" font-weight="700" font-stretch="semi-condensed" font-size="50" transform="matrix(1 0 0 1 2548.05 1384)">load</text><g><text font-family="Aptos Narrow,Aptos Narrow_MSFontService,sans-serif" font-weight="700" font-stretch="semi-condensed" font-size="50" transform="matrix(1 0 0 1 2312 1384)">loads</text></g><text font-family="Aptos Narrow,Aptos Narrow_MSFontService,sans-serif" font-weight="700" font-stretch="semi-condensed" font-size="50" transform="matrix(1 0 0 1 2045.03 1384)">test</text><g><text font-family="Aptos Narrow,Aptos Narrow_MSFontService,sans-serif" font-weight="700" font-stretch="semi-condensed" font-size="50" transform="matrix(1 0 0 1 1765.44 1384)">core</text></g><g><text font-family="Aptos Narrow,Aptos Narrow_MSFontService,sans-serif" font-weight="700" font-stretch="semi-condensed" font-size="50" transform="matrix(1 0 0 1 1445.18 1384)">optimizations</text></g><text font-family="Aptos Narrow,Aptos Narrow_MSFontService,sans-serif" font-weight="400" font-stretch="semi-condensed" font-size="50" transform="matrix(1 0 0 1 2795.55 1464)">10547</text><g><text font-family="Aptos Narrow,Aptos Narrow_MSFontService,sans-serif" font-weight="400" font-stretch="semi-condensed" font-size="50" transform="matrix(1 0 0 1 2459.53 1464)">way_hammer</text></g><text font-family="Aptos Narrow,Aptos Narrow_MSFontService,sans-serif" font-weight="400" font-stretch="semi-condensed" font-size="50" transform="matrix(1 0 0 1 2356.69 1464)">2</text><text font-family="Aptos Narrow,Aptos Narrow_MSFontService,sans-serif" font-weight="400" font-stretch="semi-condensed" font-size="50" transform="matrix(1 0 0 1 1916.98 1464)">latency_loop_2ki</text><text font-family="Aptos Narrow,Aptos Narrow_MSFontService,sans-serif" font-weight="400" font-stretch="semi-condensed" font-size="50" transform="matrix(1 0 0 1 1799.82 1464)">1</text><text font-family="Aptos Narrow,Aptos Narrow_MSFontService,sans-serif" font-weight="400" font-stretch="semi-condensed" font-size="50" transform="matrix(1 0 0 1 1521.95 1464)">no</text><text font-family="Aptos Narrow,Aptos Narrow_MSFontService,sans-serif" font-weight="400" font-stretch="semi-condensed" font-size="50" transform="matrix(1 0 0 1 1572.94 1464)">-</text><text font-family="Aptos Narrow,Aptos Narrow_MSFontService,sans-serif" font-weight="400" font-stretch="semi-condensed" font-size="50" transform="matrix(1 0 0 1 1588.41 1464)">opt</text><text font-family="Aptos Narrow,Aptos Narrow_MSFontService,sans-serif" font-weight="400" font-stretch="semi-condensed" font-size="50" transform="matrix(1 0 0 1 2808.44 1545)">9220</text><g><text font-family="Aptos Narrow,Aptos Narrow_MSFontService,sans-serif" font-weight="400" font-stretch="semi-condensed" font-size="50" transform="matrix(1 0 0 1 2459.53 1545)">way_hammer</text></g><text font-family="Aptos Narrow,Aptos Narrow_MSFontService,sans-serif" font-weight="400" font-stretch="semi-condensed" font-size="50" transform="matrix(1 0 0 1 2356.69 1545)">2</text><text font-family="Aptos Narrow,Aptos Narrow_MSFontService,sans-serif" font-weight="400" font-stretch="semi-condensed" font-size="50" transform="matrix(1 0 0 1 1916.98 1545)">latency_loop_2ki</text><text font-family="Aptos Narrow,Aptos Narrow_MSFontService,sans-serif" font-weight="400" font-stretch="semi-condensed" font-size="50" transform="matrix(1 0 0 1 1799.82 1545)">1</text><text font-family="Aptos Narrow,Aptos Narrow_MSFontService,sans-serif" font-weight="400" font-stretch="semi-condensed" font-size="50" transform="matrix(1 0 0 1 1544.01 1545)">nl3a</text><text font-family="Aptos Narrow,Aptos Narrow_MSFontService,sans-serif" font-weight="400" font-stretch="semi-condensed" font-size="50" transform="matrix(1 0 0 1 2808.44 1625)">6932</text><g><text font-family="Aptos Narrow,Aptos Narrow_MSFontService,sans-serif" font-weight="400" font-stretch="semi-condensed" font-size="50" transform="matrix(1 0 0 1 2459.53 1625)">way_hammer</text></g><text font-family="Aptos Narrow,Aptos Narrow_MSFontService,sans-serif" font-weight="400" font-stretch="semi-condensed" font-size="50" transform="matrix(1 0 0 1 2356.69 1625)">2</text><text font-family="Aptos Narrow,Aptos Narrow_MSFontService,sans-serif" font-weight="400" font-stretch="semi-condensed" font-size="50" transform="matrix(1 0 0 1 1916.98 1625)">latency_loop_2ki</text><text font-family="Aptos Narrow,Aptos Narrow_MSFontService,sans-serif" font-weight="400" font-stretch="semi-condensed" font-size="50" transform="matrix(1 0 0 1 1799.82 1625)">1</text><text font-family="Aptos Narrow,Aptos Narrow_MSFontService,sans-serif" font-weight="400" font-stretch="semi-condensed" font-size="50" transform="matrix(1 0 0 1 1506.2 1625)">nl3a+cp</text><text font-family="Aptos Narrow,Aptos Narrow_MSFontService,sans-serif" font-weight="400" font-stretch="semi-condensed" font-size="50" transform="matrix(1 0 0 1 2808.44 1706)">3867</text><g><text font-family="Aptos Narrow,Aptos Narrow_MSFontService,sans-serif" font-weight="400" font-stretch="semi-condensed" font-size="50" transform="matrix(1 0 0 1 2459.53 1706)">way_hammer</text></g><text font-family="Aptos Narrow,Aptos Narrow_MSFontService,sans-serif" font-weight="400" font-stretch="semi-condensed" font-size="50" transform="matrix(1 0 0 1 2356.69 1706)">2</text><text font-family="Aptos Narrow,Aptos Narrow_MSFontService,sans-serif" font-weight="400" font-stretch="semi-condensed" font-size="50" transform="matrix(1 0 0 1 1916.98 1706)">latency_loop_2ki</text><text font-family="Aptos Narrow,Aptos Narrow_MSFontService,sans-serif" font-weight="400" font-stretch="semi-condensed" font-size="50" transform="matrix(1 0 0 1 1799.82 1706)">1</text><text font-family="Aptos Narrow,Aptos Narrow_MSFontService,sans-serif" font-weight="400" font-stretch="semi-condensed" font-size="50" transform="matrix(1 0 0 1 1456.64 1706)">nl3a+cp+qos</text></g></svg>