<svg width="1550" height="428" xmlns="http://www.w3.org/2000/svg" xmlns:xlink="http://www.w3.org/1999/xlink" xml:space="preserve" overflow="hidden"><g transform="translate(-1425 -1881)"><path d="M1425.42 1973.35 1750.83 1973.35 1750.83 2053.79 1425.42 2053.79Z" fill="#DAF2D0" fill-rule="evenodd"/><path d="M1750.83 1973.35 1874.58 1973.35 1874.58 2053.79 1750.83 2053.79Z" fill="#F2F2F2" fill-rule="evenodd"/><path d="M1874.58 1973.35 2296.25 1973.35 2296.25 2053.79 1874.58 2053.79Z" fill="#F2CEEF" fill-rule="evenodd"/><path d="M2442.92 1973.35 2745.42 1973.35 2745.42 2053.79 2442.92 2053.79Z" fill="#D9D9D9" fill-rule="evenodd"/><path d="M1425.42 2053.79 1750.83 2053.79 1750.83 2134.23 1425.42 2134.23Z" fill="#FBE2D5" fill-rule="evenodd"/><path d="M1750.83 2053.79 1874.58 2053.79 1874.58 2134.23 1750.83 2134.23Z" fill="#F2F2F2" fill-rule="evenodd"/><path d="M1874.58 2053.79 2296.25 2053.79 2296.25 2134.23 1874.58 2134.23Z" fill="#F2CEEF" fill-rule="evenodd"/><path d="M2442.92 2053.79 2745.42 2053.79 2745.42 2134.23 2442.92 2134.23Z" fill="#D9D9D9" fill-rule="evenodd"/><path d="M1425.42 2134.23 1750.83 2134.23 1750.83 2214.67 1425.42 2214.67Z" fill="#CAEDFB" fill-rule="evenodd"/><path d="M1750.83 2134.23 1874.58 2134.23 1874.58 2214.67 1750.83 2214.67Z" fill="#F2F2F2" fill-rule="evenodd"/><path d="M1874.58 2134.23 2296.25 2134.23 2296.25 2214.67 1874.58 2214.67Z" fill="#F2CEEF" fill-rule="evenodd"/><path d="M2442.92 2134.23 2745.42 2134.23 2745.42 2214.67 2442.92 2214.67Z" fill="#D9D9D9" fill-rule="evenodd"/><path d="M1425.42 2214.67 1750.83 2214.67 1750.83 2295.1 1425.42 2295.1Z" fill="#F2CEEF" fill-rule="evenodd"/><path d="M1750.83 2214.67 1874.58 2214.67 1874.58 2295.1 1750.83 2295.1Z" fill="#F2F2F2" fill-rule="evenodd"/><path d="M1874.58 2214.67 2296.25 2214.67 2296.25 2295.1 1874.58 2295.1Z" fill="#F2CEEF" fill-rule="evenodd"/><path d="M2442.92 2214.67 2745.42 2214.67 2745.42 2295.1 2442.92 2295.1Z" fill="#D9D9D9" fill-rule="evenodd"/><g><text font-family="Aptos Narrow,Aptos Narrow_MSFontService,sans-serif" font-weight="700" font-stretch="semi-condensed" font-size="50" transform="matrix(1 0 0 1 2761.46 1942)">delta (ns)</text></g><text font-family="Aptos Narrow,Aptos Narrow_MSFontService,sans-serif" font-weight="700" font-stretch="semi-condensed" font-size="50" transform="matrix(1 0 0 1 2548.05 1942)">load</text><g><text font-family="Aptos Narrow,Aptos Narrow_MSFontService,sans-serif" font-weight="700" font-stretch="semi-condensed" font-size="50" transform="matrix(1 0 0 1 2312 1942)">loads</text></g><text font-family="Aptos Narrow,Aptos Narrow_MSFontService,sans-serif" font-weight="700" font-stretch="semi-condensed" font-size="50" transform="matrix(1 0 0 1 2045.03 1942)">test</text><g><text font-family="Aptos Narrow,Aptos Narrow_MSFontService,sans-serif" font-weight="700" font-stretch="semi-condensed" font-size="50" transform="matrix(1 0 0 1 1765.44 1942)">core</text></g><g><text font-family="Aptos Narrow,Aptos Narrow_MSFontService,sans-serif" font-weight="700" font-stretch="semi-condensed" font-size="50" transform="matrix(1 0 0 1 1445.18 1942)">optimizations</text></g><text font-family="Aptos Narrow,Aptos Narrow_MSFontService,sans-serif" font-weight="400" font-stretch="semi-condensed" font-size="50" transform="matrix(1 0 0 1 2808.44 2023)">8557</text><text font-family="Aptos Narrow,Aptos Narrow_MSFontService,sans-serif" font-weight="400" font-stretch="semi-condensed" font-size="50" transform="matrix(1 0 0 1 2477.86 2023)">set_crawler</text><text font-family="Aptos Narrow,Aptos Narrow_MSFontService,sans-serif" font-weight="400" font-stretch="semi-condensed" font-size="50" transform="matrix(1 0 0 1 2356.69 2023)">2</text><text font-family="Aptos Narrow,Aptos Narrow_MSFontService,sans-serif" font-weight="400" font-stretch="semi-condensed" font-size="50" transform="matrix(1 0 0 1 1916.98 2023)">latency_loop_2ki</text><text font-family="Aptos Narrow,Aptos Narrow_MSFontService,sans-serif" font-weight="400" font-stretch="semi-condensed" font-size="50" transform="matrix(1 0 0 1 1799.82 2023)">1</text><text font-family="Aptos Narrow,Aptos Narrow_MSFontService,sans-serif" font-weight="400" font-stretch="semi-condensed" font-size="50" transform="matrix(1 0 0 1 1521.95 2023)">no</text><text font-family="Aptos Narrow,Aptos Narrow_MSFontService,sans-serif" font-weight="400" font-stretch="semi-condensed" font-size="50" transform="matrix(1 0 0 1 1572.94 2023)">-</text><text font-family="Aptos Narrow,Aptos Narrow_MSFontService,sans-serif" font-weight="400" font-stretch="semi-condensed" font-size="50" transform="matrix(1 0 0 1 1588.41 2023)">opt</text><text font-family="Aptos Narrow,Aptos Narrow_MSFontService,sans-serif" font-weight="400" font-stretch="semi-condensed" font-size="50" transform="matrix(1 0 0 1 2808.44 2103)">3750</text><text font-family="Aptos Narrow,Aptos Narrow_MSFontService,sans-serif" font-weight="400" font-stretch="semi-condensed" font-size="50" transform="matrix(1 0 0 1 2477.86 2103)">set_crawler</text><text font-family="Aptos Narrow,Aptos Narrow_MSFontService,sans-serif" font-weight="400" font-stretch="semi-condensed" font-size="50" transform="matrix(1 0 0 1 2356.69 2103)">2</text><text font-family="Aptos Narrow,Aptos Narrow_MSFontService,sans-serif" font-weight="400" font-stretch="semi-condensed" font-size="50" transform="matrix(1 0 0 1 1916.98 2103)">latency_loop_2ki</text><text font-family="Aptos Narrow,Aptos Narrow_MSFontService,sans-serif" font-weight="400" font-stretch="semi-condensed" font-size="50" transform="matrix(1 0 0 1 1799.82 2103)">1</text><text font-family="Aptos Narrow,Aptos Narrow_MSFontService,sans-serif" font-weight="400" font-stretch="semi-condensed" font-size="50" transform="matrix(1 0 0 1 1544.01 2103)">nl3a</text><text font-family="Aptos Narrow,Aptos Narrow_MSFontService,sans-serif" font-weight="400" font-stretch="semi-condensed" font-size="50" transform="matrix(1 0 0 1 2808.44 2184)">1185</text><text font-family="Aptos Narrow,Aptos Narrow_MSFontService,sans-serif" font-weight="400" font-stretch="semi-condensed" font-size="50" transform="matrix(1 0 0 1 2477.86 2184)">set_crawler</text><text font-family="Aptos Narrow,Aptos Narrow_MSFontService,sans-serif" font-weight="400" font-stretch="semi-condensed" font-size="50" transform="matrix(1 0 0 1 2356.69 2184)">2</text><text font-family="Aptos Narrow,Aptos Narrow_MSFontService,sans-serif" font-weight="400" font-stretch="semi-condensed" font-size="50" transform="matrix(1 0 0 1 1916.98 2184)">latency_loop_2ki</text><text font-family="Aptos Narrow,Aptos Narrow_MSFontService,sans-serif" font-weight="400" font-stretch="semi-condensed" font-size="50" transform="matrix(1 0 0 1 1799.82 2184)">1</text><text font-family="Aptos Narrow,Aptos Narrow_MSFontService,sans-serif" font-weight="400" font-stretch="semi-condensed" font-size="50" transform="matrix(1 0 0 1 1506.2 2184)">nl3a+cp</text><text font-family="Aptos Narrow,Aptos Narrow_MSFontService,sans-serif" font-weight="400" font-stretch="semi-condensed" font-size="50" transform="matrix(1 0 0 1 2821.33 2264)">600</text><text font-family="Aptos Narrow,Aptos Narrow_MSFontService,sans-serif" font-weight="400" font-stretch="semi-condensed" font-size="50" transform="matrix(1 0 0 1 2477.86 2264)">set_crawler</text><text font-family="Aptos Narrow,Aptos Narrow_MSFontService,sans-serif" font-weight="400" font-stretch="semi-condensed" font-size="50" transform="matrix(1 0 0 1 2356.69 2264)">2</text><text font-family="Aptos Narrow,Aptos Narrow_MSFontService,sans-serif" font-weight="400" font-stretch="semi-condensed" font-size="50" transform="matrix(1 0 0 1 1916.98 2264)">latency_loop_2ki</text><text font-family="Aptos Narrow,Aptos Narrow_MSFontService,sans-serif" font-weight="400" font-stretch="semi-condensed" font-size="50" transform="matrix(1 0 0 1 1799.82 2264)">1</text><text font-family="Aptos Narrow,Aptos Narrow_MSFontService,sans-serif" font-weight="400" font-stretch="semi-condensed" font-size="50" transform="matrix(1 0 0 1 1456.64 2264)">nl3a+cp+qos</text></g></svg>