<?xml version="1.0" encoding="UTF-8" standalone="no"?>
<!DOCTYPE svg PUBLIC "-//W3C//DTD SVG 1.1//EN" "http://www.w3.org/Graphics/SVG/1.1/DTD/svg11.dtd">
<!-- Generated by Microsoft Visio, SVG Export ATF_Linux_bootflow.svg Page-1 -->
<svg xmlns="http://www.w3.org/2000/svg" xmlns:xlink="http://www.w3.org/1999/xlink" xmlns:ev="http://www.w3.org/2001/xml-events"
		xmlns:v="http://schemas.microsoft.com/visio/2003/SVGExtensions/" width="5.01823in" height="1.65538in"
		viewBox="0 0 361.313 119.188" xml:space="preserve" color-interpolation-filters="sRGB" class="st10">
	<v:documentProperties v:langID="1033" v:viewMarkup="false">
		<v:userDefs>
			<v:ud v:nameU="msvSubprocessMaster" v:prompt="" v:val="VT4(Rectangle)"/>
			<v:ud v:nameU="msvNoAutoConnect" v:val="VT0(1):26"/>
		</v:userDefs>
	</v:documentProperties>

	<style type="text/css">
	<![CDATA[
		.st1 {fill:#002060;stroke:#ffffff;stroke-width:0.5}
		.st2 {fill:#feffff;font-family:Calibri;font-size:1.00001em;font-weight:bold}
		.st3 {font-size:1em}
		.st4 {fill:none;stroke:none;stroke-width:0.25}
		.st5 {fill:#000000;font-family:Calibri;font-size:0.833336em}
		.st6 {marker-end:url(#mrkr4-22);stroke:#002060;stroke-linecap:round;stroke-linejoin:round;stroke-width:2.75}
		.st7 {fill:#002060;fill-opacity:1;stroke:#002060;stroke-opacity:1;stroke-width:0.52182163187856}
		.st8 {marker-end:url(#mrkr2-42);stroke:#7f7f7f;stroke-dasharray:3,3;stroke-linecap:round;stroke-linejoin:round;stroke-width:1}
		.st9 {fill:#7f7f7f;fill-opacity:1;stroke:#7f7f7f;stroke-opacity:1;stroke-width:0.28409090909091}
		.st10 {fill:none;fill-rule:evenodd;font-size:12px;overflow:visible;stroke-linecap:square;stroke-miterlimit:3}
	]]>
	</style>

	<defs id="Markers">
		<g id="lend4">
			<path d="M 2 1 L 0 0 L 2 -1 L 2 1 " style="stroke:none"/>
		</g>
		<marker id="mrkr4-22" class="st7" v:arrowType="4" v:arrowSize="2" v:setback="3.83273" refX="-3.8327272727273" orient="auto"
				markerUnits="strokeWidth" overflow="visible">
			<use xlink:href="#lend4" transform="scale(-1.9163636363636,-1.9163636363636) "/>
		</marker>
		<g id="lend2">
			<path d="M 1 1 L 0 0 L 1 -1 L 1 1 " style="stroke:none"/>
		</g>
		<marker id="mrkr2-42" class="st9" v:arrowType="2" v:arrowSize="2" v:setback="3.52" refX="-3.52" orient="auto"
				markerUnits="strokeWidth" overflow="visible">
			<use xlink:href="#lend2" transform="scale(-3.52,-3.52) "/>
		</marker>
	</defs>
	<g v:mID="4" v:index="1" v:groupContext="foregroundPage">
		<v:userDefs>
			<v:ud v:nameU="msvThemeOrder" v:val="VT0(0):26"/>
		</v:userDefs>
		<title>Page-1</title>
		<v:pageProperties v:drawingScale="1" v:pageScale="1" v:drawingUnits="0" v:shadowOffsetX="9" v:shadowOffsetY="-9"/>
		<v:layer v:name="Connector" v:index="0"/>
		<g id="shape1000-1" v:mID="1000" v:groupContext="shape" transform="translate(72.8125,-18.5)">
			<title>Sheet.1000</title>
			<desc>ATF BL2</desc>
			<v:textBlock v:margins="rect(4,4,4,4)"/>
			<v:textRect cx="30.375" cy="101.188" width="60.75" height="36"/>
			<rect x="0" y="83.1875" width="60.75" height="36" class="st1"/>
			<text x="21.01" y="97.59" class="st2" v:langID="1033"><v:paragraph v:horizAlign="1"/><v:tabList/>ATF<v:newlineChar/><tspan
						x="21.43" dy="1.2em" class="st3">BL2</tspan></text>		</g>
		<g id="shape1001-5" v:mID="1001" v:groupContext="shape" transform="translate(177.437,-18.5)">
			<title>Sheet.1001</title>
			<desc>ATF BL31</desc>
			<v:textBlock v:margins="rect(4,4,4,4)"/>
			<v:textRect cx="30.375" cy="101.188" width="60.75" height="36"/>
			<rect x="0" y="83.1875" width="60.75" height="36" class="st1"/>
			<text x="21.01" y="97.59" class="st2" v:langID="1033"><v:paragraph v:horizAlign="1"/><v:tabList/>ATF<v:newlineChar/><tspan
						x="18.39" dy="1.2em" class="st3">BL31</tspan></text>		</g>
		<g id="shape1002-9" v:mID="1002" v:groupContext="shape" transform="translate(282.063,-18.5)">
			<title>Sheet.1002</title>
			<desc>Linux</desc>
			<v:textBlock v:margins="rect(4,4,4,4)"/>
			<v:textRect cx="30.375" cy="101.188" width="60.75" height="36"/>
			<rect x="0" y="83.1875" width="60.75" height="36" class="st1"/>
			<text x="17.17" y="104.79" class="st2" v:langID="1033"><v:paragraph v:horizAlign="1"/><v:tabList/>Linux</text>		</g>
		<g id="shape1003-12" v:mID="1003" v:groupContext="shape" transform="translate(18.25,-66.875)">
			<title>Sheet.1003</title>
			<desc>SDM loads BL2 from bitstream into OCRAM</desc>
			<v:textBlock v:margins="rect(4,4,4,4)"/>
			<v:textRect cx="39.9375" cy="102.875" width="79.88" height="32.625"/>
			<rect x="0" y="86.5625" width="79.875" height="32.625" class="st4"/>
			<text x="0.4em 0.859em 1.475em 2.33em 3.147em 3.376em 3.904em 4.383em 4.908em 5.299em 6.116em 6.66em 7.081em 7.587em"
					y="93.88" class="st5" v:langID="1033"><v:paragraph v:horizAlign="3"/><v:tabList/>SDM loads BL2 <tspan x="0.4em
							 0.705em 1.054em 1.581em 2.38em 3.648em 4.173em 4.402em 4.737em 5.128em 5.463em 5.812em 6.31em 6.789em
							 7.587em" dy="1.2em" class="st3">from bitstream </tspan><tspan x="0.4em 0.63em 1.155em 1.49em 2.017em
							 2.243em 2.905em 3.439em 3.982em 4.56em" dy="1.2em" class="st3">into OCRAM</tspan></text>		</g>
		<g id="shape1004-17" v:mID="1004" v:groupContext="shape" v:layerMember="0" transform="translate(133.562,-27.5)">
			<title>Dynamic connector.1004</title>
			<path d="M0 110.19 L33.34 110.19" class="st6"/>
		</g>
		<g id="shape1005-23" v:mID="1005" v:groupContext="shape" v:layerMember="0" transform="translate(238.187,-27.5)">
			<title>Dynamic connector.1005</title>
			<path d="M0 110.19 L33.34 110.19" class="st6"/>
		</g>
		<g id="shape1006-28" v:mID="1006" v:groupContext="shape" transform="translate(125.125,-66.875)">
			<title>Sheet.1006</title>
			<desc>BL2 loads BL31 from flash device into SDRAM</desc>
			<v:textBlock v:margins="rect(4,4,4,4)"/>
			<v:textRect cx="39.9375" cy="102.875" width="79.88" height="32.625"/>
			<rect x="0" y="86.5625" width="79.875" height="32.625" class="st4"/>
			<text x="0.4em 0.944em 1.364em 1.871em 2.664em 2.894em 3.421em 3.9em 4.425em 4.817em 5.609em 6.153em 6.574em 7.081em
						 7.587em" y="93.88" class="st5" v:langID="1033"><v:paragraph v:horizAlign="3"/><v:tabList/>BL2 loads BL31 <tspan
						x="0.4em 0.705em 1.054em 1.581em 2.38em 2.706em 3.012em 3.241em 3.72em 4.111em 4.637em 4.963em 5.488em 5.986em
							 6.438em 6.667em 7.09em 7.587em" dy="1.2em" class="st3">from flash device </tspan><tspan x="0.4em 0.63em
							 1.155em 1.49em 2.017em 2.243em 2.703em 3.318em 3.861em 4.44em" dy="1.2em" class="st3">into SDRAM</tspan></text>		</g>
		<g id="shape1007-33" v:mID="1007" v:groupContext="shape" transform="translate(232,-66.875)">
			<title>Sheet.1007</title>
			<desc>BL31 launches Linux</desc>
			<v:textBlock v:margins="rect(4,4,4,4)"/>
			<v:textRect cx="39.9375" cy="102.875" width="79.88" height="32.625"/>
			<rect x="0" y="86.5625" width="79.875" height="32.625" class="st4"/>
			<text x="0.4em 0.944em 1.364em 1.871em 2.378em 3.991em 4.221em 4.7em 5.225em 5.751em 6.173em 6.699em 7.196em 7.587em"
					y="99.88" class="st5" v:langID="1033"><v:paragraph v:horizAlign="3"/><v:tabList/>BL31 launches <tspan x="0.4em
							 0.82em 1.05em 1.575em 2.101em 2.534em" dy="1.2em" class="st3">Linux </tspan> </text>		</g>
		<g id="shape1008-37" v:mID="1008" v:groupContext="shape" transform="translate(133.466,-28.5908) rotate(45)">
			<title>Sheet.1008</title>
			<path d="M0 119.19 L19.81 119.19" class="st8"/>
		</g>
		<g id="shape1009-43" v:mID="1009" v:groupContext="shape" transform="translate(241.466,-27.0908) rotate(45)">
			<title>Sheet.1009</title>
			<path d="M0 119.19 L19.81 119.19" class="st8"/>
		</g>
		<g id="shape1010-48" v:mID="1010" v:groupContext="shape" transform="translate(345.866,-31.9658) rotate(45)">
			<title>Sheet.1010</title>
			<path d="M0 119.19 L19.81 119.19" class="st8"/>
		</g>
	</g>
</svg>
