<?xml version="1.0" encoding="UTF-8" standalone="no"?>
<!DOCTYPE svg PUBLIC "-//W3C//DTD SVG 1.1//EN" "http://www.w3.org/Graphics/SVG/1.1/DTD/svg11.dtd">
<!-- Generated by Microsoft Visio, SVG Export baremetal-build-flow-ocram.svg Page-1 -->
<svg xmlns="http://www.w3.org/2000/svg" xmlns:xlink="http://www.w3.org/1999/xlink" xmlns:ev="http://www.w3.org/2001/xml-events"
		width="12.0033in" height="1.95512in" viewBox="0 0 864.24 140.769" xml:space="preserve" color-interpolation-filters="sRGB"
		class="st10">
	<style type="text/css">
	<![CDATA[
		.st1 {fill:#fbd7bb;stroke:#000000;stroke-linecap:round;stroke-linejoin:round;stroke-width:0.24}
		.st2 {fill:#000000;font-family:Calibri;font-size:1.00001em}
		.st3 {font-size:1em}
		.st4 {fill:#ebf1df;stroke:#000000;stroke-linecap:round;stroke-linejoin:round;stroke-width:0.24}
		.st5 {marker-end:url(#mrkr13-14);stroke:#000000;stroke-linecap:round;stroke-linejoin:round;stroke-width:0.75}
		.st6 {fill:#000000;fill-opacity:1;stroke:#000000;stroke-opacity:1;stroke-width:0.22935779816514}
		.st7 {fill:#b7dde8;stroke:#000000;stroke-linecap:round;stroke-linejoin:round;stroke-width:0.24}
		.st8 {fill:#7e649e;stroke:#000000;stroke-linecap:round;stroke-linejoin:round;stroke-width:0.24}
		.st9 {fill:#ffffff;font-family:Calibri;font-size:1.00001em}
		.st10 {fill:none;fill-rule:evenodd;font-size:12px;overflow:visible;stroke-linecap:square;stroke-miterlimit:3}
	]]>
	</style>

	<defs id="Markers">
		<g id="lend13">
			<path d="M 3 1 L 0 0 L 3 -1 L 3 1 " style="stroke:none"/>
		</g>
		<marker id="mrkr13-14" class="st6" refX="-13.08" orient="auto" markerUnits="strokeWidth" overflow="visible">
			<use xlink:href="#lend13" transform="scale(-4.36,-4.36) "/>
		</marker>
	</defs>
	<g>
		<title>Page-1</title>
		<g id="shape54-1" transform="translate(0.12,-0.12)">
			<title>Rectangle.54</title>
			<desc>Baremetal Drivers Source</desc>
			<rect x="0" y="88.2109" width="92.6733" height="52.5578" class="st1"/>
			<text x="21.08" y="103.69" class="st2">Baremetal <tspan x="29.04" dy="1.2em" class="st3">Drivers</tspan><tspan
						x="29.65" dy="1.2em" class="st3">Source</tspan></text>		</g>
		<g id="shape55-6" transform="translate(133.008,-0.12)">
			<title>Rectangle.55</title>
			<desc>build</desc>
			<rect x="0" y="88.2109" width="92.6733" height="52.5578" rx="5" ry="5" class="st4"/>
			<text x="34.13" y="118.09" class="st2">build</text>		</g>
		<g id="shape56-9" transform="translate(92.7933,-17.3989)">
			<title>Dynamic connector.56</title>
			<path d="M0 131.77 L30.4 131.77" class="st5"/>
		</g>
		<g id="shape57-15" transform="translate(265.895,-0.12)">
			<title>Rectangle.57</title>
			<desc>Baremetal Library</desc>
			<rect x="0" y="88.2109" width="92.6733" height="52.5578" class="st7"/>
			<text x="21.08" y="110.89" class="st2">Baremetal <tspan x="29.51" dy="1.2em" class="st3">Library</tspan></text>		</g>
		<g id="shape58-19" transform="translate(0.12,-88.0909)">
			<title>Rectangle.58</title>
			<desc>Baremetal Application Source</desc>
			<rect x="0" y="88.2109" width="92.6733" height="52.5578" class="st1"/>
			<text x="21.08" y="103.69" class="st2">Baremetal <tspan x="18.69" dy="1.2em" class="st3">Application</tspan><tspan
						x="29.65" dy="1.2em" class="st3">Source</tspan></text>		</g>
		<g id="shape59-24" transform="translate(133.008,-88.0909)">
			<title>Rectangle.59</title>
			<desc>build</desc>
			<rect x="0" y="88.2109" width="92.6733" height="52.5578" rx="5" ry="5" class="st4"/>
			<text x="34.13" y="118.09" class="st2">build</text>		</g>
		<g id="shape60-27" transform="translate(225.681,-17.3989)">
			<title>Dynamic connector.60</title>
			<path d="M0 131.77 L30.4 131.77" class="st5"/>
		</g>
		<g id="shape61-32" transform="translate(92.7933,-105.37)">
			<title>Dynamic connector.61</title>
			<path d="M0 131.77 L30.4 131.77" class="st5"/>
		</g>
		<g id="shape62-37" transform="translate(312.232,-52.6778)">
			<title>Dynamic connector.62</title>
			<path d="M0 140.77 L0 123.11 L-132.89 123.11 L-132.89 115.17" class="st5"/>
		</g>
		<g id="shape63-42" transform="translate(266.547,-88.0909)">
			<title>Rectangle.63</title>
			<desc>hello.elf</desc>
			<rect x="0" y="88.2109" width="92.6733" height="52.5578" class="st7"/>
			<text x="26.57" y="118.09" class="st2">hello.elf</text>		</g>
		<g id="shape64-45" transform="translate(225.681,-105.37)">
			<title>Dynamic connector.64</title>
			<path d="M0 131.77 L31.06 131.77" class="st5"/>
		</g>
		<g id="shape65-50" transform="translate(388.507,-88.0909)">
			<title>Rectangle.65</title>
			<desc>objcopy</desc>
			<rect x="0" y="88.2109" width="92.6733" height="52.5578" rx="5" ry="5" class="st4"/>
			<text x="27.02" y="118.09" class="st2">objcopy</text>		</g>
		<g id="shape66-53" transform="translate(506.279,-88.0909)">
			<title>Rectangle.66</title>
			<desc>hello.hex</desc>
			<rect x="0" y="88.2109" width="92.6733" height="52.5578" class="st7"/>
			<text x="24.03" y="118.09" class="st2">hello.hex</text>		</g>
		<g id="shape67-56" transform="translate(359.221,-105.37)">
			<title>Dynamic connector.67</title>
			<path d="M0 131.77 L19.48 131.77" class="st5"/>
		</g>
		<g id="shape68-61" transform="translate(481.18,-105.37)">
			<title>Dynamic connector.68</title>
			<path d="M0 131.77 L15.29 131.77" class="st5"/>
		</g>
		<g id="shape73-66" transform="translate(653.666,-88.0909)">
			<title>Rectangle.73</title>
			<desc>Programming File Generator</desc>
			<rect x="0" y="88.2109" width="92.6733" height="52.5578" rx="5" ry="5" class="st4"/>
			<text x="13.25" y="110.89" class="st2">Programming <tspan x="11.34" dy="1.2em" class="st3">File Generator</tspan></text>		</g>
		<g id="shape74-70" transform="translate(771.447,-88.0909)">
			<title>Rectangle.74</title>
			<desc>QSPI Flash Image (jic)</desc>
			<rect x="0" y="88.2109" width="92.6733" height="52.5578" class="st8"/>
			<text x="4.72" y="110.89" class="st9">QSPI Flash Image<tspan x="37.35" dy="1.2em" class="st3">(jic)</tspan></text>		</g>
		<g id="shape78-74" transform="translate(746.339,-105.37)">
			<title>Dynamic connector.78</title>
			<path d="M0 131.77 L15.3 131.77" class="st5"/>
		</g>
		<g id="shape80-79" transform="translate(510.467,-0.12)">
			<title>Rectangle.80</title>
			<desc>Precompiled GHRD SOF</desc>
			<rect x="0" y="88.2109" width="92.6733" height="52.5578" class="st1"/>
			<text x="15.62" y="110.89" class="st2">Precompiled <tspan x="21.02" dy="1.2em" class="st3">GHRD SOF</tspan></text>		</g>
		<g id="shape82-83" transform="translate(603.14,-26.3989)">
			<title>Dynamic connector.82</title>
			<path d="M0 140.77 L13.48 140.77 L13.48 52.8 L40.72 52.8" class="st5"/>
		</g>
		<g id="shape1003-88" transform="translate(598.953,-123.37)">
			<title>Dynamic connector.1003</title>
			<path d="M0 149.77 L44.9 149.77" class="st5"/>
		</g>
	</g>
</svg>
