<svg width="1682" height="1902" xmlns="http://www.w3.org/2000/svg" xmlns:xlink="http://www.w3.org/1999/xlink" xml:space="preserve" overflow="hidden"><g transform="translate(-2666 -411)"><rect x="2668.5" y="413.5" width="1677" height="1650" stroke="#000000" stroke-width="4.58333" stroke-miterlimit="8" fill="#DFDFDF"/><text font-family="5,5_MSFontService,sans-serif" font-weight="400" font-size="50" transform="matrix(1 0 0 1 3309.45 477)">DynamIQ</text><text font-family="5,5_MSFontService,sans-serif" font-weight="400" font-size="50" transform="matrix(1 0 0 1 3538.62 477)">Cluster</text><rect x="2695.5" y="1238.5" width="1623" height="797" stroke="#000000" stroke-width="4.58333" stroke-miterlimit="8" fill="#F8F8F8"/><text font-family="5,5_MSFontService,sans-serif" font-weight="400" font-size="50" transform="matrix(1 0 0 1 3204.61 1302)">DynamIQ</text><text font-family="5,5_MSFontService,sans-serif" font-weight="400" font-size="50" transform="matrix(1 0 0 1 3433.78 1302)">Share Unit (DSU)</text><rect x="2695.5" y="523.5" width="385" height="412" stroke="#000000" stroke-width="4.58333" stroke-miterlimit="8" fill="#F8F8F8"/><text font-family="5,5_MSFontService,sans-serif" font-weight="400" font-size="50" transform="matrix(1 0 0 1 2737.68 587)">Core 0 </text><text font-family="5,5_MSFontService,sans-serif" font-weight="400" font-size="50" transform="matrix(1 0 0 1 2905.55 587)">–</text><text font-family="5,5_MSFontService,sans-serif" font-weight="400" font-size="50" transform="matrix(1 0 0 1 2949.09 587)">A55</text><rect x="2723" y="633" width="137" height="82.0002" fill="#BABABA"/><text fill="#191919" font-family="5,5_MSFontService,sans-serif" font-weight="400" font-size="37" transform="matrix(1 0 0 1 2765.75 687)">L1 I</text><rect x="2750" y="743" width="275" height="165" fill="#BABABA"/><text fill="#191919" font-family="5,5_MSFontService,sans-serif" font-weight="400" font-size="50" transform="matrix(1 0 0 1 2860.29 843)">L2</text><rect x="2915" y="633" width="138" height="82.0002" fill="#BABABA"/><text fill="#191919" font-family="5,5_MSFontService,sans-serif" font-weight="400" font-size="37" transform="matrix(1 0 0 1 2950.23 687)">L1 D</text><rect x="3520.5" y="523.5" width="385" height="660" stroke="#000000" stroke-width="4.58333" stroke-miterlimit="8" fill="#F8F8F8"/><text font-family="5,5_MSFontService,sans-serif" font-weight="400" font-size="50" transform="matrix(1 0 0 1 3565.83 587)">Core 2 </text><text font-family="5,5_MSFontService,sans-serif" font-weight="400" font-size="50" transform="matrix(1 0 0 1 3731.41 587)">–</text><text font-family="5,5_MSFontService,sans-serif" font-weight="400" font-size="50" transform="matrix(1 0 0 1 3774.95 587)">A76</text><rect x="3575" y="825" width="275" height="330" fill="#BABABA"/><text fill="#191919" font-family="5,5_MSFontService,sans-serif" font-weight="400" font-size="50" transform="matrix(1 0 0 1 3685.29 1008)">L2</text><rect x="3548" y="633" width="137" height="165" fill="#BABABA"/><text fill="#191919" font-family="5,5_MSFontService,sans-serif" font-weight="400" font-size="37" transform="matrix(1 0 0 1 3590.75 728)">L1 I</text><rect x="3740" y="633" width="138" height="165" fill="#BABABA"/><text fill="#191919" font-family="5,5_MSFontService,sans-serif" font-weight="400" font-size="37" transform="matrix(1 0 0 1 3775.23 728)">L1 D</text><rect x="3933.5" y="523.5" width="385" height="660" stroke="#000000" stroke-width="4.58333" stroke-miterlimit="8" fill="#F8F8F8"/><text font-family="5,5_MSFontService,sans-serif" font-weight="400" font-size="50" transform="matrix(1 0 0 1 3978.33 587)">Core 3 </text><text font-family="5,5_MSFontService,sans-serif" font-weight="400" font-size="50" transform="matrix(1 0 0 1 4143.91 587)">–</text><text font-family="5,5_MSFontService,sans-serif" font-weight="400" font-size="50" transform="matrix(1 0 0 1 4187.45 587)">A76</text><rect x="3988" y="825" width="275" height="330" fill="#BABABA"/><text fill="#191919" font-family="5,5_MSFontService,sans-serif" font-weight="400" font-size="50" transform="matrix(1 0 0 1 4097.79 1008)">L2</text><rect x="3960" y="633" width="138" height="165" fill="#BABABA"/><text fill="#191919" font-family="5,5_MSFontService,sans-serif" font-weight="400" font-size="37" transform="matrix(1 0 0 1 4003.25 728)">L1 I</text><rect x="4153" y="633" width="137" height="165" fill="#BABABA"/><text fill="#191919" font-family="5,5_MSFontService,sans-serif" font-weight="400" font-size="37" transform="matrix(1 0 0 1 4187.73 728)">L1 D</text><rect x="3108.5" y="523.5" width="385" height="412" stroke="#000000" stroke-width="4.58333" stroke-miterlimit="8" fill="#F8F8F8"/><text font-family="5,5_MSFontService,sans-serif" font-weight="400" font-size="50" transform="matrix(1 0 0 1 3156.2 587)">Core 1 </text><text font-family="5,5_MSFontService,sans-serif" font-weight="400" font-size="50" transform="matrix(1 0 0 1 3312.03 587)">–</text><text font-family="5,5_MSFontService,sans-serif" font-weight="400" font-size="50" transform="matrix(1 0 0 1 3355.57 587)">A55</text><rect x="3135" y="633" width="138" height="82.0002" fill="#BABABA"/><text fill="#191919" font-family="5,5_MSFontService,sans-serif" font-weight="400" font-size="37" transform="matrix(1 0 0 1 3178.25 687)">L1 I</text><rect x="3163" y="743" width="275" height="165" fill="#BABABA"/><text fill="#191919" font-family="5,5_MSFontService,sans-serif" font-weight="400" font-size="50" transform="matrix(1 0 0 1 3272.79 843)">L2</text><rect x="3328" y="633" width="137" height="82.0002" fill="#BABABA"/><text fill="#191919" font-family="5,5_MSFontService,sans-serif" font-weight="400" font-size="37" transform="matrix(1 0 0 1 3362.73 687)">L1 D</text><rect x="3190" y="1348" width="1100" height="660" fill="#BABABA"/><text fill="#191919" font-family="5,5_MSFontService,sans-serif" font-weight="400" font-size="50" transform="matrix(1 0 0 1 3712.79 1695)">L3</text><path d="M2755.23 1567.54C2751.07 1490.71 2772.46 1419.95 2803 1409.5 2815.38 1405.26 2827.96 1411.59 2838.74 1427.48 2850.15 1373.32 2876.84 1352.74 2898.33 1381.51 2902.09 1386.54 2905.54 1392.91 2908.57 1400.43 2917.47 1355.55 2939.13 1337.31 2956.95 1359.7 2961.89 1365.9 2966.19 1374.86 2969.54 1385.9 2983.87 1343.45 3009.2 1338.21 3026.11 1374.19 3033.21 1389.31 3038 1410.17 3039.66 1433.19 3063.14 1449.31 3077 1510.38 3070.6 1569.59 3070.06 1574.57 3069.39 1579.45 3068.58 1584.19 3087.42 1645.89 3082.81 1734.32 3058.28 1781.71 3050.65 1796.46 3041.63 1806.01 3032.11 1809.44 3031.89 1875.81 3010.32 1929.19 2983.92 1928.66 2975.1 1928.48 2966.47 1922.17 2958.98 1910.43 2950.05 1984.84 2918.9 2026.9 2889.41 2004.37 2877.05 1994.93 2866.37 1974.96 2859.19 1947.87 2828.99 1993.7 2789.8 1969.05 2771.65 1892.8 2771.42 1891.84 2771.19 1890.88 2770.97 1889.9 2751.21 1895.72 2733.31 1860.24 2730.99 1810.64 2729.75 1784.21 2733.22 1757.75 2740.47 1738.32 2723.35 1712.97 2717.61 1657.33 2727.63 1614.05 2733.41 1589.07 2743.55 1572.57 2754.93 1569.6Z" fill="#BABABA" fill-rule="evenodd"/><text font-family="5,5_MSFontService,sans-serif" font-weight="400" font-size="50" transform="matrix(1 0 0 1 2817.21 1650)">Snoop</text><text font-family="5,5_MSFontService,sans-serif" font-weight="400" font-size="50" transform="matrix(1 0 0 1 2831.83 1710)">Filter</text><rect x="3108.5" y="2173.5" width="797" height="137" stroke="#000000" stroke-width="4.58333" stroke-miterlimit="8" fill="#F8F8F8"/><text font-family="5,5_MSFontService,sans-serif" font-weight="400" font-size="50" transform="matrix(1 0 0 1 3315.47 2259)">External Memory</text><path d="M10.4475 20.469 350.222 830.7 347.052 832.029 7.2775 21.7984ZM-2.04519 30.6778 0 0 23.3152 20.0429ZM359.545 821.822 357.5 852.5 334.185 832.457Z" fill="#C00000" transform="matrix(1 0 0 -1 2943.5 1541)"/><path d="M3.99072 22.634 81.9301 802.028 78.5097 802.37 0.570281 22.976ZM-10.9454 28.7317 0 0 16.4181 25.9953ZM93.4454 796.268 82.5 825 66.0819 799.005Z" fill="#C00000" transform="matrix(1 0 0 -1 2805.5 1513.5)"/><path d="M15.8414 16.6475 729.318 888.674 726.657 890.851 13.1809 18.8242ZM6.77214 29.9908 0 0 28.056 12.5768ZM735.728 877.509 742.5 907.5 714.444 894.923Z" fill="#C00000" transform="matrix(1 0 0 -1 2970.5 1596)"/><path d="M18.3761 13.7953 1083.89 946.119 1081.63 948.706 16.1125 16.3823ZM11.6414 28.4568 0 0 29.7503 7.76097ZM1088.36 934.043 1100 962.5 1070.25 954.739Z" fill="#C00000" transform="matrix(1 0 0 -1 3025.5 1651)"/></g></svg>