<svg width="1551" height="2037" xmlns="http://www.w3.org/2000/svg" xmlns:xlink="http://www.w3.org/1999/xlink" xml:space="preserve" overflow="hidden"><g transform="translate(-2198 -372)"><path d="M2198.85 464.292 2524.27 464.292 2524.27 544.729 2198.85 544.729Z" fill="#DAF2D0" fill-rule="evenodd"/><path d="M2524.27 464.292 2648.02 464.292 2648.02 544.729 2524.27 544.729Z" fill="#F2F2F2" fill-rule="evenodd"/><path d="M2648.02 464.292 3069.69 464.292 3069.69 544.729 2648.02 544.729Z" fill="#DAF2D0" fill-rule="evenodd"/><path d="M3216.35 464.292 3518.85 464.292 3518.85 544.729 3216.35 544.729Z" fill="#F2F2F2" fill-rule="evenodd"/><path d="M2198.85 544.729 2524.27 544.729 2524.27 625.167 2198.85 625.167Z" fill="#DAF2D0" fill-rule="evenodd"/><path d="M2524.27 544.729 2648.02 544.729 2648.02 625.167 2524.27 625.167Z" fill="#D9D9D9" fill-rule="evenodd"/><path d="M2648.02 544.729 3069.69 544.729 3069.69 625.167 2648.02 625.167Z" fill="#DAF2D0" fill-rule="evenodd"/><path d="M3216.35 544.729 3518.85 544.729 3518.85 625.167 3216.35 625.167Z" fill="#F2F2F2" fill-rule="evenodd"/><path d="M2198.85 625.167 2524.27 625.167 2524.27 705.604 2198.85 705.604Z" fill="#F2CEEF" fill-rule="evenodd"/><path d="M2524.27 625.167 2648.02 625.167 2648.02 705.604 2524.27 705.604Z" fill="#F2F2F2" fill-rule="evenodd"/><path d="M2648.02 625.167 3069.69 625.167 3069.69 705.604 2648.02 705.604Z" fill="#DAF2D0" fill-rule="evenodd"/><path d="M3216.35 625.167 3518.85 625.167 3518.85 705.604 3216.35 705.604Z" fill="#F2F2F2" fill-rule="evenodd"/><path d="M2198.85 705.604 2524.27 705.604 2524.27 786.042 2198.85 786.042Z" fill="#F2CEEF" fill-rule="evenodd"/><path d="M2524.27 705.604 2648.02 705.604 2648.02 786.042 2524.27 786.042Z" fill="#D9D9D9" fill-rule="evenodd"/><path d="M2648.02 705.604 3069.69 705.604 3069.69 786.042 2648.02 786.042Z" fill="#DAF2D0" fill-rule="evenodd"/><path d="M3216.35 705.604 3518.85 705.604 3518.85 786.042 3216.35 786.042Z" fill="#F2F2F2" fill-rule="evenodd"/><path d="M2198.85 786.042 2524.27 786.042 2524.27 866.479 2198.85 866.479Z" fill="#DAF2D0" fill-rule="evenodd"/><path d="M2524.27 786.042 2648.02 786.042 2648.02 866.479 2524.27 866.479Z" fill="#F2F2F2" fill-rule="evenodd"/><path d="M2648.02 786.042 3069.69 786.042 3069.69 866.479 2648.02 866.479Z" fill="#DAF2D0" fill-rule="evenodd"/><path d="M3216.35 786.042 3518.85 786.042 3518.85 866.479 3216.35 866.479Z" fill="#D9D9D9" fill-rule="evenodd"/><path d="M2198.85 866.479 2524.27 866.479 2524.27 946.917 2198.85 946.917Z" fill="#DAF2D0" fill-rule="evenodd"/><path d="M2524.27 866.479 2648.02 866.479 2648.02 946.917 2524.27 946.917Z" fill="#D9D9D9" fill-rule="evenodd"/><path d="M2648.02 866.479 3069.69 866.479 3069.69 946.917 2648.02 946.917Z" fill="#DAF2D0" fill-rule="evenodd"/><path d="M3216.35 866.479 3518.85 866.479 3518.85 946.917 3216.35 946.917Z" fill="#D9D9D9" fill-rule="evenodd"/><path d="M2198.85 946.917 2524.27 946.917 2524.27 1027.35 2198.85 1027.35Z" fill="#F2CEEF" fill-rule="evenodd"/><path d="M2524.27 946.917 2648.02 946.917 2648.02 1027.35 2524.27 1027.35Z" fill="#F2F2F2" fill-rule="evenodd"/><path d="M2648.02 946.917 3069.69 946.917 3069.69 1027.35 2648.02 1027.35Z" fill="#DAF2D0" fill-rule="evenodd"/><path d="M3216.35 946.917 3518.85 946.917 3518.85 1027.35 3216.35 1027.35Z" fill="#D9D9D9" fill-rule="evenodd"/><path d="M2198.85 1027.35 2524.27 1027.35 2524.27 1107.79 2198.85 1107.79Z" fill="#F2CEEF" fill-rule="evenodd"/><path d="M2524.27 1027.35 2648.02 1027.35 2648.02 1107.79 2524.27 1107.79Z" fill="#D9D9D9" fill-rule="evenodd"/><path d="M2648.02 1027.35 3069.69 1027.35 3069.69 1107.79 2648.02 1107.79Z" fill="#DAF2D0" fill-rule="evenodd"/><path d="M3216.35 1027.35 3518.85 1027.35 3518.85 1107.79 3216.35 1107.79Z" fill="#D9D9D9" fill-rule="evenodd"/><path d="M2198.85 1107.79 2524.27 1107.79 2524.27 1188.23 2198.85 1188.23Z" fill="#DAF2D0" fill-rule="evenodd"/><path d="M2524.27 1107.79 2648.02 1107.79 2648.02 1188.23 2524.27 1188.23Z" fill="#F2F2F2" fill-rule="evenodd"/><path d="M2648.02 1107.79 3069.69 1107.79 3069.69 1188.23 2648.02 1188.23Z" fill="#F2CEEF" fill-rule="evenodd"/><path d="M3216.35 1107.79 3518.85 1107.79 3518.85 1188.23 3216.35 1188.23Z" fill="#F2F2F2" fill-rule="evenodd"/><path d="M2198.85 1188.23 2524.27 1188.23 2524.27 1268.67 2198.85 1268.67Z" fill="#DAF2D0" fill-rule="evenodd"/><path d="M2524.27 1188.23 2648.02 1188.23 2648.02 1268.67 2524.27 1268.67Z" fill="#D9D9D9" fill-rule="evenodd"/><path d="M2648.02 1188.23 3069.69 1188.23 3069.69 1268.67 2648.02 1268.67Z" fill="#F2CEEF" fill-rule="evenodd"/><path d="M3216.35 1188.23 3518.85 1188.23 3518.85 1268.67 3216.35 1268.67Z" fill="#F2F2F2" fill-rule="evenodd"/><path d="M2198.85 1268.67 2524.27 1268.67 2524.27 1349.1 2198.85 1349.1Z" fill="#F2CEEF" fill-rule="evenodd"/><path d="M2524.27 1268.67 2648.02 1268.67 2648.02 1349.1 2524.27 1349.1Z" fill="#F2F2F2" fill-rule="evenodd"/><path d="M2648.02 1268.67 3069.69 1268.67 3069.69 1349.1 2648.02 1349.1Z" fill="#F2CEEF" fill-rule="evenodd"/><path d="M3216.35 1268.67 3518.85 1268.67 3518.85 1349.1 3216.35 1349.1Z" fill="#F2F2F2" fill-rule="evenodd"/><path d="M2198.85 1349.1 2524.27 1349.1 2524.27 1429.54 2198.85 1429.54Z" fill="#F2CEEF" fill-rule="evenodd"/><path d="M2524.27 1349.1 2648.02 1349.1 2648.02 1429.54 2524.27 1429.54Z" fill="#D9D9D9" fill-rule="evenodd"/><path d="M2648.02 1349.1 3069.69 1349.1 3069.69 1429.54 2648.02 1429.54Z" fill="#F2CEEF" fill-rule="evenodd"/><path d="M3216.35 1349.1 3518.85 1349.1 3518.85 1429.54 3216.35 1429.54Z" fill="#F2F2F2" fill-rule="evenodd"/><path d="M2198.85 1429.54 2524.27 1429.54 2524.27 1509.98 2198.85 1509.98Z" fill="#DAF2D0" fill-rule="evenodd"/><path d="M2524.27 1429.54 2648.02 1429.54 2648.02 1509.98 2524.27 1509.98Z" fill="#F2F2F2" fill-rule="evenodd"/><path d="M2648.02 1429.54 3069.69 1429.54 3069.69 1509.98 2648.02 1509.98Z" fill="#F2CEEF" fill-rule="evenodd"/><path d="M3216.35 1429.54 3518.85 1429.54 3518.85 1509.98 3216.35 1509.98Z" fill="#D9D9D9" fill-rule="evenodd"/><path d="M2198.85 1509.98 2524.27 1509.98 2524.27 1590.42 2198.85 1590.42Z" fill="#DAF2D0" fill-rule="evenodd"/><path d="M2524.27 1509.98 2648.02 1509.98 2648.02 1590.42 2524.27 1590.42Z" fill="#D9D9D9" fill-rule="evenodd"/><path d="M2648.02 1509.98 3069.69 1509.98 3069.69 1590.42 2648.02 1590.42Z" fill="#F2CEEF" fill-rule="evenodd"/><path d="M3216.35 1509.98 3518.85 1509.98 3518.85 1590.42 3216.35 1590.42Z" fill="#D9D9D9" fill-rule="evenodd"/><path d="M2198.85 1590.42 2524.27 1590.42 2524.27 1670.85 2198.85 1670.85Z" fill="#F2CEEF" fill-rule="evenodd"/><path d="M2524.27 1590.42 2648.02 1590.42 2648.02 1670.85 2524.27 1670.85Z" fill="#F2F2F2" fill-rule="evenodd"/><path d="M2648.02 1590.42 3069.69 1590.42 3069.69 1670.85 2648.02 1670.85Z" fill="#F2CEEF" fill-rule="evenodd"/><path d="M3216.35 1590.42 3518.85 1590.42 3518.85 1670.85 3216.35 1670.85Z" fill="#D9D9D9" fill-rule="evenodd"/><path d="M2198.85 1670.85 2524.27 1670.85 2524.27 1751.29 2198.85 1751.29Z" fill="#F2CEEF" fill-rule="evenodd"/><path d="M2524.27 1670.85 2648.02 1670.85 2648.02 1751.29 2524.27 1751.29Z" fill="#D9D9D9" fill-rule="evenodd"/><path d="M2648.02 1670.85 3069.69 1670.85 3069.69 1751.29 2648.02 1751.29Z" fill="#F2CEEF" fill-rule="evenodd"/><path d="M3216.35 1670.85 3518.85 1670.85 3518.85 1751.29 3216.35 1751.29Z" fill="#D9D9D9" fill-rule="evenodd"/><path d="M2198.85 1751.29 2524.27 1751.29 2524.27 1831.73 2198.85 1831.73Z" fill="#DAF2D0" fill-rule="evenodd"/><path d="M2524.27 1751.29 2648.02 1751.29 2648.02 1831.73 2524.27 1831.73Z" fill="#F2F2F2" fill-rule="evenodd"/><path d="M2648.02 1751.29 3069.69 1751.29 3069.69 1831.73 2648.02 1831.73Z" fill="#CAEDFB" fill-rule="evenodd"/><path d="M3216.35 1751.29 3518.85 1751.29 3518.85 1831.73 3216.35 1831.73Z" fill="#F2F2F2" fill-rule="evenodd"/><path d="M2198.85 1831.73 2524.27 1831.73 2524.27 1912.17 2198.85 1912.17Z" fill="#DAF2D0" fill-rule="evenodd"/><path d="M2524.27 1831.73 2648.02 1831.73 2648.02 1912.17 2524.27 1912.17Z" fill="#D9D9D9" fill-rule="evenodd"/><path d="M2648.02 1831.73 3069.69 1831.73 3069.69 1912.17 2648.02 1912.17Z" fill="#CAEDFB" fill-rule="evenodd"/><path d="M3216.35 1831.73 3518.85 1831.73 3518.85 1912.17 3216.35 1912.17Z" fill="#F2F2F2" fill-rule="evenodd"/><path d="M2198.85 1912.17 2524.27 1912.17 2524.27 1992.6 2198.85 1992.6Z" fill="#F2CEEF" fill-rule="evenodd"/><path d="M2524.27 1912.17 2648.02 1912.17 2648.02 1992.6 2524.27 1992.6Z" fill="#F2F2F2" fill-rule="evenodd"/><path d="M2648.02 1912.17 3069.69 1912.17 3069.69 1992.6 2648.02 1992.6Z" fill="#CAEDFB" fill-rule="evenodd"/><path d="M3216.35 1912.17 3518.85 1912.17 3518.85 1992.6 3216.35 1992.6Z" fill="#F2F2F2" fill-rule="evenodd"/><path d="M2198.85 1992.6 2524.27 1992.6 2524.27 2073.04 2198.85 2073.04Z" fill="#F2CEEF" fill-rule="evenodd"/><path d="M2524.27 1992.6 2648.02 1992.6 2648.02 2073.04 2524.27 2073.04Z" fill="#D9D9D9" fill-rule="evenodd"/><path d="M2648.02 1992.6 3069.69 1992.6 3069.69 2073.04 2648.02 2073.04Z" fill="#CAEDFB" fill-rule="evenodd"/><path d="M3216.35 1992.6 3518.85 1992.6 3518.85 2073.04 3216.35 2073.04Z" fill="#F2F2F2" fill-rule="evenodd"/><path d="M2198.85 2073.04 2524.27 2073.04 2524.27 2153.48 2198.85 2153.48Z" fill="#DAF2D0" fill-rule="evenodd"/><path d="M2524.27 2073.04 2648.02 2073.04 2648.02 2153.48 2524.27 2153.48Z" fill="#F2F2F2" fill-rule="evenodd"/><path d="M2648.02 2073.04 3069.69 2073.04 3069.69 2153.48 2648.02 2153.48Z" fill="#CAEDFB" fill-rule="evenodd"/><path d="M3216.35 2073.04 3518.85 2073.04 3518.85 2153.48 3216.35 2153.48Z" fill="#D9D9D9" fill-rule="evenodd"/><path d="M2198.85 2153.48 2524.27 2153.48 2524.27 2233.92 2198.85 2233.92Z" fill="#DAF2D0" fill-rule="evenodd"/><path d="M2524.27 2153.48 2648.02 2153.48 2648.02 2233.92 2524.27 2233.92Z" fill="#D9D9D9" fill-rule="evenodd"/><path d="M2648.02 2153.48 3069.69 2153.48 3069.69 2233.92 2648.02 2233.92Z" fill="#CAEDFB" fill-rule="evenodd"/><path d="M3216.35 2153.48 3518.85 2153.48 3518.85 2233.92 3216.35 2233.92Z" fill="#D9D9D9" fill-rule="evenodd"/><path d="M2198.85 2233.92 2524.27 2233.92 2524.27 2314.35 2198.85 2314.35Z" fill="#F2CEEF" fill-rule="evenodd"/><path d="M2524.27 2233.92 2648.02 2233.92 2648.02 2314.35 2524.27 2314.35Z" fill="#F2F2F2" fill-rule="evenodd"/><path d="M2648.02 2233.92 3069.69 2233.92 3069.69 2314.35 2648.02 2314.35Z" fill="#CAEDFB" fill-rule="evenodd"/><path d="M3216.35 2233.92 3518.85 2233.92 3518.85 2314.35 3216.35 2314.35Z" fill="#D9D9D9" fill-rule="evenodd"/><path d="M2198.85 2314.35 2524.27 2314.35 2524.27 2394.79 2198.85 2394.79Z" fill="#F2CEEF" fill-rule="evenodd"/><path d="M2524.27 2314.35 2648.02 2314.35 2648.02 2394.79 2524.27 2394.79Z" fill="#D9D9D9" fill-rule="evenodd"/><path d="M2648.02 2314.35 3069.69 2314.35 3069.69 2394.79 2648.02 2394.79Z" fill="#CAEDFB" fill-rule="evenodd"/><path d="M3216.35 2314.35 3518.85 2314.35 3518.85 2394.79 3216.35 2394.79Z" fill="#D9D9D9" fill-rule="evenodd"/><g><text font-family="Aptos Narrow,Aptos Narrow_MSFontService,sans-serif" font-weight="700" font-stretch="semi-condensed" font-size="50" transform="matrix(1 0 0 1 3534.9 433)">delta (ns)</text></g><text font-family="Aptos Narrow,Aptos Narrow_MSFontService,sans-serif" font-weight="700" font-stretch="semi-condensed" font-size="50" transform="matrix(1 0 0 1 3321.48 433)">load</text><g><text font-family="Aptos Narrow,Aptos Narrow_MSFontService,sans-serif" font-weight="700" font-stretch="semi-condensed" font-size="50" transform="matrix(1 0 0 1 3085.44 433)">loads</text></g><text font-family="Aptos Narrow,Aptos Narrow_MSFontService,sans-serif" font-weight="700" font-stretch="semi-condensed" font-size="50" transform="matrix(1 0 0 1 2818.46 433)">test</text><g><text font-family="Aptos Narrow,Aptos Narrow_MSFontService,sans-serif" font-weight="700" font-stretch="semi-condensed" font-size="50" transform="matrix(1 0 0 1 2538.88 433)">core</text></g><g><text font-family="Aptos Narrow,Aptos Narrow_MSFontService,sans-serif" font-weight="700" font-stretch="semi-condensed" font-size="50" transform="matrix(1 0 0 1 2218.62 433)">optimizations</text></g><text font-family="Aptos Narrow,Aptos Narrow_MSFontService,sans-serif" font-weight="400" font-stretch="semi-condensed" font-size="50" transform="matrix(1 0 0 1 3568.98 514)">10723</text><g><text font-family="Aptos Narrow,Aptos Narrow_MSFontService,sans-serif" font-weight="400" font-stretch="semi-condensed" font-size="50" transform="matrix(1 0 0 1 3232.97 514)">way_hammer</text></g><text font-family="Aptos Narrow,Aptos Narrow_MSFontService,sans-serif" font-weight="400" font-stretch="semi-condensed" font-size="50" transform="matrix(1 0 0 1 3130.13 514)">2</text><text font-family="Aptos Narrow,Aptos Narrow_MSFontService,sans-serif" font-weight="400" font-stretch="semi-condensed" font-size="50" transform="matrix(1 0 0 1 2730.81 514)">latency_loop</text><text font-family="Aptos Narrow,Aptos Narrow_MSFontService,sans-serif" font-weight="400" font-stretch="semi-condensed" font-size="50" transform="matrix(1 0 0 1 2573.25 514)">1</text><text font-family="Aptos Narrow,Aptos Narrow_MSFontService,sans-serif" font-weight="400" font-stretch="semi-condensed" font-size="50" transform="matrix(1 0 0 1 2295.39 514)">no</text><text font-family="Aptos Narrow,Aptos Narrow_MSFontService,sans-serif" font-weight="400" font-stretch="semi-condensed" font-size="50" transform="matrix(1 0 0 1 2346.38 514)">-</text><text font-family="Aptos Narrow,Aptos Narrow_MSFontService,sans-serif" font-weight="400" font-stretch="semi-condensed" font-size="50" transform="matrix(1 0 0 1 2361.85 514)">opt</text><text font-family="Aptos Narrow,Aptos Narrow_MSFontService,sans-serif" font-weight="400" font-stretch="semi-condensed" font-size="50" transform="matrix(1 0 0 1 3581.87 594)">4235</text><g><text font-family="Aptos Narrow,Aptos Narrow_MSFontService,sans-serif" font-weight="400" font-stretch="semi-condensed" font-size="50" transform="matrix(1 0 0 1 3232.97 594)">way_hammer</text></g><text font-family="Aptos Narrow,Aptos Narrow_MSFontService,sans-serif" font-weight="400" font-stretch="semi-condensed" font-size="50" transform="matrix(1 0 0 1 3130.13 594)">2</text><text font-family="Aptos Narrow,Aptos Narrow_MSFontService,sans-serif" font-weight="400" font-stretch="semi-condensed" font-size="50" transform="matrix(1 0 0 1 2730.81 594)">latency_loop</text><text font-family="Aptos Narrow,Aptos Narrow_MSFontService,sans-serif" font-weight="400" font-stretch="semi-condensed" font-size="50" transform="matrix(1 0 0 1 2573.25 594)">3</text><text font-family="Aptos Narrow,Aptos Narrow_MSFontService,sans-serif" font-weight="400" font-stretch="semi-condensed" font-size="50" transform="matrix(1 0 0 1 2295.39 594)">no</text><text font-family="Aptos Narrow,Aptos Narrow_MSFontService,sans-serif" font-weight="400" font-stretch="semi-condensed" font-size="50" transform="matrix(1 0 0 1 2346.38 594)">-</text><text font-family="Aptos Narrow,Aptos Narrow_MSFontService,sans-serif" font-weight="400" font-stretch="semi-condensed" font-size="50" transform="matrix(1 0 0 1 2361.85 594)">opt</text><text font-family="Aptos Narrow,Aptos Narrow_MSFontService,sans-serif" font-weight="400" font-stretch="semi-condensed" font-size="50" transform="matrix(1 0 0 1 3581.87 675)">4180</text><g><text font-family="Aptos Narrow,Aptos Narrow_MSFontService,sans-serif" font-weight="400" font-stretch="semi-condensed" font-size="50" transform="matrix(1 0 0 1 3232.97 675)">way_hammer</text></g><text font-family="Aptos Narrow,Aptos Narrow_MSFontService,sans-serif" font-weight="400" font-stretch="semi-condensed" font-size="50" transform="matrix(1 0 0 1 3130.13 675)">2</text><text font-family="Aptos Narrow,Aptos Narrow_MSFontService,sans-serif" font-weight="400" font-stretch="semi-condensed" font-size="50" transform="matrix(1 0 0 1 2730.81 675)">latency_loop</text><text font-family="Aptos Narrow,Aptos Narrow_MSFontService,sans-serif" font-weight="400" font-stretch="semi-condensed" font-size="50" transform="matrix(1 0 0 1 2573.25 675)">1</text><text font-family="Aptos Narrow,Aptos Narrow_MSFontService,sans-serif" font-weight="400" font-stretch="semi-condensed" font-size="50" transform="matrix(1 0 0 1 2230.08 675)">nl3a+cp+qos</text><text font-family="Aptos Narrow,Aptos Narrow_MSFontService,sans-serif" font-weight="400" font-stretch="semi-condensed" font-size="50" transform="matrix(1 0 0 1 3581.87 755)">2867</text><g><text font-family="Aptos Narrow,Aptos Narrow_MSFontService,sans-serif" font-weight="400" font-stretch="semi-condensed" font-size="50" transform="matrix(1 0 0 1 3232.97 755)">way_hammer</text></g><text font-family="Aptos Narrow,Aptos Narrow_MSFontService,sans-serif" font-weight="400" font-stretch="semi-condensed" font-size="50" transform="matrix(1 0 0 1 3130.13 755)">2</text><text font-family="Aptos Narrow,Aptos Narrow_MSFontService,sans-serif" font-weight="400" font-stretch="semi-condensed" font-size="50" transform="matrix(1 0 0 1 2730.81 755)">latency_loop</text><text font-family="Aptos Narrow,Aptos Narrow_MSFontService,sans-serif" font-weight="400" font-stretch="semi-condensed" font-size="50" transform="matrix(1 0 0 1 2573.25 755)">3</text><text font-family="Aptos Narrow,Aptos Narrow_MSFontService,sans-serif" font-weight="400" font-stretch="semi-condensed" font-size="50" transform="matrix(1 0 0 1 2230.08 755)">nl3a+cp+qos</text><text font-family="Aptos Narrow,Aptos Narrow_MSFontService,sans-serif" font-weight="400" font-stretch="semi-condensed" font-size="50" transform="matrix(1 0 0 1 3568.98 835)">12450</text><text font-family="Aptos Narrow,Aptos Narrow_MSFontService,sans-serif" font-weight="400" font-stretch="semi-condensed" font-size="50" transform="matrix(1 0 0 1 3251.3 835)">set_crawler</text><text font-family="Aptos Narrow,Aptos Narrow_MSFontService,sans-serif" font-weight="400" font-stretch="semi-condensed" font-size="50" transform="matrix(1 0 0 1 3130.13 835)">2</text><text font-family="Aptos Narrow,Aptos Narrow_MSFontService,sans-serif" font-weight="400" font-stretch="semi-condensed" font-size="50" transform="matrix(1 0 0 1 2730.81 835)">latency_loop</text><text font-family="Aptos Narrow,Aptos Narrow_MSFontService,sans-serif" font-weight="400" font-stretch="semi-condensed" font-size="50" transform="matrix(1 0 0 1 2573.25 835)">1</text><text font-family="Aptos Narrow,Aptos Narrow_MSFontService,sans-serif" font-weight="400" font-stretch="semi-condensed" font-size="50" transform="matrix(1 0 0 1 2295.39 835)">no</text><text font-family="Aptos Narrow,Aptos Narrow_MSFontService,sans-serif" font-weight="400" font-stretch="semi-condensed" font-size="50" transform="matrix(1 0 0 1 2346.38 835)">-</text><text font-family="Aptos Narrow,Aptos Narrow_MSFontService,sans-serif" font-weight="400" font-stretch="semi-condensed" font-size="50" transform="matrix(1 0 0 1 2361.85 835)">opt</text><text font-family="Aptos Narrow,Aptos Narrow_MSFontService,sans-serif" font-weight="400" font-stretch="semi-condensed" font-size="50" transform="matrix(1 0 0 1 3581.87 916)">9003</text><text font-family="Aptos Narrow,Aptos Narrow_MSFontService,sans-serif" font-weight="400" font-stretch="semi-condensed" font-size="50" transform="matrix(1 0 0 1 3251.3 916)">set_crawler</text><text font-family="Aptos Narrow,Aptos Narrow_MSFontService,sans-serif" font-weight="400" font-stretch="semi-condensed" font-size="50" transform="matrix(1 0 0 1 3130.13 916)">2</text><text font-family="Aptos Narrow,Aptos Narrow_MSFontService,sans-serif" font-weight="400" font-stretch="semi-condensed" font-size="50" transform="matrix(1 0 0 1 2730.81 916)">latency_loop</text><text font-family="Aptos Narrow,Aptos Narrow_MSFontService,sans-serif" font-weight="400" font-stretch="semi-condensed" font-size="50" transform="matrix(1 0 0 1 2573.25 916)">3</text><text font-family="Aptos Narrow,Aptos Narrow_MSFontService,sans-serif" font-weight="400" font-stretch="semi-condensed" font-size="50" transform="matrix(1 0 0 1 2295.39 916)">no</text><text font-family="Aptos Narrow,Aptos Narrow_MSFontService,sans-serif" font-weight="400" font-stretch="semi-condensed" font-size="50" transform="matrix(1 0 0 1 2346.38 916)">-</text><text font-family="Aptos Narrow,Aptos Narrow_MSFontService,sans-serif" font-weight="400" font-stretch="semi-condensed" font-size="50" transform="matrix(1 0 0 1 2361.85 916)">opt</text><text font-family="Aptos Narrow,Aptos Narrow_MSFontService,sans-serif" font-weight="400" font-stretch="semi-condensed" font-size="50" transform="matrix(1 0 0 1 3607.66 996)">85</text><text font-family="Aptos Narrow,Aptos Narrow_MSFontService,sans-serif" font-weight="400" font-stretch="semi-condensed" font-size="50" transform="matrix(1 0 0 1 3251.3 996)">set_crawler</text><text font-family="Aptos Narrow,Aptos Narrow_MSFontService,sans-serif" font-weight="400" font-stretch="semi-condensed" font-size="50" transform="matrix(1 0 0 1 3130.13 996)">2</text><text font-family="Aptos Narrow,Aptos Narrow_MSFontService,sans-serif" font-weight="400" font-stretch="semi-condensed" font-size="50" transform="matrix(1 0 0 1 2730.81 996)">latency_loop</text><text font-family="Aptos Narrow,Aptos Narrow_MSFontService,sans-serif" font-weight="400" font-stretch="semi-condensed" font-size="50" transform="matrix(1 0 0 1 2573.25 996)">1</text><text font-family="Aptos Narrow,Aptos Narrow_MSFontService,sans-serif" font-weight="400" font-stretch="semi-condensed" font-size="50" transform="matrix(1 0 0 1 2230.08 996)">nl3a+cp+qos</text><text font-family="Aptos Narrow,Aptos Narrow_MSFontService,sans-serif" font-weight="400" font-stretch="semi-condensed" font-size="50" transform="matrix(1 0 0 1 3607.66 1077)">15</text><text font-family="Aptos Narrow,Aptos Narrow_MSFontService,sans-serif" font-weight="400" font-stretch="semi-condensed" font-size="50" transform="matrix(1 0 0 1 3251.3 1077)">set_crawler</text><text font-family="Aptos Narrow,Aptos Narrow_MSFontService,sans-serif" font-weight="400" font-stretch="semi-condensed" font-size="50" transform="matrix(1 0 0 1 3130.13 1077)">2</text><text font-family="Aptos Narrow,Aptos Narrow_MSFontService,sans-serif" font-weight="400" font-stretch="semi-condensed" font-size="50" transform="matrix(1 0 0 1 2730.81 1077)">latency_loop</text><text font-family="Aptos Narrow,Aptos Narrow_MSFontService,sans-serif" font-weight="400" font-stretch="semi-condensed" font-size="50" transform="matrix(1 0 0 1 2573.25 1077)">3</text><text font-family="Aptos Narrow,Aptos Narrow_MSFontService,sans-serif" font-weight="400" font-stretch="semi-condensed" font-size="50" transform="matrix(1 0 0 1 2230.08 1077)">nl3a+cp+qos</text><text font-family="Aptos Narrow,Aptos Narrow_MSFontService,sans-serif" font-weight="400" font-stretch="semi-condensed" font-size="50" transform="matrix(1 0 0 1 3568.98 1157)">10547</text><g><text font-family="Aptos Narrow,Aptos Narrow_MSFontService,sans-serif" font-weight="400" font-stretch="semi-condensed" font-size="50" transform="matrix(1 0 0 1 3232.97 1157)">way_hammer</text></g><text font-family="Aptos Narrow,Aptos Narrow_MSFontService,sans-serif" font-weight="400" font-stretch="semi-condensed" font-size="50" transform="matrix(1 0 0 1 3130.13 1157)">2</text><text font-family="Aptos Narrow,Aptos Narrow_MSFontService,sans-serif" font-weight="400" font-stretch="semi-condensed" font-size="50" transform="matrix(1 0 0 1 2690.42 1157)">latency_loop_2ki</text><text font-family="Aptos Narrow,Aptos Narrow_MSFontService,sans-serif" font-weight="400" font-stretch="semi-condensed" font-size="50" transform="matrix(1 0 0 1 2573.25 1157)">1</text><text font-family="Aptos Narrow,Aptos Narrow_MSFontService,sans-serif" font-weight="400" font-stretch="semi-condensed" font-size="50" transform="matrix(1 0 0 1 2295.39 1157)">no</text><text font-family="Aptos Narrow,Aptos Narrow_MSFontService,sans-serif" font-weight="400" font-stretch="semi-condensed" font-size="50" transform="matrix(1 0 0 1 2346.38 1157)">-</text><text font-family="Aptos Narrow,Aptos Narrow_MSFontService,sans-serif" font-weight="400" font-stretch="semi-condensed" font-size="50" transform="matrix(1 0 0 1 2361.85 1157)">opt</text><text font-family="Aptos Narrow,Aptos Narrow_MSFontService,sans-serif" font-weight="400" font-stretch="semi-condensed" font-size="50" transform="matrix(1 0 0 1 3581.87 1238)">4753</text><g><text font-family="Aptos Narrow,Aptos Narrow_MSFontService,sans-serif" font-weight="400" font-stretch="semi-condensed" font-size="50" transform="matrix(1 0 0 1 3232.97 1238)">way_hammer</text></g><text font-family="Aptos Narrow,Aptos Narrow_MSFontService,sans-serif" font-weight="400" font-stretch="semi-condensed" font-size="50" transform="matrix(1 0 0 1 3130.13 1238)">2</text><text font-family="Aptos Narrow,Aptos Narrow_MSFontService,sans-serif" font-weight="400" font-stretch="semi-condensed" font-size="50" transform="matrix(1 0 0 1 2690.42 1238)">latency_loop_2ki</text><text font-family="Aptos Narrow,Aptos Narrow_MSFontService,sans-serif" font-weight="400" font-stretch="semi-condensed" font-size="50" transform="matrix(1 0 0 1 2573.25 1238)">3</text><text font-family="Aptos Narrow,Aptos Narrow_MSFontService,sans-serif" font-weight="400" font-stretch="semi-condensed" font-size="50" transform="matrix(1 0 0 1 2295.39 1238)">no</text><text font-family="Aptos Narrow,Aptos Narrow_MSFontService,sans-serif" font-weight="400" font-stretch="semi-condensed" font-size="50" transform="matrix(1 0 0 1 2346.38 1238)">-</text><text font-family="Aptos Narrow,Aptos Narrow_MSFontService,sans-serif" font-weight="400" font-stretch="semi-condensed" font-size="50" transform="matrix(1 0 0 1 2361.85 1238)">opt</text><text font-family="Aptos Narrow,Aptos Narrow_MSFontService,sans-serif" font-weight="400" font-stretch="semi-condensed" font-size="50" transform="matrix(1 0 0 1 3581.87 1318)">3867</text><g><text font-family="Aptos Narrow,Aptos Narrow_MSFontService,sans-serif" font-weight="400" font-stretch="semi-condensed" font-size="50" transform="matrix(1 0 0 1 3232.97 1318)">way_hammer</text></g><text font-family="Aptos Narrow,Aptos Narrow_MSFontService,sans-serif" font-weight="400" font-stretch="semi-condensed" font-size="50" transform="matrix(1 0 0 1 3130.13 1318)">2</text><text font-family="Aptos Narrow,Aptos Narrow_MSFontService,sans-serif" font-weight="400" font-stretch="semi-condensed" font-size="50" transform="matrix(1 0 0 1 2690.42 1318)">latency_loop_2ki</text><text font-family="Aptos Narrow,Aptos Narrow_MSFontService,sans-serif" font-weight="400" font-stretch="semi-condensed" font-size="50" transform="matrix(1 0 0 1 2573.25 1318)">1</text><text font-family="Aptos Narrow,Aptos Narrow_MSFontService,sans-serif" font-weight="400" font-stretch="semi-condensed" font-size="50" transform="matrix(1 0 0 1 2230.08 1318)">nl3a+cp+qos</text><text font-family="Aptos Narrow,Aptos Narrow_MSFontService,sans-serif" font-weight="400" font-stretch="semi-condensed" font-size="50" transform="matrix(1 0 0 1 3581.87 1399)">2360</text><g><text font-family="Aptos Narrow,Aptos Narrow_MSFontService,sans-serif" font-weight="400" font-stretch="semi-condensed" font-size="50" transform="matrix(1 0 0 1 3232.97 1399)">way_hammer</text></g><text font-family="Aptos Narrow,Aptos Narrow_MSFontService,sans-serif" font-weight="400" font-stretch="semi-condensed" font-size="50" transform="matrix(1 0 0 1 3130.13 1399)">2</text><text font-family="Aptos Narrow,Aptos Narrow_MSFontService,sans-serif" font-weight="400" font-stretch="semi-condensed" font-size="50" transform="matrix(1 0 0 1 2690.42 1399)">latency_loop_2ki</text><text font-family="Aptos Narrow,Aptos Narrow_MSFontService,sans-serif" font-weight="400" font-stretch="semi-condensed" font-size="50" transform="matrix(1 0 0 1 2573.25 1399)">3</text><text font-family="Aptos Narrow,Aptos Narrow_MSFontService,sans-serif" font-weight="400" font-stretch="semi-condensed" font-size="50" transform="matrix(1 0 0 1 2230.08 1399)">nl3a+cp+qos</text><text font-family="Aptos Narrow,Aptos Narrow_MSFontService,sans-serif" font-weight="400" font-stretch="semi-condensed" font-size="50" transform="matrix(1 0 0 1 3581.87 1479)">8557</text><text font-family="Aptos Narrow,Aptos Narrow_MSFontService,sans-serif" font-weight="400" font-stretch="semi-condensed" font-size="50" transform="matrix(1 0 0 1 3251.3 1479)">set_crawler</text><text font-family="Aptos Narrow,Aptos Narrow_MSFontService,sans-serif" font-weight="400" font-stretch="semi-condensed" font-size="50" transform="matrix(1 0 0 1 3130.13 1479)">2</text><text font-family="Aptos Narrow,Aptos Narrow_MSFontService,sans-serif" font-weight="400" font-stretch="semi-condensed" font-size="50" transform="matrix(1 0 0 1 2690.42 1479)">latency_loop_2ki</text><text font-family="Aptos Narrow,Aptos Narrow_MSFontService,sans-serif" font-weight="400" font-stretch="semi-condensed" font-size="50" transform="matrix(1 0 0 1 2573.25 1479)">1</text><text font-family="Aptos Narrow,Aptos Narrow_MSFontService,sans-serif" font-weight="400" font-stretch="semi-condensed" font-size="50" transform="matrix(1 0 0 1 2295.39 1479)">no</text><text font-family="Aptos Narrow,Aptos Narrow_MSFontService,sans-serif" font-weight="400" font-stretch="semi-condensed" font-size="50" transform="matrix(1 0 0 1 2346.38 1479)">-</text><text font-family="Aptos Narrow,Aptos Narrow_MSFontService,sans-serif" font-weight="400" font-stretch="semi-condensed" font-size="50" transform="matrix(1 0 0 1 2361.85 1479)">opt</text><text font-family="Aptos Narrow,Aptos Narrow_MSFontService,sans-serif" font-weight="400" font-stretch="semi-condensed" font-size="50" transform="matrix(1 0 0 1 3581.87 1559)">6290</text><text font-family="Aptos Narrow,Aptos Narrow_MSFontService,sans-serif" font-weight="400" font-stretch="semi-condensed" font-size="50" transform="matrix(1 0 0 1 3251.3 1559)">set_crawler</text><text font-family="Aptos Narrow,Aptos Narrow_MSFontService,sans-serif" font-weight="400" font-stretch="semi-condensed" font-size="50" transform="matrix(1 0 0 1 3130.13 1559)">2</text><text font-family="Aptos Narrow,Aptos Narrow_MSFontService,sans-serif" font-weight="400" font-stretch="semi-condensed" font-size="50" transform="matrix(1 0 0 1 2690.42 1559)">latency_loop_2ki</text><text font-family="Aptos Narrow,Aptos Narrow_MSFontService,sans-serif" font-weight="400" font-stretch="semi-condensed" font-size="50" transform="matrix(1 0 0 1 2573.25 1559)">3</text><text font-family="Aptos Narrow,Aptos Narrow_MSFontService,sans-serif" font-weight="400" font-stretch="semi-condensed" font-size="50" transform="matrix(1 0 0 1 2295.39 1559)">no</text><text font-family="Aptos Narrow,Aptos Narrow_MSFontService,sans-serif" font-weight="400" font-stretch="semi-condensed" font-size="50" transform="matrix(1 0 0 1 2346.38 1559)">-</text><text font-family="Aptos Narrow,Aptos Narrow_MSFontService,sans-serif" font-weight="400" font-stretch="semi-condensed" font-size="50" transform="matrix(1 0 0 1 2361.85 1559)">opt</text><text font-family="Aptos Narrow,Aptos Narrow_MSFontService,sans-serif" font-weight="400" font-stretch="semi-condensed" font-size="50" transform="matrix(1 0 0 1 3594.77 1640)">600</text><text font-family="Aptos Narrow,Aptos Narrow_MSFontService,sans-serif" font-weight="400" font-stretch="semi-condensed" font-size="50" transform="matrix(1 0 0 1 3251.3 1640)">set_crawler</text><text font-family="Aptos Narrow,Aptos Narrow_MSFontService,sans-serif" font-weight="400" font-stretch="semi-condensed" font-size="50" transform="matrix(1 0 0 1 3130.13 1640)">2</text><text font-family="Aptos Narrow,Aptos Narrow_MSFontService,sans-serif" font-weight="400" font-stretch="semi-condensed" font-size="50" transform="matrix(1 0 0 1 2690.42 1640)">latency_loop_2ki</text><text font-family="Aptos Narrow,Aptos Narrow_MSFontService,sans-serif" font-weight="400" font-stretch="semi-condensed" font-size="50" transform="matrix(1 0 0 1 2573.25 1640)">1</text><text font-family="Aptos Narrow,Aptos Narrow_MSFontService,sans-serif" font-weight="400" font-stretch="semi-condensed" font-size="50" transform="matrix(1 0 0 1 2230.08 1640)">nl3a+cp+qos</text><text font-family="Aptos Narrow,Aptos Narrow_MSFontService,sans-serif" font-weight="400" font-stretch="semi-condensed" font-size="50" transform="matrix(1 0 0 1 3607.66 1720)">22</text><text font-family="Aptos Narrow,Aptos Narrow_MSFontService,sans-serif" font-weight="400" font-stretch="semi-condensed" font-size="50" transform="matrix(1 0 0 1 3251.3 1720)">set_crawler</text><text font-family="Aptos Narrow,Aptos Narrow_MSFontService,sans-serif" font-weight="400" font-stretch="semi-condensed" font-size="50" transform="matrix(1 0 0 1 3130.13 1720)">2</text><text font-family="Aptos Narrow,Aptos Narrow_MSFontService,sans-serif" font-weight="400" font-stretch="semi-condensed" font-size="50" transform="matrix(1 0 0 1 2690.42 1720)">latency_loop_2ki</text><text font-family="Aptos Narrow,Aptos Narrow_MSFontService,sans-serif" font-weight="400" font-stretch="semi-condensed" font-size="50" transform="matrix(1 0 0 1 2573.25 1720)">3</text><text font-family="Aptos Narrow,Aptos Narrow_MSFontService,sans-serif" font-weight="400" font-stretch="semi-condensed" font-size="50" transform="matrix(1 0 0 1 2230.08 1720)">nl3a+cp+qos</text><text font-family="Aptos Narrow,Aptos Narrow_MSFontService,sans-serif" font-weight="400" font-stretch="semi-condensed" font-size="50" transform="matrix(1 0 0 1 3568.98 1801)">10505</text><g><text font-family="Aptos Narrow,Aptos Narrow_MSFontService,sans-serif" font-weight="400" font-stretch="semi-condensed" font-size="50" transform="matrix(1 0 0 1 3232.97 1801)">way_hammer</text></g><text font-family="Aptos Narrow,Aptos Narrow_MSFontService,sans-serif" font-weight="400" font-stretch="semi-condensed" font-size="50" transform="matrix(1 0 0 1 3130.13 1801)">2</text><text font-family="Aptos Narrow,Aptos Narrow_MSFontService,sans-serif" font-weight="400" font-stretch="semi-condensed" font-size="50" transform="matrix(1 0 0 1 2690.13 1801)">latency_loop_2kl</text><text font-family="Aptos Narrow,Aptos Narrow_MSFontService,sans-serif" font-weight="400" font-stretch="semi-condensed" font-size="50" transform="matrix(1 0 0 1 2573.25 1801)">1</text><text font-family="Aptos Narrow,Aptos Narrow_MSFontService,sans-serif" font-weight="400" font-stretch="semi-condensed" font-size="50" transform="matrix(1 0 0 1 2295.39 1801)">no</text><text font-family="Aptos Narrow,Aptos Narrow_MSFontService,sans-serif" font-weight="400" font-stretch="semi-condensed" font-size="50" transform="matrix(1 0 0 1 2346.38 1801)">-</text><text font-family="Aptos Narrow,Aptos Narrow_MSFontService,sans-serif" font-weight="400" font-stretch="semi-condensed" font-size="50" transform="matrix(1 0 0 1 2361.85 1801)">opt</text><text font-family="Aptos Narrow,Aptos Narrow_MSFontService,sans-serif" font-weight="400" font-stretch="semi-condensed" font-size="50" transform="matrix(1 0 0 1 3581.87 1881)">4700</text><g><text font-family="Aptos Narrow,Aptos Narrow_MSFontService,sans-serif" font-weight="400" font-stretch="semi-condensed" font-size="50" transform="matrix(1 0 0 1 3232.97 1881)">way_hammer</text></g><text font-family="Aptos Narrow,Aptos Narrow_MSFontService,sans-serif" font-weight="400" font-stretch="semi-condensed" font-size="50" transform="matrix(1 0 0 1 3130.13 1881)">2</text><text font-family="Aptos Narrow,Aptos Narrow_MSFontService,sans-serif" font-weight="400" font-stretch="semi-condensed" font-size="50" transform="matrix(1 0 0 1 2690.13 1881)">latency_loop_2kl</text><text font-family="Aptos Narrow,Aptos Narrow_MSFontService,sans-serif" font-weight="400" font-stretch="semi-condensed" font-size="50" transform="matrix(1 0 0 1 2573.25 1881)">3</text><text font-family="Aptos Narrow,Aptos Narrow_MSFontService,sans-serif" font-weight="400" font-stretch="semi-condensed" font-size="50" transform="matrix(1 0 0 1 2295.39 1881)">no</text><text font-family="Aptos Narrow,Aptos Narrow_MSFontService,sans-serif" font-weight="400" font-stretch="semi-condensed" font-size="50" transform="matrix(1 0 0 1 2346.38 1881)">-</text><text font-family="Aptos Narrow,Aptos Narrow_MSFontService,sans-serif" font-weight="400" font-stretch="semi-condensed" font-size="50" transform="matrix(1 0 0 1 2361.85 1881)">opt</text><text font-family="Aptos Narrow,Aptos Narrow_MSFontService,sans-serif" font-weight="400" font-stretch="semi-condensed" font-size="50" transform="matrix(1 0 0 1 3581.87 1962)">4033</text><g><text font-family="Aptos Narrow,Aptos Narrow_MSFontService,sans-serif" font-weight="400" font-stretch="semi-condensed" font-size="50" transform="matrix(1 0 0 1 3232.97 1962)">way_hammer</text></g><text font-family="Aptos Narrow,Aptos Narrow_MSFontService,sans-serif" font-weight="400" font-stretch="semi-condensed" font-size="50" transform="matrix(1 0 0 1 3130.13 1962)">2</text><text font-family="Aptos Narrow,Aptos Narrow_MSFontService,sans-serif" font-weight="400" font-stretch="semi-condensed" font-size="50" transform="matrix(1 0 0 1 2690.13 1962)">latency_loop_2kl</text><text font-family="Aptos Narrow,Aptos Narrow_MSFontService,sans-serif" font-weight="400" font-stretch="semi-condensed" font-size="50" transform="matrix(1 0 0 1 2573.25 1962)">1</text><text font-family="Aptos Narrow,Aptos Narrow_MSFontService,sans-serif" font-weight="400" font-stretch="semi-condensed" font-size="50" transform="matrix(1 0 0 1 2230.08 1962)">nl3a+cp+qos</text><text font-family="Aptos Narrow,Aptos Narrow_MSFontService,sans-serif" font-weight="400" font-stretch="semi-condensed" font-size="50" transform="matrix(1 0 0 1 3581.87 2042)">3145</text><g><text font-family="Aptos Narrow,Aptos Narrow_MSFontService,sans-serif" font-weight="400" font-stretch="semi-condensed" font-size="50" transform="matrix(1 0 0 1 3232.97 2042)">way_hammer</text></g><text font-family="Aptos Narrow,Aptos Narrow_MSFontService,sans-serif" font-weight="400" font-stretch="semi-condensed" font-size="50" transform="matrix(1 0 0 1 3130.13 2042)">2</text><text font-family="Aptos Narrow,Aptos Narrow_MSFontService,sans-serif" font-weight="400" font-stretch="semi-condensed" font-size="50" transform="matrix(1 0 0 1 2690.13 2042)">latency_loop_2kl</text><text font-family="Aptos Narrow,Aptos Narrow_MSFontService,sans-serif" font-weight="400" font-stretch="semi-condensed" font-size="50" transform="matrix(1 0 0 1 2573.25 2042)">3</text><text font-family="Aptos Narrow,Aptos Narrow_MSFontService,sans-serif" font-weight="400" font-stretch="semi-condensed" font-size="50" transform="matrix(1 0 0 1 2230.08 2042)">nl3a+cp+qos</text><text font-family="Aptos Narrow,Aptos Narrow_MSFontService,sans-serif" font-weight="400" font-stretch="semi-condensed" font-size="50" transform="matrix(1 0 0 1 3581.87 2122)">8715</text><text font-family="Aptos Narrow,Aptos Narrow_MSFontService,sans-serif" font-weight="400" font-stretch="semi-condensed" font-size="50" transform="matrix(1 0 0 1 3251.3 2122)">set_crawler</text><text font-family="Aptos Narrow,Aptos Narrow_MSFontService,sans-serif" font-weight="400" font-stretch="semi-condensed" font-size="50" transform="matrix(1 0 0 1 3130.13 2122)">2</text><text font-family="Aptos Narrow,Aptos Narrow_MSFontService,sans-serif" font-weight="400" font-stretch="semi-condensed" font-size="50" transform="matrix(1 0 0 1 2690.13 2122)">latency_loop_2kl</text><text font-family="Aptos Narrow,Aptos Narrow_MSFontService,sans-serif" font-weight="400" font-stretch="semi-condensed" font-size="50" transform="matrix(1 0 0 1 2573.25 2122)">1</text><text font-family="Aptos Narrow,Aptos Narrow_MSFontService,sans-serif" font-weight="400" font-stretch="semi-condensed" font-size="50" transform="matrix(1 0 0 1 2295.39 2122)">no</text><text font-family="Aptos Narrow,Aptos Narrow_MSFontService,sans-serif" font-weight="400" font-stretch="semi-condensed" font-size="50" transform="matrix(1 0 0 1 2346.38 2122)">-</text><text font-family="Aptos Narrow,Aptos Narrow_MSFontService,sans-serif" font-weight="400" font-stretch="semi-condensed" font-size="50" transform="matrix(1 0 0 1 2361.85 2122)">opt</text><text font-family="Aptos Narrow,Aptos Narrow_MSFontService,sans-serif" font-weight="400" font-stretch="semi-condensed" font-size="50" transform="matrix(1 0 0 1 3581.87 2203)">6285</text><text font-family="Aptos Narrow,Aptos Narrow_MSFontService,sans-serif" font-weight="400" font-stretch="semi-condensed" font-size="50" transform="matrix(1 0 0 1 3251.3 2203)">set_crawler</text><text font-family="Aptos Narrow,Aptos Narrow_MSFontService,sans-serif" font-weight="400" font-stretch="semi-condensed" font-size="50" transform="matrix(1 0 0 1 3130.13 2203)">2</text><text font-family="Aptos Narrow,Aptos Narrow_MSFontService,sans-serif" font-weight="400" font-stretch="semi-condensed" font-size="50" transform="matrix(1 0 0 1 2690.13 2203)">latency_loop_2kl</text><text font-family="Aptos Narrow,Aptos Narrow_MSFontService,sans-serif" font-weight="400" font-stretch="semi-condensed" font-size="50" transform="matrix(1 0 0 1 2573.25 2203)">3</text><text font-family="Aptos Narrow,Aptos Narrow_MSFontService,sans-serif" font-weight="400" font-stretch="semi-condensed" font-size="50" transform="matrix(1 0 0 1 2295.39 2203)">no</text><text font-family="Aptos Narrow,Aptos Narrow_MSFontService,sans-serif" font-weight="400" font-stretch="semi-condensed" font-size="50" transform="matrix(1 0 0 1 2346.38 2203)">-</text><text font-family="Aptos Narrow,Aptos Narrow_MSFontService,sans-serif" font-weight="400" font-stretch="semi-condensed" font-size="50" transform="matrix(1 0 0 1 2361.85 2203)">opt</text><text font-family="Aptos Narrow,Aptos Narrow_MSFontService,sans-serif" font-weight="400" font-stretch="semi-condensed" font-size="50" transform="matrix(1 0 0 1 3594.77 2283)">543</text><text font-family="Aptos Narrow,Aptos Narrow_MSFontService,sans-serif" font-weight="400" font-stretch="semi-condensed" font-size="50" transform="matrix(1 0 0 1 3251.3 2283)">set_crawler</text><text font-family="Aptos Narrow,Aptos Narrow_MSFontService,sans-serif" font-weight="400" font-stretch="semi-condensed" font-size="50" transform="matrix(1 0 0 1 3130.13 2283)">2</text><text font-family="Aptos Narrow,Aptos Narrow_MSFontService,sans-serif" font-weight="400" font-stretch="semi-condensed" font-size="50" transform="matrix(1 0 0 1 2690.13 2283)">latency_loop_2kl</text><text font-family="Aptos Narrow,Aptos Narrow_MSFontService,sans-serif" font-weight="400" font-stretch="semi-condensed" font-size="50" transform="matrix(1 0 0 1 2573.25 2283)">1</text><text font-family="Aptos Narrow,Aptos Narrow_MSFontService,sans-serif" font-weight="400" font-stretch="semi-condensed" font-size="50" transform="matrix(1 0 0 1 2230.08 2283)">nl3a+cp+qos</text><text font-family="Aptos Narrow,Aptos Narrow_MSFontService,sans-serif" font-weight="400" font-stretch="semi-condensed" font-size="50" transform="matrix(1 0 0 1 3594.77 2364)">203</text><text font-family="Aptos Narrow,Aptos Narrow_MSFontService,sans-serif" font-weight="400" font-stretch="semi-condensed" font-size="50" transform="matrix(1 0 0 1 3251.3 2364)">set_crawler</text><text font-family="Aptos Narrow,Aptos Narrow_MSFontService,sans-serif" font-weight="400" font-stretch="semi-condensed" font-size="50" transform="matrix(1 0 0 1 3130.13 2364)">2</text><text font-family="Aptos Narrow,Aptos Narrow_MSFontService,sans-serif" font-weight="400" font-stretch="semi-condensed" font-size="50" transform="matrix(1 0 0 1 2690.13 2364)">latency_loop_2kl</text><text font-family="Aptos Narrow,Aptos Narrow_MSFontService,sans-serif" font-weight="400" font-stretch="semi-condensed" font-size="50" transform="matrix(1 0 0 1 2573.25 2364)">3</text><text font-family="Aptos Narrow,Aptos Narrow_MSFontService,sans-serif" font-weight="400" font-stretch="semi-condensed" font-size="50" transform="matrix(1 0 0 1 2230.08 2364)">nl3a+cp+qos</text></g></svg>