<svg width="1550" height="428" xmlns="http://www.w3.org/2000/svg" xmlns:xlink="http://www.w3.org/1999/xlink" xml:space="preserve" overflow="hidden"><g transform="translate(-1425 -1321)"><path d="M1425.42 1413.72 1750.83 1413.72 1750.83 1494.16 1425.42 1494.16Z" fill="#DAF2D0" fill-rule="evenodd"/><path d="M1750.83 1413.72 1874.58 1413.72 1874.58 1494.16 1750.83 1494.16Z" fill="#F2F2F2" fill-rule="evenodd"/><path d="M1874.58 1413.72 2296.25 1413.72 2296.25 1494.16 1874.58 1494.16Z" fill="#DAF2D0" fill-rule="evenodd"/><path d="M2442.92 1413.72 2745.42 1413.72 2745.42 1494.16 2442.92 1494.16Z" fill="#F2F2F2" fill-rule="evenodd"/><path d="M1425.42 1494.16 1750.83 1494.16 1750.83 1574.59 1425.42 1574.59Z" fill="#FBE2D5" fill-rule="evenodd"/><path d="M1750.83 1494.16 1874.58 1494.16 1874.58 1574.59 1750.83 1574.59Z" fill="#F2F2F2" fill-rule="evenodd"/><path d="M1874.58 1494.16 2296.25 1494.16 2296.25 1574.59 1874.58 1574.59Z" fill="#DAF2D0" fill-rule="evenodd"/><path d="M2442.92 1494.16 2745.42 1494.16 2745.42 1574.59 2442.92 1574.59Z" fill="#F2F2F2" fill-rule="evenodd"/><path d="M1425.42 1574.59 1750.83 1574.59 1750.83 1655.03 1425.42 1655.03Z" fill="#CAEDFB" fill-rule="evenodd"/><path d="M1750.83 1574.59 1874.58 1574.59 1874.58 1655.03 1750.83 1655.03Z" fill="#F2F2F2" fill-rule="evenodd"/><path d="M1874.58 1574.59 2296.25 1574.59 2296.25 1655.03 1874.58 1655.03Z" fill="#DAF2D0" fill-rule="evenodd"/><path d="M2442.92 1574.59 2745.42 1574.59 2745.42 1655.03 2442.92 1655.03Z" fill="#F2F2F2" fill-rule="evenodd"/><path d="M1425.42 1655.03 1750.83 1655.03 1750.83 1735.47 1425.42 1735.47Z" fill="#F2CEEF" fill-rule="evenodd"/><path d="M1750.83 1655.03 1874.58 1655.03 1874.58 1735.47 1750.83 1735.47Z" fill="#F2F2F2" fill-rule="evenodd"/><path d="M1874.58 1655.03 2296.25 1655.03 2296.25 1735.47 1874.58 1735.47Z" fill="#DAF2D0" fill-rule="evenodd"/><path d="M2442.92 1655.03 2745.42 1655.03 2745.42 1735.47 2442.92 1735.47Z" fill="#F2F2F2" fill-rule="evenodd"/><g><text font-family="Aptos Narrow,Aptos Narrow_MSFontService,sans-serif" font-weight="700" font-stretch="semi-condensed" font-size="50" transform="matrix(1 0 0 1 2761.46 1383)">delta (ns)</text></g><text font-family="Aptos Narrow,Aptos Narrow_MSFontService,sans-serif" font-weight="700" font-stretch="semi-condensed" font-size="50" transform="matrix(1 0 0 1 2548.05 1383)">load</text><g><text font-family="Aptos Narrow,Aptos Narrow_MSFontService,sans-serif" font-weight="700" font-stretch="semi-condensed" font-size="50" transform="matrix(1 0 0 1 2312 1383)">loads</text></g><text font-family="Aptos Narrow,Aptos Narrow_MSFontService,sans-serif" font-weight="700" font-stretch="semi-condensed" font-size="50" transform="matrix(1 0 0 1 2045.03 1383)">test</text><g><text font-family="Aptos Narrow,Aptos Narrow_MSFontService,sans-serif" font-weight="700" font-stretch="semi-condensed" font-size="50" transform="matrix(1 0 0 1 1765.44 1383)">core</text></g><g><text font-family="Aptos Narrow,Aptos Narrow_MSFontService,sans-serif" font-weight="700" font-stretch="semi-condensed" font-size="50" transform="matrix(1 0 0 1 1445.18 1383)">optimizations</text></g><text font-family="Aptos Narrow,Aptos Narrow_MSFontService,sans-serif" font-weight="400" font-stretch="semi-condensed" font-size="50" transform="matrix(1 0 0 1 2795.55 1463)">10723</text><g><text font-family="Aptos Narrow,Aptos Narrow_MSFontService,sans-serif" font-weight="400" font-stretch="semi-condensed" font-size="50" transform="matrix(1 0 0 1 2459.53 1463)">way_hammer</text></g><text font-family="Aptos Narrow,Aptos Narrow_MSFontService,sans-serif" font-weight="400" font-stretch="semi-condensed" font-size="50" transform="matrix(1 0 0 1 2356.69 1463)">2</text><text font-family="Aptos Narrow,Aptos Narrow_MSFontService,sans-serif" font-weight="400" font-stretch="semi-condensed" font-size="50" transform="matrix(1 0 0 1 1957.37 1463)">latency_loop</text><text font-family="Aptos Narrow,Aptos Narrow_MSFontService,sans-serif" font-weight="400" font-stretch="semi-condensed" font-size="50" transform="matrix(1 0 0 1 1799.82 1463)">1</text><text font-family="Aptos Narrow,Aptos Narrow_MSFontService,sans-serif" font-weight="400" font-stretch="semi-condensed" font-size="50" transform="matrix(1 0 0 1 1521.95 1463)">no</text><text font-family="Aptos Narrow,Aptos Narrow_MSFontService,sans-serif" font-weight="400" font-stretch="semi-condensed" font-size="50" transform="matrix(1 0 0 1 1572.94 1463)">-</text><text font-family="Aptos Narrow,Aptos Narrow_MSFontService,sans-serif" font-weight="400" font-stretch="semi-condensed" font-size="50" transform="matrix(1 0 0 1 1588.41 1463)">opt</text><text font-family="Aptos Narrow,Aptos Narrow_MSFontService,sans-serif" font-weight="400" font-stretch="semi-condensed" font-size="50" transform="matrix(1 0 0 1 2808.44 1544)">9418</text><g><text font-family="Aptos Narrow,Aptos Narrow_MSFontService,sans-serif" font-weight="400" font-stretch="semi-condensed" font-size="50" transform="matrix(1 0 0 1 2459.53 1544)">way_hammer</text></g><text font-family="Aptos Narrow,Aptos Narrow_MSFontService,sans-serif" font-weight="400" font-stretch="semi-condensed" font-size="50" transform="matrix(1 0 0 1 2356.69 1544)">2</text><text font-family="Aptos Narrow,Aptos Narrow_MSFontService,sans-serif" font-weight="400" font-stretch="semi-condensed" font-size="50" transform="matrix(1 0 0 1 1957.37 1544)">latency_loop</text><text font-family="Aptos Narrow,Aptos Narrow_MSFontService,sans-serif" font-weight="400" font-stretch="semi-condensed" font-size="50" transform="matrix(1 0 0 1 1799.82 1544)">1</text><text font-family="Aptos Narrow,Aptos Narrow_MSFontService,sans-serif" font-weight="400" font-stretch="semi-condensed" font-size="50" transform="matrix(1 0 0 1 1544.01 1544)">nl3a</text><text font-family="Aptos Narrow,Aptos Narrow_MSFontService,sans-serif" font-weight="400" font-stretch="semi-condensed" font-size="50" transform="matrix(1 0 0 1 2808.44 1624)">6630</text><g><text font-family="Aptos Narrow,Aptos Narrow_MSFontService,sans-serif" font-weight="400" font-stretch="semi-condensed" font-size="50" transform="matrix(1 0 0 1 2459.53 1624)">way_hammer</text></g><text font-family="Aptos Narrow,Aptos Narrow_MSFontService,sans-serif" font-weight="400" font-stretch="semi-condensed" font-size="50" transform="matrix(1 0 0 1 2356.69 1624)">2</text><text font-family="Aptos Narrow,Aptos Narrow_MSFontService,sans-serif" font-weight="400" font-stretch="semi-condensed" font-size="50" transform="matrix(1 0 0 1 1957.37 1624)">latency_loop</text><text font-family="Aptos Narrow,Aptos Narrow_MSFontService,sans-serif" font-weight="400" font-stretch="semi-condensed" font-size="50" transform="matrix(1 0 0 1 1799.82 1624)">1</text><text font-family="Aptos Narrow,Aptos Narrow_MSFontService,sans-serif" font-weight="400" font-stretch="semi-condensed" font-size="50" transform="matrix(1 0 0 1 1506.2 1624)">nl3a+cp</text><text font-family="Aptos Narrow,Aptos Narrow_MSFontService,sans-serif" font-weight="400" font-stretch="semi-condensed" font-size="50" transform="matrix(1 0 0 1 2808.44 1704)">4180</text><g><text font-family="Aptos Narrow,Aptos Narrow_MSFontService,sans-serif" font-weight="400" font-stretch="semi-condensed" font-size="50" transform="matrix(1 0 0 1 2459.53 1704)">way_hammer</text></g><text font-family="Aptos Narrow,Aptos Narrow_MSFontService,sans-serif" font-weight="400" font-stretch="semi-condensed" font-size="50" transform="matrix(1 0 0 1 2356.69 1704)">2</text><text font-family="Aptos Narrow,Aptos Narrow_MSFontService,sans-serif" font-weight="400" font-stretch="semi-condensed" font-size="50" transform="matrix(1 0 0 1 1957.37 1704)">latency_loop</text><text font-family="Aptos Narrow,Aptos Narrow_MSFontService,sans-serif" font-weight="400" font-stretch="semi-condensed" font-size="50" transform="matrix(1 0 0 1 1799.82 1704)">1</text><text font-family="Aptos Narrow,Aptos Narrow_MSFontService,sans-serif" font-weight="400" font-stretch="semi-condensed" font-size="50" transform="matrix(1 0 0 1 1456.64 1704)">nl3a+cp+qos</text></g></svg>