<svg width="1550" height="429" xmlns="http://www.w3.org/2000/svg" xmlns:xlink="http://www.w3.org/1999/xlink" xml:space="preserve" overflow="hidden"><g transform="translate(-1425 -1880)"><path d="M1425.42 1973.09 1750.83 1973.09 1750.83 2053.53 1425.42 2053.53Z" fill="#DAF2D0" fill-rule="evenodd"/><path d="M1750.83 1973.09 1874.58 1973.09 1874.58 2053.53 1750.83 2053.53Z" fill="#F2F2F2" fill-rule="evenodd"/><path d="M1874.58 1973.09 2296.25 1973.09 2296.25 2053.53 1874.58 2053.53Z" fill="#CAEDFB" fill-rule="evenodd"/><path d="M2442.92 1973.09 2745.42 1973.09 2745.42 2053.53 2442.92 2053.53Z" fill="#D9D9D9" fill-rule="evenodd"/><path d="M1425.42 2053.53 1750.83 2053.53 1750.83 2133.97 1425.42 2133.97Z" fill="#FBE2D5" fill-rule="evenodd"/><path d="M1750.83 2053.53 1874.58 2053.53 1874.58 2133.97 1750.83 2133.97Z" fill="#F2F2F2" fill-rule="evenodd"/><path d="M1874.58 2053.53 2296.25 2053.53 2296.25 2133.97 1874.58 2133.97Z" fill="#CAEDFB" fill-rule="evenodd"/><path d="M2442.92 2053.53 2745.42 2053.53 2745.42 2133.97 2442.92 2133.97Z" fill="#D9D9D9" fill-rule="evenodd"/><path d="M1425.42 2133.97 1750.83 2133.97 1750.83 2214.41 1425.42 2214.41Z" fill="#CAEDFB" fill-rule="evenodd"/><path d="M1750.83 2133.97 1874.58 2133.97 1874.58 2214.41 1750.83 2214.41Z" fill="#F2F2F2" fill-rule="evenodd"/><path d="M1874.58 2133.97 2296.25 2133.97 2296.25 2214.41 1874.58 2214.41Z" fill="#CAEDFB" fill-rule="evenodd"/><path d="M2442.92 2133.97 2745.42 2133.97 2745.42 2214.41 2442.92 2214.41Z" fill="#D9D9D9" fill-rule="evenodd"/><path d="M1425.42 2214.41 1750.83 2214.41 1750.83 2294.84 1425.42 2294.84Z" fill="#F2CEEF" fill-rule="evenodd"/><path d="M1750.83 2214.41 1874.58 2214.41 1874.58 2294.84 1750.83 2294.84Z" fill="#F2F2F2" fill-rule="evenodd"/><path d="M1874.58 2214.41 2296.25 2214.41 2296.25 2294.84 1874.58 2294.84Z" fill="#CAEDFB" fill-rule="evenodd"/><path d="M2442.92 2214.41 2745.42 2214.41 2745.42 2294.84 2442.92 2294.84Z" fill="#D9D9D9" fill-rule="evenodd"/><g><text font-family="Aptos Narrow,Aptos Narrow_MSFontService,sans-serif" font-weight="700" font-stretch="semi-condensed" font-size="50" transform="matrix(1 0 0 1 2761.46 1942)">delta (ns)</text></g><text font-family="Aptos Narrow,Aptos Narrow_MSFontService,sans-serif" font-weight="700" font-stretch="semi-condensed" font-size="50" transform="matrix(1 0 0 1 2548.05 1942)">load</text><g><text font-family="Aptos Narrow,Aptos Narrow_MSFontService,sans-serif" font-weight="700" font-stretch="semi-condensed" font-size="50" transform="matrix(1 0 0 1 2312 1942)">loads</text></g><text font-family="Aptos Narrow,Aptos Narrow_MSFontService,sans-serif" font-weight="700" font-stretch="semi-condensed" font-size="50" transform="matrix(1 0 0 1 2045.03 1942)">test</text><g><text font-family="Aptos Narrow,Aptos Narrow_MSFontService,sans-serif" font-weight="700" font-stretch="semi-condensed" font-size="50" transform="matrix(1 0 0 1 1765.44 1942)">core</text></g><g><text font-family="Aptos Narrow,Aptos Narrow_MSFontService,sans-serif" font-weight="700" font-stretch="semi-condensed" font-size="50" transform="matrix(1 0 0 1 1445.18 1942)">optimizations</text></g><text font-family="Aptos Narrow,Aptos Narrow_MSFontService,sans-serif" font-weight="400" font-stretch="semi-condensed" font-size="50" transform="matrix(1 0 0 1 2808.44 2023)">8715</text><text font-family="Aptos Narrow,Aptos Narrow_MSFontService,sans-serif" font-weight="400" font-stretch="semi-condensed" font-size="50" transform="matrix(1 0 0 1 2477.86 2023)">set_crawler</text><text font-family="Aptos Narrow,Aptos Narrow_MSFontService,sans-serif" font-weight="400" font-stretch="semi-condensed" font-size="50" transform="matrix(1 0 0 1 2356.69 2023)">2</text><text font-family="Aptos Narrow,Aptos Narrow_MSFontService,sans-serif" font-weight="400" font-stretch="semi-condensed" font-size="50" transform="matrix(1 0 0 1 1916.69 2023)">latency_loop_2kl</text><text font-family="Aptos Narrow,Aptos Narrow_MSFontService,sans-serif" font-weight="400" font-stretch="semi-condensed" font-size="50" transform="matrix(1 0 0 1 1799.82 2023)">1</text><text font-family="Aptos Narrow,Aptos Narrow_MSFontService,sans-serif" font-weight="400" font-stretch="semi-condensed" font-size="50" transform="matrix(1 0 0 1 1521.95 2023)">no</text><text font-family="Aptos Narrow,Aptos Narrow_MSFontService,sans-serif" font-weight="400" font-stretch="semi-condensed" font-size="50" transform="matrix(1 0 0 1 1572.94 2023)">-</text><text font-family="Aptos Narrow,Aptos Narrow_MSFontService,sans-serif" font-weight="400" font-stretch="semi-condensed" font-size="50" transform="matrix(1 0 0 1 1588.41 2023)">opt</text><text font-family="Aptos Narrow,Aptos Narrow_MSFontService,sans-serif" font-weight="400" font-stretch="semi-condensed" font-size="50" transform="matrix(1 0 0 1 2808.44 2103)">1628</text><text font-family="Aptos Narrow,Aptos Narrow_MSFontService,sans-serif" font-weight="400" font-stretch="semi-condensed" font-size="50" transform="matrix(1 0 0 1 2477.86 2103)">set_crawler</text><text font-family="Aptos Narrow,Aptos Narrow_MSFontService,sans-serif" font-weight="400" font-stretch="semi-condensed" font-size="50" transform="matrix(1 0 0 1 2356.69 2103)">2</text><text font-family="Aptos Narrow,Aptos Narrow_MSFontService,sans-serif" font-weight="400" font-stretch="semi-condensed" font-size="50" transform="matrix(1 0 0 1 1916.69 2103)">latency_loop_2kl</text><text font-family="Aptos Narrow,Aptos Narrow_MSFontService,sans-serif" font-weight="400" font-stretch="semi-condensed" font-size="50" transform="matrix(1 0 0 1 1799.82 2103)">1</text><text font-family="Aptos Narrow,Aptos Narrow_MSFontService,sans-serif" font-weight="400" font-stretch="semi-condensed" font-size="50" transform="matrix(1 0 0 1 1544.01 2103)">nl3a</text><text font-family="Aptos Narrow,Aptos Narrow_MSFontService,sans-serif" font-weight="400" font-stretch="semi-condensed" font-size="50" transform="matrix(1 0 0 1 2821.33 2183)">998</text><text font-family="Aptos Narrow,Aptos Narrow_MSFontService,sans-serif" font-weight="400" font-stretch="semi-condensed" font-size="50" transform="matrix(1 0 0 1 2477.86 2183)">set_crawler</text><text font-family="Aptos Narrow,Aptos Narrow_MSFontService,sans-serif" font-weight="400" font-stretch="semi-condensed" font-size="50" transform="matrix(1 0 0 1 2356.69 2183)">2</text><text font-family="Aptos Narrow,Aptos Narrow_MSFontService,sans-serif" font-weight="400" font-stretch="semi-condensed" font-size="50" transform="matrix(1 0 0 1 1916.69 2183)">latency_loop_2kl</text><text font-family="Aptos Narrow,Aptos Narrow_MSFontService,sans-serif" font-weight="400" font-stretch="semi-condensed" font-size="50" transform="matrix(1 0 0 1 1799.82 2183)">1</text><text font-family="Aptos Narrow,Aptos Narrow_MSFontService,sans-serif" font-weight="400" font-stretch="semi-condensed" font-size="50" transform="matrix(1 0 0 1 1506.2 2183)">nl3a+cp</text><text font-family="Aptos Narrow,Aptos Narrow_MSFontService,sans-serif" font-weight="400" font-stretch="semi-condensed" font-size="50" transform="matrix(1 0 0 1 2821.33 2264)">543</text><text font-family="Aptos Narrow,Aptos Narrow_MSFontService,sans-serif" font-weight="400" font-stretch="semi-condensed" font-size="50" transform="matrix(1 0 0 1 2477.86 2264)">set_crawler</text><text font-family="Aptos Narrow,Aptos Narrow_MSFontService,sans-serif" font-weight="400" font-stretch="semi-condensed" font-size="50" transform="matrix(1 0 0 1 2356.69 2264)">2</text><text font-family="Aptos Narrow,Aptos Narrow_MSFontService,sans-serif" font-weight="400" font-stretch="semi-condensed" font-size="50" transform="matrix(1 0 0 1 1916.69 2264)">latency_loop_2kl</text><text font-family="Aptos Narrow,Aptos Narrow_MSFontService,sans-serif" font-weight="400" font-stretch="semi-condensed" font-size="50" transform="matrix(1 0 0 1 1799.82 2264)">1</text><text font-family="Aptos Narrow,Aptos Narrow_MSFontService,sans-serif" font-weight="400" font-stretch="semi-condensed" font-size="50" transform="matrix(1 0 0 1 1456.64 2264)">nl3a+cp+qos</text></g></svg>