<svg width="2476" height="1313" xmlns="http://www.w3.org/2000/svg" xmlns:xlink="http://www.w3.org/1999/xlink" xml:space="preserve" overflow="hidden"><g transform="translate(-962 -582)"><path d="M962.5 674.438 1287.32 674.438 1287.32 754.875 962.5 754.875Z" fill="#DAF2D0" fill-rule="evenodd"/><path d="M1287.32 674.438 1410.84 674.438 1410.84 754.875 1287.32 754.875Z" fill="#D9D9D9" fill-rule="evenodd"/><path d="M1410.84 674.438 1831.72 674.438 1831.72 754.875 1410.84 754.875Z" fill="#DAF2D0" fill-rule="evenodd"/><path d="M1978.12 674.438 2280.06 674.438 2280.06 754.875 1978.12 754.875Z" fill="#F2F2F2" fill-rule="evenodd"/><path d="M962.5 754.875 1287.32 754.875 1287.32 835.312 962.5 835.312Z" fill="#DAF2D0" fill-rule="evenodd"/><path d="M1287.32 754.875 1410.84 754.875 1410.84 835.312 1287.32 835.312Z" fill="#D9D9D9" fill-rule="evenodd"/><path d="M1410.84 754.875 1831.72 754.875 1831.72 835.312 1410.84 835.312Z" fill="#F2CEEF" fill-rule="evenodd"/><path d="M1978.12 754.875 2280.06 754.875 2280.06 835.312 1978.12 835.312Z" fill="#F2F2F2" fill-rule="evenodd"/><path d="M962.5 835.312 1287.32 835.312 1287.32 915.75 962.5 915.75Z" fill="#DAF2D0" fill-rule="evenodd"/><path d="M1287.32 835.312 1410.84 835.312 1410.84 915.75 1287.32 915.75Z" fill="#D9D9D9" fill-rule="evenodd"/><path d="M1410.84 835.312 1831.72 835.312 1831.72 915.75 1410.84 915.75Z" fill="#CAEDFB" fill-rule="evenodd"/><path d="M1978.12 835.312 2280.06 835.312 2280.06 915.75 1978.12 915.75Z" fill="#F2F2F2" fill-rule="evenodd"/><path d="M962.5 915.75 1287.32 915.75 1287.32 996.188 962.5 996.188Z" fill="#DAF2D0" fill-rule="evenodd"/><path d="M1287.32 915.75 1410.84 915.75 1410.84 996.188 1287.32 996.188Z" fill="#D9D9D9" fill-rule="evenodd"/><path d="M1410.84 915.75 1831.72 915.75 1831.72 996.188 1410.84 996.188Z" fill="#FBE2D5" fill-rule="evenodd"/><path d="M1978.12 915.75 2280.06 915.75 2280.06 996.188 1978.12 996.188Z" fill="#F2F2F2" fill-rule="evenodd"/><path d="M962.5 996.188 1287.32 996.188 1287.32 1076.62 962.5 1076.62Z" fill="#DAF2D0" fill-rule="evenodd"/><path d="M1287.32 996.188 1410.84 996.188 1410.84 1076.62 1287.32 1076.62Z" fill="#D9D9D9" fill-rule="evenodd"/><path d="M1410.84 996.188 1831.72 996.188 1831.72 1076.62 1410.84 1076.62Z" fill="#DAF2D0" fill-rule="evenodd"/><path d="M1978.12 996.188 2280.06 996.188 2280.06 1076.62 1978.12 1076.62Z" fill="#D9D9D9" fill-rule="evenodd"/><path d="M962.5 1076.62 1287.32 1076.62 1287.32 1157.06 962.5 1157.06Z" fill="#DAF2D0" fill-rule="evenodd"/><path d="M1287.32 1076.62 1410.84 1076.62 1410.84 1157.06 1287.32 1157.06Z" fill="#D9D9D9" fill-rule="evenodd"/><path d="M1410.84 1076.62 1831.72 1076.62 1831.72 1157.06 1410.84 1157.06Z" fill="#F2CEEF" fill-rule="evenodd"/><path d="M1978.12 1076.62 2280.06 1076.62 2280.06 1157.06 1978.12 1157.06Z" fill="#D9D9D9" fill-rule="evenodd"/><path d="M962.5 1157.06 1287.32 1157.06 1287.32 1237.5 962.5 1237.5Z" fill="#DAF2D0" fill-rule="evenodd"/><path d="M1287.32 1157.06 1410.84 1157.06 1410.84 1237.5 1287.32 1237.5Z" fill="#D9D9D9" fill-rule="evenodd"/><path d="M1410.84 1157.06 1831.72 1157.06 1831.72 1237.5 1410.84 1237.5Z" fill="#CAEDFB" fill-rule="evenodd"/><path d="M1978.12 1157.06 2280.06 1157.06 2280.06 1237.5 1978.12 1237.5Z" fill="#D9D9D9" fill-rule="evenodd"/><path d="M962.5 1237.5 1287.32 1237.5 1287.32 1317.94 962.5 1317.94Z" fill="#DAF2D0" fill-rule="evenodd"/><path d="M1287.32 1237.5 1410.84 1237.5 1410.84 1317.94 1287.32 1317.94Z" fill="#D9D9D9" fill-rule="evenodd"/><path d="M1410.84 1237.5 1831.72 1237.5 1831.72 1317.94 1410.84 1317.94Z" fill="#FBE2D5" fill-rule="evenodd"/><path d="M1978.12 1237.5 2280.06 1237.5 2280.06 1317.94 1978.12 1317.94Z" fill="#D9D9D9" fill-rule="evenodd"/><path d="M962.5 1398.38 1287.32 1398.38 1287.32 1478.81 962.5 1478.81Z" fill="#F2CEEF" fill-rule="evenodd"/><path d="M1287.32 1398.38 1410.84 1398.38 1410.84 1478.81 1287.32 1478.81Z" fill="#D9D9D9" fill-rule="evenodd"/><path d="M1410.84 1398.38 1831.72 1398.38 1831.72 1478.81 1410.84 1478.81Z" fill="#DAF2D0" fill-rule="evenodd"/><path d="M1978.12 1398.38 2280.06 1398.38 2280.06 1478.81 1978.12 1478.81Z" fill="#F2F2F2" fill-rule="evenodd"/><path d="M962.5 1478.81 1287.32 1478.81 1287.32 1559.25 962.5 1559.25Z" fill="#F2CEEF" fill-rule="evenodd"/><path d="M1287.32 1478.81 1410.84 1478.81 1410.84 1559.25 1287.32 1559.25Z" fill="#D9D9D9" fill-rule="evenodd"/><path d="M1410.84 1478.81 1831.72 1478.81 1831.72 1559.25 1410.84 1559.25Z" fill="#F2CEEF" fill-rule="evenodd"/><path d="M1978.12 1478.81 2280.06 1478.81 2280.06 1559.25 1978.12 1559.25Z" fill="#F2F2F2" fill-rule="evenodd"/><path d="M962.5 1559.25 1287.32 1559.25 1287.32 1639.69 962.5 1639.69Z" fill="#F2CEEF" fill-rule="evenodd"/><path d="M1287.32 1559.25 1410.84 1559.25 1410.84 1639.69 1287.32 1639.69Z" fill="#D9D9D9" fill-rule="evenodd"/><path d="M1410.84 1559.25 1831.72 1559.25 1831.72 1639.69 1410.84 1639.69Z" fill="#CAEDFB" fill-rule="evenodd"/><path d="M1978.12 1559.25 2280.06 1559.25 2280.06 1639.69 1978.12 1639.69Z" fill="#F2F2F2" fill-rule="evenodd"/><path d="M962.5 1639.69 1287.32 1639.69 1287.32 1720.12 962.5 1720.12Z" fill="#F2CEEF" fill-rule="evenodd"/><path d="M1287.32 1639.69 1410.84 1639.69 1410.84 1720.12 1287.32 1720.12Z" fill="#D9D9D9" fill-rule="evenodd"/><path d="M1410.84 1639.69 1831.72 1639.69 1831.72 1720.12 1410.84 1720.12Z" fill="#DAF2D0" fill-rule="evenodd"/><path d="M1978.12 1639.69 2280.06 1639.69 2280.06 1720.12 1978.12 1720.12Z" fill="#D9D9D9" fill-rule="evenodd"/><path d="M962.5 1720.12 1287.32 1720.12 1287.32 1800.56 962.5 1800.56Z" fill="#F2CEEF" fill-rule="evenodd"/><path d="M1287.32 1720.12 1410.84 1720.12 1410.84 1800.56 1287.32 1800.56Z" fill="#D9D9D9" fill-rule="evenodd"/><path d="M1410.84 1720.12 1831.72 1720.12 1831.72 1800.56 1410.84 1800.56Z" fill="#F2CEEF" fill-rule="evenodd"/><path d="M1978.12 1720.12 2280.06 1720.12 2280.06 1800.56 1978.12 1800.56Z" fill="#D9D9D9" fill-rule="evenodd"/><path d="M962.5 1800.56 1287.32 1800.56 1287.32 1881 962.5 1881Z" fill="#F2CEEF" fill-rule="evenodd"/><path d="M1287.32 1800.56 1410.84 1800.56 1410.84 1881 1287.32 1881Z" fill="#D9D9D9" fill-rule="evenodd"/><path d="M1410.84 1800.56 1831.72 1800.56 1831.72 1881 1410.84 1881Z" fill="#CAEDFB" fill-rule="evenodd"/><path d="M1978.12 1800.56 2280.06 1800.56 2280.06 1881 1978.12 1881Z" fill="#D9D9D9" fill-rule="evenodd"/><g><text font-family="Aptos Narrow,Aptos Narrow_MSFontService,sans-serif" font-weight="700" font-stretch="semi-condensed" font-size="50" transform="matrix(1 0 0 1 3224.59 643)">delta (ns)</text></g><g><text font-family="Aptos Narrow,Aptos Narrow_MSFontService,sans-serif" font-weight="700" font-stretch="semi-condensed" font-size="50" transform="matrix(1 0 0 1 3023.6 643)">min (ns)</text></g><g><text font-family="Aptos Narrow,Aptos Narrow_MSFontService,sans-serif" font-weight="700" font-stretch="semi-condensed" font-size="50" transform="matrix(1 0 0 1 2813.44 643)">max (ns)</text></g><g><text font-family="Aptos Narrow,Aptos Narrow_MSFontService,sans-serif" font-weight="700" font-stretch="semi-condensed" font-size="50" transform="matrix(1 0 0 1 2542.03 643)">duration (s)</text></g><g><text font-family="Aptos Narrow,Aptos Narrow_MSFontService,sans-serif" font-weight="700" font-stretch="semi-condensed" font-size="50" transform="matrix(1 0 0 1 2296.16 643)">passes (B)</text></g><text font-family="Aptos Narrow,Aptos Narrow_MSFontService,sans-serif" font-weight="700" font-stretch="semi-condensed" font-size="50" transform="matrix(1 0 0 1 2082.97 643)">load</text><g><text font-family="Aptos Narrow,Aptos Narrow_MSFontService,sans-serif" font-weight="700" font-stretch="semi-condensed" font-size="50" transform="matrix(1 0 0 1 1847.34 643)">loads</text></g><text font-family="Aptos Narrow,Aptos Narrow_MSFontService,sans-serif" font-weight="700" font-stretch="semi-condensed" font-size="50" transform="matrix(1 0 0 1 1580.89 643)">test</text><g><text font-family="Aptos Narrow,Aptos Narrow_MSFontService,sans-serif" font-weight="700" font-stretch="semi-condensed" font-size="50" transform="matrix(1 0 0 1 1301.81 643)">core</text></g><g><text font-family="Aptos Narrow,Aptos Narrow_MSFontService,sans-serif" font-weight="700" font-stretch="semi-condensed" font-size="50" transform="matrix(1 0 0 1 981.965 643)">optimizations</text></g><text font-family="Aptos Narrow,Aptos Narrow_MSFontService,sans-serif" font-weight="400" font-stretch="semi-condensed" font-size="50" transform="matrix(1 0 0 1 3271.57 724)">4235</text><text font-family="Aptos Narrow,Aptos Narrow_MSFontService,sans-serif" font-weight="400" font-stretch="semi-condensed" font-size="50" transform="matrix(1 0 0 1 3082.33 724)">60</text><text font-family="Aptos Narrow,Aptos Narrow_MSFontService,sans-serif" font-weight="400" font-stretch="semi-condensed" font-size="50" transform="matrix(1 0 0 1 2850.68 724)">4295</text><text font-family="Aptos Narrow,Aptos Narrow_MSFontService,sans-serif" font-weight="400" font-stretch="semi-condensed" font-size="50" transform="matrix(1 0 0 1 2578.13 724)">3598.44</text><text font-family="Aptos Narrow,Aptos Narrow_MSFontService,sans-serif" font-weight="400" font-stretch="semi-condensed" font-size="50" transform="matrix(1 0 0 1 2358.32 724)">5.59</text><g><text font-family="Aptos Narrow,Aptos Narrow_MSFontService,sans-serif" font-weight="400" font-stretch="semi-condensed" font-size="50" transform="matrix(1 0 0 1 1994.45 724)">way_hammer</text></g><text font-family="Aptos Narrow,Aptos Narrow_MSFontService,sans-serif" font-weight="400" font-stretch="semi-condensed" font-size="50" transform="matrix(1 0 0 1 1892.03 724)">2</text><text font-family="Aptos Narrow,Aptos Narrow_MSFontService,sans-serif" font-weight="400" font-stretch="semi-condensed" font-size="50" transform="matrix(1 0 0 1 1493.23 724)">latency_loop</text><text font-family="Aptos Narrow,Aptos Narrow_MSFontService,sans-serif" font-weight="400" font-stretch="semi-condensed" font-size="50" transform="matrix(1 0 0 1 1336.18 724)">3</text><text font-family="Aptos Narrow,Aptos Narrow_MSFontService,sans-serif" font-weight="400" font-stretch="semi-condensed" font-size="50" transform="matrix(1 0 0 1 1058.74 724)">no</text><text font-family="Aptos Narrow,Aptos Narrow_MSFontService,sans-serif" font-weight="400" font-stretch="semi-condensed" font-size="50" transform="matrix(1 0 0 1 1109.73 724)">-</text><text font-family="Aptos Narrow,Aptos Narrow_MSFontService,sans-serif" font-weight="400" font-stretch="semi-condensed" font-size="50" transform="matrix(1 0 0 1 1125.19 724)">opt</text><text font-family="Aptos Narrow,Aptos Narrow_MSFontService,sans-serif" font-weight="400" font-stretch="semi-condensed" font-size="50" transform="matrix(1 0 0 1 3271.57 804)">4753</text><text font-family="Aptos Narrow,Aptos Narrow_MSFontService,sans-serif" font-weight="400" font-stretch="semi-condensed" font-size="50" transform="matrix(1 0 0 1 3056.55 804)">1502</text><text font-family="Aptos Narrow,Aptos Narrow_MSFontService,sans-serif" font-weight="400" font-stretch="semi-condensed" font-size="50" transform="matrix(1 0 0 1 2850.68 804)">6255</text><text font-family="Aptos Narrow,Aptos Narrow_MSFontService,sans-serif" font-weight="400" font-stretch="semi-condensed" font-size="50" transform="matrix(1 0 0 1 2565.24 804)">3586.299</text><text font-family="Aptos Narrow,Aptos Narrow_MSFontService,sans-serif" font-weight="400" font-stretch="semi-condensed" font-size="50" transform="matrix(1 0 0 1 2358.32 804)">2.37</text><g><text font-family="Aptos Narrow,Aptos Narrow_MSFontService,sans-serif" font-weight="400" font-stretch="semi-condensed" font-size="50" transform="matrix(1 0 0 1 1994.45 804)">way_hammer</text></g><text font-family="Aptos Narrow,Aptos Narrow_MSFontService,sans-serif" font-weight="400" font-stretch="semi-condensed" font-size="50" transform="matrix(1 0 0 1 1892.03 804)">2</text><text font-family="Aptos Narrow,Aptos Narrow_MSFontService,sans-serif" font-weight="400" font-stretch="semi-condensed" font-size="50" transform="matrix(1 0 0 1 1452.84 804)">latency_loop_2ki</text><text font-family="Aptos Narrow,Aptos Narrow_MSFontService,sans-serif" font-weight="400" font-stretch="semi-condensed" font-size="50" transform="matrix(1 0 0 1 1336.18 804)">3</text><text font-family="Aptos Narrow,Aptos Narrow_MSFontService,sans-serif" font-weight="400" font-stretch="semi-condensed" font-size="50" transform="matrix(1 0 0 1 1058.74 804)">no</text><text font-family="Aptos Narrow,Aptos Narrow_MSFontService,sans-serif" font-weight="400" font-stretch="semi-condensed" font-size="50" transform="matrix(1 0 0 1 1109.73 804)">-</text><text font-family="Aptos Narrow,Aptos Narrow_MSFontService,sans-serif" font-weight="400" font-stretch="semi-condensed" font-size="50" transform="matrix(1 0 0 1 1125.19 804)">opt</text><text font-family="Aptos Narrow,Aptos Narrow_MSFontService,sans-serif" font-weight="400" font-stretch="semi-condensed" font-size="50" transform="matrix(1 0 0 1 3271.57 885)">4700</text><text font-family="Aptos Narrow,Aptos Narrow_MSFontService,sans-serif" font-weight="400" font-stretch="semi-condensed" font-size="50" transform="matrix(1 0 0 1 3056.55 885)">1525</text><text font-family="Aptos Narrow,Aptos Narrow_MSFontService,sans-serif" font-weight="400" font-stretch="semi-condensed" font-size="50" transform="matrix(1 0 0 1 2850.68 885)">6225</text><text font-family="Aptos Narrow,Aptos Narrow_MSFontService,sans-serif" font-weight="400" font-stretch="semi-condensed" font-size="50" transform="matrix(1 0 0 1 2565.24 885)">3595.343</text><text font-family="Aptos Narrow,Aptos Narrow_MSFontService,sans-serif" font-weight="400" font-stretch="semi-condensed" font-size="50" transform="matrix(1 0 0 1 2371.21 885)">2.2</text><g><text font-family="Aptos Narrow,Aptos Narrow_MSFontService,sans-serif" font-weight="400" font-stretch="semi-condensed" font-size="50" transform="matrix(1 0 0 1 1994.45 885)">way_hammer</text></g><text font-family="Aptos Narrow,Aptos Narrow_MSFontService,sans-serif" font-weight="400" font-stretch="semi-condensed" font-size="50" transform="matrix(1 0 0 1 1892.03 885)">2</text><text font-family="Aptos Narrow,Aptos Narrow_MSFontService,sans-serif" font-weight="400" font-stretch="semi-condensed" font-size="50" transform="matrix(1 0 0 1 1452.56 885)">latency_loop_2kl</text><text font-family="Aptos Narrow,Aptos Narrow_MSFontService,sans-serif" font-weight="400" font-stretch="semi-condensed" font-size="50" transform="matrix(1 0 0 1 1336.18 885)">3</text><text font-family="Aptos Narrow,Aptos Narrow_MSFontService,sans-serif" font-weight="400" font-stretch="semi-condensed" font-size="50" transform="matrix(1 0 0 1 1058.74 885)">no</text><text font-family="Aptos Narrow,Aptos Narrow_MSFontService,sans-serif" font-weight="400" font-stretch="semi-condensed" font-size="50" transform="matrix(1 0 0 1 1109.73 885)">-</text><text font-family="Aptos Narrow,Aptos Narrow_MSFontService,sans-serif" font-weight="400" font-stretch="semi-condensed" font-size="50" transform="matrix(1 0 0 1 1125.19 885)">opt</text><text font-family="Aptos Narrow,Aptos Narrow_MSFontService,sans-serif" font-weight="400" font-stretch="semi-condensed" font-size="50" transform="matrix(1 0 0 1 3297.35 965)">15</text><text font-family="Aptos Narrow,Aptos Narrow_MSFontService,sans-serif" font-weight="400" font-stretch="semi-condensed" font-size="50" transform="matrix(1 0 0 1 3082.33 965)">60</text><text font-family="Aptos Narrow,Aptos Narrow_MSFontService,sans-serif" font-weight="400" font-stretch="semi-condensed" font-size="50" transform="matrix(1 0 0 1 2876.46 965)">75</text><text font-family="Aptos Narrow,Aptos Narrow_MSFontService,sans-serif" font-weight="400" font-stretch="semi-condensed" font-size="50" transform="matrix(1 0 0 1 2578.13 965)">3593.57</text><text font-family="Aptos Narrow,Aptos Narrow_MSFontService,sans-serif" font-weight="400" font-stretch="semi-condensed" font-size="50" transform="matrix(1 0 0 1 2358.32 965)">5.59</text><g><text font-family="Aptos Narrow,Aptos Narrow_MSFontService,sans-serif" font-weight="400" font-stretch="semi-condensed" font-size="50" transform="matrix(1 0 0 1 1994.45 965)">way_hammer</text></g><text font-family="Aptos Narrow,Aptos Narrow_MSFontService,sans-serif" font-weight="400" font-stretch="semi-condensed" font-size="50" transform="matrix(1 0 0 1 1892.03 965)">2</text><g><text font-family="Aptos Narrow,Aptos Narrow_MSFontService,sans-serif" font-weight="400" font-stretch="semi-condensed" font-size="50" transform="matrix(1 0 0 1 1431.64 965)">latency_loop_color</text></g><text font-family="Aptos Narrow,Aptos Narrow_MSFontService,sans-serif" font-weight="400" font-stretch="semi-condensed" font-size="50" transform="matrix(1 0 0 1 1336.18 965)">3</text><text font-family="Aptos Narrow,Aptos Narrow_MSFontService,sans-serif" font-weight="400" font-stretch="semi-condensed" font-size="50" transform="matrix(1 0 0 1 1058.74 965)">no</text><text font-family="Aptos Narrow,Aptos Narrow_MSFontService,sans-serif" font-weight="400" font-stretch="semi-condensed" font-size="50" transform="matrix(1 0 0 1 1109.73 965)">-</text><text font-family="Aptos Narrow,Aptos Narrow_MSFontService,sans-serif" font-weight="400" font-stretch="semi-condensed" font-size="50" transform="matrix(1 0 0 1 1125.19 965)">opt</text><text font-family="Aptos Narrow,Aptos Narrow_MSFontService,sans-serif" font-weight="400" font-stretch="semi-condensed" font-size="50" transform="matrix(1 0 0 1 3271.57 1046)">9003</text><text font-family="Aptos Narrow,Aptos Narrow_MSFontService,sans-serif" font-weight="400" font-stretch="semi-condensed" font-size="50" transform="matrix(1 0 0 1 3082.33 1046)">57</text><text font-family="Aptos Narrow,Aptos Narrow_MSFontService,sans-serif" font-weight="400" font-stretch="semi-condensed" font-size="50" transform="matrix(1 0 0 1 2850.68 1046)">9060</text><text font-family="Aptos Narrow,Aptos Narrow_MSFontService,sans-serif" font-weight="400" font-stretch="semi-condensed" font-size="50" transform="matrix(1 0 0 1 2565.24 1046)">3599.232</text><text font-family="Aptos Narrow,Aptos Narrow_MSFontService,sans-serif" font-weight="400" font-stretch="semi-condensed" font-size="50" transform="matrix(1 0 0 1 2358.32 1046)">5.65</text><text font-family="Aptos Narrow,Aptos Narrow_MSFontService,sans-serif" font-weight="400" font-stretch="semi-condensed" font-size="50" transform="matrix(1 0 0 1 2012.79 1046)">set_crawler</text><text font-family="Aptos Narrow,Aptos Narrow_MSFontService,sans-serif" font-weight="400" font-stretch="semi-condensed" font-size="50" transform="matrix(1 0 0 1 1892.03 1046)">2</text><text font-family="Aptos Narrow,Aptos Narrow_MSFontService,sans-serif" font-weight="400" font-stretch="semi-condensed" font-size="50" transform="matrix(1 0 0 1 1493.23 1046)">latency_loop</text><text font-family="Aptos Narrow,Aptos Narrow_MSFontService,sans-serif" font-weight="400" font-stretch="semi-condensed" font-size="50" transform="matrix(1 0 0 1 1336.18 1046)">3</text><text font-family="Aptos Narrow,Aptos Narrow_MSFontService,sans-serif" font-weight="400" font-stretch="semi-condensed" font-size="50" transform="matrix(1 0 0 1 1058.74 1046)">no</text><text font-family="Aptos Narrow,Aptos Narrow_MSFontService,sans-serif" font-weight="400" font-stretch="semi-condensed" font-size="50" transform="matrix(1 0 0 1 1109.73 1046)">-</text><text font-family="Aptos Narrow,Aptos Narrow_MSFontService,sans-serif" font-weight="400" font-stretch="semi-condensed" font-size="50" transform="matrix(1 0 0 1 1125.19 1046)">opt</text><text font-family="Aptos Narrow,Aptos Narrow_MSFontService,sans-serif" font-weight="400" font-stretch="semi-condensed" font-size="50" transform="matrix(1 0 0 1 3271.57 1126)">6290</text><text font-family="Aptos Narrow,Aptos Narrow_MSFontService,sans-serif" font-weight="400" font-stretch="semi-condensed" font-size="50" transform="matrix(1 0 0 1 3056.55 1126)">1505</text><text font-family="Aptos Narrow,Aptos Narrow_MSFontService,sans-serif" font-weight="400" font-stretch="semi-condensed" font-size="50" transform="matrix(1 0 0 1 2850.68 1126)">7795</text><text font-family="Aptos Narrow,Aptos Narrow_MSFontService,sans-serif" font-weight="400" font-stretch="semi-condensed" font-size="50" transform="matrix(1 0 0 1 2565.24 1126)">3585.325</text><text font-family="Aptos Narrow,Aptos Narrow_MSFontService,sans-serif" font-weight="400" font-stretch="semi-condensed" font-size="50" transform="matrix(1 0 0 1 2358.32 1126)">2.38</text><text font-family="Aptos Narrow,Aptos Narrow_MSFontService,sans-serif" font-weight="400" font-stretch="semi-condensed" font-size="50" transform="matrix(1 0 0 1 2012.79 1126)">set_crawler</text><text font-family="Aptos Narrow,Aptos Narrow_MSFontService,sans-serif" font-weight="400" font-stretch="semi-condensed" font-size="50" transform="matrix(1 0 0 1 1892.03 1126)">2</text><text font-family="Aptos Narrow,Aptos Narrow_MSFontService,sans-serif" font-weight="400" font-stretch="semi-condensed" font-size="50" transform="matrix(1 0 0 1 1452.84 1126)">latency_loop_2ki</text><text font-family="Aptos Narrow,Aptos Narrow_MSFontService,sans-serif" font-weight="400" font-stretch="semi-condensed" font-size="50" transform="matrix(1 0 0 1 1336.18 1126)">3</text><text font-family="Aptos Narrow,Aptos Narrow_MSFontService,sans-serif" font-weight="400" font-stretch="semi-condensed" font-size="50" transform="matrix(1 0 0 1 1058.74 1126)">no</text><text font-family="Aptos Narrow,Aptos Narrow_MSFontService,sans-serif" font-weight="400" font-stretch="semi-condensed" font-size="50" transform="matrix(1 0 0 1 1109.73 1126)">-</text><text font-family="Aptos Narrow,Aptos Narrow_MSFontService,sans-serif" font-weight="400" font-stretch="semi-condensed" font-size="50" transform="matrix(1 0 0 1 1125.19 1126)">opt</text><text font-family="Aptos Narrow,Aptos Narrow_MSFontService,sans-serif" font-weight="400" font-stretch="semi-condensed" font-size="50" transform="matrix(1 0 0 1 3271.57 1207)">6285</text><text font-family="Aptos Narrow,Aptos Narrow_MSFontService,sans-serif" font-weight="400" font-stretch="semi-condensed" font-size="50" transform="matrix(1 0 0 1 3056.55 1207)">1527</text><text font-family="Aptos Narrow,Aptos Narrow_MSFontService,sans-serif" font-weight="400" font-stretch="semi-condensed" font-size="50" transform="matrix(1 0 0 1 2850.68 1207)">7812</text><text font-family="Aptos Narrow,Aptos Narrow_MSFontService,sans-serif" font-weight="400" font-stretch="semi-condensed" font-size="50" transform="matrix(1 0 0 1 2565.24 1207)">3590.639</text><text font-family="Aptos Narrow,Aptos Narrow_MSFontService,sans-serif" font-weight="400" font-stretch="semi-condensed" font-size="50" transform="matrix(1 0 0 1 2358.32 1207)">2.21</text><text font-family="Aptos Narrow,Aptos Narrow_MSFontService,sans-serif" font-weight="400" font-stretch="semi-condensed" font-size="50" transform="matrix(1 0 0 1 2012.79 1207)">set_crawler</text><text font-family="Aptos Narrow,Aptos Narrow_MSFontService,sans-serif" font-weight="400" font-stretch="semi-condensed" font-size="50" transform="matrix(1 0 0 1 1892.03 1207)">2</text><text font-family="Aptos Narrow,Aptos Narrow_MSFontService,sans-serif" font-weight="400" font-stretch="semi-condensed" font-size="50" transform="matrix(1 0 0 1 1452.56 1207)">latency_loop_2kl</text><text font-family="Aptos Narrow,Aptos Narrow_MSFontService,sans-serif" font-weight="400" font-stretch="semi-condensed" font-size="50" transform="matrix(1 0 0 1 1336.18 1207)">3</text><text font-family="Aptos Narrow,Aptos Narrow_MSFontService,sans-serif" font-weight="400" font-stretch="semi-condensed" font-size="50" transform="matrix(1 0 0 1 1058.74 1207)">no</text><text font-family="Aptos Narrow,Aptos Narrow_MSFontService,sans-serif" font-weight="400" font-stretch="semi-condensed" font-size="50" transform="matrix(1 0 0 1 1109.73 1207)">-</text><text font-family="Aptos Narrow,Aptos Narrow_MSFontService,sans-serif" font-weight="400" font-stretch="semi-condensed" font-size="50" transform="matrix(1 0 0 1 1125.19 1207)">opt</text><text font-family="Aptos Narrow,Aptos Narrow_MSFontService,sans-serif" font-weight="400" font-stretch="semi-condensed" font-size="50" transform="matrix(1 0 0 1 3297.35 1287)">12</text><text font-family="Aptos Narrow,Aptos Narrow_MSFontService,sans-serif" font-weight="400" font-stretch="semi-condensed" font-size="50" transform="matrix(1 0 0 1 3082.33 1287)">60</text><text font-family="Aptos Narrow,Aptos Narrow_MSFontService,sans-serif" font-weight="400" font-stretch="semi-condensed" font-size="50" transform="matrix(1 0 0 1 2876.46 1287)">72</text><text font-family="Aptos Narrow,Aptos Narrow_MSFontService,sans-serif" font-weight="400" font-stretch="semi-condensed" font-size="50" transform="matrix(1 0 0 1 2578.13 1287)">3593.57</text><text font-family="Aptos Narrow,Aptos Narrow_MSFontService,sans-serif" font-weight="400" font-stretch="semi-condensed" font-size="50" transform="matrix(1 0 0 1 2358.32 1287)">5.59</text><text font-family="Aptos Narrow,Aptos Narrow_MSFontService,sans-serif" font-weight="400" font-stretch="semi-condensed" font-size="50" transform="matrix(1 0 0 1 2012.79 1287)">set_crawler</text><text font-family="Aptos Narrow,Aptos Narrow_MSFontService,sans-serif" font-weight="400" font-stretch="semi-condensed" font-size="50" transform="matrix(1 0 0 1 1892.03 1287)">2</text><g><text font-family="Aptos Narrow,Aptos Narrow_MSFontService,sans-serif" font-weight="400" font-stretch="semi-condensed" font-size="50" transform="matrix(1 0 0 1 1431.64 1287)">latency_loop_color</text></g><text font-family="Aptos Narrow,Aptos Narrow_MSFontService,sans-serif" font-weight="400" font-stretch="semi-condensed" font-size="50" transform="matrix(1 0 0 1 1336.18 1287)">3</text><text font-family="Aptos Narrow,Aptos Narrow_MSFontService,sans-serif" font-weight="400" font-stretch="semi-condensed" font-size="50" transform="matrix(1 0 0 1 1058.74 1287)">no</text><text font-family="Aptos Narrow,Aptos Narrow_MSFontService,sans-serif" font-weight="400" font-stretch="semi-condensed" font-size="50" transform="matrix(1 0 0 1 1109.73 1287)">-</text><text font-family="Aptos Narrow,Aptos Narrow_MSFontService,sans-serif" font-weight="400" font-stretch="semi-condensed" font-size="50" transform="matrix(1 0 0 1 1125.19 1287)">opt</text><text font-family="Aptos Narrow,Aptos Narrow_MSFontService,sans-serif" font-weight="400" font-stretch="semi-condensed" font-size="50" transform="matrix(1 0 0 1 3271.57 1448)">2867</text><text font-family="Aptos Narrow,Aptos Narrow_MSFontService,sans-serif" font-weight="400" font-stretch="semi-condensed" font-size="50" transform="matrix(1 0 0 1 3082.33 1448)">60</text><text font-family="Aptos Narrow,Aptos Narrow_MSFontService,sans-serif" font-weight="400" font-stretch="semi-condensed" font-size="50" transform="matrix(1 0 0 1 2850.68 1448)">2927</text><text font-family="Aptos Narrow,Aptos Narrow_MSFontService,sans-serif" font-weight="400" font-stretch="semi-condensed" font-size="50" transform="matrix(1 0 0 1 2578.13 1448)">3598.58</text><text font-family="Aptos Narrow,Aptos Narrow_MSFontService,sans-serif" font-weight="400" font-stretch="semi-condensed" font-size="50" transform="matrix(1 0 0 1 2358.32 1448)">5.65</text><g><text font-family="Aptos Narrow,Aptos Narrow_MSFontService,sans-serif" font-weight="400" font-stretch="semi-condensed" font-size="50" transform="matrix(1 0 0 1 1994.45 1448)">way_hammer</text></g><text font-family="Aptos Narrow,Aptos Narrow_MSFontService,sans-serif" font-weight="400" font-stretch="semi-condensed" font-size="50" transform="matrix(1 0 0 1 1892.03 1448)">2</text><text font-family="Aptos Narrow,Aptos Narrow_MSFontService,sans-serif" font-weight="400" font-stretch="semi-condensed" font-size="50" transform="matrix(1 0 0 1 1493.23 1448)">latency_loop</text><text font-family="Aptos Narrow,Aptos Narrow_MSFontService,sans-serif" font-weight="400" font-stretch="semi-condensed" font-size="50" transform="matrix(1 0 0 1 1336.18 1448)">3</text><text font-family="Aptos Narrow,Aptos Narrow_MSFontService,sans-serif" font-weight="400" font-stretch="semi-condensed" font-size="50" transform="matrix(1 0 0 1 993.423 1448)">nl3a+cp+qos</text><text font-family="Aptos Narrow,Aptos Narrow_MSFontService,sans-serif" font-weight="400" font-stretch="semi-condensed" font-size="50" transform="matrix(1 0 0 1 3271.57 1528)">2360</text><text font-family="Aptos Narrow,Aptos Narrow_MSFontService,sans-serif" font-weight="400" font-stretch="semi-condensed" font-size="50" transform="matrix(1 0 0 1 3056.55 1528)">1502</text><text font-family="Aptos Narrow,Aptos Narrow_MSFontService,sans-serif" font-weight="400" font-stretch="semi-condensed" font-size="50" transform="matrix(1 0 0 1 2850.68 1528)">3862</text><text font-family="Aptos Narrow,Aptos Narrow_MSFontService,sans-serif" font-weight="400" font-stretch="semi-condensed" font-size="50" transform="matrix(1 0 0 1 2565.24 1528)">3586.232</text><text font-family="Aptos Narrow,Aptos Narrow_MSFontService,sans-serif" font-weight="400" font-stretch="semi-condensed" font-size="50" transform="matrix(1 0 0 1 2358.32 1528)">2.38</text><g><text font-family="Aptos Narrow,Aptos Narrow_MSFontService,sans-serif" font-weight="400" font-stretch="semi-condensed" font-size="50" transform="matrix(1 0 0 1 1994.45 1528)">way_hammer</text></g><text font-family="Aptos Narrow,Aptos Narrow_MSFontService,sans-serif" font-weight="400" font-stretch="semi-condensed" font-size="50" transform="matrix(1 0 0 1 1892.03 1528)">2</text><text font-family="Aptos Narrow,Aptos Narrow_MSFontService,sans-serif" font-weight="400" font-stretch="semi-condensed" font-size="50" transform="matrix(1 0 0 1 1452.84 1528)">latency_loop_2ki</text><text font-family="Aptos Narrow,Aptos Narrow_MSFontService,sans-serif" font-weight="400" font-stretch="semi-condensed" font-size="50" transform="matrix(1 0 0 1 1336.18 1528)">3</text><text font-family="Aptos Narrow,Aptos Narrow_MSFontService,sans-serif" font-weight="400" font-stretch="semi-condensed" font-size="50" transform="matrix(1 0 0 1 993.423 1528)">nl3a+cp+qos</text><text font-family="Aptos Narrow,Aptos Narrow_MSFontService,sans-serif" font-weight="400" font-stretch="semi-condensed" font-size="50" transform="matrix(1 0 0 1 3271.57 1609)">3145</text><text font-family="Aptos Narrow,Aptos Narrow_MSFontService,sans-serif" font-weight="400" font-stretch="semi-condensed" font-size="50" transform="matrix(1 0 0 1 3056.55 1609)">1525</text><text font-family="Aptos Narrow,Aptos Narrow_MSFontService,sans-serif" font-weight="400" font-stretch="semi-condensed" font-size="50" transform="matrix(1 0 0 1 2850.68 1609)">4670</text><text font-family="Aptos Narrow,Aptos Narrow_MSFontService,sans-serif" font-weight="400" font-stretch="semi-condensed" font-size="50" transform="matrix(1 0 0 1 2565.24 1609)">3584.585</text><text font-family="Aptos Narrow,Aptos Narrow_MSFontService,sans-serif" font-weight="400" font-stretch="semi-condensed" font-size="50" transform="matrix(1 0 0 1 2358.32 1609)">2.21</text><g><text font-family="Aptos Narrow,Aptos Narrow_MSFontService,sans-serif" font-weight="400" font-stretch="semi-condensed" font-size="50" transform="matrix(1 0 0 1 1994.45 1609)">way_hammer</text></g><text font-family="Aptos Narrow,Aptos Narrow_MSFontService,sans-serif" font-weight="400" font-stretch="semi-condensed" font-size="50" transform="matrix(1 0 0 1 1892.03 1609)">2</text><text font-family="Aptos Narrow,Aptos Narrow_MSFontService,sans-serif" font-weight="400" font-stretch="semi-condensed" font-size="50" transform="matrix(1 0 0 1 1452.56 1609)">latency_loop_2kl</text><text font-family="Aptos Narrow,Aptos Narrow_MSFontService,sans-serif" font-weight="400" font-stretch="semi-condensed" font-size="50" transform="matrix(1 0 0 1 1336.18 1609)">3</text><text font-family="Aptos Narrow,Aptos Narrow_MSFontService,sans-serif" font-weight="400" font-stretch="semi-condensed" font-size="50" transform="matrix(1 0 0 1 993.423 1609)">nl3a+cp+qos</text><text font-family="Aptos Narrow,Aptos Narrow_MSFontService,sans-serif" font-weight="400" font-stretch="semi-condensed" font-size="50" transform="matrix(1 0 0 1 3297.35 1689)">15</text><text font-family="Aptos Narrow,Aptos Narrow_MSFontService,sans-serif" font-weight="400" font-stretch="semi-condensed" font-size="50" transform="matrix(1 0 0 1 3082.33 1689)">60</text><text font-family="Aptos Narrow,Aptos Narrow_MSFontService,sans-serif" font-weight="400" font-stretch="semi-condensed" font-size="50" transform="matrix(1 0 0 1 2876.46 1689)">75</text><text font-family="Aptos Narrow,Aptos Narrow_MSFontService,sans-serif" font-weight="400" font-stretch="semi-condensed" font-size="50" transform="matrix(1 0 0 1 2565.24 1689)">3594.919</text><text font-family="Aptos Narrow,Aptos Narrow_MSFontService,sans-serif" font-weight="400" font-stretch="semi-condensed" font-size="50" transform="matrix(1 0 0 1 2358.32 1689)">5.61</text><text font-family="Aptos Narrow,Aptos Narrow_MSFontService,sans-serif" font-weight="400" font-stretch="semi-condensed" font-size="50" transform="matrix(1 0 0 1 2012.79 1689)">set_crawler</text><text font-family="Aptos Narrow,Aptos Narrow_MSFontService,sans-serif" font-weight="400" font-stretch="semi-condensed" font-size="50" transform="matrix(1 0 0 1 1892.03 1689)">2</text><text font-family="Aptos Narrow,Aptos Narrow_MSFontService,sans-serif" font-weight="400" font-stretch="semi-condensed" font-size="50" transform="matrix(1 0 0 1 1493.23 1689)">latency_loop</text><text font-family="Aptos Narrow,Aptos Narrow_MSFontService,sans-serif" font-weight="400" font-stretch="semi-condensed" font-size="50" transform="matrix(1 0 0 1 1336.18 1689)">3</text><text font-family="Aptos Narrow,Aptos Narrow_MSFontService,sans-serif" font-weight="400" font-stretch="semi-condensed" font-size="50" transform="matrix(1 0 0 1 993.423 1689)">nl3a+cp+qos</text><text font-family="Aptos Narrow,Aptos Narrow_MSFontService,sans-serif" font-weight="400" font-stretch="semi-condensed" font-size="50" transform="matrix(1 0 0 1 3297.35 1770)">22</text><text font-family="Aptos Narrow,Aptos Narrow_MSFontService,sans-serif" font-weight="400" font-stretch="semi-condensed" font-size="50" transform="matrix(1 0 0 1 3056.55 1770)">1505</text><text font-family="Aptos Narrow,Aptos Narrow_MSFontService,sans-serif" font-weight="400" font-stretch="semi-condensed" font-size="50" transform="matrix(1 0 0 1 2850.68 1770)">1527</text><text font-family="Aptos Narrow,Aptos Narrow_MSFontService,sans-serif" font-weight="400" font-stretch="semi-condensed" font-size="50" transform="matrix(1 0 0 1 2565.24 1770)">3585.323</text><text font-family="Aptos Narrow,Aptos Narrow_MSFontService,sans-serif" font-weight="400" font-stretch="semi-condensed" font-size="50" transform="matrix(1 0 0 1 2358.32 1770)">2.38</text><text font-family="Aptos Narrow,Aptos Narrow_MSFontService,sans-serif" font-weight="400" font-stretch="semi-condensed" font-size="50" transform="matrix(1 0 0 1 2012.79 1770)">set_crawler</text><text font-family="Aptos Narrow,Aptos Narrow_MSFontService,sans-serif" font-weight="400" font-stretch="semi-condensed" font-size="50" transform="matrix(1 0 0 1 1892.03 1770)">2</text><text font-family="Aptos Narrow,Aptos Narrow_MSFontService,sans-serif" font-weight="400" font-stretch="semi-condensed" font-size="50" transform="matrix(1 0 0 1 1452.84 1770)">latency_loop_2ki</text><text font-family="Aptos Narrow,Aptos Narrow_MSFontService,sans-serif" font-weight="400" font-stretch="semi-condensed" font-size="50" transform="matrix(1 0 0 1 1336.18 1770)">3</text><text font-family="Aptos Narrow,Aptos Narrow_MSFontService,sans-serif" font-weight="400" font-stretch="semi-condensed" font-size="50" transform="matrix(1 0 0 1 993.423 1770)">nl3a+cp+qos</text><text font-family="Aptos Narrow,Aptos Narrow_MSFontService,sans-serif" font-weight="400" font-stretch="semi-condensed" font-size="50" transform="matrix(1 0 0 1 3284.46 1850)">203</text><text font-family="Aptos Narrow,Aptos Narrow_MSFontService,sans-serif" font-weight="400" font-stretch="semi-condensed" font-size="50" transform="matrix(1 0 0 1 3056.55 1850)">1527</text><text font-family="Aptos Narrow,Aptos Narrow_MSFontService,sans-serif" font-weight="400" font-stretch="semi-condensed" font-size="50" transform="matrix(1 0 0 1 2850.68 1850)">1730</text><text font-family="Aptos Narrow,Aptos Narrow_MSFontService,sans-serif" font-weight="400" font-stretch="semi-condensed" font-size="50" transform="matrix(1 0 0 1 2565.24 1850)">3585.675</text><text font-family="Aptos Narrow,Aptos Narrow_MSFontService,sans-serif" font-weight="400" font-stretch="semi-condensed" font-size="50" transform="matrix(1 0 0 1 2358.32 1850)">2.21</text><text font-family="Aptos Narrow,Aptos Narrow_MSFontService,sans-serif" font-weight="400" font-stretch="semi-condensed" font-size="50" transform="matrix(1 0 0 1 2012.79 1850)">set_crawler</text><text font-family="Aptos Narrow,Aptos Narrow_MSFontService,sans-serif" font-weight="400" font-stretch="semi-condensed" font-size="50" transform="matrix(1 0 0 1 1892.03 1850)">2</text><text font-family="Aptos Narrow,Aptos Narrow_MSFontService,sans-serif" font-weight="400" font-stretch="semi-condensed" font-size="50" transform="matrix(1 0 0 1 1452.56 1850)">latency_loop_2kl</text><text font-family="Aptos Narrow,Aptos Narrow_MSFontService,sans-serif" font-weight="400" font-stretch="semi-condensed" font-size="50" transform="matrix(1 0 0 1 1336.18 1850)">3</text><text font-family="Aptos Narrow,Aptos Narrow_MSFontService,sans-serif" font-weight="400" font-stretch="semi-condensed" font-size="50" transform="matrix(1 0 0 1 993.423 1850)">nl3a+cp+qos</text></g></svg>