<?xml version="1.0" encoding="UTF-8" standalone="no"?>
<!DOCTYPE svg PUBLIC "-//W3C//DTD SVG 1.1//EN" "http://www.w3.org/Graphics/SVG/1.1/DTD/svg11.dtd">
<!-- Generated by Microsoft Visio, SVG Export ATF_Linux_bootflow.svg Page-1 -->
<svg xmlns="http://www.w3.org/2000/svg" xmlns:xlink="http://www.w3.org/1999/xlink" xmlns:ev="http://www.w3.org/2001/xml-events"
		xmlns:v="http://schemas.microsoft.com/visio/2003/SVGExtensions/" width="3.75694in" height="2.38194in"
		viewBox="0 0 270.5 171.5" xml:space="preserve" color-interpolation-filters="sRGB" class="st12">
	<v:documentProperties v:langID="1033" v:viewMarkup="false"/>

	<style type="text/css">
	<![CDATA[
		.st1 {fill:#ffffff;stroke:#000000;stroke-width:0.25}
		.st2 {fill:#002060;stroke:#ffffff;stroke-width:0.5}
		.st3 {fill:#feffff;font-family:Calibri;font-size:1.00001em;font-weight:bold}
		.st4 {font-size:1em}
		.st5 {fill:none;stroke:none;stroke-width:0.25}
		.st6 {fill:#000000;font-family:Calibri;font-size:0.833336em}
		.st7 {marker-end:url(#mrkr4-24);stroke:#002060;stroke-linecap:round;stroke-linejoin:round;stroke-width:2.75}
		.st8 {fill:#002060;fill-opacity:1;stroke:#002060;stroke-opacity:1;stroke-width:0.52182163187856}
		.st9 {marker-end:url(#mrkr2-38);stroke:#7f7f7f;stroke-dasharray:3,3;stroke-linecap:round;stroke-linejoin:round;stroke-width:1}
		.st10 {fill:#7f7f7f;fill-opacity:1;stroke:#7f7f7f;stroke-opacity:1;stroke-width:0.28409090909091}
		.st11 {marker-start:url(#mrkr4-54);stroke:#002060;stroke-width:2.75}
		.st12 {fill:none;fill-rule:evenodd;font-size:12px;overflow:visible;stroke-linecap:square;stroke-miterlimit:3}
	]]>
	</style>

	<defs id="Markers">
		<g id="lend4">
			<path d="M 2 1 L 0 0 L 2 -1 L 2 1 " style="stroke:none"/>
		</g>
		<marker id="mrkr4-24" class="st8" v:arrowType="4" v:arrowSize="2" v:setback="3.83273" refX="-3.8327272727273" orient="auto"
				markerUnits="strokeWidth" overflow="visible">
			<use xlink:href="#lend4" transform="scale(-1.9163636363636,-1.9163636363636) "/>
		</marker>
		<g id="lend2">
			<path d="M 1 1 L 0 0 L 1 -1 L 1 1 " style="stroke:none"/>
		</g>
		<marker id="mrkr2-38" class="st10" v:arrowType="2" v:arrowSize="2" v:setback="3.52" refX="-3.52" orient="auto"
				markerUnits="strokeWidth" overflow="visible">
			<use xlink:href="#lend2" transform="scale(-3.52,-3.52) "/>
		</marker>
		<marker id="mrkr4-54" class="st8" v:arrowType="4" v:arrowSize="2" v:setback="3.70182" refX="3.7018181818182" orient="auto"
				markerUnits="strokeWidth" overflow="visible">
			<use xlink:href="#lend4" transform="scale(1.9163636363636) "/>
		</marker>
	</defs>
	<g v:mID="0" v:index="1" v:groupContext="foregroundPage">
		<title>Page-1</title>
		<v:pageProperties v:drawingScale="1" v:pageScale="1" v:drawingUnits="0" v:shadowOffsetX="9" v:shadowOffsetY="-9"/>
		<v:layer v:name="Connector" v:index="0"/>
		<g id="shape1000-1" v:mID="1000" v:groupContext="shape" transform="translate(0.25,-0.25)">
			<title>Sheet.1000</title>
			<rect x="0" y="0.500002" width="270" height="171" class="st1"/>
		</g>
		<g id="shape1001-3" v:mID="1001" v:groupContext="shape" transform="translate(59.875,-81.25)">
			<title>Sheet.1001</title>
			<desc>ATF BL2</desc>
			<v:textBlock v:margins="rect(4,4,4,4)"/>
			<v:textRect cx="30.375" cy="153.5" width="60.75" height="36"/>
			<rect x="0" y="135.5" width="60.75" height="36" class="st2"/>
			<text x="21.01" y="149.9" class="st3" v:langID="1033"><v:paragraph v:horizAlign="1"/><v:tabList/>ATF<v:newlineChar/><tspan
						x="21.43" dy="1.2em" class="st4">BL2</tspan></text>		</g>
		<g id="shape1002-7" v:mID="1002" v:groupContext="shape" transform="translate(164.5,-81.25)">
			<title>Sheet.1002</title>
			<desc>ATF BL31</desc>
			<v:textBlock v:margins="rect(4,4,4,4)"/>
			<v:textRect cx="30.375" cy="153.5" width="60.75" height="36"/>
			<rect x="0" y="135.5" width="60.75" height="36" class="st2"/>
			<text x="21.01" y="149.9" class="st3" v:langID="1033"><v:paragraph v:horizAlign="1"/><v:tabList/>ATF<v:newlineChar/><tspan
						x="18.39" dy="1.2em" class="st4">BL31</tspan></text>		</g>
		<g id="shape1003-11" v:mID="1003" v:groupContext="shape" transform="translate(185.875,-27.25)">
			<title>Sheet.1003</title>
			<desc>Linux</desc>
			<v:textBlock v:margins="rect(4,4,4,4)"/>
			<v:textRect cx="30.375" cy="153.5" width="60.75" height="36"/>
			<rect x="0" y="135.5" width="60.75" height="36" class="st2"/>
			<text x="17.17" y="157.1" class="st3" v:langID="1033"><v:paragraph v:horizAlign="1"/><v:tabList/>Linux</text>		</g>
		<g id="shape1004-14" v:mID="1004" v:groupContext="shape" transform="translate(5.3125,-129.625)">
			<title>Sheet.1004</title>
			<desc>SDM loads BL2 from bitstream into OCRAM</desc>
			<v:textBlock v:margins="rect(4,4,4,4)"/>
			<v:textRect cx="39.9375" cy="155.188" width="79.88" height="32.625"/>
			<rect x="0" y="138.875" width="79.875" height="32.625" class="st5"/>
			<text x="0.4em 0.859em 1.475em 2.33em 3.147em 3.376em 3.904em 4.383em 4.908em 5.299em 6.116em 6.66em 7.081em 7.587em"
					y="146.19" class="st6" v:langID="1033"><v:paragraph v:horizAlign="3"/><v:tabList/>SDM loads BL2 <tspan x="0.4em
							 0.705em 1.054em 1.581em 2.38em 3.648em 4.173em 4.402em 4.737em 5.128em 5.463em 5.812em 6.31em 6.789em
							 7.587em" dy="1.2em" class="st4">from bitstream </tspan><tspan x="0.4em 0.63em 1.155em 1.49em 2.017em
							 2.243em 2.905em 3.439em 3.982em 4.56em" dy="1.2em" class="st4">into OCRAM</tspan></text>		</g>
		<g id="shape1005-19" v:mID="1005" v:groupContext="shape" v:layerMember="0" transform="translate(120.625,-90.25)">
			<title>Dynamic connector.1004</title>
			<path d="M0 162.5 L33.34 162.5" class="st7"/>
		</g>
		<g id="shape1006-25" v:mID="1006" v:groupContext="shape" transform="translate(109.375,-126.25)">
			<title>Sheet.1006</title>
			<desc>BL2 loads BL31 and Linux from flash device into SDRAM</desc>
			<v:textBlock v:margins="rect(4,4,4,4)"/>
			<v:textRect cx="48.9375" cy="149" width="97.88" height="45"/>
			<rect x="0" y="126.5" width="97.875" height="45" class="st5"/>
			<text x="0.4em 0.944em 1.364em 1.871em 2.49em 2.719em 3.247em 3.726em 4.251em 4.642em 5.261em 5.805em 6.225em 6.732em
						 7.239em 7.858em 8.337em 8.862em 9.387em" y="140" class="st6" v:langID="1033"><v:paragraph v:horizAlign="3"/><v:tabList/>BL2 loads BL31 and <tspan
						x="0.4em 0.82em 1.05em 1.575em 2.101em 2.534em 4.006em 4.311em 4.659em 5.187em 5.986em 7.457em 7.762em 7.992em
							 8.471em 8.862em 9.387em" dy="1.2em" class="st4">Linux from flash </tspan><tspan x="0.4em 0.925em 1.423em
							 1.875em 2.104em 2.527em 3.025em 3.251em 3.48em 4.006em 4.34em 4.868em 5.094em 5.553em 6.169em 6.712em
							 7.29em" dy="1.2em" class="st4">device into SDRAM</tspan></text>		</g>
		<g id="shape1007-30" v:mID="1007" v:groupContext="shape" transform="translate(167.313,-54.25)">
			<title>Sheet.1007</title>
			<desc>Linux is launched</desc>
			<v:textBlock v:margins="rect(4,4,4,4)"/>
			<v:textRect cx="39.9375" cy="155.188" width="79.88" height="32.625"/>
			<rect x="0" y="138.875" width="79.875" height="32.625" class="st5"/>
			<text x="0.4em 0.82em 1.05em 1.575em 2.101em 2.534em 2.76em 2.989em 3.381em 3.607em 3.836em 4.315em 4.84em 5.366em 5.789em
						 6.314em 6.812em" y="158.19" class="st6" v:langID="1033"><v:paragraph v:horizAlign="3"/><v:tabList/>Linux is launched</text>		</g>
		<g id="shape1008-33" v:mID="1008" v:groupContext="shape" transform="translate(157.519,-76.0188) rotate(45)">
			<title>Sheet.1008</title>
			<path d="M0 171.5 L19.81 171.5" class="st9"/>
		</g>
		<g id="shape1009-39" v:mID="1009" v:groupContext="shape" transform="translate(265.519,-74.5188) rotate(45)">
			<title>Sheet.1009</title>
			<path d="M0 171.5 L19.81 171.5" class="st9"/>
		</g>
		<g id="shape1010-44" v:mID="1010" v:groupContext="shape" transform="translate(278.719,-22.0188) rotate(45)">
			<title>Sheet.1010</title>
			<path d="M0 171.5 L19.81 171.5" class="st9"/>
		</g>
		<g id="shape1011-49" v:mID="1011" v:groupContext="shape" transform="translate(144.25,-45.25)">
			<title>Sheet.1011</title>
			<path d="M31.45 171.5 L31.09 171.5 L0 171.5 L0 117.5" class="st11"/>
		</g>
	</g>
</svg>
