<svg width="556" height="346" xmlns="http://www.w3.org/2000/svg" xmlns:xlink="http://www.w3.org/1999/xlink" xml:space="preserve" overflow="hidden"><g><path d="M0 0.390747 414.969 0.390747 414.969 346 0 346Z" stroke="#C7C8C8" stroke-width="0.195372" stroke-linecap="square" stroke-miterlimit="3" fill="#FFFFFF" fill-rule="evenodd" transform="matrix(1.00115 0 0 1 0.301161 -0.195372)"/><text font-family="Calibri,Calibri_MSFontService,sans-serif" font-weight="400" font-size="10" transform="matrix(0.782388 0 0 0.781486 3.43071 10)">HPS </text><text font-family="Calibri,Calibri_MSFontService,sans-serif" font-weight="400" font-size="10" transform="matrix(0.782388 0 0 0.781486 17.5137 10)">- </text><text font-family="Calibri,Calibri_MSFontService,sans-serif" font-weight="400" font-size="10" transform="matrix(0.782388 0 0 0.781486 21.4256 10)">Zephyr SIP</text><text font-family="Calibri,Calibri_MSFontService,sans-serif" font-weight="400" font-size="10" transform="matrix(0.782388 0 0 0.781486 55.0683 10)">-</text><text font-family="Calibri,Calibri_MSFontService,sans-serif" font-weight="400" font-size="10" transform="matrix(0.782388 0 0 0.781486 57.4155 10)">SVC Client</text><path d="M0 36.5315 331.448 36.5315 331.448 346 0 346Z" stroke="#C7C8C8" stroke-width="0.195372" stroke-linecap="square" stroke-miterlimit="3" fill="#F2F2F2" fill-rule="evenodd" transform="matrix(1.00115 0 0 1 76.8774 -14.2621)"/><text font-family="Calibri,Calibri_MSFontService,sans-serif" font-weight="400" font-size="10" transform="matrix(0.782388 0 0 0.781486 80.0069 32)">Zephyr kernel service</text><path d="M0 71.6984 240.014 71.6984 240.014 346 0 346Z" stroke="#C7C8C8" stroke-width="0.195372" stroke-linecap="square" stroke-miterlimit="3" fill="#BFBFBF" fill-rule="evenodd" transform="matrix(1.00115 0 0 1 156.974 -21.2955)"/><text font-family="Calibri,Calibri_MSFontService,sans-serif" font-weight="400" font-size="10" transform="matrix(0.782388 0 0 0.781486 160.104 61)">SIP</text><text font-family="Calibri,Calibri_MSFontService,sans-serif" font-weight="400" font-size="10" transform="matrix(0.782388 0 0 0.781486 170.275 61)">-</text><text font-family="Calibri,Calibri_MSFontService,sans-serif" font-weight="400" font-size="10" transform="matrix(0.782388 0 0 0.781486 172.622 61)">SVC service</text><path d="M0 224.674 104.621 224.674 104.621 346 0 346Z" stroke="#C7C8C8" stroke-width="0.195372" stroke-linecap="square" stroke-miterlimit="3" fill="#FFFFFF" fill-rule="evenodd" transform="matrix(1.00115 0 0 1 164.016 -156.688)"/><text font-family="Calibri,Calibri_MSFontService,sans-serif" font-weight="400" font-size="10" transform="matrix(0.782388 0 0 0.781486 167.145 78)">OS Abstract Layer </text><text font-family="Calibri,Calibri_MSFontService,sans-serif" font-weight="400" font-size="10" transform="matrix(0.782388 0 0 0.781486 224.26 78)">- </text><text font-family="Calibri,Calibri_MSFontService,sans-serif" font-weight="400" font-size="10" transform="matrix(0.782388 0 0 0.781486 228.172 78)">Resource</text><path d="M0 326.025 58.0254 326.025 58.0254 346 0 346Z" stroke="#C7C8C8" stroke-width="0.195372" stroke-linecap="square" stroke-miterlimit="3" fill="#FFFFFF" fill-rule="evenodd" transform="matrix(1.00115 0 0 1 171.057 -238.697)"/><text font-family="Calibri,Calibri_MSFontService,sans-serif" font-weight="400" font-size="10" transform="matrix(0.782388 0 0 0.781486 174.187 100)">MSGQ</text><path d="M0 326.025 58.0254 326.025 58.0254 346 0 346Z" stroke="#C7C8C8" stroke-width="0.195372" stroke-linecap="square" stroke-miterlimit="3" fill="#FFFFFF" fill-rule="evenodd" transform="matrix(1.00115 0 0 1 171.057 -213.951)"/><text font-family="Calibri,Calibri_MSFontService,sans-serif" font-weight="400" font-size="10" transform="matrix(0.782388 0 0 0.781486 174.187 124)">MUTEX</text><path d="M0 326.025 58.0254 326.025 58.0254 346 0 346Z" stroke="#C7C8C8" stroke-width="0.195372" stroke-linecap="square" stroke-miterlimit="3" fill="#FFFFFF" fill-rule="evenodd" transform="matrix(1.00115 0 0 1 171.057 -190.097)"/><text font-family="Calibri,Calibri_MSFontService,sans-serif" font-weight="400" font-size="10" transform="matrix(0.782388 0 0 0.781486 174.187 148)">ARM SMC</text><text font-family="Calibri,Calibri_MSFontService,sans-serif" font-weight="400" font-size="10" transform="matrix(0.782388 0 0 0.781486 206.265 148)">/</text><text font-family="Calibri,Calibri_MSFontService,sans-serif" font-weight="400" font-size="10" transform="matrix(0.782388 0 0 0.781486 209.394 148)">HVC</text><path d="M0 326.025 58.0254 326.025 58.0254 346 0 346Z" stroke="#C7C8C8" stroke-width="0.195372" stroke-linecap="square" stroke-miterlimit="3" fill="#FFFFFF" fill-rule="evenodd" transform="matrix(1.00115 0 0 1 171.057 -165.48)"/><text font-family="Calibri,Calibri_MSFontService,sans-serif" font-weight="400" font-size="10" transform="matrix(0.782388 0 0 0.781486 174.187 173)">MEMORY</text><path d="M0 326.025 58.0254 326.025 58.0254 346 0 346Z" stroke="#C7C8C8" stroke-width="0.195372" stroke-linecap="square" stroke-miterlimit="3" fill="#FFFFFF" fill-rule="evenodd" transform="matrix(1.00115 0 0 1 88.3198 -238.697)"/><text font-family="Calibri,Calibri_MSFontService,sans-serif" font-weight="400" font-size="10" transform="matrix(0.782388 0 0 0.781486 91.4494 100)">k</text><text font-family="Calibri,Calibri_MSFontService,sans-serif" font-weight="400" font-size="10" transform="matrix(0.782388 0 0 0.781486 95.3613 100)">_</text><text font-family="Calibri,Calibri_MSFontService,sans-serif" font-weight="400" font-size="10" transform="matrix(0.782388 0 0 0.781486 99.2732 100)">msgq</text><path d="M0 326.025 58.0254 326.025 58.0254 346 0 346Z" stroke="#C7C8C8" stroke-width="0.195372" stroke-linecap="square" stroke-miterlimit="3" fill="#FFFFFF" fill-rule="evenodd" transform="matrix(1.00115 0 0 1 88.3198 -213.951)"/><text font-family="Calibri,Calibri_MSFontService,sans-serif" font-weight="400" font-size="10" transform="matrix(0.782388 0 0 0.781486 91.4494 124)">k</text><text font-family="Calibri,Calibri_MSFontService,sans-serif" font-weight="400" font-size="10" transform="matrix(0.782388 0 0 0.781486 95.3613 124)">_</text><text font-family="Calibri,Calibri_MSFontService,sans-serif" font-weight="400" font-size="10" transform="matrix(0.782388 0 0 0.781486 99.2732 124)">mutex</text><path d="M0 326.025 58.0254 326.025 58.0254 346 0 346Z" stroke="#C7C8C8" stroke-width="0.195372" stroke-linecap="square" stroke-miterlimit="3" fill="#FFFFFF" fill-rule="evenodd" transform="matrix(1.00115 0 0 1 88.3198 -190.097)"/><text font-family="Calibri,Calibri_MSFontService,sans-serif" font-weight="400" font-size="10" transform="matrix(0.782388 0 0 0.781486 91.4494 148)">arm</text><text font-family="Calibri,Calibri_MSFontService,sans-serif" font-weight="400" font-size="10" transform="matrix(0.782388 0 0 0.781486 103.968 148)">_</text><text font-family="Calibri,Calibri_MSFontService,sans-serif" font-weight="400" font-size="10" transform="matrix(0.782388 0 0 0.781486 107.88 148)">smccc</text><text font-family="Calibri,Calibri_MSFontService,sans-serif" font-weight="400" font-size="10" transform="matrix(0.782388 0 0 0.781486 126.657 148)">_</text><text font-family="Calibri,Calibri_MSFontService,sans-serif" font-weight="400" font-size="10" transform="matrix(0.782388 0 0 0.781486 130.569 148)">*</text><path d="M0 326.025 58.0254 326.025 58.0254 346 0 346Z" stroke="#C7C8C8" stroke-width="0.195372" stroke-linecap="square" stroke-miterlimit="3" fill="#FFFFFF" fill-rule="evenodd" transform="matrix(1.00115 0 0 1 88.3198 -165.48)"/><text font-family="Calibri,Calibri_MSFontService,sans-serif" font-weight="400" font-size="10" transform="matrix(0.782388 0 0 0.781486 91.4494 173)">k</text><text font-family="Calibri,Calibri_MSFontService,sans-serif" font-weight="400" font-size="10" transform="matrix(0.782388 0 0 0.781486 95.3613 173)">_</text><text font-family="Calibri,Calibri_MSFontService,sans-serif" font-weight="400" font-size="10" transform="matrix(0.782388 0 0 0.781486 99.2732 173)">heap</text><path d="M0 224.674 112.534 224.674 112.534 346 0 346Z" stroke="#C7C8C8" stroke-width="0.195372" stroke-linecap="square" stroke-miterlimit="3" fill="#FFFFFF" fill-rule="evenodd" transform="matrix(1.00115 0 0 1 163.576 -28.3289)"/><text font-family="Calibri,Calibri_MSFontService,sans-serif" font-weight="400" font-size="10" transform="matrix(0.782388 0 0 0.781486 166.706 207)">OS Abstract Layer </text><text font-family="Calibri,Calibri_MSFontService,sans-serif" font-weight="400" font-size="10" transform="matrix(0.782388 0 0 0.781486 223.82 207)">- </text><text font-family="Calibri,Calibri_MSFontService,sans-serif" font-weight="400" font-size="10" transform="matrix(0.782388 0 0 0.781486 227.732 207)">API</text><path d="M0 326.025 98.0273 326.025 98.0273 346-2.76649e-06 346Z" stroke="#C7C8C8" stroke-width="0.195372" stroke-linecap="square" stroke-miterlimit="3" fill="#FFFFFF" fill-rule="evenodd" transform="matrix(1.00115 0 0 1 170.618 -110.338)"/><text font-family="Calibri,Calibri_MSFontService,sans-serif" font-weight="400" font-size="10" transform="matrix(0.782388 0 0 0.781486 173.747 228)">sip</text><text font-family="Calibri,Calibri_MSFontService,sans-serif" font-weight="400" font-size="10" transform="matrix(0.782388 0 0 0.781486 182.353 228)">_</text><text font-family="Calibri,Calibri_MSFontService,sans-serif" font-weight="400" font-size="10" transform="matrix(0.782388 0 0 0.781486 186.265 228)">svc</text><text font-family="Calibri,Calibri_MSFontService,sans-serif" font-weight="400" font-size="10" transform="matrix(0.782388 0 0 0.781486 196.436 228)">_</text><text font-family="Calibri,Calibri_MSFontService,sans-serif" font-weight="400" font-size="10" transform="matrix(0.782388 0 0 0.781486 200.348 228)">register</text><text font-family="Calibri,Calibri_MSFontService,sans-serif" font-weight="400" font-size="10" transform="matrix(0.782388 0 0 0.781486 223.82 228)">/</text><text font-family="Calibri,Calibri_MSFontService,sans-serif" font-weight="400" font-size="10" transform="matrix(0.782388 0 0 0.781486 226.95 228)">unregister</text><path d="M0 326.025 98.0273 326.025 98.0273 346-2.76649e-06 346Z" stroke="#C7C8C8" stroke-width="0.195372" stroke-linecap="square" stroke-miterlimit="3" fill="#FFFFFF" fill-rule="evenodd" transform="matrix(1.00115 0 0 1 170.618 -85.5923)"/><text font-family="Calibri,Calibri_MSFontService,sans-serif" font-weight="400" font-size="10" transform="matrix(0.782388 0 0 0.781486 173.747 253)">sip</text><text font-family="Calibri,Calibri_MSFontService,sans-serif" font-weight="400" font-size="10" transform="matrix(0.782388 0 0 0.781486 182.353 253)">_</text><text font-family="Calibri,Calibri_MSFontService,sans-serif" font-weight="400" font-size="10" transform="matrix(0.782388 0 0 0.781486 186.265 253)">svc</text><text font-family="Calibri,Calibri_MSFontService,sans-serif" font-weight="400" font-size="10" transform="matrix(0.782388 0 0 0.781486 196.436 253)">_</text><text font-family="Calibri,Calibri_MSFontService,sans-serif" font-weight="400" font-size="10" transform="matrix(0.782388 0 0 0.781486 200.348 253)">open</text><text font-family="Calibri,Calibri_MSFontService,sans-serif" font-weight="400" font-size="10" transform="matrix(0.782388 0 0 0.781486 215.996 253)">/</text><text font-family="Calibri,Calibri_MSFontService,sans-serif" font-weight="400" font-size="10" transform="matrix(0.782388 0 0 0.781486 219.126 253)">close</text><path d="M0 326.025 98.0273 326.025 98.0273 346-2.76649e-06 346Z" stroke="#C7C8C8" stroke-width="0.195372" stroke-linecap="square" stroke-miterlimit="3" fill="#FFFFFF" fill-rule="evenodd" transform="matrix(1.00115 0 0 1 170.618 -61.7374)"/><text font-family="Calibri,Calibri_MSFontService,sans-serif" font-weight="400" font-size="10" transform="matrix(0.782388 0 0 0.781486 173.747 277)">sip</text><text font-family="Calibri,Calibri_MSFontService,sans-serif" font-weight="400" font-size="10" transform="matrix(0.782388 0 0 0.781486 182.353 277)">_</text><text font-family="Calibri,Calibri_MSFontService,sans-serif" font-weight="400" font-size="10" transform="matrix(0.782388 0 0 0.781486 186.265 277)">svc</text><text font-family="Calibri,Calibri_MSFontService,sans-serif" font-weight="400" font-size="10" transform="matrix(0.782388 0 0 0.781486 196.436 277)">_</text><text font-family="Calibri,Calibri_MSFontService,sans-serif" font-weight="400" font-size="10" transform="matrix(0.782388 0 0 0.781486 200.348 277)">send</text><path d="M0 326.025 98.0273 326.025 98.0273 346-2.76649e-06 346Z" stroke="#C7C8C8" stroke-width="0.195372" stroke-linecap="square" stroke-miterlimit="3" fill="#FFFFFF" fill-rule="evenodd" transform="matrix(1.00115 0 0 1 170.618 -37.1206)"/><text font-family="Calibri,Calibri_MSFontService,sans-serif" font-weight="400" font-size="10" transform="matrix(0.782388 0 0 0.781486 173.747 301)">sip</text><text font-family="Calibri,Calibri_MSFontService,sans-serif" font-weight="400" font-size="10" transform="matrix(0.782388 0 0 0.781486 182.353 301)">_</text><text font-family="Calibri,Calibri_MSFontService,sans-serif" font-weight="400" font-size="10" transform="matrix(0.782388 0 0 0.781486 186.265 301)">svc</text><text font-family="Calibri,Calibri_MSFontService,sans-serif" font-weight="400" font-size="10" transform="matrix(0.782388 0 0 0.781486 196.436 301)">_</text><text font-family="Calibri,Calibri_MSFontService,sans-serif" font-weight="400" font-size="10" transform="matrix(0.782388 0 0 0.781486 200.348 301)">callback</text><path d="M0 224.674 112.534 224.674 112.534 346 0 346Z" stroke="#C7C8C8" stroke-width="0.195372" stroke-linecap="square" stroke-miterlimit="3" fill="#FFFFFF" fill-rule="evenodd" transform="matrix(1.00115 0 0 1 277.56 -157.567)"/><text font-family="Calibri,Calibri_MSFontService,sans-serif" font-weight="400" font-size="10" transform="matrix(0.782388 0 0 0.781486 280.689 77)">subsystem </text><text font-family="Calibri,Calibri_MSFontService,sans-serif" font-weight="400" font-size="10" transform="matrix(0.782388 0 0 0.781486 315.897 77)">(</text><text font-family="Calibri,Calibri_MSFontService,sans-serif" font-weight="400" font-size="10" transform="matrix(0.782388 0 0 0.781486 318.244 77)">Run as a thread</text><text font-family="Calibri,Calibri_MSFontService,sans-serif" font-weight="400" font-size="10" transform="matrix(0.782388 0 0 0.781486 365.97 77)">)</text><path d="M0 322.952 94.9506 322.952 94.9506 346 0 346Z" stroke="#C7C8C8" stroke-width="0.195372" stroke-linecap="square" stroke-miterlimit="3" fill="#FFFFFF" fill-rule="evenodd" transform="matrix(1.00115 0 0 1 284.601 -235.624)"/><text font-family="Calibri,Calibri_MSFontService,sans-serif" font-weight="400" font-size="10" transform="matrix(0.782388 0 0 0.781486 287.731 101)">Command handler</text><path d="M0 322.952 94.9506 322.952 94.9506 346 0 346Z" stroke="#C7C8C8" stroke-width="0.195372" stroke-linecap="square" stroke-miterlimit="3" fill="#FFFFFF" fill-rule="evenodd" transform="matrix(1.00115 0 0 1 284.601 -207.071)"/><text font-family="Calibri,Calibri_MSFontService,sans-serif" font-weight="400" font-size="10" transform="matrix(0.782388 0 0 0.781486 287.731 130)">Mailbox Response handler</text><path d="M0 322.952 94.9506 322.952 94.9506 346 0 346Z" stroke="#C7C8C8" stroke-width="0.195372" stroke-linecap="square" stroke-miterlimit="3" fill="#FFFFFF" fill-rule="evenodd" transform="matrix(1.00115 0 0 1 284.601 -179.547)"/><text font-family="Calibri,Calibri_MSFontService,sans-serif" font-weight="400" font-size="10" transform="matrix(0.782388 0 0 0.781486 287.731 153)">ID Management</text><text font-family="Calibri,Calibri_MSFontService,sans-serif" font-weight="400" font-size="10" transform="matrix(0.782388 0 0 0.781486 287.731 162)">Client ID</text><text font-family="Calibri,Calibri_MSFontService,sans-serif" font-weight="400" font-size="10" transform="matrix(0.782388 0 0 0.781486 313.55 162)">/</text><text font-family="Calibri,Calibri_MSFontService,sans-serif" font-weight="400" font-size="10" transform="matrix(0.782388 0 0 0.781486 316.679 162)">Trans ID</text><text font-family="Calibri,Calibri_MSFontService,sans-serif" font-weight="400" font-size="10" transform="matrix(0.782388 0 0 0.781486 341.716 162)">/</text><text font-family="Calibri,Calibri_MSFontService,sans-serif" font-weight="400" font-size="10" transform="matrix(0.782388 0 0 0.781486 344.845 162)">Job ID</text><path d="M0 233.466 36.9252 233.466 36.9252 346 0 346Z" stroke="#C7C8C8" stroke-width="0.195372" stroke-linecap="square" stroke-miterlimit="3" fill="#FFFFFF" fill-rule="evenodd" transform="matrix(1.00115 0 0 1 431.593 -44.934)"/><text font-family="Calibri,Calibri_MSFontService,sans-serif" font-weight="400" font-size="10" transform="matrix(0.782388 0 0 0.781486 444.111 247)">ATF</text><path d="M0 233.466 36.9252 233.466 36.9252 346 0 346Z" stroke="#C7C8C8" stroke-width="0.195372" stroke-linecap="square" stroke-miterlimit="3" fill="#FFFFFF" fill-rule="evenodd" transform="matrix(1.00115 0 0 1 518.731 -44.934)"/><text font-family="Calibri,Calibri_MSFontService,sans-serif" font-weight="400" font-size="10" transform="matrix(0.782388 0 0 0.781486 529.669 247)">SDM</text><path d="M7.97116 353.036 8.2525 353.036 42.7395 353.036" stroke="#4672C4" stroke-width="0.781486" stroke-linecap="round" stroke-linejoin="round" stroke-miterlimit="3" fill="none" fill-rule="evenodd" transform="matrix(1.00115 0 0 1 380.542 -108.234)"/><path d="M8.2525 2.75083 0 0 8.2525-2.75083 8.2525 2.75083" stroke="#4672C4" stroke-width="0.781487" stroke-linecap="square" stroke-miterlimit="3" fill="#4672C4" fill-rule="evenodd" transform="matrix(1.00115 0 0 1 380.542 244.802)"/><path d="M8.2525 2.75083 0 0 8.2525-2.75083 8.2525 2.75083" stroke="#4672C4" stroke-width="0.781487" stroke-linecap="square" stroke-miterlimit="3" fill="#4672C4" fill-rule="evenodd" transform="matrix(-1.00115 0 0 -1 431.593 244.802)"/><path d="M14.1782 345.531 36.8139 345.531 36.8139 360.535 14.1782 360.535Z" fill="#FFFFFF" fill-rule="evenodd" transform="matrix(1.00115 0 0 1 380.542 -108.234)"/><text font-family="Calibri,Calibri_MSFontService,sans-serif" font-weight="400" font-size="8" transform="matrix(0.782388 0 0 0.781486 400.281 243)">SMC</text><text font-family="Calibri,Calibri_MSFontService,sans-serif" font-weight="400" font-size="8" transform="matrix(0.782388 0 0 0.781486 394.734 250)">(</text><text font-family="Calibri,Calibri_MSFontService,sans-serif" font-weight="400" font-size="8" transform="matrix(0.782388 0 0 0.781486 396.299 250)">SIP SVC</text><text font-family="Calibri,Calibri_MSFontService,sans-serif" font-weight="400" font-size="8" transform="matrix(0.782388 0 0 0.781486 415.859 250)">)</text><path d="M7.97116 338.97 8.2525 338.97 41.8642 338.97" stroke="#4672C4" stroke-width="0.781486" stroke-linecap="round" stroke-linejoin="round" stroke-miterlimit="3" fill="none" fill-rule="evenodd" transform="matrix(1.00115 0 0 1 468.56 -94.1676)"/><path d="M8.2525 2.75083 0 0 8.2525-2.75083 8.2525 2.75083" stroke="#4672C4" stroke-width="0.781487" stroke-linecap="square" stroke-miterlimit="3" fill="#4672C4" fill-rule="evenodd" transform="matrix(1.00115 0 0 1 468.56 244.802)"/><path d="M8.2525 2.75083 0 0 8.2525-2.75083 8.2525 2.75083" stroke="#4672C4" stroke-width="0.781487" stroke-linecap="square" stroke-miterlimit="3" fill="#4672C4" fill-rule="evenodd" transform="matrix(-1.00115 0 0 -1 518.735 244.802)"/><path d="M13.081 335.215 37.032 335.215 37.032 342.718 13.081 342.718Z" fill="#FFFFFF" fill-rule="evenodd" transform="matrix(1.00115 0 0 1 468.56 -94.1676)"/><text font-family="Calibri,Calibri_MSFontService,sans-serif" font-weight="400" font-size="8" transform="matrix(0.782388 0 0 0.781486 481.658 247)">MAILBOX</text><path d="M0 326.025 58.0254 326.025 58.0254 346 0 346Z" stroke="#C7C8C8" stroke-width="0.195372" stroke-linecap="square" stroke-miterlimit="3" fill="#FFFFFF" fill-rule="evenodd" transform="matrix(1.00115 0 0 1 87.4396 -110.338)"/><text font-family="Calibri,Calibri_MSFontService,sans-serif" font-weight="400" font-size="9" transform="matrix(0.782388 0 0 0.781486 90.5692 228)">register</text><text font-family="Calibri,Calibri_MSFontService,sans-serif" font-weight="400" font-size="9" transform="matrix(0.782388 0 0 0.781486 111.694 228)">/</text><text font-family="Calibri,Calibri_MSFontService,sans-serif" font-weight="400" font-size="9" transform="matrix(0.782388 0 0 0.781486 114.041 228)">unregiser</text><path d="M0 326.025 58.0254 326.025 58.0254 346 0 346Z" stroke="#C7C8C8" stroke-width="0.195372" stroke-linecap="square" stroke-miterlimit="3" fill="#FFFFFF" fill-rule="evenodd" transform="matrix(1.00115 0 0 1 87.4396 -85.5923)"/><text font-family="Calibri,Calibri_MSFontService,sans-serif" font-weight="400" font-size="9" transform="matrix(0.782388 0 0 0.781486 90.5692 253)">open</text><text font-family="Calibri,Calibri_MSFontService,sans-serif" font-weight="400" font-size="9" transform="matrix(0.782388 0 0 0.781486 105.435 253)">/</text><text font-family="Calibri,Calibri_MSFontService,sans-serif" font-weight="400" font-size="9" transform="matrix(0.782388 0 0 0.781486 107.782 253)">close</text><path d="M0 326.025 58.0254 326.025 58.0254 346 0 346Z" stroke="#C7C8C8" stroke-width="0.195372" stroke-linecap="square" stroke-miterlimit="3" fill="#FFFFFF" fill-rule="evenodd" transform="matrix(1.00115 0 0 1 87.4396 -61.7374)"/><text font-family="Calibri,Calibri_MSFontService,sans-serif" font-weight="400" font-size="9" transform="matrix(0.782388 0 0 0.781486 90.5692 276)">send</text><path d="M0 326.025 58.0254 326.025 58.0254 346 0 346Z" stroke="#C7C8C8" stroke-width="0.195372" stroke-linecap="square" stroke-miterlimit="3" fill="#FFFFFF" fill-rule="evenodd" transform="matrix(1.00115 0 0 1 9.98321 -37.1206)"/><text font-family="Calibri,Calibri_MSFontService,sans-serif" font-weight="400" font-size="10" transform="matrix(0.782388 0 0 0.781486 13.1128 301)">callback</text><path d="M0 346.003 39.2228 346.003" stroke="#000000" stroke-width="0.781486" stroke-linecap="round" stroke-linejoin="round" stroke-miterlimit="3" stroke-dasharray="5.4704 3.90743" fill="none" fill-rule="evenodd" transform="matrix(1.00115 0 0 1 39.9096 -120.325)"/><path d="M8.2525 2.75083 0 0 8.2525-2.75083 8.2525 2.75083" stroke="#000000" stroke-width="0.781487" stroke-linecap="square" stroke-miterlimit="3" fill-rule="evenodd" transform="matrix(-1.00115 0 0 -1 87.4396 225.678)"/><path d="M0 346.003 39.2228 346.003" stroke="#000000" stroke-width="0.781486" stroke-linecap="round" stroke-linejoin="round" stroke-miterlimit="3" stroke-dasharray="5.4704 3.90743" fill="none" fill-rule="evenodd" transform="matrix(1.00115 0 0 1 39.9096 -95.5797)"/><path d="M8.2525 2.75083 0 0 8.2525-2.75083 8.2525 2.75083" stroke="#000000" stroke-width="0.781487" stroke-linecap="square" stroke-miterlimit="3" fill-rule="evenodd" transform="matrix(-1.00115 0 0 -1 87.4396 250.423)"/><path d="M0 346.003 39.2228 346.003" stroke="#000000" stroke-width="0.781486" stroke-linecap="round" stroke-linejoin="round" stroke-miterlimit="3" stroke-dasharray="5.4704 3.90743" fill="none" fill-rule="evenodd" transform="matrix(1.00115 0 0 1 39.9096 -71.7248)"/><path d="M8.2525 2.75083 0 0 8.2525-2.75083 8.2525 2.75083" stroke="#000000" stroke-width="0.781487" stroke-linecap="square" stroke-miterlimit="3" fill-rule="evenodd" transform="matrix(-1.00115 0 0 -1 87.4396 274.278)"/><path d="M0 346.003 94.1691 346.003" stroke="#000000" stroke-width="0.781486" stroke-linecap="round" stroke-linejoin="round" stroke-miterlimit="3" stroke-dasharray="0.781486 1.56297" fill="none" fill-rule="evenodd" transform="matrix(1.00115 0 0 1 68.0755 -47.108)"/><path d="M8.2525 2.75083 0 0 8.2525-2.75083 8.2525 2.75083" stroke="#000000" stroke-width="0.781487" stroke-linecap="square" stroke-miterlimit="3" fill-rule="evenodd" transform="matrix(-1.00115 0 0 -1 170.615 298.895)"/><path d="M3.12604 349.126 60.1126 349.126 60.1126 358.504 3.12604 358.504Z" fill="#FFFFFF" fill-rule="evenodd" transform="matrix(1.00115 0 0 1 68.0755 -47.108)"/><text font-family="Calibri,Calibri_MSFontService,sans-serif" font-weight="400" font-size="10" transform="matrix(0.782388 0 0 0.781486 71.2051 309)">Provided by client</text><path d="M0 326.025 29.8919 326.025 29.8919 346 0 346Z" fill="#FFFFFF" fill-rule="evenodd" transform="matrix(1.00115 0 0 1 9.98321 -110.338)"/><text font-family="Calibri,Calibri_MSFontService,sans-serif" font-weight="400" font-size="10" transform="matrix(0.782388 0 0 0.781486 13.1128 228)">invoke</text><path d="M0 326.025 29.8919 326.025 29.8919 346 0 346Z" fill="#FFFFFF" fill-rule="evenodd" transform="matrix(1.00115 0 0 1 9.98321 -85.5923)"/><text font-family="Calibri,Calibri_MSFontService,sans-serif" font-weight="400" font-size="10" transform="matrix(0.782388 0 0 0.781486 13.1128 253)">invoke</text><path d="M0 326.025 29.8919 326.025 29.8919 346 0 346Z" fill="#FFFFFF" fill-rule="evenodd" transform="matrix(1.00115 0 0 1 9.98321 -61.7374)"/><text font-family="Calibri,Calibri_MSFontService,sans-serif" font-weight="400" font-size="10" transform="matrix(0.782388 0 0 0.781486 13.1128 277)">invoke</text><path d="M0 326.025 29.8919 326.025 29.8919 346 0 346Z" fill="#FFFFFF" fill-rule="evenodd" transform="matrix(1.00115 0 0 1 288.122 -37.1206)"/><text font-family="Calibri,Calibri_MSFontService,sans-serif" font-weight="400" font-size="10" transform="matrix(0.782388 0 0 0.781486 291.252 301)">invoke</text><path d="M0 346.003 11.0893 346.003" stroke="#000000" stroke-width="0.781486" stroke-linecap="round" stroke-linejoin="round" stroke-miterlimit="3" stroke-dasharray="5.4704 3.90743" fill="none" fill-rule="evenodd" transform="matrix(-1.00115 1.22465e-16 -1.22606e-16 -1 288.122 644.892)"/><path d="M8.2525 2.75083 0 0 8.2525-2.75083 8.2525 2.75083" stroke="#000000" stroke-width="0.781487" stroke-linecap="square" stroke-miterlimit="3" fill-rule="evenodd" transform="matrix(1.00115 -1.22465e-16 1.22606e-16 1 268.758 298.889)"/><path d="M0 346.003 25.0545 346.003" stroke="#000000" stroke-width="0.781486" stroke-linecap="round" stroke-linejoin="round" stroke-miterlimit="3" stroke-dasharray="0.781486 1.56297" fill="none" fill-rule="evenodd" transform="matrix(1.00115 0 0 1 145.532 -120.325)"/><path d="M0 346.003 25.0545 346.003" stroke="#000000" stroke-width="0.781486" stroke-linecap="round" stroke-linejoin="round" stroke-miterlimit="3" stroke-dasharray="0.781486 1.56297" fill="none" fill-rule="evenodd" transform="matrix(1.00115 0 0 1 145.532 -95.5797)"/><path d="M0 346.003 25.0545 346.003" stroke="#000000" stroke-width="0.781486" stroke-linecap="round" stroke-linejoin="round" stroke-miterlimit="3" stroke-dasharray="0.781486 1.56297" fill="none" fill-rule="evenodd" transform="matrix(1.00115 0 0 1 145.532 -71.7248)"/><path d="M0 346.003 24.6168 346.003" stroke="#000000" stroke-width="0.781486" stroke-linecap="round" stroke-linejoin="round" stroke-miterlimit="3" stroke-dasharray="0.781486 1.56297" fill="none" fill-rule="evenodd" transform="matrix(1.00115 0 0 1 146.412 -248.685)"/><path d="M0 346.003 24.6168 346.003" stroke="#000000" stroke-width="0.781486" stroke-linecap="round" stroke-linejoin="round" stroke-miterlimit="3" stroke-dasharray="0.781486 1.56297" fill="none" fill-rule="evenodd" transform="matrix(1.00115 0 0 1 146.412 -223.939)"/><path d="M0 346.003 24.6168 346.003" stroke="#000000" stroke-width="0.781486" stroke-linecap="round" stroke-linejoin="round" stroke-miterlimit="3" stroke-dasharray="0.781486 1.56297" fill="none" fill-rule="evenodd" transform="matrix(1.00115 0 0 1 146.412 -200.084)"/><path d="M0 346.003 24.6168 346.003" stroke="#000000" stroke-width="0.781486" stroke-linecap="round" stroke-linejoin="round" stroke-miterlimit="3" stroke-dasharray="0.781486 1.56297" fill="none" fill-rule="evenodd" transform="matrix(1.00115 0 0 1 146.412 -175.467)"/><path d="M0 293.49 93.1923 293.49 93.1923 346 0 346Z" stroke="#C7C8C8" stroke-width="0.195372" stroke-linecap="square" stroke-miterlimit="3" fill="#FFFFFF" fill-rule="evenodd" transform="matrix(1.00115 0 0 1 287.242 -74.6788)"/><text font-family="Calibri,Calibri_MSFontService,sans-serif" font-weight="400" font-size="10" transform="matrix(0.782388 0 0 0.781486 311.559 247)">SiP SVC Driver</text><path d="M-7.03338 353.974-7.03338 354.256-7.03338 368.127" stroke="#4672C4" stroke-width="0.781486" stroke-linecap="round" stroke-linejoin="round" stroke-miterlimit="3" fill="none" fill-rule="evenodd" transform="matrix(1.00115 0 0 1 340.933 -157.567)"/><path d="M8.2525 2.75083 0 0 8.2525-2.75083 8.2525 2.75083" stroke="#4672C4" stroke-width="0.781487" stroke-linecap="square" stroke-miterlimit="3" fill="#4672C4" fill-rule="evenodd" transform="matrix(6.1303e-17 1 -1.00115 6.12323e-17 333.892 188.436)"/><path d="M8.2525 2.75083 0 0 8.2525-2.75083 8.2525 2.75083" stroke="#4672C4" stroke-width="0.781487" stroke-linecap="square" stroke-miterlimit="3" fill="#4672C4" fill-rule="evenodd" transform="matrix(-6.1303e-17 -1 1.00115 -6.12323e-17 333.892 218.812)"/><path d="M-19.7386 357.438 5.67203 357.438 5.67203 364.94-19.7386 364.94Z" fill="#FFFFFF" fill-rule="evenodd" transform="matrix(1.00115 0 0 1 340.933 -157.567)"/><text font-family="Calibri,Calibri_MSFontService,sans-serif" font-weight="400" font-size="8" transform="matrix(0.782388 0 0 0.781486 321.17 205)">Driver API</text></g></svg>