<?xml version="1.0" encoding="UTF-8" standalone="no"?>
<!DOCTYPE svg PUBLIC "-//W3C//DTD SVG 1.1//EN" "http://www.w3.org/Graphics/SVG/1.1/DTD/svg11.dtd">
<!-- Generated by Microsoft Visio, SVG Export f2sdramDataFlow.svg Page-1 -->
<svg xmlns="http://www.w3.org/2000/svg" xmlns:xlink="http://www.w3.org/1999/xlink" xmlns:ev="http://www.w3.org/2001/xml-events"
		xmlns:v="http://schemas.microsoft.com/visio/2003/SVGExtensions/" width="7.71644in" height="5.8545in"
		viewBox="0 0 555.583 421.524" xml:space="preserve" color-interpolation-filters="sRGB" class="st42">
	<v:documentProperties v:langID="1033" v:viewMarkup="false"/>

	<style type="text/css">
	<![CDATA[
		.st1 {fill:#d8d8d8;stroke:#000000;stroke-width:1}
		.st2 {fill:#00b0f0;stroke:#000000;stroke-width:1}
		.st3 {fill:#70ad47;stroke:#000000;stroke-width:1}
		.st4 {fill:#000000;font-family:Calibri;font-size:1.00001em;font-weight:bold}
		.st5 {fill:#e2efd9;stroke:#000000;stroke-width:1}
		.st6 {fill:none;stroke:none;stroke-width:0.25}
		.st7 {fill:#c5e0b3;stroke:#000000;stroke-width:0.25}
		.st8 {fill:#000000;font-family:Calibri;font-size:0.833336em}
		.st9 {marker-end:url(#mrkr2-30);marker-start:url(#mrkr2-28);stroke:#000000;stroke-linecap:round;stroke-linejoin:round;stroke-width:6}
		.st10 {fill:#000000;fill-opacity:1;stroke:#000000;stroke-opacity:1;stroke-width:0.70422535211268}
		.st11 {fill:#002060;stroke:#000000;stroke-width:0.25}
		.st12 {fill:#feffff;font-family:Calibri;font-size:0.833336em}
		.st13 {fill:#00b0f0;stroke:#002060;stroke-width:0.25}
		.st14 {font-size:1em}
		.st15 {marker-end:url(#mrkr2-55);marker-start:url(#mrkr2-53);stroke:#000000;stroke-linecap:round;stroke-linejoin:round;stroke-width:1}
		.st16 {fill:#000000;fill-opacity:1;stroke:#000000;stroke-opacity:1;stroke-width:0.28409090909091}
		.st17 {fill:#bfbfbf;stroke:#000000;stroke-width:0.25}
		.st18 {fill:#000000;font-family:Calibri;font-size:1.00001em}
		.st19 {fill:#000000;font-family:Calibri;font-size:0.666664em}
		.st20 {marker-start:url(#mrkr2-53);stroke:#000000;stroke-linecap:round;stroke-linejoin:round;stroke-width:1}
		.st21 {marker-end:url(#mrkr2-55);stroke:#000000;stroke-linecap:round;stroke-linejoin:round;stroke-width:1}
		.st22 {stroke:#000000;stroke-linecap:round;stroke-linejoin:round;stroke-width:1}
		.st23 {fill:#002060;font-family:Calibri;font-size:0.833336em}
		.st24 {fill:#fff2cc;stroke:#000000;stroke-width:0.25}
		.st25 {marker-end:url(#mrkr2-190);marker-start:url(#mrkr2-188);stroke:#002060;stroke-linecap:round;stroke-linejoin:round;stroke-width:1}
		.st26 {fill:#002060;fill-opacity:1;stroke:#002060;stroke-opacity:1;stroke-width:0.28409090909091}
		.st27 {marker-end:url(#mrkr2-199);marker-start:url(#mrkr2-197);stroke:#002060;stroke-width:0.75}
		.st28 {fill:#002060;fill-opacity:1;stroke:#002060;stroke-opacity:1;stroke-width:0.22935779816514}
		.st29 {marker-end:url(#mrkr2-190);stroke:#002060;stroke-linecap:round;stroke-linejoin:round;stroke-width:1}
		.st30 {marker-end:url(#mrkr2-199);stroke:#002060;stroke-width:0.75}
		.st31 {fill:#ffffff;font-family:Calibri;font-size:0.666664em}
		.st32 {fill:#002060;font-family:Calibri;font-size:0.666664em}
		.st33 {marker-end:url(#mrkr2-240);marker-start:url(#mrkr2-238);stroke:#000000;stroke-width:0.75}
		.st34 {fill:#000000;fill-opacity:1;stroke:#000000;stroke-opacity:1;stroke-width:0.22935779816514}
		.st35 {marker-start:url(#mrkr2-197);stroke:#002060;stroke-width:0.75}
		.st36 {stroke:#ff0000;stroke-width:2}
		.st37 {marker-end:url(#mrkr2-303);stroke:#ff0000;stroke-width:2}
		.st38 {fill:#ff0000;fill-opacity:1;stroke:#ff0000;stroke-opacity:1;stroke-width:0.44247787610619}
		.st39 {marker-end:url(#mrkr2-309);stroke:#ffc000;stroke-linecap:round;stroke-linejoin:round;stroke-width:2}
		.st40 {fill:#ffc000;fill-opacity:1;stroke:#ffc000;stroke-opacity:1;stroke-width:0.44247787610619}
		.st41 {fill:#002060;font-family:Calibri;font-size:0.499992em}
		.st42 {fill:none;fill-rule:evenodd;font-size:12px;overflow:visible;stroke-linecap:square;stroke-miterlimit:3}
	]]>
	</style>

	<defs id="Markers">
		<g id="lend2">
			<path d="M 1 1 L 0 0 L 1 -1 L 1 1 " style="stroke:none"/>
		</g>
		<marker id="mrkr2-28" class="st10" v:arrowType="2" v:arrowSize="2" v:setback="1.36" refX="1.36" orient="auto"
				markerUnits="strokeWidth" overflow="visible">
			<use xlink:href="#lend2" transform="scale(1.42) "/>
		</marker>
		<marker id="mrkr2-30" class="st10" v:arrowType="2" v:arrowSize="2" v:setback="1.42" refX="-1.42" orient="auto"
				markerUnits="strokeWidth" overflow="visible">
			<use xlink:href="#lend2" transform="scale(-1.42,-1.42) "/>
		</marker>
		<marker id="mrkr2-53" class="st16" v:arrowType="2" v:arrowSize="2" v:setback="3.16" refX="3.16" orient="auto"
				markerUnits="strokeWidth" overflow="visible">
			<use xlink:href="#lend2" transform="scale(3.52) "/>
		</marker>
		<marker id="mrkr2-55" class="st16" v:arrowType="2" v:arrowSize="2" v:setback="3.52" refX="-3.52" orient="auto"
				markerUnits="strokeWidth" overflow="visible">
			<use xlink:href="#lend2" transform="scale(-3.52,-3.52) "/>
		</marker>
		<marker id="mrkr2-188" class="st26" v:arrowType="2" v:arrowSize="2" v:setback="3.16" refX="3.16" orient="auto"
				markerUnits="strokeWidth" overflow="visible">
			<use xlink:href="#lend2" transform="scale(3.52) "/>
		</marker>
		<marker id="mrkr2-190" class="st26" v:arrowType="2" v:arrowSize="2" v:setback="3.52" refX="-3.52" orient="auto"
				markerUnits="strokeWidth" overflow="visible">
			<use xlink:href="#lend2" transform="scale(-3.52,-3.52) "/>
		</marker>
		<marker id="mrkr2-197" class="st28" v:arrowType="2" v:arrowSize="2" v:setback="3.88" refX="3.88" orient="auto"
				markerUnits="strokeWidth" overflow="visible">
			<use xlink:href="#lend2" transform="scale(4.36) "/>
		</marker>
		<marker id="mrkr2-199" class="st28" v:arrowType="2" v:arrowSize="2" v:setback="4.36" refX="-4.36" orient="auto"
				markerUnits="strokeWidth" overflow="visible">
			<use xlink:href="#lend2" transform="scale(-4.36,-4.36) "/>
		</marker>
		<marker id="mrkr2-238" class="st34" v:arrowType="2" v:arrowSize="2" v:setback="3.88" refX="3.88" orient="auto"
				markerUnits="strokeWidth" overflow="visible">
			<use xlink:href="#lend2" transform="scale(4.36) "/>
		</marker>
		<marker id="mrkr2-240" class="st34" v:arrowType="2" v:arrowSize="2" v:setback="4.36" refX="-4.36" orient="auto"
				markerUnits="strokeWidth" overflow="visible">
			<use xlink:href="#lend2" transform="scale(-4.36,-4.36) "/>
		</marker>
		<marker id="mrkr2-303" class="st38" v:arrowType="2" v:arrowSize="2" v:setback="2.08" refX="-2.08" orient="auto"
				markerUnits="strokeWidth" overflow="visible">
			<use xlink:href="#lend2" transform="scale(-2.26,-2.26) "/>
		</marker>
		<marker id="mrkr2-309" class="st40" v:arrowType="2" v:arrowSize="2" v:setback="2.08" refX="-2.08" orient="auto"
				markerUnits="strokeWidth" overflow="visible">
			<use xlink:href="#lend2" transform="scale(-2.26,-2.26) "/>
		</marker>
	</defs>
	<g v:mID="0" v:index="1" v:groupContext="foregroundPage">
		<title>Page-1</title>
		<v:pageProperties v:drawingScale="1" v:pageScale="1" v:drawingUnits="0" v:shadowOffsetX="9" v:shadowOffsetY="-9"/>
		<g id="shape1000-1" v:mID="1000" v:groupContext="shape" transform="translate(64.3,-1)">
			<title>Sheet.1000</title>
			<rect x="0" y="223.024" width="432" height="198.5" class="st1"/>
		</g>
		<g id="shape1001-3" v:mID="1001" v:groupContext="shape" transform="translate(64.0833,-213.333)">
			<title>Sheet.1001</title>
			<rect x="0" y="331.524" width="324" height="90" class="st2"/>
		</g>
		<g id="shape1002-5" v:mID="1002" v:groupContext="shape" transform="translate(410.417,-213.333)">
			<title>Sheet.1002</title>
			<desc>EMIF</desc>
			<v:textBlock v:margins="rect(4,4,4,4)"/>
			<v:textRect cx="42.8333" cy="376.524" width="85.67" height="90"/>
			<rect x="0" y="331.524" width="85.6667" height="90" class="st3"/>
			<text x="30.31" y="380.12" class="st4" v:langID="1033"><v:paragraph v:horizAlign="1"/><v:tabList/>EMIF</text>		</g>
		<g id="shape1003-8" v:mID="1003" v:groupContext="shape" transform="translate(346.75,-328.333)">
			<title>Sheet.1003</title>
			<rect x="0" y="329.333" width="207.833" height="92.1907" class="st5"/>
		</g>
		<g id="shape1004-10" v:mID="1004" v:groupContext="shape" transform="translate(334.083,-276.333)">
			<title>Sheet.1004</title>
			<desc>HPS</desc>
			<v:textBlock v:margins="rect(4,4,4,4)"/>
			<v:textRect cx="22.5" cy="412.524" width="45.01" height="18"/>
			<rect x="0" y="403.524" width="45" height="18" class="st6"/>
			<text x="12.69" y="416.12" class="st4" v:langID="1033"><v:paragraph v:horizAlign="1"/><v:tabList/>HPS</text>		</g>
		<g id="shape1005-13" v:mID="1005" v:groupContext="shape" transform="translate(424.083,-177.333)">
			<title>Sheet.1005</title>
			<desc>FPGA Fabric</desc>
			<v:textBlock v:margins="rect(4,4,4,4)"/>
			<v:textRect cx="36" cy="410.274" width="72.01" height="22.5"/>
			<rect x="0" y="399.024" width="72" height="22.5" class="st6"/>
			<text x="6.18" y="413.87" class="st4" v:langID="1033"><v:paragraph v:horizAlign="1"/><v:tabList/>FPGA Fabric</text>		</g>
		<g id="shape1006-16" v:mID="1006" v:groupContext="shape" transform="translate(322,-195.583)">
			<title>Sheet.1006</title>
			<desc>F2SDRAM</desc>
			<v:textBlock v:margins="rect(4,4,4,4)"/>
			<v:textRect cx="25.875" cy="410.274" width="51.76" height="22.5"/>
			<rect x="0" y="399.024" width="51.75" height="22.5" class="st7"/>
			<text x="5.79" y="413.27" class="st8" v:langID="1033"><v:paragraph v:horizAlign="1"/><v:tabList/>F2SDRAM</text>		</g>
		<g id="shape1007-19" v:mID="1007" v:groupContext="shape" transform="translate(127.083,-195.583)">
			<title>Sheet.1007</title>
			<desc>LWH2F</desc>
			<v:textBlock v:margins="rect(4,4,4,4)"/>
			<v:textRect cx="22.5" cy="410.274" width="45.01" height="22.5"/>
			<rect x="0" y="399.024" width="45" height="22.5" class="st7"/>
			<text x="8" y="413.27" class="st8" v:langID="1033"><v:paragraph v:horizAlign="1"/><v:tabList/>LWH2F</text>		</g>
		<g id="shape1008-22" v:mID="1008" v:groupContext="shape" transform="translate(388.083,-258.333)">
			<title>Sheet.1008</title>
			<path d="M8.16 421.52 L8.52 421.52 L13.81 421.52" class="st9"/>
		</g>
		<g id="shape1009-31" v:mID="1009" v:groupContext="shape" transform="translate(872.607,93.1907) rotate(90)">
			<title>Sheet.1009</title>
			<path d="M8.16 421.52 L8.52 421.52 L16.48 421.52" class="st9"/>
		</g>
		<g id="shape1011-38" v:mID="1011" v:groupContext="shape" transform="translate(328.75,-105.583)">
			<title>Sheet.1011</title>
			<desc>PMON</desc>
			<v:textBlock v:margins="rect(4,4,4,4)"/>
			<v:textRect cx="22.5" cy="410.274" width="45.01" height="22.5"/>
			<rect x="0" y="399.024" width="45" height="22.5" class="st11"/>
			<text x="9.1" y="413.27" class="st12" v:langID="1033"><v:paragraph v:horizAlign="1"/><v:tabList/>PMON</text>		</g>
		<g id="shape1012-41" v:mID="1012" v:groupContext="shape" transform="translate(78.1667,-12.5)">
			<title>Sheet.1012</title>
			<rect x="0" y="305.941" width="225.833" height="115.583" class="st13"/>
		</g>
		<g id="shape1013-43" v:mID="1013" v:groupContext="shape" transform="translate(328.75,-19.8333)">
			<title>Sheet.1013</title>
			<desc>OCM-D 512 KB</desc>
			<v:textBlock v:margins="rect(4,4,4,4)"/>
			<v:textRect cx="22.5" cy="410.274" width="45.01" height="22.5"/>
			<rect x="0" y="399.024" width="45" height="22.5" class="st11"/>
			<text x="7.64" y="407.27" class="st12" v:langID="1033"><v:paragraph v:horizAlign="1"/><v:tabList/>OCM-D<v:lf/><tspan
						x="8.45" dy="1.2em" class="st14">512 KB</tspan></text>		</g>
		<g id="shape1014-47" v:mID="1014" v:groupContext="shape" transform="translate(772.774,225.941) rotate(90)">
			<title>Sheet.1014</title>
			<path d="M3.16 421.52 L3.52 421.52 L18.98 421.52" class="st15"/>
		</g>
		<g id="shape1015-56" v:mID="1015" v:groupContext="shape" transform="translate(772.774,270.941) rotate(90)">
			<title>Sheet.1015</title>
			<path d="M3.16 421.52 L3.52 421.52 L18.98 421.52" class="st15"/>
		</g>
		<g id="shape1016-63" v:mID="1016" v:groupContext="shape" transform="translate(181.083,-275.75)">
			<title>Sheet.1016</title>
			<desc>CPUs</desc>
			<v:textBlock v:margins="rect(4,4,4,4)"/>
			<v:textRect cx="36" cy="410.274" width="72" height="22.5"/>
			<rect x="0" y="399.024" width="72" height="22.5" class="st17"/>
			<text x="23.5" y="413.87" class="st18" v:langID="1033"><v:paragraph v:horizAlign="1"/><v:tabList/>CPUs</text>		</g>
		<g id="shape1018-66" v:mID="1018" v:groupContext="shape" transform="translate(367.562,-343.25)">
			<title>Sheet.1018</title>
			<rect x="0" y="358.524" width="58.5" height="63" class="st17"/>
		</g>
		<g id="shape1019-68" v:mID="1019" v:groupContext="shape" transform="translate(367.562,-395)">
			<title>Sheet.1019</title>
			<desc>512 KB Blk0</desc>
			<v:textBlock v:margins="rect(4,4,4,4)"/>
			<v:textRect cx="29.25" cy="415.899" width="58.51" height="11.25"/>
			<rect x="0" y="410.274" width="58.5" height="11.25" class="st17"/>
			<text x="10.17" y="418.3" class="st19" v:langID="1033"><v:paragraph v:horizAlign="1"/><v:tabList/>512 KB Blk0</text>		</g>
		<g id="shape1020-71" v:mID="1020" v:groupContext="shape" transform="translate(367.562,-383.75)">
			<title>Sheet.1020</title>
			<desc>512 KB Blk1</desc>
			<v:textBlock v:margins="rect(4,4,4,4)"/>
			<v:textRect cx="29.25" cy="415.899" width="58.51" height="11.25"/>
			<rect x="0" y="410.274" width="58.5" height="11.25" class="st17"/>
			<text x="10.17" y="418.3" class="st19" v:langID="1033"><v:paragraph v:horizAlign="1"/><v:tabList/>512 KB Blk1</text>		</g>
		<g id="shape1021-74" v:mID="1021" v:groupContext="shape" transform="translate(367.562,-343.25)">
			<title>Sheet.1021</title>
			<desc>512 KB Blk39</desc>
			<v:textBlock v:margins="rect(4,4,4,4)"/>
			<v:textRect cx="29.25" cy="415.899" width="58.51" height="11.25"/>
			<rect x="0" y="410.274" width="58.5" height="11.25" class="st17"/>
			<text x="8.14" y="418.3" class="st19" v:langID="1033"><v:paragraph v:horizAlign="1"/><v:tabList/>512 KB Blk39</text>		</g>
		<g id="shape1022-77" v:mID="1022" v:groupContext="shape" transform="translate(376.563,-406.25)">
			<title>Sheet.1022</title>
			<desc>8 bytes</desc>
			<v:textBlock v:margins="rect(4,4,4,4)"/>
			<v:textRect cx="20.25" cy="417.024" width="40.51" height="9.00003"/>
			<rect x="0" y="412.524" width="40.5" height="9.00003" class="st6"/>
			<text x="8.51" y="419.42" class="st19" v:langID="1033"><v:paragraph v:horizAlign="1"/><v:tabList/>8 bytes</text>		</g>
		<g id="shape1023-80" v:mID="1023" v:groupContext="shape" transform="translate(369.813,-332)">
			<title>Sheet.1023</title>
			<desc>Buffer 1 20 MB</desc>
			<v:textBlock v:margins="rect(4,4,4,4)"/>
			<v:textRect cx="29.25" cy="417.024" width="58.51" height="9.00003"/>
			<rect x="0" y="412.524" width="58.5" height="9.00003" class="st6"/>
			<text x="4.76" y="419.42" class="st19" v:langID="1033"><v:paragraph v:horizAlign="1"/><v:tabList/>Buffer 1 20 MB</text>		</g>
		<g id="shape1024-83" v:mID="1024" v:groupContext="shape" transform="translate(367.563,-410.75)">
			<title>Sheet.1024</title>
			<path d="M3.16 421.52 L3.52 421.52 L13.5 421.52" class="st20"/>
		</g>
		<g id="shape1025-88" v:mID="1025" v:groupContext="shape" transform="translate(413.494,-410.75)">
			<title>Sheet.1025</title>
			<path d="M0 421.52 L9.98 421.52" class="st21"/>
		</g>
		<g id="shape1026-93" v:mID="1026" v:groupContext="shape" transform="translate(-53.9615,13.024) rotate(-90)">
			<title>Sheet.1026</title>
			<path d="M0 421.52 L5.35 421.52" class="st22"/>
		</g>
		<g id="shape1027-96" v:mID="1027" v:groupContext="shape" transform="translate(5.77986,13.024) rotate(-90)">
			<title>Sheet.1027</title>
			<path d="M0 421.52 L5.35 421.52" class="st22"/>
		</g>
		<g id="shape1028-99" v:mID="1028" v:groupContext="shape" transform="translate(431.688,-343.25)">
			<title>Sheet.1028</title>
			<rect x="0" y="358.524" width="58.5" height="63" class="st17"/>
		</g>
		<g id="shape1029-101" v:mID="1029" v:groupContext="shape" transform="translate(431.688,-395)">
			<title>Sheet.1029</title>
			<desc>512 KB Blk0</desc>
			<v:textBlock v:margins="rect(4,4,4,4)"/>
			<v:textRect cx="29.25" cy="415.899" width="58.51" height="11.25"/>
			<rect x="0" y="410.274" width="58.5" height="11.25" class="st17"/>
			<text x="10.17" y="418.3" class="st19" v:langID="1033"><v:paragraph v:horizAlign="1"/><v:tabList/>512 KB Blk0</text>		</g>
		<g id="shape1030-104" v:mID="1030" v:groupContext="shape" transform="translate(431.688,-383.75)">
			<title>Sheet.1030</title>
			<desc>512 KB Blk1</desc>
			<v:textBlock v:margins="rect(4,4,4,4)"/>
			<v:textRect cx="29.25" cy="415.899" width="58.51" height="11.25"/>
			<rect x="0" y="410.274" width="58.5" height="11.25" class="st17"/>
			<text x="10.17" y="418.3" class="st19" v:langID="1033"><v:paragraph v:horizAlign="1"/><v:tabList/>512 KB Blk1</text>		</g>
		<g id="shape1031-107" v:mID="1031" v:groupContext="shape" transform="translate(431.688,-343.25)">
			<title>Sheet.1031</title>
			<desc>512 KB Blk39</desc>
			<v:textBlock v:margins="rect(4,4,4,4)"/>
			<v:textRect cx="29.25" cy="415.899" width="58.51" height="11.25"/>
			<rect x="0" y="410.274" width="58.5" height="11.25" class="st17"/>
			<text x="8.14" y="418.3" class="st19" v:langID="1033"><v:paragraph v:horizAlign="1"/><v:tabList/>512 KB Blk39</text>		</g>
		<g id="shape1032-110" v:mID="1032" v:groupContext="shape" transform="translate(440.688,-406.25)">
			<title>Sheet.1032</title>
			<desc>8 bytes</desc>
			<v:textBlock v:margins="rect(4,4,4,4)"/>
			<v:textRect cx="20.25" cy="417.024" width="40.51" height="9.00003"/>
			<rect x="0" y="412.524" width="40.5" height="9.00003" class="st6"/>
			<text x="8.51" y="419.42" class="st19" v:langID="1033"><v:paragraph v:horizAlign="1"/><v:tabList/>8 bytes</text>		</g>
		<g id="shape1033-113" v:mID="1033" v:groupContext="shape" transform="translate(433.938,-332)">
			<title>Sheet.1033</title>
			<desc>Buffer 2 20 MB</desc>
			<v:textBlock v:margins="rect(4,4,4,4)"/>
			<v:textRect cx="29.25" cy="417.024" width="58.51" height="9.00003"/>
			<rect x="0" y="412.524" width="58.5" height="9.00003" class="st6"/>
			<text x="4.76" y="419.42" class="st19" v:langID="1033"><v:paragraph v:horizAlign="1"/><v:tabList/>Buffer 2 20 MB</text>		</g>
		<g id="shape1034-116" v:mID="1034" v:groupContext="shape" transform="translate(431.688,-410.75)">
			<title>Sheet.1034</title>
			<path d="M3.16 421.52 L3.52 421.52 L13.5 421.52" class="st20"/>
		</g>
		<g id="shape1035-121" v:mID="1035" v:groupContext="shape" transform="translate(477.619,-410.75)">
			<title>Sheet.1035</title>
			<path d="M0 421.52 L9.98 421.52" class="st21"/>
		</g>
		<g id="shape1036-126" v:mID="1036" v:groupContext="shape" transform="translate(10.1635,13.024) rotate(-90)">
			<title>Sheet.1036</title>
			<path d="M0 421.52 L5.35 421.52" class="st22"/>
		</g>
		<g id="shape1037-129" v:mID="1037" v:groupContext="shape" transform="translate(69.9049,13.024) rotate(-90)">
			<title>Sheet.1037</title>
			<path d="M0 421.52 L5.35 421.52" class="st22"/>
		</g>
		<g id="shape1038-132" v:mID="1038" v:groupContext="shape" transform="translate(502.844,-343.25)">
			<title>Sheet.1038</title>
			<rect x="0" y="358.524" width="45" height="63" class="st17"/>
		</g>
		<g id="shape1039-134" v:mID="1039" v:groupContext="shape" transform="translate(495.25,-332.698)">
			<title>Sheet.1039</title>
			<desc>Descriptors</desc>
			<v:textBlock v:margins="rect(4,4,4,4)"/>
			<v:textRect cx="29.25" cy="417.024" width="58.51" height="9.00003"/>
			<rect x="0" y="412.524" width="58.5" height="9.00003" class="st6"/>
			<text x="10.72" y="419.42" class="st19" v:langID="1033"><v:paragraph v:horizAlign="1"/><v:tabList/>Descriptors</text>		</g>
		<g id="shape1040-137" v:mID="1040" v:groupContext="shape" transform="translate(502.844,-397.25)">
			<title>Sheet.1040</title>
			<desc>RD Blk0</desc>
			<v:textBlock v:margins="rect(4,4,4,4)"/>
			<v:textRect cx="22.5" cy="417.024" width="45.01" height="9.00003"/>
			<rect x="0" y="412.524" width="45" height="9.00003" class="st17"/>
			<text x="10.02" y="419.42" class="st19" v:langID="1033"><v:paragraph v:horizAlign="1"/><v:tabList/>RD Blk0</text>		</g>
		<g id="shape1041-140" v:mID="1041" v:groupContext="shape" transform="translate(502.844,-388.25)">
			<title>Sheet.1041</title>
			<desc>WR Blk0</desc>
			<v:textBlock v:margins="rect(4,4,4,4)"/>
			<v:textRect cx="22.5" cy="417.024" width="45.01" height="9.00003"/>
			<rect x="0" y="412.524" width="45" height="9.00003" class="st17"/>
			<text x="8.93" y="419.42" class="st19" v:langID="1033"><v:paragraph v:horizAlign="1"/><v:tabList/>WR Blk0</text>		</g>
		<g id="shape1042-143" v:mID="1042" v:groupContext="shape" transform="translate(502.844,-379.25)">
			<title>Sheet.1042</title>
			<desc>RD Blk1</desc>
			<v:textBlock v:margins="rect(4,4,4,4)"/>
			<v:textRect cx="22.5" cy="417.024" width="45.01" height="9.00003"/>
			<rect x="0" y="412.524" width="45" height="9.00003" class="st17"/>
			<text x="10.02" y="419.42" class="st19" v:langID="1033"><v:paragraph v:horizAlign="1"/><v:tabList/>RD Blk1</text>		</g>
		<g id="shape1043-146" v:mID="1043" v:groupContext="shape" transform="translate(502.844,-370.25)">
			<title>Sheet.1043</title>
			<desc>WR Blk1</desc>
			<v:textBlock v:margins="rect(4,4,4,4)"/>
			<v:textRect cx="22.5" cy="417.024" width="45.01" height="9.00003"/>
			<rect x="0" y="412.524" width="45" height="9.00003" class="st17"/>
			<text x="8.93" y="419.42" class="st19" v:langID="1033"><v:paragraph v:horizAlign="1"/><v:tabList/>WR Blk1</text>		</g>
		<g id="shape1044-149" v:mID="1044" v:groupContext="shape" transform="translate(502.844,-352.25)">
			<title>Sheet.1044</title>
			<desc>RD Blk39</desc>
			<v:textBlock v:margins="rect(4,4,4,4)"/>
			<v:textRect cx="22.5" cy="417.024" width="45.01" height="9.00003"/>
			<rect x="0" y="412.524" width="45" height="9.00003" class="st17"/>
			<text x="8" y="419.42" class="st19" v:langID="1033"><v:paragraph v:horizAlign="1"/><v:tabList/>RD Blk39</text>		</g>
		<g id="shape1045-152" v:mID="1045" v:groupContext="shape" transform="translate(502.844,-343.25)">
			<title>Sheet.1045</title>
			<desc>WR Blk39</desc>
			<v:textBlock v:margins="rect(4,4,4,4)"/>
			<v:textRect cx="22.5" cy="417.024" width="45.01" height="9.00003"/>
			<rect x="0" y="412.524" width="45" height="9.00003" class="st17"/>
			<text x="6.9" y="419.42" class="st19" v:langID="1033"><v:paragraph v:horizAlign="1"/><v:tabList/>WR Blk39</text>		</g>
		<g id="shape1046-155" v:mID="1046" v:groupContext="shape" transform="translate(384.438,-366.875)">
			<title>Sheet.1046</title>
			<desc>:</desc>
			<v:textBlock v:margins="rect(4,4,4,4)"/>
			<v:textRect cx="9.5625" cy="415.899" width="19.13" height="11.25"/>
			<rect x="0" y="410.274" width="19.125" height="11.25" class="st6"/>
			<text x="7.96" y="419.5" class="st18" v:langID="1033"><v:paragraph v:horizAlign="1"/><v:tabList/>:</text>		</g>
		<g id="shape1047-158" v:mID="1047" v:groupContext="shape" transform="translate(451.375,-366.875)">
			<title>Sheet.1047</title>
			<desc>:</desc>
			<v:textBlock v:margins="rect(4,4,4,4)"/>
			<v:textRect cx="9.5625" cy="415.899" width="19.13" height="11.25"/>
			<rect x="0" y="410.274" width="19.125" height="11.25" class="st6"/>
			<text x="7.96" y="419.5" class="st18" v:langID="1033"><v:paragraph v:horizAlign="1"/><v:tabList/>:</text>		</g>
		<g id="shape1048-161" v:mID="1048" v:groupContext="shape" transform="translate(515.781,-361.25)">
			<title>Sheet.1048</title>
			<desc>:</desc>
			<v:textBlock v:margins="rect(4,4,4,4)"/>
			<v:textRect cx="9.5625" cy="415.899" width="19.13" height="11.25"/>
			<rect x="0" y="410.274" width="19.125" height="11.25" class="st6"/>
			<text x="8.49" y="418.3" class="st19" v:langID="1033"><v:paragraph v:horizAlign="1"/><v:tabList/>:</text>		</g>
		<g id="shape1049-164" v:mID="1049" v:groupContext="shape" transform="translate(225.667,-118.25)">
			<title>Sheet.1049</title>
			<desc>F2SDRAM_DMAC</desc>
			<v:textBlock v:margins="rect(4,4,4,4)"/>
			<v:textRect cx="40.5" cy="417.024" width="81.01" height="9"/>
			<rect x="0" y="412.524" width="81" height="9" class="st6"/>
			<text x="5.01" y="420.62" class="st23" v:langID="1033"><v:paragraph v:horizAlign="1"/><v:tabList/>F2SDRAM_DMAC</text>		</g>
		<g id="shape1050-167" v:mID="1050" v:groupContext="shape" transform="translate(133,-104.75)">
			<title>Sheet.1050</title>
			<desc>AVMM</desc>
			<v:textBlock v:margins="rect(4,4,4,4)"/>
			<v:textRect cx="16.875" cy="412.524" width="33.76" height="18"/>
			<rect x="0" y="403.524" width="33.75" height="18" class="st24"/>
			<text x="5.45" y="414.92" class="st19" v:langID="1033"><v:paragraph v:horizAlign="1"/><v:tabList/>AVMM</text>		</g>
		<g id="shape1051-170" v:mID="1051" v:groupContext="shape" transform="translate(88,-70.91)">
			<title>Sheet.1051</title>
			<desc>MSGDMA RD</desc>
			<v:textBlock v:margins="rect(4,4,4,4)"/>
			<v:textRect cx="29.25" cy="412.524" width="58.51" height="18"/>
			<rect x="0" y="403.524" width="58.5" height="18" class="st24"/>
			<text x="7.74" y="414.92" class="st19" v:langID="1033"><v:paragraph v:horizAlign="1"/><v:tabList/>MSGDMA RD</text>		</g>
		<g id="shape1052-173" v:mID="1052" v:groupContext="shape" transform="translate(153.25,-70.91)">
			<title>Sheet.1052</title>
			<desc>MSGDMA WR</desc>
			<v:textBlock v:margins="rect(4,4,4,4)"/>
			<v:textRect cx="29.25" cy="412.524" width="58.51" height="18"/>
			<rect x="0" y="403.524" width="58.5" height="18" class="st24"/>
			<text x="6.64" y="414.92" class="st19" v:langID="1033"><v:paragraph v:horizAlign="1"/><v:tabList/>MSGDMA WR</text>		</g>
		<g id="shape1053-176" v:mID="1053" v:groupContext="shape" transform="translate(220.75,-91.25)">
			<title>Sheet.1053</title>
			<desc>msgdma2axi4</desc>
			<v:textBlock v:margins="rect(4,4,4,4)"/>
			<v:textRect cx="36" cy="412.524" width="72" height="18"/>
			<rect x="0" y="403.524" width="72" height="18" class="st24"/>
			<text x="13.52" y="414.92" class="st19" v:langID="1033"><v:paragraph v:horizAlign="1"/><v:tabList/>msgdma2axi4</text>		</g>
		<g id="shape1054-179" v:mID="1054" v:groupContext="shape" transform="translate(220.75,-21.5)">
			<title>Sheet.1054</title>
			<desc>msgdma2axi4</desc>
			<v:textBlock v:margins="rect(4,4,4,4)"/>
			<v:textRect cx="36" cy="412.524" width="72" height="18"/>
			<rect x="0" y="403.524" width="72" height="18" class="st24"/>
			<text x="13.52" y="414.92" class="st19" v:langID="1033"><v:paragraph v:horizAlign="1"/><v:tabList/>msgdma2axi4</text>		</g>
		<g id="shape1055-182" v:mID="1055" v:groupContext="shape" transform="translate(570.253,230.107) rotate(90.5664)">
			<title>Sheet.1055</title>
			<path d="M3.16 421.52 L3.52 421.52 L69.32 421.52" class="st25"/>
		</g>
		<g id="shape1056-191" v:mID="1056" v:groupContext="shape" transform="translate(99.25,-88.91)">
			<title>Sheet.1056</title>
			<path d="M30.84 396.68 L30.48 396.68 L0 396.68 L0 418.25" class="st27"/>
		</g>
		<g id="shape1057-200" v:mID="1057" v:groupContext="shape" transform="translate(538.774,307.774) rotate(90)">
			<title>Sheet.1057</title>
			<path d="M0 421.52 L21.32 421.52" class="st29"/>
		</g>
		<g id="shape1058-205" v:mID="1058" v:groupContext="shape" transform="translate(166.75,-88.91)">
			<title>Sheet.1058</title>
			<path d="M2.91 396.68 L3.27 396.68 L13.5 396.68 L13.5 418.25" class="st27"/>
		</g>
		<g id="shape1059-212" v:mID="1059" v:groupContext="shape" transform="translate(180.25,-88.91)">
			<title>Sheet.1059</title>
			<path d="M0 396.68 L18 396.68 L18 418.25" class="st30"/>
		</g>
		<g id="shape1060-217" v:mID="1060" v:groupContext="shape" transform="translate(0.25,-131.75)">
			<title>Sheet.1060</title>
			<desc>CSR</desc>
			<v:textBlock v:margins="rect(4,4,4,4)"/>
			<v:textRect cx="20.25" cy="413.649" width="40.51" height="15.75"/>
			<rect x="0" y="405.774" width="40.5" height="15.75" class="st6"/>
			<text x="14.11" y="416.05" class="st31" v:langID="1033"><v:paragraph v:horizAlign="1"/><v:tabList/>CSR</text>		</g>
		<g id="shape1061-220" v:mID="1061" v:groupContext="shape" transform="translate(82.375,-111.5)">
			<title>Sheet.1061</title>
			<desc>CSR</desc>
			<v:textBlock v:margins="rect(4,4,4,4)"/>
			<v:textRect cx="12.375" cy="414.774" width="24.76" height="13.5"/>
			<rect x="0" y="408.024" width="24.75" height="13.5" class="st6"/>
			<text x="6.23" y="417.17" class="st32" v:langID="1033"><v:paragraph v:horizAlign="1"/><v:tabList/>CSR</text>		</g>
		<g id="shape1062-223" v:mID="1062" v:groupContext="shape" transform="translate(162.25,-111.5)">
			<title>Sheet.1062</title>
			<desc>CSR</desc>
			<v:textBlock v:margins="rect(4,4,4,4)"/>
			<v:textRect cx="12.375" cy="414.774" width="24.76" height="13.5"/>
			<rect x="0" y="408.024" width="24.75" height="13.5" class="st6"/>
			<text x="6.23" y="417.17" class="st32" v:langID="1033"><v:paragraph v:horizAlign="1"/><v:tabList/>CSR</text>		</g>
		<g id="shape1063-226" v:mID="1063" v:groupContext="shape" transform="translate(103.75,-113.75)">
			<title>Sheet.1063</title>
			<desc>Desc</desc>
			<v:textBlock v:margins="rect(4,4,4,4)"/>
			<v:textRect cx="12.375" cy="415.899" width="24.76" height="11.25"/>
			<rect x="0" y="410.274" width="24.75" height="11.25" class="st6"/>
			<text x="4.67" y="418.3" class="st32" v:langID="1033"><v:paragraph v:horizAlign="1"/><v:tabList/>Desc</text>		</g>
		<g id="shape1064-229" v:mID="1064" v:groupContext="shape" transform="translate(182.5,-113.75)">
			<title>Sheet.1064</title>
			<desc>Desc</desc>
			<v:textBlock v:margins="rect(4,4,4,4)"/>
			<v:textRect cx="12.375" cy="415.899" width="24.76" height="11.25"/>
			<rect x="0" y="410.274" width="24.75" height="11.25" class="st6"/>
			<text x="4.67" y="418.3" class="st32" v:langID="1033"><v:paragraph v:horizAlign="1"/><v:tabList/>Desc</text>		</g>
		<g id="shape1065-232" v:mID="1065" v:groupContext="shape" transform="translate(149.583,-218.083)">
			<title>Sheet.1065</title>
			<path d="M28.59 350.36 L28.23 350.36 L0 350.36 L0 418.25" class="st33"/>
		</g>
		<g id="shape1066-241" v:mID="1066" v:groupContext="shape" transform="translate(292.75,-98.63)">
			<title>Sheet.1066</title>
			<path d="M58.5 417.48 L58.5 417.84 L58.5 421.52 L3.27 421.06" class="st27"/>
		</g>
		<g id="shape1067-248" v:mID="1067" v:groupContext="shape" transform="translate(328.75,811.423) rotate(180)">
			<title>Sheet.1067</title>
			<path d="M3.16 421.52 L3.52 421.52 L32.48 421.52" class="st25"/>
		</g>
		<g id="shape1068-255" v:mID="1068" v:groupContext="shape" transform="translate(162.25,-63.125)">
			<title>Sheet.1068</title>
			<desc>R W</desc>
			<v:textBlock v:margins="rect(4,4,4,4)"/>
			<v:textRect cx="20.25" cy="418.149" width="40.5" height="6.75"/>
			<rect x="0" y="414.774" width="40.5" height="6.75" class="st6"/>
			<text x="10.9" y="420.55" class="st32" v:langID="1033"><v:paragraph v:horizAlign="1"/><v:tabList/>R    W</text>		</g>
		<g id="shape1069-258" v:mID="1069" v:groupContext="shape" transform="translate(97,-63.125)">
			<title>Sheet.1069</title>
			<desc>W R</desc>
			<v:textBlock v:margins="rect(4,4,4,4)"/>
			<v:textRect cx="20.25" cy="418.149" width="40.5" height="6.75"/>
			<rect x="0" y="414.774" width="40.5" height="6.75" class="st6"/>
			<text x="10.9" y="420.55" class="st32" v:langID="1033"><v:paragraph v:horizAlign="1"/><v:tabList/>W    R</text>		</g>
		<g id="shape1070-261" v:mID="1070" v:groupContext="shape" transform="translate(194.875,-55.25)">
			<title>Sheet.1070</title>
			<path d="M0 406.9 L0 421.52 L44.95 421.52 L45 388.79" class="st30"/>
		</g>
		<g id="shape1071-266" v:mID="1071" v:groupContext="shape" transform="translate(229.75,-84.5)">
			<title>Sheet.1071</title>
			<desc>S S</desc>
			<v:textBlock v:margins="rect(4,4,4,4)"/>
			<v:textRect cx="20.25" cy="418.149" width="40.5" height="6.75"/>
			<rect x="0" y="414.774" width="40.5" height="6.75" class="st6"/>
			<text x="12.96" y="420.55" class="st32" v:langID="1033"><v:paragraph v:horizAlign="1"/><v:tabList/>S    S</text>		</g>
		<g id="shape1072-269" v:mID="1072" v:groupContext="shape" transform="translate(290.5,-89)">
			<title>Sheet.1072</title>
			<desc>M</desc>
			<v:textBlock v:margins="rect(4,4,4,4)"/>
			<v:textRect cx="6.75" cy="418.149" width="13.51" height="6.75"/>
			<rect x="0" y="414.774" width="13.5" height="6.75" class="st6"/>
			<text x="4" y="420.55" class="st32" v:langID="1033"><v:paragraph v:horizAlign="1"/><v:tabList/>M</text>		</g>
		<g id="shape1073-272" v:mID="1073" v:groupContext="shape" transform="translate(289.45,-21.5)">
			<title>Sheet.1073</title>
			<desc>M</desc>
			<v:textBlock v:margins="rect(4,4,4,4)"/>
			<v:textRect cx="6.75" cy="418.149" width="13.51" height="6.75"/>
			<rect x="0" y="414.774" width="13.5" height="6.75" class="st6"/>
			<text x="4" y="420.55" class="st32" v:langID="1033"><v:paragraph v:horizAlign="1"/><v:tabList/>M</text>		</g>
		<g id="shape1074-275" v:mID="1074" v:groupContext="shape" transform="translate(210.55,-18.08)">
			<title>Sheet.1074</title>
			<desc>S S</desc>
			<v:textBlock v:margins="rect(4,4,4,4)"/>
			<v:textRect cx="6.75" cy="409.104" width="13.51" height="24.84"/>
			<rect x="0" y="396.684" width="13.5" height="24.84" class="st6"/>
			<text x="4.91" y="401.9" class="st32" v:langID="1033"><v:paragraph v:horizAlign="1"/><v:tabList/>S <tspan x="6.75"
						dy="1.2em" class="st14"> </tspan><tspan x="4.91" dy="1.2em" class="st14">S</tspan></text>		</g>
		<g id="shape1075-280" v:mID="1075" v:groupContext="shape" transform="translate(130.75,-49.55)">
			<title>Sheet.1075</title>
			<path d="M0 404.11 L0 404.47 L0 421.52 L119.25 421.52 L119.25 379.82" class="st35"/>
		</g>
		<g id="shape1076-285" v:mID="1076" v:groupContext="shape" transform="translate(169,-36.125)">
			<title>Sheet.1076</title>
			<path d="M0 390.68 L0 391.04 L0 421.45 L51.75 421.52" class="st35"/>
		</g>
		<g id="shape1077-290" v:mID="1077" v:groupContext="shape" transform="translate(106,-28.25)">
			<title>Sheet.1077</title>
			<path d="M0 379.9 L0 421.52 L111.48 421.52" class="st30"/>
		</g>
		<g id="shape1078-295" v:mID="1078" v:groupContext="shape" transform="translate(216.25,-104.75)">
			<title>Sheet.1078</title>
			<path d="M175.5 165.02 C176.35 166.32 177.7 166.13 178.88 166.15 C187.76 166.29 187.01 178.09 187.88 188.09 C191.27 227.27
						 219.6 238.69 202.5 282.02 C194.32 289.84 180.19 292.52 165.94 293.27 C146.94 294.28 127.75 291.88 110.25
						 295.52 C97.03 308.45 94.65 334.67 97.88 355.15 C100.5 371.8 106.82 384.67 103.5 405.77 C103.29 406.89 103.53
						 408.43 103.5 409.71 C103.24 419.09 88.01 414.3 77.06 413.65 C70.27 413.24 65.13 414.42 59.63 414.77 C37.95
						 416.15 10.57 404.61 0 421.52" class="st36"/>
		</g>
		<g id="shape1079-298" v:mID="1079" v:groupContext="shape" transform="translate(100.356,-14.75)">
			<title>Sheet.1079</title>
			<path d="M115.89 331.52 C115.11 340.99 115.67 347.42 117.58 354.02 C118.99 358.91 121.14 363.91 120.96 369.21 C120.73
						 375.64 117.09 382.52 111.39 386.72 C107.33 390.09 103.75 388.95 100.14 387.77 C89.17 384.2 78 380.39 67.52
						 375.96 C46.64 367.13 28.51 355.84 1.14 366.4 C-0.05 368.55 -0.04 370.85 0.02 373.15 C0.25 382.95 1.24 392.8
						 6.77 397.9 C10.11 400.98 15.1 402.32 19.71 404.65 C28.18 408.93 35.33 416.56 43.89 417.02 C80.13 421.34
						 118.23 421.43 155.27 421.52 C179.06 421.59 202.41 421.65 224.16 414.1 L224.5 413.98" class="st37"/>
		</g>
		<g id="shape1080-304" v:mID="1080" v:groupContext="shape" transform="translate(-30.9883,251.711) rotate(-69.725)">
			<title>Sheet.1080</title>
			<path d="M0 379.3 C-11.8 348.26 -16.19 312.71 -32.7 281.04 C-38.3 270.29 -45.29 259.99 -44.59 248.86 C-44.12 241.35 -40.14
						 233.45 -36.08 231.32 C-27.39 226.77 -18.32 248.55 -10.96 265.22 C-6.6 275.09 -2.85 283.17 1.95 290.43 C14
						 308.71 32.61 321.89 42.5 345.01 C49.32 360.95 52 381.61 60.82 394.61 C67.07 403.82 76.4 409.18 87.28 409.42
						 C101.16 409.73 117.56 401.73 131.66 394.83 C143.11 389.22 153.04 384.33 163.87 378.13 C169.26 375.05 174.87
						 371.64 180.17 370.31 C184.87 369.13 189.33 369.58 193.2 371.49 C202.63 376.16 208.56 389.54 215.51 401.03
						 C220.18 408.76 225.32 415.63 231.75 419.02 C260.86 434.37 316.42 378.2 344.52 378.66 L344.88 378.71"
					class="st39"/>
		</g>
		<g id="shape1081-310" v:mID="1081" v:groupContext="shape" transform="translate(396.083,-146.083)">
			<title>Sheet.1081</title>
			<desc>Repeat for each one of the 40 512 KB blocks</desc>
			<v:textBlock v:margins="rect(4,4,4,4)"/>
			<v:textRect cx="42.8333" cy="408.024" width="85.67" height="27"/>
			<rect x="0" y="394.524" width="85.6667" height="27" class="st6"/>
			<text x="10.66" y="399.02" class="st23" v:langID="1033"><v:paragraph v:horizAlign="1"/><v:tabList/>Repeat for each <tspan
						x="6.94" dy="1.2em" class="st14">one of the 40 512 </tspan><tspan x="23.63" dy="1.2em" class="st14">KB blocks</tspan></text>		</g>
		<g id="shape1082-315" v:mID="1082" v:groupContext="shape" transform="translate(10.6906,408.241) rotate(-112.278)">
			<title>Sheet.1082</title>
			<path d="M0 421.52 L58.8 421.52" class="st29"/>
		</g>
		<g id="shape1083-320" v:mID="1083" v:groupContext="shape" transform="translate(-9.09802,311.114) rotate(-99.5561)">
			<title>Sheet.1083</title>
			<path d="M0 421.52 L45.78 421.52" class="st29"/>
		</g>
		<g id="shape1084-325" v:mID="1084" v:groupContext="shape" transform="translate(324.667,-149.399)">
			<title>Sheet.1084</title>
			<desc>F2SDRAM Adapter</desc>
			<v:textBlock v:margins="rect(4,4,4,4)"/>
			<v:textRect cx="27" cy="410.274" width="54.01" height="22.5"/>
			<rect x="0" y="399.024" width="54" height="22.5" class="st11"/>
			<text x="6.91" y="407.27" class="st12" v:langID="1033"><v:paragraph v:horizAlign="1"/><v:tabList/>F2SDRAM <tspan
						x="10.55" dy="1.2em" class="st14">Adapter</tspan></text>		</g>
		<g id="shape1085-329" v:mID="1085" v:groupContext="shape" transform="translate(164.354,-102.149)">
			<title>Sheet.1085</title>
			<desc>0x0</desc>
			<v:textBlock v:margins="rect(4,4,4,4)"/>
			<v:textRect cx="9" cy="415.899" width="18.01" height="11.25"/>
			<rect x="0" y="410.274" width="18" height="11.25" class="st6"/>
			<text x="4.66" y="417.7" class="st41" v:langID="1033"><v:paragraph v:horizAlign="1"/><v:tabList/>0x0</text>		</g>
		<g id="shape1086-332" v:mID="1086" v:groupContext="shape" transform="translate(178.979,-102.149)">
			<title>Sheet.1086</title>
			<desc>0x40</desc>
			<v:textBlock v:margins="rect(4,4,4,4)"/>
			<v:textRect cx="12.375" cy="415.899" width="24.76" height="11.25"/>
			<rect x="0" y="410.274" width="24.75" height="11.25" class="st6"/>
			<text x="6.51" y="417.7" class="st41" v:langID="1033"><v:paragraph v:horizAlign="1"/><v:tabList/>0x40</text>		</g>
		<g id="shape1087-335" v:mID="1087" v:groupContext="shape" transform="translate(78.8542,-102.149)">
			<title>Sheet.1087</title>
			<desc>0x20</desc>
			<v:textBlock v:margins="rect(4,4,4,4)"/>
			<v:textRect cx="12.375" cy="415.899" width="24.76" height="11.25"/>
			<rect x="0" y="410.274" width="24.75" height="11.25" class="st6"/>
			<text x="6.51" y="417.7" class="st41" v:langID="1033"><v:paragraph v:horizAlign="1"/><v:tabList/>0x20</text>		</g>
		<g id="shape1088-338" v:mID="1088" v:groupContext="shape" transform="translate(95.7292,-102.149)">
			<title>Sheet.1088</title>
			<desc>0x50</desc>
			<v:textBlock v:margins="rect(4,4,4,4)"/>
			<v:textRect cx="12.375" cy="415.899" width="24.76" height="11.25"/>
			<rect x="0" y="410.274" width="24.75" height="11.25" class="st6"/>
			<text x="6.51" y="417.7" class="st41" v:langID="1033"><v:paragraph v:horizAlign="1"/><v:tabList/>0x50</text>		</g>
		<g id="shape1089-341" v:mID="1089" v:groupContext="shape" transform="translate(146.917,-218.083)">
			<title>Sheet.1089</title>
			<desc>0x2000_0000</desc>
			<v:textBlock v:margins="rect(4,4,4,4)"/>
			<v:textRect cx="22.5" cy="415.899" width="45.01" height="11.25"/>
			<rect x="0" y="410.274" width="45" height="11.25" class="st6"/>
			<text x="6.02" y="417.7" class="st41" v:langID="1033"><v:paragraph v:horizAlign="1"/><v:tabList/>0x2000_0000</text>		</g>
		<g id="shape1090-344" v:mID="1090" v:groupContext="shape" transform="translate(144.667,-128.024)">
			<title>Sheet.1090</title>
			<desc>0x1100_0000</desc>
			<v:textBlock v:margins="rect(4,4,4,4)"/>
			<v:textRect cx="22.5" cy="415.899" width="45.01" height="11.25"/>
			<rect x="0" y="410.274" width="45" height="11.25" class="st6"/>
			<text x="6.02" y="417.7" class="st41" v:langID="1033"><v:paragraph v:horizAlign="1"/><v:tabList/>0x1100_0000</text>		</g>
		<g id="shape1091-347" v:mID="1091" v:groupContext="shape" transform="translate(-49.1,79.3742) rotate(-90)">
			<title>Sheet.1091</title>
			<desc>SDRAM</desc>
			<v:textBlock v:margins="rect(4,4,4,4)"/>
			<v:textRect cx="32.6992" cy="406.617" width="65.4" height="29.8148"/>
			<rect x="0" y="391.709" width="65.3984" height="29.8148" class="st6"/>
			<text x="14.39" y="410.22" class="st18" v:langID="1033"><v:paragraph v:horizAlign="1"/><v:tabList/>SDRAM</text>		</g>
	</g>
</svg>
