<?xml version="1.0" encoding="UTF-8" standalone="no"?>
<!DOCTYPE svg PUBLIC "-//W3C//DTD SVG 1.1//EN" "http://www.w3.org/Graphics/SVG/1.1/DTD/svg11.dtd">
<!-- Generated by Microsoft Visio, SVG Export lth_overview.svg LTH_GHRD -->
<svg xmlns="http://www.w3.org/2000/svg" xmlns:xlink="http://www.w3.org/1999/xlink" xmlns:ev="http://www.w3.org/2001/xml-events"
		xmlns:v="http://schemas.microsoft.com/visio/2003/SVGExtensions/" width="8.5in" height="11in" viewBox="0 0 612 792"
		xml:space="preserve" color-interpolation-filters="sRGB" class="st13">
	<v:documentProperties v:langID="17417" v:viewMarkup="false">
		<v:userDefs>
			<v:ud v:nameU="msvNoAutoConnect" v:val="VT0(1):26"/>
		</v:userDefs>
	</v:documentProperties>

	<style type="text/css">
	<![CDATA[
		.st1 {fill:#d7e3bf;stroke:#000000;stroke-linecap:round;stroke-linejoin:round;stroke-width:0.24}
		.st2 {fill:#92cddc;stroke:#000000;stroke-dasharray:1.68,1.2,0,1.2,0,1.2;stroke-linecap:round;stroke-linejoin:round;stroke-width:0.24}
		.st3 {fill:#92cddc;stroke:#000000;stroke-linecap:round;stroke-linejoin:round;stroke-width:0.24}
		.st4 {fill:#ffffff;stroke:#000000;stroke-linecap:round;stroke-linejoin:round;stroke-width:0.24}
		.st5 {fill:#000000;font-family:Calibri;font-size:0.833336em}
		.st6 {font-size:1em}
		.st7 {fill:none;stroke:none;stroke-linecap:round;stroke-linejoin:round;stroke-width:0.75}
		.st8 {fill:#000000;font-family:Calibri;font-size:1.00001em}
		.st9 {stroke:#000000;stroke-linecap:round;stroke-linejoin:round;stroke-width:0.75}
		.st10 {marker-end:url(#mrkr4-77);stroke:#000000;stroke-linecap:round;stroke-linejoin:round;stroke-width:0.75}
		.st11 {fill:#000000;fill-opacity:1;stroke:#000000;stroke-opacity:1;stroke-width:0.22935779816514}
		.st12 {marker-end:url(#mrkr5-83);stroke:#000000;stroke-linecap:round;stroke-linejoin:round;stroke-width:0.75}
		.st13 {fill:none;fill-rule:evenodd;font-size:12px;overflow:visible;stroke-linecap:square;stroke-miterlimit:3}
	]]>
	</style>

	<defs id="Markers">
		<g id="lend4">
			<path d="M 2 1 L 0 0 L 2 -1 L 2 1 " style="stroke:none"/>
		</g>
		<marker id="mrkr4-77" class="st11" v:arrowType="4" v:arrowSize="2" v:setback="8.72" refX="-8.72" orient="auto"
				markerUnits="strokeWidth" overflow="visible">
			<use xlink:href="#lend4" transform="scale(-4.36,-4.36) "/>
		</marker>
		<g id="lend5">
			<path d="M 2 1 L 0 0 L 1.98117 -0.993387 C 1.67173 -0.364515 1.67301 0.372641 1.98465 1.00043 " style="stroke:none"/>
		</g>
		<marker id="mrkr5-83" class="st11" v:arrowType="5" v:arrowSize="2" v:setback="7.63" refX="-7.63" orient="auto"
				markerUnits="strokeWidth" overflow="visible">
			<use xlink:href="#lend5" transform="scale(-4.36,-4.36) "/>
		</marker>
	</defs>
	<g v:mID="28" v:index="3" v:groupContext="foregroundPage">
		<title>LTH_GHRD</title>
		<v:pageProperties v:drawingScale="1" v:pageScale="1" v:drawingUnits="19" v:shadowOffsetX="9" v:shadowOffsetY="-9"/>
		<v:layer v:name="Connector" v:index="0"/>
		<g id="shape1000-1" v:mID="1000" v:groupContext="shape" transform="translate(123.375,-94.5)">
			<title>Rectangle.1000</title>
			<v:userDefs>
				<v:ud v:nameU="visVersion" v:val="VT0(15):26"/>
			</v:userDefs>
			<rect x="0" y="436.5" width="434.25" height="355.5" class="st1"/>
		</g>
		<g id="shape1001-3" v:mID="1001" v:groupContext="shape" transform="translate(414,-279.125)">
			<title>Rectangle.1001</title>
			<v:userDefs>
				<v:ud v:nameU="visVersion" v:val="VT0(15):26"/>
			</v:userDefs>
			<path d="M0 792 L119.25 792 L119.25 684 L0 684 L0 792 Z" class="st2"/>
		</g>
		<g id="shape1002-5" v:mID="1002" v:groupContext="shape" transform="translate(163.875,-125.438)">
			<title>Rectangle.1032</title>
			<v:userDefs>
				<v:ud v:nameU="visVersion" v:val="VT0(15):26"/>
			</v:userDefs>
			<path d="M0 792 L151.12 792 L151.12 684 L0 684 L0 792 Z" class="st2"/>
		</g>
		<g id="shape1003-7" v:mID="1003" v:groupContext="shape" transform="translate(123.75,-454.5)">
			<title>Rectangle</title>
			<v:userDefs>
				<v:ud v:nameU="visVersion" v:val="VT0(15):26"/>
			</v:userDefs>
			<rect x="0" y="493.375" width="434.25" height="298.625" class="st3"/>
		</g>
		<g id="shape1004-9" v:mID="1004" v:groupContext="shape" transform="translate(146.25,-607.5)">
			<title>Rectangle.3</title>
			<desc>MPU 2x A55</desc>
			<v:userDefs>
				<v:ud v:nameU="visVersion" v:val="VT0(15):26"/>
			</v:userDefs>
			<v:textBlock v:margins="rect(4,4,4,4)"/>
			<v:textRect cx="54" cy="729.313" width="108" height="125.375"/>
			<rect x="0" y="666.625" width="108" height="125.375" class="st4"/>
			<text x="43.93" y="726.31" class="st5" v:langID="1033"><v:paragraph v:horizAlign="1"/><v:tabList/>MPU<v:newlineChar/><tspan
						x="40.21" dy="1.2em" class="st6">2x A55</tspan></text>		</g>
		<g id="shape1005-13" v:mID="1005" v:groupContext="shape" transform="translate(146.25,-502.5)">
			<title>Rectangle.4</title>
			<desc>MPFE</desc>
			<v:userDefs>
				<v:ud v:nameU="visVersion" v:val="VT0(15):26"/>
			</v:userDefs>
			<v:textBlock v:margins="rect(4,4,4,4)"/>
			<v:textRect cx="54" cy="766.5" width="108" height="51"/>
			<rect x="0" y="741" width="108" height="51" class="st4"/>
			<text x="42.4" y="769.5" class="st5" v:langID="1033"><v:paragraph v:horizAlign="1"/><v:tabList/>MPFE</text>		</g>
		<g id="shape1006-16" v:mID="1006" v:groupContext="shape" transform="translate(123.75,-733.125)">
			<title>Sheet.1006</title>
			<desc>HPS</desc>
			<v:textBlock v:margins="rect(4,4,4,4)"/>
			<v:textRect cx="22.5" cy="782" width="45" height="20"/>
			<rect x="0" y="772" width="45" height="20" class="st7"/>
			<text x="12.91" y="785.6" class="st8" v:langID="1033"><v:paragraph v:horizAlign="1"/><v:tabList/>HPS</text>		</g>
		<g id="shape1007-19" v:mID="1007" v:groupContext="shape" transform="translate(452.25,-561.375)">
			<title>Rectangle.6</title>
			<desc>XGMAC2</desc>
			<v:userDefs>
				<v:ud v:nameU="visVersion" v:val="VT0(15):26"/>
			</v:userDefs>
			<v:textBlock v:margins="rect(4,4,4,4)"/>
			<v:textRect cx="24.75" cy="781.875" width="49.51" height="20.25"/>
			<rect x="0" y="771.75" width="49.5" height="20.25" class="st4"/>
			<text x="6.63" y="784.88" class="st5" v:langID="1033"><v:paragraph v:horizAlign="1"/><v:tabList/>XGMAC2</text>		</g>
		<g id="shape1011-22" v:mID="1011" v:groupContext="shape" transform="translate(288,-712.625)">
			<title>Rectangle.10</title>
			<desc>UART0</desc>
			<v:userDefs>
				<v:ud v:nameU="visVersion" v:val="VT0(15):26"/>
			</v:userDefs>
			<v:textBlock v:margins="rect(4,4,4,4)"/>
			<v:textRect cx="24.75" cy="781.875" width="49.51" height="20.25"/>
			<rect x="0" y="771.75" width="49.5" height="20.25" class="st4"/>
			<text x="10.96" y="784.88" class="st5" v:langID="1033"><v:paragraph v:horizAlign="1"/><v:tabList/>UART0</text>		</g>
		<g id="shape1013-25" v:mID="1013" v:groupContext="shape" transform="translate(348.75,-712.625)">
			<title>Rectangle.12</title>
			<desc>GPIO0/1</desc>
			<v:userDefs>
				<v:ud v:nameU="visVersion" v:val="VT0(15):26"/>
			</v:userDefs>
			<v:textBlock v:margins="rect(4,4,4,4)"/>
			<v:textRect cx="24.75" cy="781.875" width="49.51" height="20.25"/>
			<rect x="0" y="771.75" width="49.5" height="20.25" class="st4"/>
			<text x="7.44" y="784.88" class="st5" v:langID="1033"><v:paragraph v:horizAlign="1"/><v:tabList/>GPIO0/1</text>		</g>
		<g id="shape1014-28" v:mID="1014" v:groupContext="shape" transform="translate(452.25,-654.75)">
			<title>Rectangle.13</title>
			<desc>I2C0</desc>
			<v:userDefs>
				<v:ud v:nameU="visVersion" v:val="VT0(15):26"/>
			</v:userDefs>
			<v:textBlock v:margins="rect(4,4,4,4)"/>
			<v:textRect cx="24.75" cy="781.875" width="49.51" height="20.25"/>
			<rect x="0" y="771.75" width="49.5" height="20.25" class="st4"/>
			<text x="15.76" y="784.88" class="st5" v:langID="1033"><v:paragraph v:horizAlign="1"/><v:tabList/>I2C0</text>		</g>
		<g id="shape1020-31" v:mID="1020" v:groupContext="shape" transform="translate(407.25,-712.625)">
			<title>Rectangle.20</title>
			<desc>SDMMC</desc>
			<v:userDefs>
				<v:ud v:nameU="visVersion" v:val="VT0(15):26"/>
			</v:userDefs>
			<v:textBlock v:margins="rect(4,4,4,4)"/>
			<v:textRect cx="24.75" cy="782" width="49.51" height="20"/>
			<rect x="0" y="772" width="49.5" height="20" class="st4"/>
			<text x="8.16" y="785" class="st5" v:langID="1033"><v:paragraph v:horizAlign="1"/><v:tabList/>SDMMC</text>		</g>
		<g id="shape1023-34" v:mID="1023" v:groupContext="shape" transform="translate(452.25,-624.375)">
			<title>Rectangle.24</title>
			<desc>I3C1</desc>
			<v:userDefs>
				<v:ud v:nameU="visVersion" v:val="VT0(15):26"/>
			</v:userDefs>
			<v:textBlock v:margins="rect(4,4,4,4)"/>
			<v:textRect cx="24.75" cy="781.875" width="49.51" height="20.25"/>
			<rect x="0" y="771.75" width="49.5" height="20.25" class="st4"/>
			<text x="15.76" y="784.88" class="st5" v:langID="1033"><v:paragraph v:horizAlign="1"/><v:tabList/>I3C1</text>		</g>
		<g id="shape1026-37" v:mID="1026" v:groupContext="shape" transform="translate(452.25,-594)">
			<title>Rectangle.27</title>
			<desc>USB3.1</desc>
			<v:userDefs>
				<v:ud v:nameU="visVersion" v:val="VT0(15):26"/>
			</v:userDefs>
			<v:textBlock v:margins="rect(4,4,4,4)"/>
			<v:textRect cx="24.75" cy="781.875" width="49.51" height="20.25"/>
			<rect x="0" y="771.75" width="49.5" height="20.25" class="st4"/>
			<text x="10.19" y="784.88" class="st5" v:langID="1033"><v:paragraph v:horizAlign="1"/><v:tabList/>USB3.1</text>		</g>
		<g id="shape1030-40" v:mID="1030" v:groupContext="shape" v:layerMember="0" transform="translate(254.25,-670.188)">
			<title>Dynamic connector.32</title>
			<path d="M0 792 L45 792 L45 767.56 L177.75 767.56 L177.75 749.56" class="st9"/>
		</g>
		<g id="shape1034-43" v:mID="1034" v:groupContext="shape" v:layerMember="0" transform="translate(254.25,-676.531)">
			<title>Dynamic connector.37</title>
			<path d="M0 798.34 L45 798.34 L45 773.91 L151.87 773.91 L151.87 803.66 L198 803.66" class="st9"/>
		</g>
		<g id="shape1035-46" v:mID="1035" v:groupContext="shape" v:layerMember="0" transform="translate(254.25,-670.188)">
			<title>Dynamic connector.1000</title>
			<path d="M0 792 L45 792 L45 767.56 L151.87 767.56 L151.87 827.69 L198 827.69" class="st9"/>
		</g>
		<g id="shape1037-49" v:mID="1037" v:groupContext="shape" v:layerMember="0" transform="translate(254.25,-670.188)">
			<title>Dynamic connector.1002</title>
			<path d="M0 792 L45 792 L45 767.56 L151.87 767.56 L151.87 858.06 L198 858.06" class="st9"/>
		</g>
		<g id="shape1038-52" v:mID="1038" v:groupContext="shape" v:layerMember="0" transform="translate(254.25,-670.188)">
			<title>Dynamic connector.1003</title>
			<path d="M0 792 L45 792 L45 767.56 L151.87 767.56 L151.87 890.69 L198 890.69" class="st9"/>
		</g>
		<g id="shape1041-55" v:mID="1041" v:groupContext="shape" transform="translate(146.25,-559.625)">
			<title>Rectangle.1006</title>
			<desc>CCU</desc>
			<v:userDefs>
				<v:ud v:nameU="visVersion" v:val="VT0(15):26"/>
			</v:userDefs>
			<v:textBlock v:margins="rect(4,4,4,4)"/>
			<v:textRect cx="54" cy="772.875" width="108" height="38.25"/>
			<rect x="0" y="753.75" width="108" height="38.25" class="st4"/>
			<text x="45.46" y="775.88" class="st5" v:langID="1033"><v:paragraph v:horizAlign="1"/><v:tabList/>CCU</text>		</g>
		<g id="shape1042-58" v:mID="1042" v:groupContext="shape" transform="translate(167.625,-436.5)">
			<title>Rectangle.1007</title>
			<desc>F2SDRAM256</desc>
			<v:userDefs>
				<v:ud v:nameU="visVersion" v:val="VT0(15):26"/>
			</v:userDefs>
			<v:textBlock v:margins="rect(4,4,4,4)"/>
			<v:textRect cx="32.625" cy="778.5" width="65.26" height="27"/>
			<rect x="0" y="765" width="65.25" height="27" class="st4"/>
			<text x="4.93" y="781.5" class="st5" v:langID="1033"><v:paragraph v:horizAlign="1"/><v:tabList/>F2SDRAM<tspan
						class="st6" v:langID="17417">256</tspan></text>		</g>
		<g id="shape1044-62" v:mID="1044" v:groupContext="shape" transform="translate(274.5,-436.5)">
			<title>Rectangle.1009</title>
			<desc>LWH2F32</desc>
			<v:userDefs>
				<v:ud v:nameU="visVersion" v:val="VT0(15):26"/>
			</v:userDefs>
			<v:textBlock v:margins="rect(4,4,4,4)"/>
			<v:textRect cx="24.75" cy="778.5" width="49.51" height="27"/>
			<rect x="0" y="765" width="49.5" height="27" class="st4"/>
			<text x="5.18" y="781.5" class="st5" v:langID="1033"><v:paragraph v:horizAlign="1"/><v:tabList/>LWH2F32</text>		</g>
		<g id="shape1045-65" v:mID="1045" v:groupContext="shape" transform="translate(333,-436.5)">
			<title>Rectangle.1010</title>
			<desc>H2F128</desc>
			<v:userDefs>
				<v:ud v:nameU="visVersion" v:val="VT0(15):26"/>
			</v:userDefs>
			<v:textBlock v:margins="rect(4,4,4,4)"/>
			<v:textRect cx="34.875" cy="778.5" width="69.75" height="27"/>
			<rect x="0" y="765" width="69.75" height="27" class="st4"/>
			<text x="19.33" y="781.5" class="st5" v:langID="17417"><v:paragraph v:horizAlign="1"/><v:tabList/>H<tspan class="st6"
						v:langID="1033">2F128</tspan></text>		</g>
		<g id="shape1046-69" v:mID="1046" v:groupContext="shape" v:layerMember="0" transform="translate(191.25,-463.5)">
			<title>Dynamic connector.1011</title>
			<path d="M9 792 L9 753" class="st9"/>
		</g>
		<g id="shape1048-72" v:mID="1048" v:groupContext="shape" v:layerMember="0" transform="translate(254.25,-670.188)">
			<title>Dynamic connector.1013</title>
			<path d="M0 792 L45 792 L45 992.15" class="st10"/>
		</g>
		<g id="shape1049-78" v:mID="1049" v:groupContext="shape" v:layerMember="0" transform="translate(254.25,-670.188)">
			<title>Dynamic connector.1014</title>
			<path d="M0 792 L45 792 L45 970.06 L113.62 970.06 L113.62 992.97" class="st12"/>
		</g>
		<g id="shape1050-84" v:mID="1050" v:groupContext="shape" transform="translate(57,-502.5)">
			<title>Square.1015</title>
			<desc>EMIF</desc>
			<v:userDefs>
				<v:ud v:nameU="visVersion" v:val="VT0(15):26"/>
			</v:userDefs>
			<v:textBlock v:margins="rect(4,4,4,4)"/>
			<v:textRect cx="25.5" cy="766.5" width="51.01" height="51"/>
			<rect x="0" y="741" width="51" height="51" class="st4"/>
			<text x="15.23" y="769.5" class="st5" v:langID="1033"><v:paragraph v:horizAlign="1"/><v:tabList/>EMIF</text>		</g>
		<g id="shape1051-87" v:mID="1051" v:groupContext="shape" transform="translate(123.375,-97)">
			<title>Sheet.1051</title>
			<desc>FPGA Fabric</desc>
			<v:textBlock v:margins="rect(4,4,4,4)"/>
			<v:textRect cx="37.7" cy="782" width="75.41" height="20"/>
			<rect x="0" y="772" width="75.4" height="20" class="st7"/>
			<text x="8.44" y="785.6" class="st8" v:langID="1033"><v:paragraph v:horizAlign="1"/><v:tabList/>FPGA Fabric</text>		</g>
		<g id="shape1052-90" v:mID="1052" v:groupContext="shape" transform="translate(417.375,-184.5)">
			<title>Rectangle.1023</title>
			<desc>Onchip Memory</desc>
			<v:userDefs>
				<v:ud v:nameU="visVersion" v:val="VT0(15):26"/>
			</v:userDefs>
			<v:textBlock v:margins="rect(4,4,4,4)"/>
			<v:textRect cx="34.875" cy="767.25" width="69.75" height="49.5"/>
			<rect x="0" y="742.5" width="69.75" height="49.5" class="st4"/>
			<text x="20.42" y="764.25" class="st5" v:langID="1033"><v:paragraph v:horizAlign="1"/><v:tabList/>Onchip <tspan
						x="17.48" dy="1.2em" class="st6">Memory</tspan></text>		</g>
		<g id="shape1053-94" v:mID="1053" v:groupContext="shape" transform="translate(196.475,-195.062)">
			<title>Rectangle.1025</title>
			<desc>SysID</desc>
			<v:userDefs>
				<v:ud v:nameU="visVersion" v:val="VT0(15):26"/>
			</v:userDefs>
			<v:textBlock v:margins="rect(4,4,4,4)"/>
			<v:textRect cx="37.7" cy="781.875" width="75.41" height="20.25"/>
			<rect x="0" y="771.75" width="75.4" height="20.25" class="st4"/>
			<text x="26.85" y="784.88" class="st5" v:langID="1033"><v:paragraph v:horizAlign="1"/><v:tabList/>SysID</text>		</g>
		<g id="shape1054-97" v:mID="1054" v:groupContext="shape" transform="translate(196.475,-139.937)">
			<title>Rectangle.1027</title>
			<desc>PB0</desc>
			<v:userDefs>
				<v:ud v:nameU="visVersion" v:val="VT0(15):26"/>
			</v:userDefs>
			<v:textBlock v:margins="rect(4,4,4,4)"/>
			<v:textRect cx="37.7" cy="781.875" width="75.41" height="20.25"/>
			<rect x="0" y="771.75" width="75.4" height="20.25" class="st4"/>
			<text x="29.86" y="784.88" class="st5" v:langID="1033"><v:paragraph v:horizAlign="1"/><v:tabList/>PB0</text>		</g>
		<g id="shape1055-100" v:mID="1055" v:groupContext="shape" transform="translate(196.475,-169.312)">
			<title>Rectangle.1028</title>
			<desc>LED0</desc>
			<v:userDefs>
				<v:ud v:nameU="visVersion" v:val="VT0(15):26"/>
			</v:userDefs>
			<v:textBlock v:margins="rect(4,4,4,4)"/>
			<v:textRect cx="37.7" cy="781.875" width="75.41" height="20.25"/>
			<rect x="0" y="771.75" width="75.4" height="20.25" class="st4"/>
			<text x="27.55" y="784.88" class="st5" v:langID="1033"><v:paragraph v:horizAlign="1"/><v:tabList/>LED0</text>		</g>
		<g id="shape1056-103" v:mID="1056" v:groupContext="shape" transform="translate(160.125,-214.563)">
			<title>Sheet.1056</title>
			<desc>Peripherals subsystem</desc>
			<v:textBlock v:margins="rect(4,4,4,4)"/>
			<v:textRect cx="63" cy="782" width="126" height="20"/>
			<rect x="0" y="772" width="126" height="20" class="st7"/>
			<text x="8.26" y="785.6" class="st8" v:langID="1033"><v:paragraph v:horizAlign="1"/><v:tabList/>Peripherals subsystem</text>		</g>
		<g id="shape1057-106" v:mID="1057" v:groupContext="shape" transform="translate(417.375,-152)">
			<title>Rectangle.1034</title>
			<desc>Reset Release IP</desc>
			<v:userDefs>
				<v:ud v:nameU="visVersion" v:val="VT0(15):26"/>
			</v:userDefs>
			<v:textBlock v:margins="rect(4,4,4,4)"/>
			<v:textRect cx="56.8125" cy="782" width="113.63" height="20"/>
			<rect x="0" y="772" width="113.625" height="20" class="st4"/>
			<text x="23.71" y="785" class="st5" v:langID="1033"><v:paragraph v:horizAlign="1"/><v:tabList/>Reset Release IP</text>		</g>
		<g id="shape1058-109" v:mID="1058" v:groupContext="shape" transform="translate(417.375,-240.875)">
			<title>Rectangle.1035</title>
			<desc>Addr Expander</desc>
			<v:userDefs>
				<v:ud v:nameU="visVersion" v:val="VT0(15):26"/>
			</v:userDefs>
			<v:textBlock v:margins="rect(4,4,4,4)"/>
			<v:textRect cx="34.875" cy="781.875" width="69.75" height="20.25"/>
			<rect x="0" y="771.75" width="69.75" height="20.25" class="st4"/>
			<text x="4.74" y="784.88" class="st5" v:langID="1033"><v:paragraph v:horizAlign="1"/><v:tabList/>Addr Expander</text>		</g>
		<g id="shape1060-112" v:mID="1060" v:groupContext="shape" transform="translate(423,-339.875)">
			<title>Rectangle.1038</title>
			<desc>FPGA Jtag Master</desc>
			<v:userDefs>
				<v:ud v:nameU="visVersion" v:val="VT0(15):26"/>
			</v:userDefs>
			<v:textBlock v:margins="rect(4,4,4,4)"/>
			<v:textRect cx="49.05" cy="781.875" width="98.1" height="20.25"/>
			<rect x="0" y="771.75" width="98.1" height="20.25" class="st4"/>
			<text x="13.31" y="784.88" class="st5" v:langID="1033"><v:paragraph v:horizAlign="1"/><v:tabList/>FPGA Jtag Master</text>		</g>
		<g id="shape1061-115" v:mID="1061" v:groupContext="shape" transform="translate(418.5,-367.125)">
			<title>Sheet.1061</title>
			<desc>Debug subsystem</desc>
			<v:textBlock v:margins="rect(4,4,4,4)"/>
			<v:textRect cx="49.05" cy="782" width="98.1" height="20"/>
			<rect x="0" y="772" width="98.1" height="20" class="st7"/>
			<text x="6.04" y="785.6" class="st8" v:langID="1033"><v:paragraph v:horizAlign="1"/><v:tabList/>Debug subsystem</text>		</g>
		<g id="shape1064-118" v:mID="1064" v:groupContext="shape" v:layerMember="0" transform="translate(299.25,-436.5)">
			<title>Dynamic connector.1053</title>
			<path d="M0 792 L0 1023.31 L-20.84 1023.31" class="st10"/>
		</g>
		<g id="shape1065-123" v:mID="1065" v:groupContext="shape" v:layerMember="0" transform="translate(299.25,-436.5)">
			<title>Dynamic connector.1058</title>
			<path d="M0 792 L0 1049.06 L-20.84 1049.06" class="st10"/>
		</g>
		<g id="shape1067-128" v:mID="1067" v:groupContext="shape" v:layerMember="0" transform="translate(417.375,-251)">
			<title>Dynamic connector.1063</title>
			<path d="M0 792 L-46.5 792 A3 3 -180 0 0 -52.5 792 L-115.12 792 A3 3 -180 0 0 -121.12 792 L-217.13 792 L-217.13 698.54"
					class="st10"/>
		</g>
		<g id="shape1068-133" v:mID="1068" v:groupContext="shape" transform="translate(423,-285.875)">
			<title>Rectangle.1064</title>
			<desc>HPS F2SDRAM Jtag Master</desc>
			<v:userDefs>
				<v:ud v:nameU="visVersion" v:val="VT0(15):26"/>
			</v:userDefs>
			<v:textBlock v:margins="rect(4,4,4,4)"/>
			<v:textRect cx="29.25" cy="770.625" width="58.5" height="42.75"/>
			<rect x="0" y="749.25" width="58.5" height="42.75" class="st4"/>
			<text x="21.25" y="761.62" class="st5" v:langID="17417"><v:paragraph v:horizAlign="1"/><v:tabList/>HPS <tspan x="9.16"
						dy="1.2em" class="st6">F2SDRAM</tspan><tspan class="st6" v:langID="1033"> </tspan><tspan x="5.57"
						dy="1.2em" class="st6" v:langID="1033">Jtag Master</tspan></text>		</g>
		<g id="shape1069-139" v:mID="1069" v:groupContext="shape" v:layerMember="0" transform="translate(108,-519)">
			<title>Dynamic connector.1065</title>
			<path d="M0 783 L38.25 783" class="st9"/>
		</g>
		<g id="shape1070-142" v:mID="1070" v:groupContext="shape" v:layerMember="0" transform="translate(423,-350)">
			<title>Dynamic connector.1066</title>
			<path d="M0 792 L-21 792 L-21 737 L108 737 L108 534.5 L85.29 534.5" class="st10"/>
		</g>
		<g id="shape1071-147" v:mID="1071" v:groupContext="shape" transform="translate(417.375,-124.875)">
			<title>Rectangle.1067</title>
			<desc>GTS Reset Sequencer IP</desc>
			<v:userDefs>
				<v:ud v:nameU="visVersion" v:val="VT0(15):26"/>
			</v:userDefs>
			<v:textBlock v:margins="rect(4,4,4,4)"/>
			<v:textRect cx="56.8125" cy="781.875" width="113.63" height="20.25"/>
			<rect x="0" y="771.75" width="113.625" height="20.25" class="st4"/>
			<text x="8.87" y="784.88" class="st5" v:langID="17417"><v:paragraph v:horizAlign="1"/><v:tabList/>GTS Reset Sequencer<tspan
						class="st6" v:langID="1033"> </tspan><tspan class="st6" v:langID="1033">IP</tspan></text>		</g>
		<g id="shape1072-152" v:mID="1072" v:groupContext="shape" transform="translate(175.5,-351)">
			<title>Rectangle.1068</title>
			<desc>F2SDRAM adapter</desc>
			<v:userDefs>
				<v:ud v:nameU="visVersion" v:val="VT0(15):26"/>
			</v:userDefs>
			<v:textBlock v:margins="rect(4,4,4,4)"/>
			<v:textRect cx="24.75" cy="767.25" width="49.51" height="49.5"/>
			<rect x="0" y="742.5" width="49.5" height="49.5" class="st4"/>
			<text x="4.66" y="764.25" class="st5" v:langID="17417"><v:paragraph v:horizAlign="1"/><v:tabList/>F2SDRAM <tspan
						x="8.8" dy="1.2em" class="st6">adapter</tspan></text>		</g>
		<g id="shape1073-156" v:mID="1073" v:groupContext="shape" v:layerMember="0" transform="translate(209.25,-400.5)">
			<title>Dynamic connector.1069</title>
			<path d="M-9 792 L-9 762.54" class="st10"/>
		</g>
		<g id="shape1074-161" v:mID="1074" v:groupContext="shape" v:layerMember="0" transform="translate(461.25,-285.875)">
			<title>Dynamic connector.1070</title>
			<path d="M-9 792 L-9 811.03" class="st12"/>
		</g>
		<g id="shape1077-166" v:mID="1077" v:groupContext="shape" v:layerMember="0" transform="translate(299.25,-400)">
			<title>Dynamic connector.1079</title>
			<path d="M0 792 L0 773.5 L65.62 773.5 A3 3 0 0 1 71.62 773.5 L222.75 773.5 L222.75 593.5 L209.04 593.5" class="st10"/>
		</g>
		<g id="shape1078-171" v:mID="1078" v:groupContext="shape" transform="translate(1104.75,79.375) rotate(90)">
			<title>Sheet.1078</title>
			<path d="M0 792 L18 792" class="st9"/>
		</g>
		<g id="shape1079-174" v:mID="1079" v:groupContext="shape" transform="translate(1165.5,79.375) rotate(90)">
			<title>Sheet.1079</title>
			<path d="M0 792 L18 792" class="st9"/>
		</g>
		<g id="shape1086-177" v:mID="1086" v:groupContext="shape" v:layerMember="0" transform="translate(299.25,-436.5)">
			<title>Dynamic connector.1086</title>
			<path d="M0 792 L-0 1078.44 L-20.84 1078.44" class="st10"/>
		</g>
		<g id="shape1090-182" v:mID="1090" v:groupContext="shape" v:layerMember="0" transform="translate(367.875,-436.5)">
			<title>Dynamic connector.1090</title>
			<path d="M0 792 L0 1019.25 L43.78 1019.25" class="st12"/>
		</g>
		<g id="shape1091-187" v:mID="1091" v:groupContext="shape" v:layerMember="0" transform="translate(429.188,-350)">
			<title>Dynamic connector.1091</title>
			<path d="M-6.19 792 L-61.31 792 L-61.31 932.75 L-11.81 932.75" class="st9"/>
		</g>
	</g>
</svg>
