<?xml version="1.0" encoding="UTF-8" standalone="no"?>
<!DOCTYPE svg PUBLIC "-//W3C//DTD SVG 1.1//EN" "http://www.w3.org/Graphics/SVG/1.1/DTD/svg11.dtd">
<!-- Generated by Microsoft Visio, SVG Export ai_stream_controller_data_flow.svg AI strean controller data flow -->
<svg xmlns="http://www.w3.org/2000/svg" xmlns:xlink="http://www.w3.org/1999/xlink" xmlns:ev="http://www.w3.org/2001/xml-events"
		xmlns:v="http://schemas.microsoft.com/visio/2003/SVGExtensions/" width="21.96in" height="14.3557in"
		viewBox="0 0 1581.12 1033.61" xml:space="preserve" color-interpolation-filters="sRGB" class="st12">
	<v:documentProperties v:langID="2057" v:metric="true" v:viewMarkup="false">
		<v:userDefs>
			<v:ud v:nameU="msvNoAutoConnect" v:val="VT0(1):26"/>
		</v:userDefs>
	</v:documentProperties>

	<style type="text/css">
	<![CDATA[
		.st1 {fill:#fff2cc;stroke:#000000;stroke-linecap:round;stroke-linejoin:round;stroke-width:0.24}
		.st2 {fill:#000000;font-family:Calibri;font-size:0.833336em}
		.st3 {fill:#ebf1df;stroke:#000000;stroke-linecap:round;stroke-linejoin:round;stroke-width:0.24}
		.st4 {fill:#d7e3bf;stroke:#000000;stroke-linecap:round;stroke-linejoin:round;stroke-width:0.24}
		.st5 {fill:#b7dde8;stroke:#000000;stroke-linecap:round;stroke-linejoin:round;stroke-width:0.24}
		.st6 {font-size:1em}
		.st7 {fill:#ffffff;stroke:#000000;stroke-linecap:round;stroke-linejoin:round;stroke-width:0.24}
		.st8 {fill:#fee599;stroke:#000000;stroke-linecap:round;stroke-linejoin:round;stroke-width:0.24}
		.st9 {fill:#ffffff;stroke:#000000;stroke-dasharray:1.68,1.2;stroke-linecap:round;stroke-linejoin:round;stroke-width:0.24}
		.st10 {fill:#ffffff}
		.st11 {stroke:#000000;stroke-linecap:round;stroke-linejoin:round;stroke-width:0.2376}
		.st12 {fill:none;fill-rule:evenodd;font-size:12px;overflow:visible;stroke-linecap:square;stroke-miterlimit:3}
	]]>
	</style>

	<g v:mID="0" v:index="1" v:groupContext="foregroundPage">
		<title>AI stream controller data flow</title>
		<v:pageProperties v:drawingScale="0.0393701" v:pageScale="0.0393701" v:drawingUnits="24" v:shadowOffsetX="8.50394"
				v:shadowOffsetY="-8.50394"/>
		<v:layer v:name="Connector" v:index="0"/>
		<g id="shape80-1" v:mID="80" v:groupContext="shape" transform="translate(117.333,-517.585)">
			<title>Rectangle.80</title>
			<desc>HPS</desc>
			<v:userDefs>
				<v:ud v:nameU="visVersion" v:val="VT0(15):26"/>
			</v:userDefs>
			<v:textBlock v:margins="rect(4,4,4,4)" v:tabSpace="42.5197" v:verticalAlign="0"/>
			<v:textRect cx="70.8661" cy="884.791" width="141.74" height="297.638"/>
			<rect x="0" y="735.972" width="141.732" height="297.638" class="st1"/>
			<text x="62.87" y="748.97" class="st2" v:langID="1033"><v:paragraph v:horizAlign="1"/><v:tabList/>HPS</text>		</g>
		<g id="shape1-4" v:mID="1" v:groupContext="shape" transform="translate(939.38,-18.12)">
			<title>Rectangle</title>
			<desc>FPGA Memory</desc>
			<v:userDefs>
				<v:ud v:nameU="visVersion" v:val="VT0(15):26"/>
			</v:userDefs>
			<v:textBlock v:margins="rect(4,4,4,4)" v:tabSpace="42.5197" v:verticalAlign="0"/>
			<v:textRect cx="70.8661" cy="534.925" width="141.74" height="997.37"/>
			<rect x="0" y="36.24" width="141.732" height="997.37" class="st3"/>
			<text x="41.41" y="49.24" class="st2" v:langID="1033"><v:paragraph v:horizAlign="1"/><v:tabList/>FPGA Memory</text>		</g>
		<g id="shape2-7" v:mID="2" v:groupContext="shape" transform="translate(1987.16,62.4822) rotate(90)">
			<title>Rectangle.2</title>
			<desc>Inference</desc>
			<v:userDefs>
				<v:ud v:nameU="visVersion" v:val="VT0(15):26"/>
			</v:userDefs>
			<v:textBlock v:margins="rect(4,4,4,4)" v:tabSpace="42.5197" v:verticalAlign="0"/>
			<v:textRect cx="42.5197" cy="976.917" width="85.04" height="113.386"/>
			<rect x="0" y="920.224" width="85.0394" height="113.386" class="st4"/>
			<text x="23.16" y="933.22" class="st2" v:langID="1033"><v:paragraph v:horizAlign="1"/><v:tabList/>Inference</text>		</g>
		<g id="shape3-10" v:mID="3" v:groupContext="shape" transform="translate(953.553,-928.608)">
			<title>Rectangle.3</title>
			<desc>Input Buffer</desc>
			<v:userDefs>
				<v:ud v:nameU="visVersion" v:val="VT0(15):26"/>
			</v:userDefs>
			<v:textBlock v:margins="rect(4,4,4,4)" v:tabSpace="42.5197"/>
			<v:textRect cx="49.6063" cy="1012.35" width="99.22" height="42.5197"/>
			<rect x="0" y="991.09" width="99.2126" height="42.5197" class="st4"/>
			<text x="25.03" y="1015.35" class="st2" v:langID="1033"><v:paragraph v:horizAlign="1"/><v:tabList/>Input Buffer</text>		</g>
		<g id="shape4-13" v:mID="4" v:groupContext="shape" transform="translate(953.553,-886.089)">
			<title>Rectangle.4</title>
			<desc>Output Buffer</desc>
			<v:userDefs>
				<v:ud v:nameU="visVersion" v:val="VT0(15):26"/>
			</v:userDefs>
			<v:textBlock v:margins="rect(4,4,4,4)" v:tabSpace="42.5197"/>
			<v:textRect cx="49.6063" cy="1012.35" width="99.22" height="42.5197"/>
			<rect x="0" y="991.09" width="99.2126" height="42.5197" class="st4"/>
			<text x="21.31" y="1015.35" class="st2" v:langID="1033"><v:paragraph v:horizAlign="1"/><v:tabList/>Output Buffer</text>		</g>
		<g id="shape11-16" v:mID="11" v:groupContext="shape" transform="translate(613.396,-914.435)">
			<title>Rectangle.11</title>
			<desc>Video Frame Writer AI Model Input</desc>
			<v:userDefs>
				<v:ud v:nameU="visVersion" v:val="VT0(15):26"/>
			</v:userDefs>
			<v:textBlock v:margins="rect(4,4,4,4)" v:tabSpace="42.5197"/>
			<v:textRect cx="56.6929" cy="998.177" width="113.39" height="70.8661"/>
			<rect x="0" y="962.744" width="113.386" height="70.8661" class="st5"/>
			<text x="16.53" y="995.18" class="st2" v:langID="1033"><v:paragraph v:horizAlign="1"/><v:tabList/>Video Frame Writer<v:lf/><tspan
						x="26.29" dy="1.2em" class="st6">AI Model Input</tspan></text>		</g>
		<g id="shape13-20" v:mID="13" v:groupContext="shape" transform="translate(1987.16,161.695) rotate(90)">
			<title>Rectangle.13</title>
			<desc>Inference</desc>
			<v:userDefs>
				<v:ud v:nameU="visVersion" v:val="VT0(15):26"/>
			</v:userDefs>
			<v:textBlock v:margins="rect(4,4,4,4)" v:tabSpace="42.5197" v:verticalAlign="0"/>
			<v:textRect cx="42.5197" cy="976.917" width="85.04" height="113.386"/>
			<rect x="0" y="920.224" width="85.0394" height="113.386" class="st4"/>
			<text x="23.16" y="933.22" class="st2" v:langID="1033"><v:paragraph v:horizAlign="1"/><v:tabList/>Inference</text>		</g>
		<g id="shape14-23" v:mID="14" v:groupContext="shape" transform="translate(953.553,-829.396)">
			<title>Rectangle.14</title>
			<desc>Input Buffer</desc>
			<v:userDefs>
				<v:ud v:nameU="visVersion" v:val="VT0(15):26"/>
			</v:userDefs>
			<v:textBlock v:margins="rect(4,4,4,4)" v:tabSpace="42.5197"/>
			<v:textRect cx="49.6063" cy="1012.35" width="99.22" height="42.5197"/>
			<rect x="0" y="991.09" width="99.2126" height="42.5197" class="st4"/>
			<text x="25.03" y="1015.35" class="st2" v:langID="1033"><v:paragraph v:horizAlign="1"/><v:tabList/>Input Buffer</text>		</g>
		<g id="shape15-26" v:mID="15" v:groupContext="shape" transform="translate(953.553,-786.876)">
			<title>Rectangle.15</title>
			<desc>Output Buffer</desc>
			<v:userDefs>
				<v:ud v:nameU="visVersion" v:val="VT0(15):26"/>
			</v:userDefs>
			<v:textBlock v:margins="rect(4,4,4,4)" v:tabSpace="42.5197"/>
			<v:textRect cx="49.6063" cy="1012.35" width="99.22" height="42.5197"/>
			<rect x="0" y="991.09" width="99.2126" height="42.5197" class="st4"/>
			<text x="21.31" y="1015.35" class="st2" v:langID="1033"><v:paragraph v:horizAlign="1"/><v:tabList/>Output Buffer</text>		</g>
		<g id="shape25-29" v:mID="25" v:groupContext="shape" transform="translate(1987.16,260.907) rotate(90)">
			<title>Rectangle.25</title>
			<desc>Inference</desc>
			<v:userDefs>
				<v:ud v:nameU="visVersion" v:val="VT0(15):26"/>
			</v:userDefs>
			<v:textBlock v:margins="rect(4,4,4,4)" v:tabSpace="42.5197" v:verticalAlign="0"/>
			<v:textRect cx="42.5197" cy="976.917" width="85.04" height="113.386"/>
			<rect x="0" y="920.224" width="85.0394" height="113.386" class="st4"/>
			<text x="23.16" y="933.22" class="st2" v:langID="1033"><v:paragraph v:horizAlign="1"/><v:tabList/>Inference</text>		</g>
		<g id="shape26-32" v:mID="26" v:groupContext="shape" transform="translate(953.553,-730.183)">
			<title>Rectangle.26</title>
			<desc>Input Buffer</desc>
			<v:userDefs>
				<v:ud v:nameU="visVersion" v:val="VT0(15):26"/>
			</v:userDefs>
			<v:textBlock v:margins="rect(4,4,4,4)" v:tabSpace="42.5197"/>
			<v:textRect cx="49.6063" cy="1012.35" width="99.22" height="42.5197"/>
			<rect x="0" y="991.09" width="99.2126" height="42.5197" class="st4"/>
			<text x="25.03" y="1015.35" class="st2" v:langID="1033"><v:paragraph v:horizAlign="1"/><v:tabList/>Input Buffer</text>		</g>
		<g id="shape27-35" v:mID="27" v:groupContext="shape" transform="translate(953.553,-687.663)">
			<title>Rectangle.27</title>
			<desc>Output Buffer</desc>
			<v:userDefs>
				<v:ud v:nameU="visVersion" v:val="VT0(15):26"/>
			</v:userDefs>
			<v:textBlock v:margins="rect(4,4,4,4)" v:tabSpace="42.5197"/>
			<v:textRect cx="49.6063" cy="1012.35" width="99.22" height="42.5197"/>
			<rect x="0" y="991.09" width="99.2126" height="42.5197" class="st4"/>
			<text x="21.31" y="1015.35" class="st2" v:langID="1033"><v:paragraph v:horizAlign="1"/><v:tabList/>Output Buffer</text>		</g>
		<g id="shape28-38" v:mID="28" v:groupContext="shape" transform="translate(613.396,-786.876)">
			<title>Rectangle.28</title>
			<desc>FPGA AI Suite IP</desc>
			<v:userDefs>
				<v:ud v:nameU="visVersion" v:val="VT0(15):26"/>
			</v:userDefs>
			<v:textBlock v:margins="rect(4,4,4,4)" v:tabSpace="42.5197"/>
			<v:textRect cx="56.6929" cy="991.09" width="113.39" height="85.0394"/>
			<rect x="0" y="948.571" width="113.386" height="85.0394" class="st5"/>
			<text x="24.14" y="994.09" class="st2" v:langID="1033"><v:paragraph v:horizAlign="1"/><v:tabList/>FPGA AI Suite IP</text>		</g>
		<g id="shape29-41" v:mID="29" v:groupContext="shape" transform="translate(728.073,-850.938) rotate(0.07162)">
			<title>Simple Arrow</title>
			<v:userDefs>
				<v:ud v:nameU="visVersion" v:val="VT0(15):26"/>
				<v:ud v:nameU="ArrowType" v:prompt="" v:val="VT0(2):26"/>
			</v:userDefs>
			<path d="M0 1033.61 L11.34 1022.27 L11.34 1027.94 L226.77 1027.94 L226.77 1033.61 L226.77 1039.28 L11.34 1039.28 L11.34
						 1044.95 L0 1033.61 Z" class="st7"/>
		</g>
		<g id="shape30-43" v:mID="30" v:groupContext="shape" transform="translate(953.553,1117.35) rotate(-180)">
			<title>Simple Arrow.30</title>
			<v:userDefs>
				<v:ud v:nameU="visVersion" v:val="VT0(15):26"/>
				<v:ud v:nameU="ArrowType" v:prompt="" v:val="VT0(2):26"/>
			</v:userDefs>
			<path d="M0 1033.61 L11.34 1022.27 L11.34 1027.94 L226.77 1027.94 L226.77 1033.61 L226.77 1039.28 L11.34 1039.28 L11.34
						 1044.95 L0 1033.61 Z" class="st7"/>
		</g>
		<g id="shape31-45" v:mID="31" v:groupContext="shape" transform="translate(947.093,1259.06) rotate(-179.642)">
			<title>Simple Arrow.31</title>
			<v:userDefs>
				<v:ud v:nameU="visVersion" v:val="VT0(15):26"/>
				<v:ud v:nameU="ArrowType" v:prompt="" v:val="VT0(2):26"/>
			</v:userDefs>
			<path d="M0 1033.61 L11.34 1022.27 L11.34 1027.94 L226.78 1027.94 L226.78 1033.61 L226.78 1039.28 L11.34 1039.28 L11.34
						 1044.95 L0 1033.61 Z" class="st7"/>
		</g>
		<g id="shape32-47" v:mID="32" v:groupContext="shape" transform="translate(613.396,-588.451)">
			<title>Rectangle.32</title>
			<desc>mSGDMA</desc>
			<v:userDefs>
				<v:ud v:nameU="visVersion" v:val="VT0(15):26"/>
			</v:userDefs>
			<v:textBlock v:margins="rect(4,4,4,4)" v:tabSpace="42.5197"/>
			<v:textRect cx="56.6929" cy="962.744" width="113.39" height="141.732"/>
			<rect x="0" y="891.878" width="113.386" height="141.732" class="st5"/>
			<text x="37" y="965.74" class="st2" v:langID="1033"><v:paragraph v:horizAlign="1"/><v:tabList/>mSGDMA</text>		</g>
		<g id="shape33-50" v:mID="33" v:groupContext="shape" transform="translate(728.073,-709.206) rotate(0.0716143)">
			<title>Simple Arrow.33</title>
			<v:userDefs>
				<v:ud v:nameU="visVersion" v:val="VT0(15):26"/>
				<v:ud v:nameU="ArrowType" v:prompt="" v:val="VT0(2):26"/>
			</v:userDefs>
			<path d="M0 1033.61 L11.34 1022.27 L11.34 1027.94 L226.77 1027.94 L226.77 1033.61 L226.77 1039.28 L11.34 1039.28 L11.34
						 1044.95 L0 1033.61 Z" class="st7"/>
		</g>
		<g id="shape34-52" v:mID="34" v:groupContext="shape" transform="translate(358.277,-545.931)">
			<title>Rectangle.34</title>
			<desc>HPS Memory</desc>
			<v:userDefs>
				<v:ud v:nameU="visVersion" v:val="VT0(15):26"/>
			</v:userDefs>
			<v:textBlock v:margins="rect(4,4,4,4)" v:tabSpace="42.5197" v:verticalAlign="0"/>
			<v:textRect cx="70.8661" cy="898.964" width="141.74" height="269.291"/>
			<rect x="0" y="764.319" width="141.732" height="269.291" class="st3"/>
			<text x="44.34" y="777.32" class="st2" v:langID="1033"><v:paragraph v:horizAlign="1"/><v:tabList/>HPS Memory</text>		</g>
		<g id="shape41-55" v:mID="41" v:groupContext="shape" transform="translate(-547.774,359.824) rotate(-90)">
			<title>Rectangle.41</title>
			<desc>Inference</desc>
			<v:userDefs>
				<v:ud v:nameU="visVersion" v:val="VT0(15):26"/>
			</v:userDefs>
			<v:textBlock v:margins="rect(4,4,4,4)" v:tabSpace="42.5197" v:verticalAlign="0"/>
			<v:textRect cx="35.4331" cy="976.917" width="70.87" height="113.386"/>
			<rect x="0" y="920.224" width="70.8661" height="113.386" class="st4"/>
			<text x="16.07" y="933.22" class="st2" v:langID="1033"><v:paragraph v:horizAlign="1"/><v:tabList/>Inference</text>		</g>
		<g id="shape37-58" v:mID="37" v:groupContext="shape" transform="translate(386.846,-673.786)">
			<title>Rectangle.37</title>
			<desc>Output Buffer</desc>
			<v:userDefs>
				<v:ud v:nameU="visVersion" v:val="VT0(15):26"/>
			</v:userDefs>
			<v:textBlock v:margins="rect(4,4,4,4)" v:tabSpace="42.5197"/>
			<v:textRect cx="49.6063" cy="998.177" width="99.22" height="70.8661"/>
			<rect x="0" y="962.744" width="99.2126" height="70.8661" class="st4"/>
			<text x="21.31" y="1001.18" class="st2" v:langID="1033"><v:paragraph v:horizAlign="1"/><v:tabList/>Output Buffer</text>		</g>
		<g id="shape38-61" v:mID="38" v:groupContext="shape" transform="translate(487.966,-709.218) rotate(0.105728)">
			<title>Simple Arrow.38</title>
			<v:userDefs>
				<v:ud v:nameU="visVersion" v:val="VT0(15):26"/>
				<v:ud v:nameU="ArrowType" v:prompt="" v:val="VT0(2):26"/>
			</v:userDefs>
			<path d="M0 1033.61 L11.34 1022.27 L11.34 1027.94 L127.36 1027.94 L127.36 1033.61 L127.36 1039.28 L11.34 1039.28 L11.34
						 1044.95 L0 1033.61 Z" class="st7"/>
		</g>
		<g id="shape42-63" v:mID="42" v:groupContext="shape" transform="translate(131.506,-673.786)">
			<title>Rectangle.42</title>
			<desc>Results Processing</desc>
			<v:userDefs>
				<v:ud v:nameU="visVersion" v:val="VT0(15):26"/>
			</v:userDefs>
			<v:textBlock v:margins="rect(4,4,4,4)" v:tabSpace="42.5197"/>
			<v:textRect cx="56.6929" cy="998.177" width="113.39" height="70.8661"/>
			<rect x="0" y="962.744" width="113.386" height="70.8661" class="st8"/>
			<text x="19.4" y="1001.18" class="st2" v:langID="1033"><v:paragraph v:horizAlign="1"/><v:tabList/>Results Processing</text>		</g>
		<g id="shape43-66" v:mID="43" v:groupContext="shape" transform="translate(131.506,-574.277)">
			<title>Rectangle.43</title>
			<desc>Results Rendering</desc>
			<v:userDefs>
				<v:ud v:nameU="visVersion" v:val="VT0(15):26"/>
			</v:userDefs>
			<v:textBlock v:margins="rect(4,4,4,4)" v:tabSpace="42.5197"/>
			<v:textRect cx="56.6929" cy="998.177" width="113.39" height="70.8661"/>
			<rect x="0" y="962.744" width="113.386" height="70.8661" class="st8"/>
			<text x="20.18" y="1001.18" class="st2" v:langID="1033"><v:paragraph v:horizAlign="1"/><v:tabList/>Results Rendering</text>		</g>
		<g id="shape44-69" v:mID="44" v:groupContext="shape" transform="translate(372.451,-574.277)">
			<title>Rectangle.44</title>
			<desc>Local Frame Buffer</desc>
			<v:userDefs>
				<v:ud v:nameU="visVersion" v:val="VT0(15):26"/>
			</v:userDefs>
			<v:textBlock v:margins="rect(4,4,4,4)" v:tabSpace="42.5197"/>
			<v:textRect cx="56.6929" cy="998.177" width="113.39" height="70.8661"/>
			<rect x="0" y="962.744" width="113.386" height="70.8661" class="st4"/>
			<text x="18.49" y="1001.18" class="st2" v:langID="1033"><v:paragraph v:horizAlign="1"/><v:tabList/>Local Frame Buffer</text>		</g>
		<g id="shape45-72" v:mID="45" v:groupContext="shape" transform="translate(953.553,-574.277)">
			<title>Rectangle.45</title>
			<desc>Overlay Frame Buffer (Active/Write)</desc>
			<v:userDefs>
				<v:ud v:nameU="visVersion" v:val="VT0(15):26"/>
			</v:userDefs>
			<v:textBlock v:margins="rect(4,4,4,4)" v:tabSpace="42.5197"/>
			<v:textRect cx="56.6929" cy="998.177" width="113.39" height="70.8661"/>
			<rect x="0" y="962.744" width="113.386" height="70.8661" class="st4"/>
			<text x="13.28" y="995.18" class="st2" v:langID="1033"><v:paragraph v:horizAlign="1"/><v:tabList/>Overlay Frame Buffer<v:lf/><tspan
						x="27.65" dy="1.2em" class="st6">(Active/Write)</tspan></text>		</g>
		<g id="shape46-76" v:mID="46" v:groupContext="shape" transform="translate(953.553,-489.238)">
			<title>Rectangle.46</title>
			<desc>Overlay Frame Buffer (Next)</desc>
			<v:userDefs>
				<v:ud v:nameU="visVersion" v:val="VT0(15):26"/>
			</v:userDefs>
			<v:textBlock v:margins="rect(4,4,4,4)" v:tabSpace="42.5197"/>
			<v:textRect cx="56.6929" cy="998.177" width="113.39" height="70.8661"/>
			<rect x="0" y="962.744" width="113.386" height="70.8661" class="st4"/>
			<text x="13.28" y="995.18" class="st2" v:langID="1033"><v:paragraph v:horizAlign="1"/><v:tabList/>Overlay Frame Buffer<v:lf/><tspan
						x="44.1" dy="1.2em" class="st6">(Next)</tspan></text>		</g>
		<g id="shape47-80" v:mID="47" v:groupContext="shape" transform="translate(953.553,-404.199)">
			<title>Rectangle.47</title>
			<desc>Overlay Frame Buffer (Locked/Read)</desc>
			<v:userDefs>
				<v:ud v:nameU="visVersion" v:val="VT0(15):26"/>
			</v:userDefs>
			<v:textBlock v:margins="rect(4,4,4,4)" v:tabSpace="42.5197"/>
			<v:textRect cx="56.6929" cy="998.177" width="113.39" height="70.8661"/>
			<rect x="0" y="962.744" width="113.386" height="70.8661" class="st4"/>
			<text x="13.28" y="995.18" class="st2" v:langID="1033"><v:paragraph v:horizAlign="1"/><v:tabList/>Overlay Frame Buffer<v:lf/><tspan
						x="27.26" dy="1.2em" class="st6">(Locked/Read)</tspan></text>		</g>
		<g id="shape49-84" v:mID="49" v:groupContext="shape" transform="translate(244.892,-709.219)">
			<title>Simple Arrow.49</title>
			<v:userDefs>
				<v:ud v:nameU="visVersion" v:val="VT0(15):26"/>
				<v:ud v:nameU="ArrowType" v:prompt="" v:val="VT0(2):26"/>
			</v:userDefs>
			<path d="M0 1033.61 L11.34 1022.27 L11.34 1027.94 L127.56 1027.94 L127.56 1033.61 L127.56 1039.28 L11.34 1039.28 L11.34
						 1044.95 L0 1033.61 Z" class="st7"/>
		</g>
		<g id="shape51-86" v:mID="51" v:groupContext="shape" transform="translate(372.451,1457.51) rotate(180)">
			<title>Simple Arrow.51</title>
			<v:userDefs>
				<v:ud v:nameU="visVersion" v:val="VT0(15):26"/>
				<v:ud v:nameU="ArrowType" v:prompt="" v:val="VT0(2):26"/>
			</v:userDefs>
			<path d="M0 1033.61 L11.34 1022.27 L11.34 1027.94 L127.56 1027.94 L127.56 1033.61 L127.56 1039.28 L11.34 1039.28 L11.34
						 1044.95 L0 1033.61 Z" class="st7"/>
		</g>
		<g id="shape52-88" v:mID="52" v:groupContext="shape" transform="translate(613.395,1457.51) rotate(-180)">
			<title>Simple Arrow.52</title>
			<v:userDefs>
				<v:ud v:nameU="visVersion" v:val="VT0(15):26"/>
				<v:ud v:nameU="ArrowType" v:prompt="" v:val="VT0(2):26"/>
			</v:userDefs>
			<path d="M0 1033.61 L11.34 1022.27 L11.34 1027.94 L127.56 1027.94 L127.56 1033.61 L127.56 1039.28 L11.34 1039.28 L11.34
						 1044.95 L0 1033.61 Z" class="st7"/>
		</g>
		<g id="shape53-90" v:mID="53" v:groupContext="shape" transform="translate(953.553,1457.51) rotate(180)">
			<title>Simple Arrow.53</title>
			<v:userDefs>
				<v:ud v:nameU="visVersion" v:val="VT0(15):26"/>
				<v:ud v:nameU="ArrowType" v:prompt="" v:val="VT0(2):26"/>
			</v:userDefs>
			<path d="M0 1033.61 L11.34 1022.27 L11.34 1027.94 L226.77 1027.94 L226.77 1033.61 L226.77 1039.28 L11.34 1039.28 L11.34
						 1044.95 L0 1033.61 Z" class="st7"/>
		</g>
		<g id="shape54-92" v:mID="54" v:groupContext="shape" transform="translate(1180.32,-404.199)">
			<title>Rectangle.54</title>
			<desc>Video Frame Reader Overlay</desc>
			<v:userDefs>
				<v:ud v:nameU="visVersion" v:val="VT0(15):26"/>
			</v:userDefs>
			<v:textBlock v:margins="rect(4,4,4,4)" v:tabSpace="42.5197"/>
			<v:textRect cx="56.6929" cy="998.177" width="113.39" height="70.8661"/>
			<rect x="0" y="962.744" width="113.386" height="70.8661" class="st5"/>
			<text x="15.32" y="995.18" class="st2" v:langID="1033"><v:paragraph v:horizAlign="1"/><v:tabList/>Video Frame Reader<v:newlineChar/><tspan
						x="41.09" dy="1.2em" class="st6">Overlay</tspan></text>		</g>
		<g id="shape55-96" v:mID="55" v:groupContext="shape" transform="translate(1180.32,1627.59) rotate(180)">
			<title>Simple Arrow.55</title>
			<v:userDefs>
				<v:ud v:nameU="visVersion" v:val="VT0(15):26"/>
				<v:ud v:nameU="ArrowType" v:prompt="" v:val="VT0(2):26"/>
			</v:userDefs>
			<path d="M0 1033.61 L11.34 1022.27 L11.34 1027.94 L113.39 1027.94 L113.39 1033.61 L113.39 1039.28 L11.34 1039.28 L11.34
						 1044.95 L0 1033.61 Z" class="st7"/>
		</g>
		<g id="shape56-98" v:mID="56" v:groupContext="shape" transform="translate(613.396,-290.813)">
			<title>Rectangle.56</title>
			<desc>Video Frame Writer 4K Resolution</desc>
			<v:userDefs>
				<v:ud v:nameU="visVersion" v:val="VT0(15):26"/>
			</v:userDefs>
			<v:textBlock v:margins="rect(4,4,4,4)" v:tabSpace="42.5197"/>
			<v:textRect cx="56.6929" cy="998.177" width="113.39" height="70.8661"/>
			<rect x="0" y="962.744" width="113.386" height="70.8661" class="st5"/>
			<text x="16.53" y="995.18" class="st2" v:langID="1033"><v:paragraph v:horizAlign="1"/><v:tabList/>Video Frame Writer<v:lf/><tspan
						x="27.64" dy="1.2em" class="st6">4K  Resolution</tspan></text>		</g>
		<g id="shape57-102" v:mID="57" v:groupContext="shape" transform="translate(953.553,-290.813)">
			<title>Rectangle.57</title>
			<desc>4K Video Frame Buffer</desc>
			<v:userDefs>
				<v:ud v:nameU="visVersion" v:val="VT0(15):26"/>
			</v:userDefs>
			<v:textBlock v:margins="rect(4,4,4,4)" v:tabSpace="42.5197"/>
			<v:textRect cx="56.6929" cy="998.177" width="113.39" height="70.8661"/>
			<rect x="0" y="962.744" width="113.386" height="70.8661" class="st4"/>
			<text x="10.89" y="1001.18" class="st2" v:langID="1033"><v:paragraph v:horizAlign="1"/><v:tabList/>4K Video Frame Buffer</text>		</g>
		<g id="shape58-105" v:mID="58" v:groupContext="shape" transform="translate(953.553,-205.774)">
			<title>Rectangle.58</title>
			<desc>4K Video Frame Buffer</desc>
			<v:userDefs>
				<v:ud v:nameU="visVersion" v:val="VT0(15):26"/>
			</v:userDefs>
			<v:textBlock v:margins="rect(4,4,4,4)" v:tabSpace="42.5197"/>
			<v:textRect cx="56.6929" cy="998.177" width="113.39" height="70.8661"/>
			<rect x="0" y="962.744" width="113.386" height="70.8661" class="st4"/>
			<text x="10.89" y="1001.18" class="st2" v:langID="1033"><v:paragraph v:horizAlign="1"/><v:tabList/>4K Video Frame Buffer</text>		</g>
		<g id="shape59-108" v:mID="59" v:groupContext="shape" transform="translate(953.553,-120.734)">
			<title>Rectangle.59</title>
			<desc>4K Video Frame Buffer</desc>
			<v:userDefs>
				<v:ud v:nameU="visVersion" v:val="VT0(15):26"/>
			</v:userDefs>
			<v:textBlock v:margins="rect(4,4,4,4)" v:tabSpace="42.5197"/>
			<v:textRect cx="56.6929" cy="998.177" width="113.39" height="70.8661"/>
			<rect x="0" y="962.744" width="113.386" height="70.8661" class="st4"/>
			<text x="10.89" y="1001.18" class="st2" v:langID="1033"><v:paragraph v:horizAlign="1"/><v:tabList/>4K Video Frame Buffer</text>		</g>
		<g id="shape60-111" v:mID="60" v:groupContext="shape" transform="translate(953.553,-35.6948)">
			<title>Rectangle.60</title>
			<desc>4K Video Frame Buffer</desc>
			<v:userDefs>
				<v:ud v:nameU="visVersion" v:val="VT0(15):26"/>
			</v:userDefs>
			<v:textBlock v:margins="rect(4,4,4,4)" v:tabSpace="42.5197"/>
			<v:textRect cx="56.6929" cy="998.177" width="113.39" height="70.8661"/>
			<rect x="0" y="962.744" width="113.386" height="70.8661" class="st4"/>
			<text x="10.89" y="1001.18" class="st2" v:langID="1033"><v:paragraph v:horizAlign="1"/><v:tabList/>4K Video Frame Buffer</text>		</g>
		<g id="shape61-114" v:mID="61" v:groupContext="shape" transform="translate(953.553,1740.97) rotate(180)">
			<title>Simple Arrow.61</title>
			<v:userDefs>
				<v:ud v:nameU="visVersion" v:val="VT0(15):26"/>
				<v:ud v:nameU="ArrowType" v:prompt="" v:val="VT0(2):26"/>
			</v:userDefs>
			<path d="M0 1033.61 L11.34 1022.27 L11.34 1027.94 L226.77 1027.94 L226.77 1033.61 L226.77 1039.28 L11.34 1039.28 L11.34
						 1044.95 L0 1033.61 Z" class="st7"/>
		</g>
		<g id="shape62-116" v:mID="62" v:groupContext="shape" transform="translate(1180.32,-35.6948)">
			<title>Rectangle.62</title>
			<desc>Video Frame Reader 4K Video</desc>
			<v:userDefs>
				<v:ud v:nameU="visVersion" v:val="VT0(15):26"/>
			</v:userDefs>
			<v:textBlock v:margins="rect(4,4,4,4)" v:tabSpace="42.5197"/>
			<v:textRect cx="56.6929" cy="998.177" width="113.39" height="70.8661"/>
			<rect x="0" y="962.744" width="113.386" height="70.8661" class="st5"/>
			<text x="15.32" y="995.18" class="st2" v:langID="1033"><v:paragraph v:horizAlign="1"/><v:tabList/>Video Frame Reader<v:newlineChar/><tspan
						x="38.69" dy="1.2em" class="st6">4K Video</tspan></text>		</g>
		<g id="shape63-120" v:mID="63" v:groupContext="shape" transform="translate(1180.32,1996.09) rotate(180)">
			<title>Simple Arrow.63</title>
			<v:userDefs>
				<v:ud v:nameU="visVersion" v:val="VT0(15):26"/>
				<v:ud v:nameU="ArrowType" v:prompt="" v:val="VT0(2):26"/>
			</v:userDefs>
			<path d="M0 1033.61 L11.34 1022.27 L11.34 1027.94 L113.39 1027.94 L113.39 1033.61 L113.39 1039.28 L11.34 1039.28 L11.34
						 1044.95 L0 1033.61 Z" class="st7"/>
		</g>
		<g id="shape64-122" v:mID="64" v:groupContext="shape" transform="translate(443.317,-914.435)">
			<title>Rectangle.64</title>
			<desc>Input Layout Transform</desc>
			<v:userDefs>
				<v:ud v:nameU="visVersion" v:val="VT0(15):26"/>
			</v:userDefs>
			<v:textBlock v:margins="rect(4,4,4,4)" v:tabSpace="42.5197"/>
			<v:textRect cx="56.6929" cy="998.177" width="113.39" height="70.8661"/>
			<rect x="0" y="962.744" width="113.386" height="70.8661" class="st5"/>
			<text x="8.86" y="1001.18" class="st2" v:langID="1033"><v:paragraph v:horizAlign="1"/><v:tabList/>Input Layout Transform</text>		</g>
		<g id="shape65-125" v:mID="65" v:groupContext="shape" transform="translate(273.238,-914.435)">
			<title>Rectangle.65</title>
			<desc>Input Resizer</desc>
			<v:userDefs>
				<v:ud v:nameU="visVersion" v:val="VT0(15):26"/>
			</v:userDefs>
			<v:textBlock v:margins="rect(4,4,4,4)" v:tabSpace="42.5197"/>
			<v:textRect cx="56.6929" cy="998.177" width="113.39" height="70.8661"/>
			<rect x="0" y="962.744" width="113.386" height="70.8661" class="st5"/>
			<text x="30.24" y="1001.18" class="st2" v:langID="1033"><v:paragraph v:horizAlign="1"/><v:tabList/>Input Resizer</text>		</g>
		<g id="shape67-128" v:mID="67" v:groupContext="shape" transform="translate(443.317,1117.35) rotate(180)">
			<title>Simple Arrow.67</title>
			<v:userDefs>
				<v:ud v:nameU="visVersion" v:val="VT0(15):26"/>
				<v:ud v:nameU="ArrowType" v:prompt="" v:val="VT0(2):26"/>
			</v:userDefs>
			<path d="M0 1033.61 L11.34 1022.27 L11.34 1027.94 L56.69 1027.94 L56.69 1033.61 L56.69 1039.28 L11.34 1039.28 L11.34
						 1044.95 L0 1033.61 Z" class="st7"/>
		</g>
		<g id="shape68-130" v:mID="68" v:groupContext="shape" transform="translate(613.396,1117.35) rotate(180)">
			<title>Simple Arrow.68</title>
			<v:userDefs>
				<v:ud v:nameU="visVersion" v:val="VT0(15):26"/>
				<v:ud v:nameU="ArrowType" v:prompt="" v:val="VT0(2):26"/>
			</v:userDefs>
			<path d="M0 1033.61 L11.34 1022.27 L11.34 1027.94 L56.69 1027.94 L56.69 1033.61 L56.69 1039.28 L11.34 1039.28 L11.34
						 1044.95 L0 1033.61 Z" class="st7"/>
		</g>
		<g id="shape72-132" v:mID="72" v:groupContext="shape" transform="translate(1071.53,83.7421) rotate(90)">
			<title>Sharp Bent Arrow</title>
			<v:userDefs>
				<v:ud v:nameU="DblArrow" v:prompt="" v:val="VT0(0):5"/>
				<v:ud v:nameU="visVersion" v:prompt="" v:val="VT0(15):26"/>
			</v:userDefs>
			<path d="M0 1033.61 L629.29 1033.61 L629.29 472.31 L636.38 472.31 L622.2 458.14 L608.03 472.31 L615.12 472.31 L615.12
						 1019.44 L0 1019.44 L0 1026.52 L0 1033.61 Z" class="st7"/>
		</g>
		<g id="shape66-134" v:mID="66" v:groupContext="shape" transform="translate(273.238,1117.35) rotate(180)">
			<title>Simple Arrow.66</title>
			<desc>4K Input Video</desc>
			<v:userDefs>
				<v:ud v:nameU="visVersion" v:val="VT0(15):26"/>
				<v:ud v:nameU="ArrowType" v:prompt="" v:val="VT0(2):26"/>
			</v:userDefs>
			<v:textBlock v:margins="rect(4,4,4,4)" v:tabSpace="42.5197"/>
			<v:textRect cx="127.559" cy="1033.61" width="255.12" height="0" transform="rotate(180)"/>
			<path d="M0 1033.61 L11.34 1022.27 L11.34 1027.94 L255.12 1027.94 L255.12 1033.61 L255.12 1039.28 L11.34 1039.28 L11.34
						 1044.95 L0 1033.61 Z" class="st7"/>
			<text x="-157.5" y="-1030.61" transform="rotate(180)" class="st2" v:langID="1033"><v:paragraph v:horizAlign="1"/><v:tabList/>4K Input Video</text>		</g>
		<g id="shape73-137" v:mID="73" v:groupContext="shape" transform="translate(1350.4,-404.199)">
			<title>Rectangle.73</title>
			<desc>Output Resizer</desc>
			<v:userDefs>
				<v:ud v:nameU="visVersion" v:val="VT0(15):26"/>
			</v:userDefs>
			<v:textBlock v:margins="rect(4,4,4,4)" v:tabSpace="42.5197"/>
			<v:textRect cx="56.6929" cy="998.177" width="113.39" height="70.8661"/>
			<rect x="0" y="962.744" width="113.386" height="70.8661" class="st5"/>
			<text x="26.51" y="1001.18" class="st2" v:langID="1033"><v:paragraph v:horizAlign="1"/><v:tabList/>Output Resizer</text>		</g>
		<g id="shape74-140" v:mID="74" v:groupContext="shape" transform="translate(1350.4,1627.59) rotate(180)">
			<title>Simple Arrow.74</title>
			<v:userDefs>
				<v:ud v:nameU="visVersion" v:val="VT0(15):26"/>
				<v:ud v:nameU="ArrowType" v:prompt="" v:val="VT0(2):26"/>
			</v:userDefs>
			<path d="M0 1033.61 L11.34 1022.27 L11.34 1027.94 L56.69 1027.94 L56.69 1033.61 L56.69 1039.28 L11.34 1039.28 L11.34
						 1044.95 L0 1033.61 Z" class="st7"/>
		</g>
		<g id="shape75-142" v:mID="75" v:groupContext="shape" transform="translate(1350.4,-35.6948)">
			<title>Rectangle.75</title>
			<desc>Mixer</desc>
			<v:userDefs>
				<v:ud v:nameU="visVersion" v:val="VT0(15):26"/>
			</v:userDefs>
			<v:textBlock v:margins="rect(4,4,4,4)" v:tabSpace="42.5197"/>
			<v:textRect cx="56.6929" cy="998.177" width="113.39" height="70.8661"/>
			<rect x="0" y="962.744" width="113.386" height="70.8661" class="st5"/>
			<text x="44.87" y="1001.18" class="st2" v:langID="1033"><v:paragraph v:horizAlign="1"/><v:tabList/>Mixer</text>		</g>
		<g id="shape76-145" v:mID="76" v:groupContext="shape" transform="translate(1350.4,1996.09) rotate(180)">
			<title>Simple Arrow.76</title>
			<v:userDefs>
				<v:ud v:nameU="visVersion" v:val="VT0(15):26"/>
				<v:ud v:nameU="ArrowType" v:prompt="" v:val="VT0(2):26"/>
			</v:userDefs>
			<path d="M0 1033.61 L11.34 1022.27 L11.34 1027.94 L56.69 1027.94 L56.69 1033.61 L56.69 1039.28 L11.34 1039.28 L11.34
						 1044.95 L0 1033.61 Z" class="st7"/>
		</g>
		<g id="shape77-147" v:mID="77" v:groupContext="shape" transform="translate(373.486,927.049) rotate(-90)">
			<title>Simple Arrow.77</title>
			<v:userDefs>
				<v:ud v:nameU="visVersion" v:val="VT0(15):26"/>
				<v:ud v:nameU="ArrowType" v:prompt="" v:val="VT0(2):26"/>
			</v:userDefs>
			<path d="M0 1033.61 L11.34 1022.27 L11.34 1027.94 L297.64 1027.94 L297.64 1033.61 L297.64 1039.28 L11.34 1039.28 L11.34
						 1044.95 L0 1033.61 Z" class="st7"/>
		</g>
		<g id="shape78-149" v:mID="78" v:groupContext="shape" transform="translate(1554.14,1996.9) rotate(-179.509)">
			<title>Simple Arrow.78</title>
			<desc>4K Output Video</desc>
			<v:userDefs>
				<v:ud v:nameU="visVersion" v:val="VT0(15):26"/>
				<v:ud v:nameU="ArrowType" v:prompt="" v:val="VT0(2):26"/>
			</v:userDefs>
			<v:textBlock v:margins="rect(4,4,4,4)" v:tabSpace="42.5197"/>
			<v:textRect cx="49.6081" cy="1033.61" width="99.22" height="0" transform="rotate(180)"/>
			<path d="M0 1033.61 L11.34 1022.27 L11.34 1027.94 L99.22 1027.94 L99.22 1033.61 L99.22 1039.28 L11.34 1039.28 L11.34
						 1044.95 L0 1033.61 Z" class="st7"/>
			<text x="-83.28" y="-1030.61" transform="rotate(180)" class="st2" v:langID="1033"><v:paragraph v:horizAlign="1"/><v:tabList/>4K Output Video</text>		</g>
		<g id="shape81-152" v:mID="81" v:groupContext="shape" transform="translate(-845.411,388.466) rotate(-90)">
			<title>Simple Arrow.81</title>
			<v:userDefs>
				<v:ud v:nameU="visVersion" v:val="VT0(15):26"/>
				<v:ud v:nameU="ArrowType" v:prompt="" v:val="VT0(2):26"/>
			</v:userDefs>
			<path d="M0 1033.61 L11.34 1022.27 L11.34 1027.94 L28.64 1027.94 L28.64 1033.61 L28.64 1039.28 L11.34 1039.28 L11.34
						 1044.95 L0 1033.61 Z" class="st7"/>
		</g>
		<g id="shape84-154" v:mID="84" v:groupContext="shape" transform="translate(611.39,-708.982) rotate(-0.112297)">
			<title>Simple Arrow.84</title>
			<v:userDefs>
				<v:ud v:nameU="visVersion" v:val="VT0(15):26"/>
				<v:ud v:nameU="ArrowType" v:prompt="" v:val="VT0(2):26"/>
			</v:userDefs>
			<path d="M0 1033.61 L11.34 1022.27 L11.34 1027.94 L113.37 1027.94 L113.37 1033.61 L113.37 1039.28 L11.34 1039.28 L11.34
						 1044.95 L0 1033.61 Z" class="st9"/>
		</g>
		<g id="shape85-156" v:mID="85" v:groupContext="shape" transform="translate(726.781,1457.51) rotate(180)">
			<title>Simple Arrow.85</title>
			<v:userDefs>
				<v:ud v:nameU="visVersion" v:val="VT0(15):26"/>
				<v:ud v:nameU="ArrowType" v:prompt="" v:val="VT0(2):26"/>
			</v:userDefs>
			<path d="M0 1033.61 L11.34 1022.27 L11.34 1027.94 L113.39 1027.94 L113.39 1033.61 L113.39 1039.28 L11.34 1039.28 L11.34
						 1044.95 L0 1033.61 Z" class="st9"/>
		</g>
		<g id="shape87-158" v:mID="87" v:groupContext="shape" transform="translate(2100.55,445.159) rotate(90)">
			<title>Arced Line Double Arrow</title>
			<v:userDefs>
				<v:ud v:nameU="Scale" v:val="VT0(1):26"/>
				<v:ud v:nameU="AntiScale" v:val="VT0(1):26"/>
				<v:ud v:nameU="visVersion" v:val="VT0(17):26"/>
			</v:userDefs>
			<path d="M-0.71 1024.64 L3.77 1024.28 L0 1033.61 L-5.2 1024.99 L-0.71 1024.64 ZM43.23 1024.64 L38.75 1024.28 L42.52 1033.61
						 L47.72 1024.99 L43.23 1024.64 Z" class="st10"/>
			<path d="M-0.71 1024.64 A22.1457 22.1457 0 0 1 43.23 1024.64" class="st11"/>
			<path d="M-0.71 1024.64 L3.77 1024.28 L0 1033.61 L-5.2 1024.99 L-0.71 1024.64" class="st11"/>
			<path d="M43.23 1024.64 L38.75 1024.28 L42.52 1033.61 L47.72 1024.99 L43.23 1024.64" class="st11"/>
		</g>
		<g id="shape88-163" v:mID="88" v:groupContext="shape" transform="translate(2100.55,530.199) rotate(90)">
			<title>Arced Line Double Arrow.88</title>
			<v:userDefs>
				<v:ud v:nameU="Scale" v:val="VT0(1):26"/>
				<v:ud v:nameU="AntiScale" v:val="VT0(1):26"/>
				<v:ud v:nameU="visVersion" v:val="VT0(17):26"/>
			</v:userDefs>
			<path d="M-0.71 1024.64 L3.77 1024.28 L0 1033.61 L-5.2 1024.99 L-0.71 1024.64 ZM43.23 1024.64 L38.75 1024.28 L42.52 1033.61
						 L47.72 1024.99 L43.23 1024.64 Z" class="st10"/>
			<path d="M-0.71 1024.64 A22.1457 22.1457 0 0 1 43.23 1024.64" class="st11"/>
			<path d="M-0.71 1024.64 L3.77 1024.28 L0 1033.61 L-5.2 1024.99 L-0.71 1024.64" class="st11"/>
			<path d="M43.23 1024.64 L38.75 1024.28 L42.52 1033.61 L47.72 1024.99 L43.23 1024.64" class="st11"/>
		</g>
		<g id="shape89-168" v:mID="89" v:groupContext="shape" v:layerMember="0" transform="translate(2100.55,728.624) rotate(90)">
			<title>Arced Line Arrow</title>
			<v:userDefs>
				<v:ud v:nameU="Scale" v:val="VT0(1):26"/>
				<v:ud v:nameU="AntiScale" v:val="VT0(1):26"/>
				<v:ud v:nameU="visVersion" v:val="VT0(17):26"/>
			</v:userDefs>
			<path d="M43.23 1024.64 L38.75 1024.28 L42.52 1033.61 L47.72 1024.99 L43.23 1024.64 Z" class="st10"/>
			<path d="M-0.71 1024.64 A22.1457 22.1457 0 0 1 43.23 1024.64" class="st11"/>
			<path d="M43.23 1024.64 L38.75 1024.28 L42.52 1033.61 L47.72 1024.99 L43.23 1024.64" class="st11"/>
		</g>
		<g id="shape90-172" v:mID="90" v:groupContext="shape" v:layerMember="0" transform="translate(2100.55,813.663) rotate(90)">
			<title>Arced Line Arrow.90</title>
			<v:userDefs>
				<v:ud v:nameU="Scale" v:val="VT0(1):26"/>
				<v:ud v:nameU="AntiScale" v:val="VT0(1):26"/>
				<v:ud v:nameU="visVersion" v:val="VT0(17):26"/>
			</v:userDefs>
			<path d="M43.23 1024.64 L38.75 1024.28 L42.52 1033.61 L47.72 1024.99 L43.23 1024.64 Z" class="st10"/>
			<path d="M-0.71 1024.64 A22.1457 22.1457 0 0 1 43.23 1024.64" class="st11"/>
			<path d="M43.23 1024.64 L38.75 1024.28 L42.52 1033.61 L47.72 1024.99 L43.23 1024.64" class="st11"/>
		</g>
		<g id="shape91-176" v:mID="91" v:groupContext="shape" v:layerMember="0" transform="translate(2100.55,898.703) rotate(90)">
			<title>Arced Line Arrow.91</title>
			<v:userDefs>
				<v:ud v:nameU="Scale" v:val="VT0(1):26"/>
				<v:ud v:nameU="AntiScale" v:val="VT0(1):26"/>
				<v:ud v:nameU="visVersion" v:val="VT0(17):26"/>
			</v:userDefs>
			<path d="M43.23 1024.64 L38.75 1024.28 L42.52 1033.61 L47.72 1024.99 L43.23 1024.64 Z" class="st10"/>
			<path d="M-0.71 1024.64 A22.1457 22.1457 0 0 1 43.23 1024.64" class="st11"/>
			<path d="M43.23 1024.64 L38.75 1024.28 L42.52 1033.61 L47.72 1024.99 L43.23 1024.64" class="st11"/>
		</g>
		<g id="shape92-180" v:mID="92" v:groupContext="shape" v:layerMember="0" transform="translate(2100.55,133.348) rotate(90)">
			<title>Arced Line Arrow.92</title>
			<v:userDefs>
				<v:ud v:nameU="Scale" v:val="VT0(1):26"/>
				<v:ud v:nameU="AntiScale" v:val="VT0(1):26"/>
				<v:ud v:nameU="visVersion" v:val="VT0(17):26"/>
			</v:userDefs>
			<path d="M43.23 1024.64 L38.75 1024.28 L42.52 1033.61 L47.72 1024.99 L43.23 1024.64 Z" class="st10"/>
			<path d="M-0.71 1024.64 A22.1457 22.1457 0 0 1 43.23 1024.64" class="st11"/>
			<path d="M43.23 1024.64 L38.75 1024.28 L42.52 1033.61 L47.72 1024.99 L43.23 1024.64" class="st11"/>
		</g>
		<g id="shape93-184" v:mID="93" v:groupContext="shape" v:layerMember="0" transform="translate(2100.55,232.561) rotate(90)">
			<title>Arced Line Arrow.93</title>
			<v:userDefs>
				<v:ud v:nameU="Scale" v:val="VT0(1):26"/>
				<v:ud v:nameU="AntiScale" v:val="VT0(1):26"/>
				<v:ud v:nameU="visVersion" v:val="VT0(17):26"/>
			</v:userDefs>
			<path d="M43.23 1024.64 L38.75 1024.28 L42.52 1033.61 L47.72 1024.99 L43.23 1024.64 Z" class="st10"/>
			<path d="M-0.71 1024.64 A22.1457 22.1457 0 0 1 43.23 1024.64" class="st11"/>
			<path d="M43.23 1024.64 L38.75 1024.28 L42.52 1033.61 L47.72 1024.99 L43.23 1024.64" class="st11"/>
		</g>
	</g>
</svg>
