<?xml version="1.0" encoding="UTF-8" standalone="no"?>
<!DOCTYPE svg PUBLIC "-//W3C//DTD SVG 1.1//EN" "http://www.w3.org/Graphics/SVG/1.1/DTD/svg11.dtd">
<!-- Generated by Microsoft Visio, SVG Export agilex5-ryo-script-sd.svg Page-1 -->
<svg xmlns="http://www.w3.org/2000/svg" xmlns:xlink="http://www.w3.org/1999/xlink" xmlns:ev="http://www.w3.org/2001/xml-events"
		xmlns:v="http://schemas.microsoft.com/visio/2003/SVGExtensions/" width="8.69792in" height="4.84463in"
		viewBox="0 0 626.25 348.813" xml:space="preserve" color-interpolation-filters="sRGB" class="st15">
	<v:documentProperties v:langID="1033" v:viewMarkup="false"/>

	<style type="text/css">
	<![CDATA[
		.st1 {fill:#fbd7bb;stroke:#000000;stroke-linecap:round;stroke-linejoin:round;stroke-width:0.75}
		.st2 {fill:#000000;font-family:Calibri;font-size:1.00001em}
		.st3 {fill:#d7e3bf;stroke:#000000;stroke-linecap:round;stroke-linejoin:round;stroke-width:0.75}
		.st4 {fill:#dbeef3;stroke:#000000;stroke-linecap:round;stroke-linejoin:round;stroke-width:0.75}
		.st5 {fill:#7e649e;stroke:#000000;stroke-linecap:round;stroke-linejoin:round;stroke-width:0.75}
		.st6 {fill:#ffffff;font-family:Calibri;font-size:1.00001em}
		.st7 {font-size:1em}
		.st8 {marker-end:url(#mrkr13-49);stroke:#000000;stroke-linecap:round;stroke-linejoin:round;stroke-width:0.75}
		.st9 {fill:#000000;fill-opacity:1;stroke:#000000;stroke-opacity:1;stroke-width:0.22935779816514}
		.st10 {stroke:#000000;stroke-linecap:round;stroke-linejoin:round;stroke-width:0.75}
		.st11 {fill:none;stroke:none;stroke-linecap:round;stroke-linejoin:round;stroke-width:0.75}
		.st12 {fill:#000000;font-family:Calibri;font-size:0.916672em}
		.st13 {fill:#b7dde8;stroke:#000000;stroke-linecap:round;stroke-linejoin:round;stroke-width:0.75}
		.st14 {fill:#000000;font-family:Calibri;font-size:1.00001em;font-weight:bold}
		.st15 {fill:none;fill-rule:evenodd;font-size:12px;overflow:visible;stroke-linecap:square;stroke-miterlimit:3}
	]]>
	</style>

	<defs id="Markers">
		<g id="lend13">
			<path d="M 3 1 L 0 0 L 3 -1 L 3 1 " style="stroke:none"/>
		</g>
		<marker id="mrkr13-49" class="st9" v:arrowType="13" v:arrowSize="2" v:setback="13.08" refX="-13.08" orient="auto"
				markerUnits="strokeWidth" overflow="visible">
			<use xlink:href="#lend13" transform="scale(-4.36,-4.36) "/>
		</marker>
	</defs>
	<g v:mID="0" v:index="1" v:groupContext="foregroundPage">
		<title>Page-1</title>
		<v:pageProperties v:drawingScale="1" v:pageScale="1" v:drawingUnits="19" v:shadowOffsetX="9" v:shadowOffsetY="-9"/>
		<g id="shape1-1" v:mID="1" v:groupContext="shape" transform="translate(0.375,-224.688)">
			<title>Sheet.1</title>
			<desc>U-Boot</desc>
			<v:textBlock v:margins="rect(4,4,4,4)"/>
			<v:textRect cx="51.75" cy="324.063" width="103.5" height="49.5"/>
			<rect x="0" y="299.313" width="103.5" height="49.5" class="st1"/>
			<text x="34.46" y="327.66" class="st2" v:langID="1033"><v:paragraph v:horizAlign="1"/><v:tabList/>U-Boot</text>		</g>
		<g id="shape2-4" v:mID="2" v:groupContext="shape" transform="translate(0.375,-298.938)">
			<title>Sheet.2</title>
			<desc>ATF</desc>
			<v:textBlock v:margins="rect(4,4,4,4)"/>
			<v:textRect cx="51.75" cy="324.063" width="103.5" height="49.5"/>
			<rect x="0" y="299.313" width="103.5" height="49.5" class="st1"/>
			<text x="42.6" y="327.66" class="st2" v:langID="1033"><v:paragraph v:horizAlign="1"/><v:tabList/>ATF</text>		</g>
		<g id="shape3-7" v:mID="3" v:groupContext="shape" transform="translate(0.375,-112.188)">
			<title>Sheet.3</title>
			<desc>Linux Kernel</desc>
			<v:textBlock v:margins="rect(4,4,4,4)"/>
			<v:textRect cx="51.75" cy="324.063" width="103.5" height="49.5"/>
			<rect x="0" y="299.313" width="103.5" height="49.5" class="st1"/>
			<text x="21.88" y="327.66" class="st2" v:langID="1033"><v:paragraph v:horizAlign="1"/><v:tabList/>Linux Kernel</text>		</g>
		<g id="shape4-10" v:mID="4" v:groupContext="shape" transform="translate(0.375,-0.813339)">
			<title>Sheet.4</title>
			<desc>ToyBox</desc>
			<v:textBlock v:margins="rect(4,4,4,4)"/>
			<v:textRect cx="51.75" cy="324.063" width="103.5" height="49.5"/>
			<rect x="0" y="299.313" width="103.5" height="49.5" class="st1"/>
			<text x="33.92" y="327.66" class="st2" v:langID="1033"><v:paragraph v:horizAlign="1"/><v:tabList/>ToyBox</text>		</g>
		<g id="shape5-13" v:mID="5" v:groupContext="shape" transform="translate(130.875,-298.938)">
			<title>Sheet.5</title>
			<desc>Build</desc>
			<v:textBlock v:margins="rect(4,4,4,4)"/>
			<v:textRect cx="51.75" cy="324.063" width="103.5" height="49.5"/>
			<rect x="0" y="299.313" width="103.5" height="49.5" rx="13.5" ry="13.5" class="st3"/>
			<text x="39.43" y="327.66" class="st2" v:langID="1033"><v:paragraph v:horizAlign="1"/><v:tabList/>Build</text>		</g>
		<g id="shape6-16" v:mID="6" v:groupContext="shape" transform="translate(130.875,-224.688)">
			<title>Sheet.6</title>
			<desc>Patch &#38; Build</desc>
			<v:textBlock v:margins="rect(4,4,4,4)"/>
			<v:textRect cx="51.75" cy="324.063" width="103.5" height="49.5"/>
			<rect x="0" y="299.313" width="103.5" height="49.5" rx="13.5" ry="13.5" class="st3"/>
			<text x="18.95" y="327.66" class="st2" v:langID="1033"><v:paragraph v:horizAlign="1"/><v:tabList/>Patch &#38; Build</text>		</g>
		<g id="shape7-19" v:mID="7" v:groupContext="shape" transform="translate(130.875,-112.188)">
			<title>Sheet.7</title>
			<desc>Patch &#38; Build</desc>
			<v:textBlock v:margins="rect(4,4,4,4)"/>
			<v:textRect cx="51.75" cy="324.063" width="103.5" height="49.5"/>
			<rect x="0" y="299.313" width="103.5" height="49.5" rx="13.5" ry="13.5" class="st3"/>
			<text x="18.95" y="327.66" class="st2" v:langID="1033"><v:paragraph v:horizAlign="1"/><v:tabList/>Patch &#38; Build</text>		</g>
		<g id="shape8-22" v:mID="8" v:groupContext="shape" transform="translate(261.375,-298.938)">
			<title>Sheet.8</title>
			<desc>bl31.bin</desc>
			<v:textBlock v:margins="rect(4,4,4,4)"/>
			<v:textRect cx="51.75" cy="324.063" width="103.5" height="49.5"/>
			<rect x="0" y="299.313" width="103.5" height="49.5" class="st4"/>
			<text x="31.94" y="327.66" class="st2" v:langID="1033"><v:paragraph v:horizAlign="1"/><v:tabList/>bl31.bin</text>		</g>
		<g id="shape9-25" v:mID="9" v:groupContext="shape" transform="translate(261.375,-224.688)">
			<title>Sheet.9</title>
			<desc>U-Boot SPL</desc>
			<v:textBlock v:margins="rect(4,4,4,4)"/>
			<v:textRect cx="51.75" cy="324.063" width="103.5" height="49.5"/>
			<rect x="0" y="299.313" width="103.5" height="49.5" class="st5"/>
			<text x="24.73" y="327.66" class="st6" v:langID="1033"><v:paragraph v:horizAlign="1"/><v:tabList/>U-Boot SPL</text>		</g>
		<g id="shape10-28" v:mID="10" v:groupContext="shape" transform="translate(261.375,-168.438)">
			<title>Sheet.10</title>
			<desc>U-Boot Image</desc>
			<v:textBlock v:margins="rect(4,4,4,4)"/>
			<v:textRect cx="51.75" cy="324.063" width="103.5" height="49.5"/>
			<rect x="0" y="299.313" width="103.5" height="49.5" class="st4"/>
			<text x="18.12" y="327.66" class="st2" v:langID="1033"><v:paragraph v:horizAlign="1"/><v:tabList/>U-Boot Image</text>		</g>
		<g id="shape12-31" v:mID="12" v:groupContext="shape" transform="translate(261.375,-112.188)">
			<title>Sheet.12</title>
			<desc>Kernel Image</desc>
			<v:textBlock v:margins="rect(4,4,4,4)"/>
			<v:textRect cx="51.75" cy="324.063" width="103.5" height="49.5"/>
			<rect x="0" y="299.313" width="103.5" height="49.5" class="st4"/>
			<text x="19.7" y="327.66" class="st2" v:langID="1033"><v:paragraph v:horizAlign="1"/><v:tabList/>Kernel Image</text>		</g>
		<g id="shape13-34" v:mID="13" v:groupContext="shape" transform="translate(261.375,-57.0633)">
			<title>Sheet.13</title>
			<desc>Kernel Device Tree Blob</desc>
			<v:textBlock v:margins="rect(4,4,4,4)"/>
			<v:textRect cx="51.75" cy="324.063" width="103.5" height="49.5"/>
			<rect x="0" y="299.313" width="103.5" height="49.5" class="st4"/>
			<text x="6.06" y="320.46" class="st2" v:langID="1033"><v:paragraph v:horizAlign="1"/><v:tabList/>Kernel Device Tree <tspan
						x="40.79" dy="1.2em" class="st7">Blob</tspan></text>		</g>
		<g id="shape14-38" v:mID="14" v:groupContext="shape" transform="translate(130.875,-0.813339)">
			<title>Sheet.14</title>
			<desc>Build</desc>
			<v:textBlock v:margins="rect(4,4,4,4)"/>
			<v:textRect cx="51.75" cy="324.063" width="103.5" height="49.5"/>
			<rect x="0" y="299.313" width="103.5" height="49.5" rx="13.5" ry="13.5" class="st3"/>
			<text x="39.43" y="327.66" class="st2" v:langID="1033"><v:paragraph v:horizAlign="1"/><v:tabList/>Build</text>		</g>
		<g id="shape15-41" v:mID="15" v:groupContext="shape" transform="translate(261.375,-0.813339)">
			<title>Sheet.15</title>
			<desc>rootfs.cpio</desc>
			<v:textBlock v:margins="rect(4,4,4,4)"/>
			<v:textRect cx="51.75" cy="324.063" width="103.5" height="49.5"/>
			<rect x="0" y="299.313" width="103.5" height="49.5" class="st4"/>
			<text x="25.4" y="327.66" class="st2" v:langID="1033"><v:paragraph v:horizAlign="1"/><v:tabList/>rootfs.cpio</text>		</g>
		<g id="shape16-44" v:mID="16" v:groupContext="shape" transform="translate(103.875,-325.938)">
			<title>Sheet.16</title>
			<path d="M0 348.81 L17.19 348.81" class="st8"/>
		</g>
		<g id="shape17-50" v:mID="17" v:groupContext="shape" transform="translate(103.875,-251.688)">
			<title>Sheet.17</title>
			<path d="M0 348.81 L17.19 348.81" class="st8"/>
		</g>
		<g id="shape18-55" v:mID="18" v:groupContext="shape" transform="translate(103.875,-139.188)">
			<title>Sheet.18</title>
			<path d="M0 348.81 L17.19 348.81" class="st8"/>
		</g>
		<g id="shape19-60" v:mID="19" v:groupContext="shape" transform="translate(103.875,-23.4419)">
			<title>Sheet.19</title>
			<path d="M0 348.81 L17.19 348.81" class="st8"/>
		</g>
		<g id="shape20-65" v:mID="20" v:groupContext="shape" transform="translate(234.375,-322.081)">
			<title>Sheet.20</title>
			<path d="M0 348.81 L17.19 348.81" class="st8"/>
		</g>
		<g id="shape21-70" v:mID="21" v:groupContext="shape" transform="translate(234.375,-251.688)">
			<title>Sheet.21</title>
			<path d="M0 348.81 L17.19 348.81" class="st8"/>
		</g>
		<g id="shape22-75" v:mID="22" v:groupContext="shape" transform="translate(181.982,-274.188)">
			<title>Sheet.22</title>
			<path d="M131.14 333.06 L0 333.06 L0 339" class="st8"/>
		</g>
		<g id="shape23-80" v:mID="23" v:groupContext="shape" transform="translate(661.938,49.875) rotate(90)">
			<title>Sheet.23</title>
			<path d="M0 348.81 L9 348.81" class="st10"/>
		</g>
		<g id="shape25-83" v:mID="25" v:groupContext="shape" transform="translate(234.375,-136.938)">
			<title>Sheet.25</title>
			<path d="M0 348.81 L17.19 348.81" class="st8"/>
		</g>
		<g id="shape26-88" v:mID="26" v:groupContext="shape" transform="translate(234.375,-23.3133)">
			<title>Sheet.26</title>
			<path d="M0 348.81 L17.19 348.81" class="st8"/>
		</g>
		<g id="shape28-93" v:mID="28" v:groupContext="shape" transform="translate(391.875,-112.188)">
			<title>Sheet.28</title>
			<desc>Build using mtools</desc>
			<v:textBlock v:margins="rect(4,4,4,4)"/>
			<v:textRect cx="51.75" cy="324.063" width="103.5" height="49.5"/>
			<rect x="0" y="299.313" width="103.5" height="49.5" rx="13.5" ry="13.5" class="st3"/>
			<text x="39.43" y="320.46" class="st2" v:langID="1033"><v:paragraph v:horizAlign="1"/><v:tabList/>Build <v:lf/><tspan
						x="20.69" dy="1.2em" class="st7">using mtools</tspan></text>		</g>
		<g id="shape29-97" v:mID="29" v:groupContext="shape" transform="translate(364.875,-136.376)">
			<title>Sheet.29</title>
			<path d="M0 348.81 L17.19 348.81" class="st8"/>
		</g>
		<g id="shape30-102" v:mID="30" v:groupContext="shape" transform="translate(364.875,-197.688)">
			<title>Sheet.30</title>
			<path d="M0 348.81 L11.25 348.81" class="st10"/>
		</g>
		<g id="shape31-105" v:mID="31" v:groupContext="shape" transform="translate(364.875,-80.6883)">
			<title>Sheet.31</title>
			<path d="M0 348.81 L11.25 348.81" class="st10"/>
		</g>
		<g id="shape32-108" v:mID="32" v:groupContext="shape" transform="translate(364.875,-22.1883)">
			<title>Sheet.32</title>
			<path d="M0 348.81 L11.25 348.81" class="st10"/>
		</g>
		<g id="shape33-111" v:mID="33" v:groupContext="shape" transform="translate(724.938,151.125) rotate(90)">
			<title>Sheet.33</title>
			<path d="M0 348.81 L175.5 348.81" class="st10"/>
		</g>
		<g id="shape34-114" v:mID="34" v:groupContext="shape" transform="translate(522.375,-112.188)">
			<title>Sheet.34</title>
			<desc>SD Card Image</desc>
			<v:textBlock v:margins="rect(4,4,4,4)"/>
			<v:textRect cx="51.75" cy="324.063" width="103.5" height="49.5"/>
			<rect x="0" y="299.313" width="103.5" height="49.5" class="st5"/>
			<text x="16.28" y="327.66" class="st6" v:langID="1033"><v:paragraph v:horizAlign="1"/><v:tabList/>SD Card Image</text>		</g>
		<g id="shape35-117" v:mID="35" v:groupContext="shape" transform="translate(495.375,-139.188)">
			<title>Sheet.35</title>
			<path d="M0 348.81 L17.19 348.81" class="st8"/>
		</g>
		<g id="shape36-122" v:mID="36" v:groupContext="shape" transform="translate(458.875,-66.7483)">
			<title>Sheet.36</title>
			<rect x="0" y="331.06" width="54" height="17.7534" class="st1"/>
		</g>
		<g id="shape37-124" v:mID="37" v:groupContext="shape" transform="translate(517.375,-66.7483)">
			<title>Sheet.37</title>
			<desc>From GitHub Repo</desc>
			<v:textBlock v:margins="rect(4,4,4,4)"/>
			<v:textRect cx="51.75" cy="338.813" width="103.5" height="20"/>
			<rect x="0" y="328.813" width="103.5" height="20" class="st11"/>
			<text x="4" y="342.11" class="st12" v:langID="1033"><v:paragraph/><v:tabList/>From GitHub Repo</text>		</g>
		<g id="shape38-127" v:mID="38" v:groupContext="shape" transform="translate(458.875,-23.9181)">
			<title>Sheet.38</title>
			<rect x="0" y="331.06" width="54" height="17.7534" class="st13"/>
		</g>
		<g id="shape39-129" v:mID="39" v:groupContext="shape" transform="translate(517.375,-22.7949)">
			<title>Sheet.39</title>
			<desc>Intermediate File</desc>
			<v:textBlock v:margins="rect(4,4,4,4)"/>
			<v:textRect cx="43.875" cy="338.813" width="87.75" height="20"/>
			<rect x="0" y="328.813" width="87.75" height="20" class="st11"/>
			<text x="4" y="342.11" class="st12" v:langID="1033"><v:paragraph/><v:tabList/>Intermediate File</text>		</g>
		<g id="shape40-132" v:mID="40" v:groupContext="shape" transform="translate(458.875,-1.49829)">
			<title>Sheet.40</title>
			<rect x="0" y="331.06" width="54" height="17.7534" class="st5"/>
		</g>
		<g id="shape41-134" v:mID="41" v:groupContext="shape" transform="translate(517.375,-0.375)">
			<title>Sheet.41</title>
			<desc>Output File</desc>
			<v:textBlock v:margins="rect(4,4,4,4)"/>
			<v:textRect cx="51.75" cy="338.813" width="103.5" height="20"/>
			<rect x="0" y="328.813" width="103.5" height="20" class="st11"/>
			<text x="4" y="342.11" class="st12" v:langID="1033"><v:paragraph/><v:tabList/>Output File</text>		</g>
		<g id="shape42-137" v:mID="42" v:groupContext="shape" transform="translate(458.875,-45.25)">
			<title>Sheet.42</title>
			<rect x="0" y="331.06" width="54" height="17.7534" rx="8.87671" ry="8.87671" class="st3"/>
		</g>
		<g id="shape43-139" v:mID="43" v:groupContext="shape" transform="translate(517.375,-44.1267)">
			<title>Sheet.43</title>
			<desc>Build Action</desc>
			<v:textBlock v:margins="rect(4,4,4,4)"/>
			<v:textRect cx="43.875" cy="338.813" width="87.75" height="20"/>
			<rect x="0" y="328.813" width="87.75" height="20" class="st11"/>
			<text x="4" y="342.11" class="st12" v:langID="1033"><v:paragraph/><v:tabList/>Build Action</text>		</g>
		<g id="shape44-142" v:mID="44" v:groupContext="shape" transform="translate(455.375,-87.0017)">
			<title>Sheet.44</title>
			<desc>Legend</desc>
			<v:textBlock v:margins="rect(4,4,4,4)"/>
			<v:textRect cx="58" cy="338.813" width="116.01" height="20"/>
			<rect x="0" y="328.813" width="116" height="20" class="st11"/>
			<text x="4" y="342.41" class="st14" v:langID="1033"><v:paragraph/><v:tabList/>Legend</text>		</g>
		<g id="shape45-145" v:mID="45" v:groupContext="shape" transform="translate(-103.188,160.125) rotate(-90)">
			<title>Sheet.45</title>
			<path d="M0 348.81 L63 348.81" class="st10"/>
		</g>
		<g id="shape46-148" v:mID="46" v:groupContext="shape" transform="translate(245.625,-188.688)">
			<title>Sheet.46</title>
			<path d="M0 348.81 L5.94 348.81" class="st8"/>
		</g>
		<g id="shape47-153" v:mID="47" v:groupContext="shape" transform="translate(-103.188,268.125) rotate(-90)">
			<title>Sheet.47</title>
			<path d="M0 348.81 L56.25 348.81" class="st10"/>
		</g>
		<g id="shape48-156" v:mID="48" v:groupContext="shape" transform="translate(245.625,-80.6883)">
			<title>Sheet.48</title>
			<path d="M0 348.81 L5.94 348.81" class="st8"/>
		</g>
	</g>
</svg>
