<?xml version="1.0" encoding="UTF-8" standalone="no"?>
<!DOCTYPE svg PUBLIC "-//W3C//DTD SVG 1.1//EN" "http://www.w3.org/Graphics/SVG/1.1/DTD/svg11.dtd">
<!-- Generated by Microsoft Visio, SVG Export baremetal-build-flow-ddram.svg Page-1 -->
<svg xmlns="http://www.w3.org/2000/svg" xmlns:xlink="http://www.w3.org/1999/xlink" xmlns:ev="http://www.w3.org/2001/xml-events"
		width="11.9961in" height="5.19125in" viewBox="0 0 863.717 373.77" xml:space="preserve" color-interpolation-filters="sRGB"
		class="st10">
	<style type="text/css">
	<![CDATA[
		.st1 {fill:#fbd7bb;stroke:#000000;stroke-linecap:round;stroke-linejoin:round;stroke-width:0.24}
		.st2 {fill:#000000;font-family:Calibri;font-size:1.00001em}
		.st3 {font-size:1em}
		.st4 {marker-end:url(#mrkr13-10);stroke:#000000;stroke-linecap:round;stroke-linejoin:round;stroke-width:0.75}
		.st5 {fill:#000000;fill-opacity:1;stroke:#000000;stroke-opacity:1;stroke-width:0.22935779816514}
		.st6 {fill:#ebf1df;stroke:#000000;stroke-linecap:round;stroke-linejoin:round;stroke-width:0.24}
		.st7 {fill:#b7dde8;stroke:#000000;stroke-linecap:round;stroke-linejoin:round;stroke-width:0.24}
		.st8 {fill:#7e649e;stroke:#000000;stroke-linecap:round;stroke-linejoin:round;stroke-width:0.24}
		.st9 {fill:#ffffff;font-family:Calibri;font-size:1.00001em}
		.st10 {fill:none;fill-rule:evenodd;font-size:12px;overflow:visible;stroke-linecap:square;stroke-miterlimit:3}
	]]>
	</style>

	<defs id="Markers">
		<g id="lend13">
			<path d="M 3 1 L 0 0 L 3 -1 L 3 1 " style="stroke:none"/>
		</g>
		<marker id="mrkr13-10" class="st5" refX="-13.08" orient="auto" markerUnits="strokeWidth" overflow="visible">
			<use xlink:href="#lend13" transform="scale(-4.36,-4.36) "/>
		</marker>
	</defs>
	<g>
		<title>Page-1</title>
		<g id="shape1-1" transform="translate(506.279,-321.092)">
			<title>Rectangle</title>
			<desc>Precompiled GHRD SOF</desc>
			<rect x="0" y="321.212" width="92.6733" height="52.5578" class="st1"/>
			<text x="15.62" y="343.89" class="st2">Precompiled <tspan x="21.02" dy="1.2em" class="st3">GHRD SOF</tspan></text>		</g>
		<g id="shape18-5" transform="translate(92.7933,-194.641)">
			<title>Dynamic connector.18</title>
			<path d="M0 364.77 L30.4 364.77" class="st4"/>
		</g>
		<g id="shape41-11" transform="translate(133.008,-177.362)">
			<title>Rectangle.2</title>
			<desc>build</desc>
			<rect x="0" y="321.212" width="92.6733" height="52.5578" rx="5" ry="5" class="st6"/>
			<text x="34.13" y="351.09" class="st2">build</text>		</g>
		<g id="shape42-14" transform="translate(0.12,-177.362)">
			<title>Rectangle.42</title>
			<desc>ATF Source</desc>
			<rect x="0" y="321.212" width="92.6733" height="52.5578" class="st1"/>
			<text x="37.18" y="343.89" class="st2">ATF <tspan x="29.65" dy="1.2em" class="st3">Source</tspan></text>		</g>
		<g id="shape43-18" transform="translate(266.547,-177.362)">
			<title>Rectangle.43</title>
			<desc>bl31.bin</desc>
			<rect x="0" y="321.212" width="92.6733" height="52.5578" class="st7"/>
			<text x="26.53" y="351.09" class="st2">bl31.bin</text>		</g>
		<g id="shape44-21" transform="translate(225.681,-194.641)">
			<title>Dynamic connector.44</title>
			<path d="M0 364.77 L31.06 364.77" class="st4"/>
		</g>
		<g id="shape45-26" transform="translate(266.547,-243.864)">
			<title>Rectangle.45</title>
			<desc>bl2.bin</desc>
			<rect x="0" y="321.212" width="92.6733" height="52.5578" class="st7"/>
			<text x="29.57" y="351.09" class="st2">bl2.bin</text>		</g>
		<g id="shape46-29" transform="translate(388.507,-177.362)">
			<title>Rectangle.46</title>
			<desc>fiptool</desc>
			<rect x="0" y="321.212" width="92.6733" height="52.5578" rx="5" ry="5" class="st6"/>
			<text x="30.26" y="351.09" class="st2">fiptool</text>		</g>
		<g id="shape48-32" transform="translate(225.681,-203.641)">
			<title>Dynamic connector.48</title>
			<path d="M0 373.77 L17.66 373.77 L17.66 307.27 L31.06 307.27" class="st4"/>
		</g>
		<g id="shape49-37" transform="translate(359.221,-194.641)">
			<title>Dynamic connector.49</title>
			<path d="M0 364.77 L19.48 364.77" class="st4"/>
		</g>
		<g id="shape50-42" transform="translate(388.507,-243.864)">
			<title>Rectangle.50</title>
			<desc>objcopy</desc>
			<rect x="0" y="321.212" width="92.6733" height="52.5578" rx="5" ry="5" class="st6"/>
			<text x="27.02" y="351.09" class="st2">objcopy</text>		</g>
		<g id="shape51-45" transform="translate(359.221,-261.143)">
			<title>Dynamic connector.51</title>
			<path d="M0 364.77 L19.48 364.77" class="st4"/>
		</g>
		<g id="shape52-50" transform="translate(506.279,-243.864)">
			<title>Rectangle.52</title>
			<desc>bl2.hex</desc>
			<rect x="0" y="321.212" width="92.6733" height="52.5578" class="st7"/>
			<text x="28.52" y="351.09" class="st2">bl2.hex</text>		</g>
		<g id="shape53-53" transform="translate(481.18,-261.143)">
			<title>Dynamic connector.53</title>
			<path d="M0 364.77 L15.29 364.77" class="st4"/>
		</g>
		<g id="shape54-58" transform="translate(0.12,-0.12)">
			<title>Rectangle.54</title>
			<desc>Baremetal Drivers Source</desc>
			<rect x="0" y="321.212" width="92.6733" height="52.5578" class="st1"/>
			<text x="21.08" y="336.69" class="st2">Baremetal <tspan x="29.04" dy="1.2em" class="st3">Drivers</tspan><tspan
						x="29.65" dy="1.2em" class="st3">Source</tspan></text>		</g>
		<g id="shape55-63" transform="translate(133.008,-0.12)">
			<title>Rectangle.55</title>
			<desc>build</desc>
			<rect x="0" y="321.212" width="92.6733" height="52.5578" rx="5" ry="5" class="st6"/>
			<text x="34.13" y="351.09" class="st2">build</text>		</g>
		<g id="shape56-66" transform="translate(92.7933,-17.3989)">
			<title>Dynamic connector.56</title>
			<path d="M0 364.77 L30.4 364.77" class="st4"/>
		</g>
		<g id="shape57-71" transform="translate(265.895,-0.12)">
			<title>Rectangle.57</title>
			<desc>Baremetal Library</desc>
			<rect x="0" y="321.212" width="92.6733" height="52.5578" class="st7"/>
			<text x="21.08" y="343.89" class="st2">Baremetal <tspan x="29.51" dy="1.2em" class="st3">Library</tspan></text>		</g>
		<g id="shape58-75" transform="translate(0.12,-86.9953)">
			<title>Rectangle.58</title>
			<desc>Baremetal Application Source</desc>
			<rect x="0" y="321.212" width="92.6733" height="52.5578" class="st1"/>
			<text x="21.08" y="336.69" class="st2">Baremetal <tspan x="18.69" dy="1.2em" class="st3">Application</tspan><tspan
						x="29.65" dy="1.2em" class="st3">Source</tspan></text>		</g>
		<g id="shape59-80" transform="translate(133.008,-86.9953)">
			<title>Rectangle.59</title>
			<desc>build</desc>
			<rect x="0" y="321.212" width="92.6733" height="52.5578" rx="5" ry="5" class="st6"/>
			<text x="34.13" y="351.09" class="st2">build</text>		</g>
		<g id="shape60-83" transform="translate(225.681,-17.3989)">
			<title>Dynamic connector.60</title>
			<path d="M0 364.77 L30.4 364.77" class="st4"/>
		</g>
		<g id="shape61-88" transform="translate(92.7933,-104.274)">
			<title>Dynamic connector.61</title>
			<path d="M0 364.77 L30.4 364.77" class="st4"/>
		</g>
		<g id="shape62-93" transform="translate(312.232,-52.6778)">
			<title>Dynamic connector.62</title>
			<path d="M0 373.77 L0 356.11 L-132.89 356.11 L-132.89 349.26" class="st4"/>
		</g>
		<g id="shape63-98" transform="translate(266.547,-86.9953)">
			<title>Rectangle.63</title>
			<desc>hello.elf</desc>
			<rect x="0" y="321.212" width="92.6733" height="52.5578" class="st7"/>
			<text x="26.57" y="351.09" class="st2">hello.elf</text>		</g>
		<g id="shape64-101" transform="translate(225.681,-104.274)">
			<title>Dynamic connector.64</title>
			<path d="M0 364.77 L31.06 364.77" class="st4"/>
		</g>
		<g id="shape65-106" transform="translate(388.507,-86.9953)">
			<title>Rectangle.65</title>
			<desc>objcopy</desc>
			<rect x="0" y="321.212" width="92.6733" height="52.5578" rx="5" ry="5" class="st6"/>
			<text x="27.02" y="351.09" class="st2">objcopy</text>		</g>
		<g id="shape66-109" transform="translate(506.279,-86.9953)">
			<title>Rectangle.66</title>
			<desc>hello.bin</desc>
			<rect x="0" y="321.212" width="92.6733" height="52.5578" class="st7"/>
			<text x="25.08" y="351.09" class="st2">hello.bin</text>		</g>
		<g id="shape67-112" transform="translate(359.221,-104.274)">
			<title>Dynamic connector.67</title>
			<path d="M0 364.77 L19.48 364.77" class="st4"/>
		</g>
		<g id="shape68-117" transform="translate(481.18,-104.274)">
			<title>Dynamic connector.68</title>
			<path d="M0 364.77 L15.29 364.77" class="st4"/>
		</g>
		<g id="shape69-122" transform="translate(552.616,-139.553)">
			<title>Dynamic connector.69</title>
			<path d="M0 373.77 L0 353.62 L-117.77 353.62 L-117.77 345.77" class="st4"/>
		</g>
		<g id="shape70-127" transform="translate(506.279,-243.864)">
			<title>Rectangle.70</title>
			<desc>bl2.hex</desc>
			<rect x="0" y="321.212" width="92.6733" height="52.5578" class="st7"/>
			<text x="28.52" y="351.09" class="st2">bl2.hex</text>		</g>
		<g id="shape71-130" transform="translate(506.279,-177.362)">
			<title>Rectangle.71</title>
			<desc>fip.bin</desc>
			<rect x="0" y="321.212" width="92.6733" height="52.5578" class="st7"/>
			<text x="30.78" y="351.09" class="st2">fip.bin</text>		</g>
		<g id="shape72-133" transform="translate(481.18,-194.641)">
			<title>Dynamic connector.72</title>
			<path d="M0 364.77 L15.29 364.77" class="st4"/>
		</g>
		<g id="shape73-138" transform="translate(653.143,-218.658)">
			<title>Rectangle.73</title>
			<desc>Programming File Generator</desc>
			<rect x="0" y="321.212" width="92.6733" height="52.5578" rx="5" ry="5" class="st6"/>
			<text x="13.25" y="343.89" class="st2">Programming <tspan x="11.34" dy="1.2em" class="st3">File Generator</tspan></text>		</g>
		<g id="shape74-142" transform="translate(770.924,-218.658)">
			<title>Rectangle.74</title>
			<desc>QSPI Flash Image (jic)</desc>
			<rect x="0" y="321.212" width="92.6733" height="52.5578" class="st8"/>
			<text x="4.72" y="343.89" class="st9">QSPI Flash Image<tspan x="37.35" dy="1.2em" class="st3">(jic)</tspan></text>		</g>
		<g id="shape75-146" transform="translate(598.953,-203.641)">
			<title>Dynamic connector.75</title>
			<path d="M0 373.77 L17.66 373.77 L17.66 332.47 L44.38 332.47" class="st4"/>
		</g>
		<g id="shape76-151" transform="translate(598.953,-270.143)">
			<title>Dynamic connector.76</title>
			<path d="M0 373.77 L17.66 373.77 L17.66 398.98 L44.38 398.98" class="st4"/>
		</g>
		<g id="shape77-156" transform="translate(598.953,-347.371)">
			<title>Dynamic connector.77</title>
			<path d="M0 373.77 L17.66 373.77 L17.66 476.2 L44.38 476.2" class="st4"/>
		</g>
		<g id="shape78-161" transform="translate(745.816,-235.937)">
			<title>Dynamic connector.78</title>
			<path d="M0 364.77 L15.3 364.77" class="st4"/>
		</g>
		<g id="shape80-166" transform="translate(510.467,-1.72292)">
			<title>Rectangle.80</title>
			<desc>PFG File</desc>
			<rect x="0" y="321.212" width="92.6733" height="52.5578" class="st1"/>
			<text x="26.84" y="351.09" class="st2">PFG File</text>		</g>
		<g id="shape82-169" transform="translate(603.14,-28.0018)">
			<title>Dynamic connector.82</title>
			<path d="M0 373.77 L13.48 373.77 L13.48 156.83 L40.19 156.83" class="st4"/>
		</g>
	</g>
</svg>
