<?xml version="1.0" encoding="UTF-8" standalone="no"?>
<!DOCTYPE svg PUBLIC "-//W3C//DTD SVG 1.1//EN" "http://www.w3.org/Graphics/SVG/1.1/DTD/svg11.dtd">
<!-- Generated by Microsoft Visio, SVG Export kas-qspi.svg Page-1 -->
<svg xmlns="http://www.w3.org/2000/svg" xmlns:xlink="http://www.w3.org/1999/xlink" xmlns:ev="http://www.w3.org/2001/xml-events"
		xmlns:v="http://schemas.microsoft.com/visio/2003/SVGExtensions/" width="9.84722in" height="5.28822in"
		viewBox="0 0 709 380.752" xml:space="preserve" color-interpolation-filters="sRGB" class="st14">
	<v:documentProperties v:langID="1033" v:viewMarkup="false"/>

	<style type="text/css">
	<![CDATA[
		.st1 {fill:#fbd7bb;stroke:#000000;stroke-linecap:round;stroke-linejoin:round;stroke-width:0.75}
		.st2 {fill:#000000;font-family:Calibri;font-size:1.00001em}
		.st3 {fill:#d7e3bf;stroke:#000000;stroke-linecap:round;stroke-linejoin:round;stroke-width:0.75}
		.st4 {fill:#b7dde8;stroke:#000000;stroke-linecap:round;stroke-linejoin:round;stroke-width:0.75}
		.st5 {font-size:1em}
		.st6 {fill:#7e649e;stroke:#000000;stroke-linecap:round;stroke-linejoin:round;stroke-width:0.75}
		.st7 {fill:#ffffff;font-family:Calibri;font-size:1.00001em}
		.st8 {fill:none;stroke:none;stroke-linecap:round;stroke-linejoin:round;stroke-width:0.75}
		.st9 {fill:#000000;font-family:Calibri;font-size:0.916672em}
		.st10 {fill:#000000;font-family:Calibri;font-size:1.00001em;font-weight:bold}
		.st11 {stroke:#000000;stroke-linecap:round;stroke-linejoin:round;stroke-width:0.75}
		.st12 {marker-end:url(#mrkr13-63);stroke:#000000;stroke-linecap:round;stroke-linejoin:round;stroke-width:0.75}
		.st13 {fill:#000000;fill-opacity:1;stroke:#000000;stroke-opacity:1;stroke-width:0.22935779816514}
		.st14 {fill:none;fill-rule:evenodd;font-size:12px;overflow:visible;stroke-linecap:square;stroke-miterlimit:3}
	]]>
	</style>

	<defs id="Markers">
		<g id="lend13">
			<path d="M 3 1 L 0 0 L 3 -1 L 3 1 " style="stroke:none"/>
		</g>
		<marker id="mrkr13-63" class="st13" v:arrowType="13" v:arrowSize="2" v:setback="13.08" refX="-13.08" orient="auto"
				markerUnits="strokeWidth" overflow="visible">
			<use xlink:href="#lend13" transform="scale(-4.36,-4.36) "/>
		</marker>
	</defs>
	<g v:mID="0" v:index="1" v:groupContext="foregroundPage">
		<title>Page-1</title>
		<v:pageProperties v:drawingScale="1" v:pageScale="1" v:drawingUnits="19" v:shadowOffsetX="9" v:shadowOffsetY="-9"/>
		<g id="shape1-1" v:mID="1" v:groupContext="shape" transform="translate(0.375,-330.877)">
			<title>Sheet.1</title>
			<desc>Hardware Design</desc>
			<v:textBlock v:margins="rect(4,4,4,4)"/>
			<v:textRect cx="51.75" cy="356.002" width="103.5" height="49.5"/>
			<rect x="0" y="331.252" width="103.5" height="49.5" class="st1"/>
			<text x="9.92" y="359.6" class="st2" v:langID="1033"><v:paragraph v:horizAlign="1"/><v:tabList/>Hardware Design</text>		</g>
		<g id="shape3-4" v:mID="3" v:groupContext="shape" transform="translate(142.125,-330.877)">
			<title>Sheet.3</title>
			<desc>Compile</desc>
			<v:textBlock v:margins="rect(4,4,4,4)"/>
			<v:textRect cx="51.75" cy="356.002" width="103.5" height="49.5"/>
			<rect x="0" y="331.252" width="103.5" height="49.5" rx="13.5" ry="13.5" class="st3"/>
			<text x="31.7" y="359.6" class="st2" v:langID="1033"><v:paragraph v:horizAlign="1"/><v:tabList/>Compile</text>		</g>
		<g id="shape4-7" v:mID="4" v:groupContext="shape" transform="translate(283.875,-328.627)">
			<title>Sheet.4</title>
			<desc>SOF</desc>
			<v:textBlock v:margins="rect(4,4,4,4)"/>
			<v:textRect cx="51.75" cy="356.002" width="103.5" height="49.5"/>
			<rect x="0" y="331.252" width="103.5" height="49.5" class="st4"/>
			<text x="42.26" y="359.6" class="st2" v:langID="1033"><v:paragraph v:horizAlign="1"/><v:tabList/>SOF</text>		</g>
		<g id="shape9-10" v:mID="9" v:groupContext="shape" transform="translate(283.875,-184.627)">
			<title>Sheet.9</title>
			<desc>U-Boot ITB</desc>
			<v:textBlock v:margins="rect(4,4,4,4)"/>
			<v:textRect cx="51.75" cy="356.002" width="103.5" height="49.5"/>
			<rect x="0" y="331.252" width="103.5" height="49.5" class="st4"/>
			<text x="25.41" y="359.6" class="st2" v:langID="1033"><v:paragraph v:horizAlign="1"/><v:tabList/>U-Boot ITB</text>		</g>
		<g id="shape16-13" v:mID="16" v:groupContext="shape" transform="translate(425.625,-145.252)">
			<title>Sheet.16</title>
			<desc>Programming File Generator</desc>
			<v:textBlock v:margins="rect(4,4,4,4)"/>
			<v:textRect cx="51.75" cy="356.002" width="103.5" height="49.5"/>
			<rect x="0" y="331.252" width="103.5" height="49.5" rx="13.5" ry="13.5" class="st3"/>
			<text x="8.81" y="352.4" class="st2" v:langID="1033"><v:paragraph v:horizAlign="1"/><v:tabList/>Programming File <tspan
						x="26.61" dy="1.2em" class="st5">Generator</tspan></text>		</g>
		<g id="shape20-17" v:mID="20" v:groupContext="shape" transform="translate(567.375,-145.252)">
			<title>Sheet.20</title>
			<desc>QSPI Image</desc>
			<v:textBlock v:margins="rect(4,4,4,4)"/>
			<v:textRect cx="51.75" cy="356.002" width="103.5" height="49.5"/>
			<rect x="0" y="331.252" width="103.5" height="49.5" class="st6"/>
			<text x="24" y="359.6" class="st7" v:langID="1033"><v:paragraph v:horizAlign="1"/><v:tabList/>QSPI Image</text>		</g>
		<g id="shape22-20" v:mID="22" v:groupContext="shape" transform="translate(546.625,-66.7483)">
			<title>Sheet.22</title>
			<rect x="0" y="362.998" width="54" height="17.7534" class="st1"/>
		</g>
		<g id="shape23-22" v:mID="23" v:groupContext="shape" transform="translate(605.125,-66.7483)">
			<title>Sheet.23</title>
			<desc>From GitHub</desc>
			<v:textBlock v:margins="rect(4,4,4,4)"/>
			<v:textRect cx="51.75" cy="370.752" width="103.5" height="20"/>
			<rect x="0" y="360.752" width="103.5" height="20" class="st8"/>
			<text x="4" y="374.05" class="st9" v:langID="1033"><v:paragraph/><v:tabList/>From GitHub</text>		</g>
		<g id="shape26-25" v:mID="26" v:groupContext="shape" transform="translate(546.625,-23.9181)">
			<title>Sheet.26</title>
			<rect x="0" y="362.998" width="54" height="17.7534" class="st4"/>
		</g>
		<g id="shape27-27" v:mID="27" v:groupContext="shape" transform="translate(605.125,-22.7949)">
			<title>Sheet.27</title>
			<desc>Intermediate File</desc>
			<v:textBlock v:margins="rect(4,4,4,4)"/>
			<v:textRect cx="43.875" cy="370.752" width="87.75" height="20"/>
			<rect x="0" y="360.752" width="87.75" height="20" class="st8"/>
			<text x="4" y="374.05" class="st9" v:langID="1033"><v:paragraph/><v:tabList/>Intermediate File</text>		</g>
		<g id="shape29-30" v:mID="29" v:groupContext="shape" transform="translate(546.625,-1.49829)">
			<title>Sheet.29</title>
			<rect x="0" y="362.998" width="54" height="17.7534" class="st6"/>
		</g>
		<g id="shape30-32" v:mID="30" v:groupContext="shape" transform="translate(605.125,-0.375)">
			<title>Sheet.30</title>
			<desc>Output Image File</desc>
			<v:textBlock v:margins="rect(4,4,4,4)"/>
			<v:textRect cx="51.75" cy="370.752" width="103.5" height="20"/>
			<rect x="0" y="360.752" width="103.5" height="20" class="st8"/>
			<text x="4" y="374.05" class="st9" v:langID="1033"><v:paragraph/><v:tabList/>Output Image File</text>		</g>
		<g id="shape31-35" v:mID="31" v:groupContext="shape" transform="translate(546.625,-45.25)">
			<title>Sheet.31</title>
			<rect x="0" y="362.998" width="54" height="17.7534" rx="8.87671" ry="8.87671" class="st3"/>
		</g>
		<g id="shape32-37" v:mID="32" v:groupContext="shape" transform="translate(605.125,-44.1267)">
			<title>Sheet.32</title>
			<desc>Build Action</desc>
			<v:textBlock v:margins="rect(4,4,4,4)"/>
			<v:textRect cx="43.875" cy="370.752" width="87.75" height="20"/>
			<rect x="0" y="360.752" width="87.75" height="20" class="st8"/>
			<text x="4" y="374.05" class="st9" v:langID="1033"><v:paragraph/><v:tabList/>Build Action</text>		</g>
		<g id="shape33-40" v:mID="33" v:groupContext="shape" transform="translate(543.125,-87.0017)">
			<title>Sheet.33</title>
			<desc>Legend</desc>
			<v:textBlock v:margins="rect(4,4,4,4)"/>
			<v:textRect cx="58" cy="370.752" width="116.01" height="20"/>
			<rect x="0" y="360.752" width="116" height="20" class="st8"/>
			<text x="4" y="374.35" class="st10" v:langID="1033"><v:paragraph/><v:tabList/>Legend</text>		</g>
		<g id="shape46-43" v:mID="46" v:groupContext="shape" transform="translate(142.125,-252.127)">
			<title>Sheet.46</title>
			<desc>Core.RBF</desc>
			<v:textBlock v:margins="rect(4,4,4,4)"/>
			<v:textRect cx="51.75" cy="356.002" width="103.5" height="49.5"/>
			<rect x="0" y="331.252" width="103.5" height="49.5" class="st4"/>
			<text x="29.52" y="359.6" class="st2" v:langID="1033"><v:paragraph v:horizAlign="1"/><v:tabList/>Core.RBF</text>		</g>
		<g id="shape49-46" v:mID="49" v:groupContext="shape" transform="translate(0.375,-111.502)">
			<title>Sheet.49</title>
			<desc>Kas Configuration</desc>
			<v:textBlock v:margins="rect(4,4,4,4)"/>
			<v:textRect cx="51.75" cy="356.002" width="103.5" height="49.5"/>
			<rect x="0" y="331.252" width="103.5" height="49.5" class="st1"/>
			<text x="8.69" y="359.6" class="st2" v:langID="1033"><v:paragraph v:horizAlign="1"/><v:tabList/>Kas Configuration</text>		</g>
		<g id="shape50-49" v:mID="50" v:groupContext="shape" transform="translate(142.125,-146.377)">
			<title>Sheet.50</title>
			<desc>Kas Build</desc>
			<v:textBlock v:margins="rect(4,4,4,4)"/>
			<v:textRect cx="51.75" cy="356.002" width="103.5" height="49.5"/>
			<rect x="0" y="331.252" width="103.5" height="49.5" rx="13.5" ry="13.5" class="st3"/>
			<text x="29.73" y="359.6" class="st2" v:langID="1033"><v:paragraph v:horizAlign="1"/><v:tabList/>Kas Build</text>		</g>
		<g id="shape52-52" v:mID="52" v:groupContext="shape" transform="translate(0.375,-184.627)">
			<title>Sheet.52</title>
			<desc>Yocto Recipes</desc>
			<v:textBlock v:margins="rect(4,4,4,4)"/>
			<v:textRect cx="51.75" cy="356.002" width="103.5" height="49.5"/>
			<rect x="0" y="331.252" width="103.5" height="49.5" class="st1"/>
			<text x="17.95" y="359.6" class="st2" v:langID="1033"><v:paragraph v:horizAlign="1"/><v:tabList/>Yocto Recipes</text>		</g>
		<g id="shape59-55" v:mID="59" v:groupContext="shape" transform="translate(387.375,-353.377)">
			<title>Sheet.59</title>
			<path d="M0 380.75 L20.25 380.75" class="st11"/>
		</g>
		<g id="shape63-58" v:mID="63" v:groupContext="shape" transform="translate(245.625,-355.627)">
			<title>Sheet.63</title>
			<path d="M0 380.75 L28.44 380.75" class="st12"/>
		</g>
		<g id="shape66-64" v:mID="66" v:groupContext="shape" transform="translate(572.377,49.875) rotate(90)">
			<title>Sheet.66</title>
			<path d="M0 380.75 L19.44 380.75" class="st12"/>
		</g>
		<g id="shape67-69" v:mID="67" v:groupContext="shape" transform="translate(103.875,-355.627)">
			<title>Sheet.67</title>
			<path d="M0 380.75 L28.44 380.75" class="st12"/>
		</g>
		<g id="shape68-74" v:mID="68" v:groupContext="shape" transform="translate(259.125,-206.002)">
			<title>Sheet.68</title>
			<path d="M0 380.75 L14.94 380.75" class="st12"/>
		</g>
		<g id="shape70-79" v:mID="70" v:groupContext="shape" transform="translate(124.125,-174.502)">
			<title>Sheet.70</title>
			<path d="M0 380.75 L8.19 380.75" class="st12"/>
		</g>
		<g id="shape72-84" v:mID="72" v:groupContext="shape" transform="translate(407.625,-170.002)">
			<title>Sheet.72</title>
			<path d="M0 380.75 L8.19 380.75" class="st12"/>
		</g>
		<g id="shape73-89" v:mID="73" v:groupContext="shape" transform="translate(572.377,128.625) rotate(90)">
			<title>Sheet.73</title>
			<path d="M0 380.75 L46.44 380.75" class="st12"/>
		</g>
		<g id="shape74-94" v:mID="74" v:groupContext="shape" transform="translate(98.8733,299.625) rotate(-90)">
			<title>Sheet.74</title>
			<path d="M0 380.75 L54.31 380.75" class="st12"/>
		</g>
		<g id="shape75-99" v:mID="75" v:groupContext="shape" transform="translate(259.125,-134.002)">
			<title>Sheet.75</title>
			<path d="M0 380.75 L14.94 380.75" class="st12"/>
		</g>
		<g id="shape76-104" v:mID="76" v:groupContext="shape" transform="translate(639.877,105) rotate(90)">
			<title>Sheet.76</title>
			<path d="M0 380.75 L141.75 380.75" class="st11"/>
		</g>
		<g id="shape77-107" v:mID="77" v:groupContext="shape" transform="translate(103.875,-134.002)">
			<title>Sheet.77</title>
			<path d="M0 380.75 L20.25 380.75 L20.25 304.25" class="st11"/>
		</g>
		<g id="shape78-110" v:mID="78" v:groupContext="shape" transform="translate(103.875,-210.502)">
			<title>Sheet.78</title>
			<path d="M0 380.75 L20.25 380.75" class="st11"/>
		</g>
		<g id="shape79-113" v:mID="79" v:groupContext="shape" transform="translate(245.625,-170.002)">
			<title>Sheet.79</title>
			<path d="M0 380.75 L13.5 380.75" class="st11"/>
		</g>
		<g id="shape80-116" v:mID="80" v:groupContext="shape" transform="translate(283.875,-252.127)">
			<title>Sheet.80</title>
			<desc>U-Boot SPL</desc>
			<v:textBlock v:margins="rect(4,4,4,4)"/>
			<v:textRect cx="51.75" cy="356.002" width="103.5" height="49.5"/>
			<rect x="0" y="331.252" width="103.5" height="49.5" class="st4"/>
			<text x="24.73" y="359.6" class="st2" v:langID="1033"><v:paragraph v:horizAlign="1"/><v:tabList/>U-Boot SPL</text>		</g>
		<g id="shape81-119" v:mID="81" v:groupContext="shape" transform="translate(259.125,-275.752)">
			<title>Sheet.81</title>
			<path d="M0 380.75 L14.94 380.75" class="st12"/>
		</g>
		<g id="shape82-124" v:mID="82" v:groupContext="shape" transform="translate(788.377,27.375) rotate(90)">
			<title>Sheet.82</title>
			<path d="M0 380.75 L222.75 380.75" class="st11"/>
		</g>
		<g id="shape83-127" v:mID="83" v:groupContext="shape" transform="translate(387.375,-276.877)">
			<title>Sheet.83</title>
			<path d="M0 380.75 L20.25 380.75" class="st11"/>
		</g>
		<g id="shape84-130" v:mID="84" v:groupContext="shape" transform="translate(283.875,-108.127)">
			<title>Sheet.84</title>
			<desc>Various Files incl. Rootfs</desc>
			<v:textBlock v:margins="rect(4,4,4,4)"/>
			<v:textRect cx="51.75" cy="356.002" width="103.5" height="49.5"/>
			<rect x="0" y="331.252" width="103.5" height="49.5" class="st4"/>
			<text x="21.14" y="352.4" class="st2" v:langID="1033"><v:paragraph v:horizAlign="1"/><v:tabList/>Various Files<v:lf/><tspan
						x="24.66" dy="1.2em" class="st5">incl. Rootfs</tspan></text>		</g>
		<g id="shape85-134" v:mID="85" v:groupContext="shape" transform="translate(283.875,-31.6267)">
			<title>Sheet.85</title>
			<desc>Ubinize</desc>
			<v:textBlock v:margins="rect(4,4,4,4)"/>
			<v:textRect cx="51.75" cy="356.002" width="103.5" height="49.5"/>
			<rect x="0" y="331.252" width="103.5" height="49.5" rx="13.5" ry="13.5" class="st3"/>
			<text x="33.49" y="359.6" class="st2" v:langID="1033"><v:paragraph v:horizAlign="1"/><v:tabList/>Ubinize</text>		</g>
		<g id="shape86-137" v:mID="86" v:groupContext="shape" transform="translate(425.625,-31.6267)">
			<title>Sheet.86</title>
			<desc>Root UBI</desc>
			<v:textBlock v:margins="rect(4,4,4,4)"/>
			<v:textRect cx="51.75" cy="356.002" width="103.5" height="49.5"/>
			<rect x="0" y="331.252" width="103.5" height="49.5" class="st4"/>
			<text x="30.17" y="359.6" class="st2" v:langID="1033"><v:paragraph v:horizAlign="1"/><v:tabList/>Root UBI</text>		</g>
		<g id="shape87-140" v:mID="87" v:groupContext="shape" transform="translate(716.377,272.625) rotate(90)">
			<title>Sheet.87</title>
			<path d="M0 380.75 L17.19 380.75" class="st12"/>
		</g>
		<g id="shape88-145" v:mID="88" v:groupContext="shape" transform="translate(387.375,-55.2517)">
			<title>Sheet.88</title>
			<path d="M0 380.75 L28.44 380.75" class="st12"/>
		</g>
		<g id="shape89-150" v:mID="89" v:groupContext="shape" transform="translate(529.125,-170.002)">
			<title>Sheet.89</title>
			<path d="M0 380.75 L28.44 380.75" class="st12"/>
		</g>
		<g id="shape92-155" v:mID="92" v:groupContext="shape" transform="translate(425.625,-252.127)">
			<title>Sheet.92</title>
			<desc>PFG Config File</desc>
			<v:textBlock v:margins="rect(4,4,4,4)"/>
			<v:textRect cx="51.75" cy="356.002" width="103.5" height="49.5"/>
			<rect x="0" y="331.252" width="103.5" height="49.5" class="st1"/>
			<text x="15.35" y="359.6" class="st2" v:langID="1033"><v:paragraph v:horizAlign="1"/><v:tabList/>PFG Config File</text>		</g>
		<g id="shape93-158" v:mID="93" v:groupContext="shape" transform="translate(142.125,-31.6267)">
			<title>Sheet.93</title>
			<desc>Ubinize Config File</desc>
			<v:textBlock v:margins="rect(4,4,4,4)"/>
			<v:textRect cx="51.75" cy="356.002" width="103.5" height="49.5"/>
			<rect x="0" y="331.252" width="103.5" height="49.5" class="st1"/>
			<text x="6.73" y="359.6" class="st2" v:langID="1033"><v:paragraph v:horizAlign="1"/><v:tabList/>Ubinize Config File</text>		</g>
		<g id="shape94-161" v:mID="94" v:groupContext="shape" transform="translate(245.625,-53.0017)">
			<title>Sheet.94</title>
			<path d="M0 380.75 L28.44 380.75" class="st12"/>
		</g>
		<g id="shape95-166" v:mID="95" v:groupContext="shape" transform="translate(858.689,128.625) rotate(90)">
			<title>Sheet.95</title>
			<path d="M0 380.75 L47.56 380.75" class="st12"/>
		</g>
		<g id="shape97-171" v:mID="97" v:groupContext="shape" transform="translate(387.375,-206.002)">
			<title>Sheet.97</title>
			<path d="M0 380.75 L20.25 380.75" class="st11"/>
		</g>
		<g id="shape98-174" v:mID="98" v:groupContext="shape" transform="translate(387.375,-130.627)">
			<title>Sheet.98</title>
			<path d="M0 380.75 L20.25 380.75" class="st11"/>
		</g>
	</g>
</svg>
