<?xml version="1.0" encoding="UTF-8" standalone="no"?>
<!DOCTYPE svg PUBLIC "-//W3C//DTD SVG 1.1//EN" "http://www.w3.org/Graphics/SVG/1.1/DTD/svg11.dtd">
<!-- Generated by Microsoft Visio, SVG Export kas-nand.svg Page-1 -->
<svg xmlns="http://www.w3.org/2000/svg" xmlns:xlink="http://www.w3.org/1999/xlink" xmlns:ev="http://www.w3.org/2001/xml-events"
		xmlns:v="http://schemas.microsoft.com/visio/2003/SVGExtensions/" width="7.37153in" height="4.98525in"
		viewBox="0 0 530.75 358.938" xml:space="preserve" color-interpolation-filters="sRGB" class="st14">
	<v:documentProperties v:langID="1033" v:viewMarkup="false"/>

	<style type="text/css">
	<![CDATA[
		.st1 {fill:#fbd7bb;stroke:#000000;stroke-linecap:round;stroke-linejoin:round;stroke-width:0.75}
		.st2 {fill:#000000;font-family:Calibri;font-size:1.00001em}
		.st3 {fill:#d7e3bf;stroke:#000000;stroke-linecap:round;stroke-linejoin:round;stroke-width:0.75}
		.st4 {fill:#b7dde8;stroke:#000000;stroke-linecap:round;stroke-linejoin:round;stroke-width:0.75}
		.st5 {fill:#7e649e;stroke:#000000;stroke-linecap:round;stroke-linejoin:round;stroke-width:0.75}
		.st6 {fill:#ffffff;font-family:Calibri;font-size:1.00001em}
		.st7 {font-size:1em}
		.st8 {fill:none;stroke:none;stroke-linecap:round;stroke-linejoin:round;stroke-width:0.75}
		.st9 {fill:#000000;font-family:Calibri;font-size:0.916672em}
		.st10 {fill:#000000;font-family:Calibri;font-size:1.00001em;font-weight:bold}
		.st11 {stroke:#000000;stroke-linecap:round;stroke-linejoin:round;stroke-width:0.75}
		.st12 {marker-end:url(#mrkr13-64);stroke:#000000;stroke-linecap:round;stroke-linejoin:round;stroke-width:0.75}
		.st13 {fill:#000000;fill-opacity:1;stroke:#000000;stroke-opacity:1;stroke-width:0.22935779816514}
		.st14 {fill:none;fill-rule:evenodd;font-size:12px;overflow:visible;stroke-linecap:square;stroke-miterlimit:3}
	]]>
	</style>

	<defs id="Markers">
		<g id="lend13">
			<path d="M 3 1 L 0 0 L 3 -1 L 3 1 " style="stroke:none"/>
		</g>
		<marker id="mrkr13-64" class="st13" v:arrowType="13" v:arrowSize="2" v:setback="13.08" refX="-13.08" orient="auto"
				markerUnits="strokeWidth" overflow="visible">
			<use xlink:href="#lend13" transform="scale(-4.36,-4.36) "/>
		</marker>
	</defs>
	<g v:mID="0" v:index="1" v:groupContext="foregroundPage">
		<title>Page-1</title>
		<v:pageProperties v:drawingScale="1" v:pageScale="1" v:drawingUnits="19" v:shadowOffsetX="9" v:shadowOffsetY="-9"/>
		<g id="shape1-1" v:mID="1" v:groupContext="shape" transform="translate(1.625,-309.063)">
			<title>Sheet.1</title>
			<desc>Hardware Design</desc>
			<v:textBlock v:margins="rect(4,4,4,4)"/>
			<v:textRect cx="51.75" cy="334.188" width="103.5" height="49.5"/>
			<rect x="0" y="309.438" width="103.5" height="49.5" class="st1"/>
			<text x="9.92" y="337.79" class="st2" v:langID="1033"><v:paragraph v:horizAlign="1"/><v:tabList/>Hardware Design</text>		</g>
		<g id="shape3-4" v:mID="3" v:groupContext="shape" transform="translate(143.375,-309.063)">
			<title>Sheet.3</title>
			<desc>Compile</desc>
			<v:textBlock v:margins="rect(4,4,4,4)"/>
			<v:textRect cx="51.75" cy="334.188" width="103.5" height="49.5"/>
			<rect x="0" y="309.438" width="103.5" height="49.5" rx="13.5" ry="13.5" class="st3"/>
			<text x="31.7" y="337.79" class="st2" v:langID="1033"><v:paragraph v:horizAlign="1"/><v:tabList/>Compile</text>		</g>
		<g id="shape4-7" v:mID="4" v:groupContext="shape" transform="translate(285.125,-306.813)">
			<title>Sheet.4</title>
			<desc>SOF</desc>
			<v:textBlock v:margins="rect(4,4,4,4)"/>
			<v:textRect cx="51.75" cy="334.188" width="103.5" height="49.5"/>
			<rect x="0" y="309.438" width="103.5" height="49.5" class="st4"/>
			<text x="42.26" y="337.79" class="st2" v:langID="1033"><v:paragraph v:horizAlign="1"/><v:tabList/>SOF</text>		</g>
		<g id="shape9-10" v:mID="9" v:groupContext="shape" transform="translate(285.125,-162.813)">
			<title>Sheet.9</title>
			<desc>U-Boot ITB (NAND)</desc>
			<v:textBlock v:margins="rect(4,4,4,4)"/>
			<v:textRect cx="51.75" cy="334.188" width="103.5" height="49.5"/>
			<rect x="0" y="309.438" width="103.5" height="49.5" class="st5"/>
			<text x="25.41" y="330.59" class="st6" v:langID="1033"><v:paragraph v:horizAlign="1"/><v:tabList/>U-Boot ITB<v:lf/><tspan
						x="33.2" dy="1.2em" class="st7">(NAND)</tspan></text>		</g>
		<g id="shape16-14" v:mID="16" v:groupContext="shape" transform="translate(426.875,-269.688)">
			<title>Sheet.16</title>
			<desc>Programming File Generator</desc>
			<v:textBlock v:margins="rect(4,4,4,4)"/>
			<v:textRect cx="51.75" cy="334.188" width="103.5" height="49.5"/>
			<rect x="0" y="309.438" width="103.5" height="49.5" rx="13.5" ry="13.5" class="st3"/>
			<text x="8.81" y="330.59" class="st2" v:langID="1033"><v:paragraph v:horizAlign="1"/><v:tabList/>Programming File <tspan
						x="26.61" dy="1.2em" class="st7">Generator</tspan></text>		</g>
		<g id="shape20-18" v:mID="20" v:groupContext="shape" transform="translate(426.875,-162.813)">
			<title>Sheet.20</title>
			<desc>QSPI Image</desc>
			<v:textBlock v:margins="rect(4,4,4,4)"/>
			<v:textRect cx="51.75" cy="334.188" width="103.5" height="49.5"/>
			<rect x="0" y="309.438" width="103.5" height="49.5" class="st5"/>
			<text x="24" y="337.79" class="st6" v:langID="1033"><v:paragraph v:horizAlign="1"/><v:tabList/>QSPI Image</text>		</g>
		<g id="shape22-21" v:mID="22" v:groupContext="shape" transform="translate(3.87498,-66.7483)">
			<title>Sheet.22</title>
			<rect x="0" y="341.185" width="54" height="17.7534" class="st1"/>
		</g>
		<g id="shape23-23" v:mID="23" v:groupContext="shape" transform="translate(62.375,-66.7483)">
			<title>Sheet.23</title>
			<desc>From GitHub</desc>
			<v:textBlock v:margins="rect(4,4,4,4)"/>
			<v:textRect cx="51.75" cy="348.938" width="103.5" height="20"/>
			<rect x="0" y="338.938" width="103.5" height="20" class="st8"/>
			<text x="4" y="352.24" class="st9" v:langID="1033"><v:paragraph/><v:tabList/>From GitHub</text>		</g>
		<g id="shape26-26" v:mID="26" v:groupContext="shape" transform="translate(3.87498,-23.9181)">
			<title>Sheet.26</title>
			<rect x="0" y="341.185" width="54" height="17.7534" class="st4"/>
		</g>
		<g id="shape27-28" v:mID="27" v:groupContext="shape" transform="translate(62.375,-22.4383)">
			<title>Sheet.27</title>
			<desc>Intermediate</desc>
			<v:textBlock v:margins="rect(4,4,4,4)"/>
			<v:textRect cx="43.875" cy="348.938" width="87.75" height="20"/>
			<rect x="0" y="338.938" width="87.75" height="20" class="st8"/>
			<text x="4" y="352.24" class="st9" v:langID="1033"><v:paragraph/><v:tabList/>Intermediate</text>		</g>
		<g id="shape29-31" v:mID="29" v:groupContext="shape" transform="translate(3.87498,-1.49829)">
			<title>Sheet.29</title>
			<rect x="0" y="341.185" width="54" height="17.7534" class="st5"/>
		</g>
		<g id="shape30-33" v:mID="30" v:groupContext="shape" transform="translate(62.375,-0.375)">
			<title>Sheet.30</title>
			<desc>Output File</desc>
			<v:textBlock v:margins="rect(4,4,4,4)"/>
			<v:textRect cx="51.75" cy="348.938" width="103.5" height="20"/>
			<rect x="0" y="338.938" width="103.5" height="20" class="st8"/>
			<text x="4" y="352.24" class="st9" v:langID="1033"><v:paragraph/><v:tabList/>Output File</text>		</g>
		<g id="shape31-36" v:mID="31" v:groupContext="shape" transform="translate(3.87498,-45.25)">
			<title>Sheet.31</title>
			<rect x="0" y="341.185" width="54" height="17.7534" rx="8.87671" ry="8.87671" class="st3"/>
		</g>
		<g id="shape32-38" v:mID="32" v:groupContext="shape" transform="translate(62.375,-44.1267)">
			<title>Sheet.32</title>
			<desc>Build Action</desc>
			<v:textBlock v:margins="rect(4,4,4,4)"/>
			<v:textRect cx="43.875" cy="348.938" width="87.75" height="20"/>
			<rect x="0" y="338.938" width="87.75" height="20" class="st8"/>
			<text x="4" y="352.24" class="st9" v:langID="1033"><v:paragraph/><v:tabList/>Build Action</text>		</g>
		<g id="shape33-41" v:mID="33" v:groupContext="shape" transform="translate(0.375,-87.0017)">
			<title>Sheet.33</title>
			<desc>Legend</desc>
			<v:textBlock v:margins="rect(4,4,4,4)"/>
			<v:textRect cx="58" cy="348.938" width="116.01" height="20"/>
			<rect x="0" y="338.938" width="116" height="20" class="st8"/>
			<text x="4" y="352.54" class="st10" v:langID="1033"><v:paragraph/><v:tabList/>Legend</text>		</g>
		<g id="shape46-44" v:mID="46" v:groupContext="shape" transform="translate(143.375,-230.313)">
			<title>Sheet.46</title>
			<desc>Core.RBF</desc>
			<v:textBlock v:margins="rect(4,4,4,4)"/>
			<v:textRect cx="51.75" cy="334.188" width="103.5" height="49.5"/>
			<rect x="0" y="309.438" width="103.5" height="49.5" class="st4"/>
			<text x="29.52" y="337.79" class="st2" v:langID="1033"><v:paragraph v:horizAlign="1"/><v:tabList/>Core.RBF</text>		</g>
		<g id="shape49-47" v:mID="49" v:groupContext="shape" transform="translate(1.625,-129.626)">
			<title>Sheet.49</title>
			<desc>Kas Configuration</desc>
			<v:textBlock v:margins="rect(4,4,4,4)"/>
			<v:textRect cx="51.75" cy="334.188" width="103.5" height="49.5"/>
			<rect x="0" y="309.438" width="103.5" height="49.5" class="st1"/>
			<text x="8.69" y="337.79" class="st2" v:langID="1033"><v:paragraph v:horizAlign="1"/><v:tabList/>Kas Configuration</text>		</g>
		<g id="shape50-50" v:mID="50" v:groupContext="shape" transform="translate(143.375,-124.563)">
			<title>Sheet.50</title>
			<desc>Kas Build</desc>
			<v:textBlock v:margins="rect(4,4,4,4)"/>
			<v:textRect cx="51.75" cy="334.188" width="103.5" height="49.5"/>
			<rect x="0" y="309.438" width="103.5" height="49.5" rx="13.5" ry="13.5" class="st3"/>
			<text x="29.73" y="337.79" class="st2" v:langID="1033"><v:paragraph v:horizAlign="1"/><v:tabList/>Kas Build</text>		</g>
		<g id="shape52-53" v:mID="52" v:groupContext="shape" transform="translate(1.625,-202.751)">
			<title>Sheet.52</title>
			<desc>Yocto Recipes</desc>
			<v:textBlock v:margins="rect(4,4,4,4)"/>
			<v:textRect cx="51.75" cy="334.188" width="103.5" height="49.5"/>
			<rect x="0" y="309.438" width="103.5" height="49.5" class="st1"/>
			<text x="17.95" y="337.79" class="st2" v:langID="1033"><v:paragraph v:horizAlign="1"/><v:tabList/>Yocto Recipes</text>		</g>
		<g id="shape59-56" v:mID="59" v:groupContext="shape" transform="translate(388.625,-331.563)">
			<title>Sheet.59</title>
			<path d="M0 358.94 L20.25 358.94" class="st11"/>
		</g>
		<g id="shape63-59" v:mID="63" v:groupContext="shape" transform="translate(246.875,-333.813)">
			<title>Sheet.63</title>
			<path d="M0 358.94 L28.44 358.94" class="st12"/>
		</g>
		<g id="shape66-65" v:mID="66" v:groupContext="shape" transform="translate(551.813,49.875) rotate(90)">
			<title>Sheet.66</title>
			<path d="M0 358.94 L19.44 358.94" class="st12"/>
		</g>
		<g id="shape67-70" v:mID="67" v:groupContext="shape" transform="translate(105.125,-333.813)">
			<title>Sheet.67</title>
			<path d="M0 358.94 L28.44 358.94" class="st12"/>
		</g>
		<g id="shape68-75" v:mID="68" v:groupContext="shape" transform="translate(260.375,-184.188)">
			<title>Sheet.68</title>
			<path d="M0 358.94 L14.94 358.94" class="st12"/>
		</g>
		<g id="shape70-80" v:mID="70" v:groupContext="shape" transform="translate(125.375,-152.688)">
			<title>Sheet.70</title>
			<path d="M0 358.94 L8.19 358.94" class="st12"/>
		</g>
		<g id="shape72-85" v:mID="72" v:groupContext="shape" transform="translate(408.875,-292.188)">
			<title>Sheet.72</title>
			<path d="M0 358.94 L8.19 358.94" class="st12"/>
		</g>
		<g id="shape73-90" v:mID="73" v:groupContext="shape" transform="translate(551.813,128.625) rotate(90)">
			<title>Sheet.73</title>
			<path d="M0 358.94 L46.44 358.94" class="st12"/>
		</g>
		<g id="shape75-95" v:mID="75" v:groupContext="shape" transform="translate(260.375,-112.188)">
			<title>Sheet.75</title>
			<path d="M0 358.94 L14.94 358.94" class="st12"/>
		</g>
		<g id="shape76-100" v:mID="76" v:groupContext="shape" transform="translate(619.313,105) rotate(90)">
			<title>Sheet.76</title>
			<path d="M0 358.94 L141.75 358.94" class="st11"/>
		</g>
		<g id="shape77-103" v:mID="77" v:groupContext="shape" transform="translate(105.125,-152.126)">
			<title>Sheet.77</title>
			<path d="M0 358.94 L20.25 358.94 L20.25 282.44" class="st11"/>
		</g>
		<g id="shape78-106" v:mID="78" v:groupContext="shape" transform="translate(105.125,-228.626)">
			<title>Sheet.78</title>
			<path d="M0 358.94 L20.25 358.94" class="st11"/>
		</g>
		<g id="shape79-109" v:mID="79" v:groupContext="shape" transform="translate(246.875,-148.188)">
			<title>Sheet.79</title>
			<path d="M0 358.94 L13.5 358.94" class="st11"/>
		</g>
		<g id="shape80-112" v:mID="80" v:groupContext="shape" transform="translate(285.125,-230.313)">
			<title>Sheet.80</title>
			<desc>U-Boot SPL</desc>
			<v:textBlock v:margins="rect(4,4,4,4)"/>
			<v:textRect cx="51.75" cy="334.188" width="103.5" height="49.5"/>
			<rect x="0" y="309.438" width="103.5" height="49.5" class="st4"/>
			<text x="24.73" y="337.79" class="st2" v:langID="1033"><v:paragraph v:horizAlign="1"/><v:tabList/>U-Boot SPL</text>		</g>
		<g id="shape81-115" v:mID="81" v:groupContext="shape" transform="translate(260.375,-253.938)">
			<title>Sheet.81</title>
			<path d="M0 358.94 L14.94 358.94" class="st12"/>
		</g>
		<g id="shape83-120" v:mID="83" v:groupContext="shape" transform="translate(388.625,-255.063)">
			<title>Sheet.83</title>
			<path d="M0 358.94 L20.25 358.94" class="st11"/>
		</g>
		<g id="shape84-123" v:mID="84" v:groupContext="shape" transform="translate(285.125,-86.3133)">
			<title>Sheet.84</title>
			<desc>Various Files incl. Rootfs</desc>
			<v:textBlock v:margins="rect(4,4,4,4)"/>
			<v:textRect cx="51.75" cy="334.188" width="103.5" height="49.5"/>
			<rect x="0" y="309.438" width="103.5" height="49.5" class="st4"/>
			<text x="21.14" y="330.59" class="st2" v:langID="1033"><v:paragraph v:horizAlign="1"/><v:tabList/>Various Files<v:lf/><tspan
						x="24.66" dy="1.2em" class="st7">incl. Rootfs</tspan></text>		</g>
		<g id="shape85-127" v:mID="85" v:groupContext="shape" transform="translate(285.125,-9.81335)">
			<title>Sheet.85</title>
			<desc>Ubinize</desc>
			<v:textBlock v:margins="rect(4,4,4,4)"/>
			<v:textRect cx="51.75" cy="334.188" width="103.5" height="49.5"/>
			<rect x="0" y="309.438" width="103.5" height="49.5" rx="13.5" ry="13.5" class="st3"/>
			<text x="33.49" y="337.79" class="st2" v:langID="1033"><v:paragraph v:horizAlign="1"/><v:tabList/>Ubinize</text>		</g>
		<g id="shape86-130" v:mID="86" v:groupContext="shape" transform="translate(426.875,-9.81335)">
			<title>Sheet.86</title>
			<desc>Root UBI (NAND)</desc>
			<v:textBlock v:margins="rect(4,4,4,4)"/>
			<v:textRect cx="51.75" cy="334.188" width="103.5" height="49.5"/>
			<rect x="0" y="309.438" width="103.5" height="49.5" class="st5"/>
			<text x="30.17" y="330.59" class="st6" v:langID="1033"><v:paragraph v:horizAlign="1"/><v:tabList/>Root UBI<v:lf/><tspan
						x="33.2" dy="1.2em" class="st7">(NAND)</tspan></text>		</g>
		<g id="shape87-134" v:mID="87" v:groupContext="shape" transform="translate(695.813,272.625) rotate(90)">
			<title>Sheet.87</title>
			<path d="M0 358.94 L17.19 358.94" class="st12"/>
		</g>
		<g id="shape88-139" v:mID="88" v:groupContext="shape" transform="translate(388.625,-33.4383)">
			<title>Sheet.88</title>
			<path d="M0 358.94 L28.44 358.94" class="st12"/>
		</g>
		<g id="shape93-144" v:mID="93" v:groupContext="shape" transform="translate(143.375,-9.81335)">
			<title>Sheet.93</title>
			<desc>Ubinize Config File</desc>
			<v:textBlock v:margins="rect(4,4,4,4)"/>
			<v:textRect cx="51.75" cy="334.188" width="103.5" height="49.5"/>
			<rect x="0" y="309.438" width="103.5" height="49.5" class="st1"/>
			<text x="6.73" y="337.79" class="st2" v:langID="1033"><v:paragraph v:horizAlign="1"/><v:tabList/>Ubinize Config File</text>		</g>
		<g id="shape94-147" v:mID="94" v:groupContext="shape" transform="translate(246.875,-31.1883)">
			<title>Sheet.94</title>
			<path d="M0 358.94 L28.44 358.94" class="st12"/>
		</g>
		<g id="shape99-152" v:mID="99" v:groupContext="shape" transform="translate(830.813,89.25) rotate(90)">
			<title>Sheet.99</title>
			<path d="M0 358.94 L47.56 358.94" class="st12"/>
		</g>
		<g id="shape100-157" v:mID="100" v:groupContext="shape" transform="translate(767.813,27.375) rotate(90)">
			<title>Sheet.100</title>
			<path d="M0 358.94 L76.5 358.94" class="st11"/>
		</g>
	</g>
</svg>
