<?xml version="1.0" encoding="UTF-8" standalone="no"?>
<!DOCTYPE svg PUBLIC "-//W3C//DTD SVG 1.1//EN" "http://www.w3.org/Graphics/SVG/1.1/DTD/svg11.dtd">
<!-- Generated by Microsoft Visio, SVG Export s10-gsrd-build-flow.svg Page-1 -->
<svg xmlns="http://www.w3.org/2000/svg" xmlns:xlink="http://www.w3.org/1999/xlink" xmlns:ev="http://www.w3.org/2001/xml-events"
		width="7.26265in" height="5.36365in" viewBox="0 0 522.911 386.182" xml:space="preserve" color-interpolation-filters="sRGB"
		class="st11">
	<style type="text/css">
	<![CDATA[
		.st1 {fill:#00b050;stroke:#000000;stroke-linecap:round;stroke-linejoin:round;stroke-width:0.24}
		.st2 {fill:#000000;font-family:Calibri;font-size:0.833336em}
		.st3 {font-size:1em}
		.st4 {fill:#ebf1df;stroke:#000000;stroke-linecap:round;stroke-linejoin:round;stroke-width:0.24}
		.st5 {marker-end:url(#mrkr13-13);stroke:#000000;stroke-linecap:round;stroke-linejoin:round;stroke-width:0.75}
		.st6 {fill:#000000;fill-opacity:1;stroke:#000000;stroke-opacity:1;stroke-width:0.22935779816514}
		.st7 {fill:#b7dde8;stroke:#000000;stroke-linecap:round;stroke-linejoin:round;stroke-width:0.24}
		.st8 {fill:#7e649e;stroke:#000000;stroke-linecap:round;stroke-linejoin:round;stroke-width:0.24}
		.st9 {fill:#ffffff;font-family:Calibri;font-size:0.833336em}
		.st10 {stroke:#c00000;stroke-linecap:round;stroke-linejoin:round;stroke-width:0.75}
		.st11 {fill:none;fill-rule:evenodd;font-size:12px;overflow:visible;stroke-linecap:square;stroke-miterlimit:3}
	]]>
	</style>

	<defs id="Markers">
		<g id="lend13">
			<path d="M 3 1 L 0 0 L 3 -1 L 3 1 " style="stroke:none"/>
		</g>
		<marker id="mrkr13-13" class="st6" refX="-13.08" orient="auto" markerUnits="strokeWidth" overflow="visible">
			<use xlink:href="#lend13" transform="scale(-4.36,-4.36) "/>
		</marker>
	</defs>
	<g>
		<title>Page-1</title>
		<g id="shape1-1" transform="translate(0.12,-282.937)">
			<title>Rectangle</title>
			<desc>GHRD (Git)</desc>
			<rect x="0" y="349.432" width="64.8" height="36.75" class="st1"/>
			<text x="20.34" y="364.81" class="st2">GHRD <tspan x="23.39" dy="1.2em" class="st3">(Git)</tspan></text>		</g>
		<g id="shape2-5" transform="translate(87.2411,-282.937)">
			<title>Rectangle.2</title>
			<desc>Build</desc>
			<rect x="0" y="349.432" width="64.8" height="36.75" rx="5" ry="5" class="st4"/>
			<text x="22.13" y="370.81" class="st2">Build</text>		</g>
		<g id="shape3-8" transform="translate(64.92,-292.312)">
			<title>Dynamic connector</title>
			<path d="M0 377.18 L12.51 377.18" class="st5"/>
		</g>
		<g id="shape8-14" transform="translate(180.183,-349.312)">
			<title>Rectangle.73</title>
			<desc>SOF</desc>
			<rect x="0" y="349.432" width="64.8" height="36.75" class="st7"/>
			<text x="24.49" y="370.81" class="st2">SOF</text>		</g>
		<g id="shape11-17" transform="translate(0.925243,-134.625)">
			<title>Rectangle.11</title>
			<desc>Yocto Build System (Git)</desc>
			<rect x="0" y="349.432" width="64.8" height="36.75" class="st1"/>
			<text x="9.5" y="358.81" class="st2">Yocto Build <tspan x="17.73" dy="1.2em" class="st3">System </tspan><tspan
						x="23.39" dy="1.2em" class="st3">(Git)</tspan></text>		</g>
		<g id="shape12-22" transform="translate(90.5541,-134.625)">
			<title>Rectangle.12</title>
			<desc>Setup</desc>
			<rect x="0" y="349.432" width="64.8" height="36.75" rx="5" ry="5" class="st4"/>
			<text x="20.69" y="370.81" class="st2">Setup</text>		</g>
		<g id="shape13-25" transform="translate(65.7252,-144)">
			<title>Dynamic connector.13</title>
			<path d="M0 377.18 L15.02 377.18" class="st5"/>
		</g>
		<g id="shape14-30" transform="translate(0.925243,-78.9375)">
			<title>Rectangle.14</title>
			<desc>Prebuilt Files</desc>
			<rect x="0" y="349.432" width="64.8" height="36.75" class="st7"/>
			<text x="6.2" y="370.81" class="st2">Prebuilt Files</text>		</g>
		<g id="shape15-33" transform="translate(65.7252,-97.3125)">
			<title>Dynamic connector.15</title>
			<path d="M0 386.18 L8.83 386.18 L8.83 330.49 L15.02 330.49" class="st5"/>
		</g>
		<g id="shape16-38" transform="translate(0.925243,-190.312)">
			<title>Rectangle.16</title>
			<desc>Yocto Recipes (Git)</desc>
			<rect x="0" y="349.432" width="64.8" height="36.75" class="st1"/>
			<text x="4.24" y="364.81" class="st2">Yocto Recipes <tspan x="23.39" dy="1.2em" class="st3">(Git)</tspan></text>		</g>
		<g id="shape17-42" transform="translate(65.7252,-208.687)">
			<title>Dynamic connector.17</title>
			<path d="M0 386.18 L8.83 386.18 L8.83 441.87 L15.02 441.87" class="st5"/>
		</g>
		<g id="shape18-47" transform="translate(180.183,-134.625)">
			<title>Rectangle.18</title>
			<desc>Update Files &#38; Recipes</desc>
			<rect x="0" y="349.432" width="64.8" height="36.75" rx="5" ry="5" class="st4"/>
			<text x="7.21" y="364.81" class="st2">Update Files <tspan x="12.32" dy="1.2em" class="st3">&#38; Recipes</tspan></text>		</g>
		<g id="shape24-51" transform="translate(155.354,-144)">
			<title>Dynamic connector.24</title>
			<path d="M0 377.18 L15.02 377.18" class="st5"/>
		</g>
		<g id="shape25-56" transform="translate(276.562,-134.625)">
			<title>Rectangle.25</title>
			<desc>Build &#38; Package</desc>
			<rect x="0" y="349.432" width="64.8" height="36.75" rx="5" ry="5" class="st4"/>
			<text x="17.59" y="364.81" class="st2">Build &#38; <tspan x="15.8" dy="1.2em" class="st3">Package</tspan></text>		</g>
		<g id="shape30-60" transform="translate(366.191,-134.625)">
			<title>Rectangle.86</title>
			<desc>SD Card Image (.wic)</desc>
			<rect x="0" y="349.432" width="64.8" height="36.75" class="st8"/>
			<text x="16.46" y="358.81" class="st9">SD Card <tspan x="19.91" dy="1.2em" class="st3">Image </tspan><tspan x="21.27"
						dy="1.2em" class="st3">(.wic)</tspan></text>		</g>
		<g id="shape31-65" transform="translate(244.983,-144)">
			<title>Dynamic connector.31</title>
			<path d="M0 377.18 L21.77 377.18" class="st5"/>
		</g>
		<g id="shape32-70" transform="translate(341.362,-144)">
			<title>Dynamic connector.32</title>
			<path d="M0 377.18 L15.02 377.18" class="st5"/>
		</g>
		<g id="shape34-75" transform="translate(152.041,-301.312)">
			<title>Dynamic connector.34</title>
			<path d="M0 386.18 L8.83 386.18 L8.83 319.81 L18.33 319.81" class="st5"/>
		</g>
		<g id="shape35-80" transform="translate(152.041,-310.312)">
			<title>Dynamic connector.35</title>
			<path d="M0 395.18 L18.33 395.18" class="st5"/>
		</g>
		<g id="shape38-85" transform="translate(180.183,-282.937)">
			<title>Rectangle.38</title>
			<desc>HPS Debug SOF</desc>
			<rect x="0" y="349.432" width="64.8" height="36.75" class="st7"/>
			<text x="10.1" y="364.81" class="st2">HPS Debug<tspan x="24.49" dy="1.2em" class="st3">SOF</tspan></text>		</g>
		<g id="shape40-89" transform="translate(269.701,-282.937)">
			<title>Rectangle.40</title>
			<desc>Programming File Generator</desc>
			<rect x="0" y="349.432" width="64.8" height="36.75" rx="5" ry="5" class="st4"/>
			<text x="4.83" y="358.81" class="st2">Programming <tspan x="25.32" dy="1.2em" class="st3">File </tspan><tspan x="11.45"
						dy="1.2em" class="st3">Generator</tspan></text>		</g>
		<g id="shape42-94" transform="translate(366.191,-251.062)">
			<title>Rectangle.42</title>
			<desc>Core.RBF</desc>
			<rect x="0" y="349.432" width="64.8" height="36.75" class="st7"/>
			<text x="13.87" y="370.81" class="st2">Core.RBF</text>		</g>
		<g id="shape43-97" transform="translate(366.191,-314.812)">
			<title>Rectangle.43</title>
			<desc>HPS JIC (discard)</desc>
			<rect x="0" y="349.432" width="64.8" height="36.75" class="st7"/>
			<text x="17.75" y="364.81" class="st2">HPS JIC<tspan x="14.76" dy="1.2em" class="st3">(discard)</tspan></text>		</g>
		<g id="shape44-101" transform="translate(334.501,-301.312)">
			<title>Dynamic connector.44</title>
			<path d="M0 386.18 L17.66 386.18 L17.66 354.31 L21.88 354.31" class="st5"/>
		</g>
		<g id="shape46-106" transform="translate(244.983,-292.312)">
			<title>Dynamic connector.46</title>
			<path d="M0 377.18 L14.91 377.18" class="st5"/>
		</g>
		<g id="shape48-111" transform="translate(334.501,-301.312)">
			<title>Dynamic connector.48</title>
			<path d="M0 386.18 L17.66 386.18 L17.66 418.06 L21.88 418.06" class="st5"/>
		</g>
		<g id="shape49-116" transform="translate(556.701,-301.301) rotate(29.5589)">
			<title>Sheet.49</title>
			<path d="M0 386.18 L74.5 386.18" class="st10"/>
		</g>
		<g id="shape50-119" transform="translate(621.501,370.541) rotate(150.441)">
			<title>Sheet.50</title>
			<path d="M0 386.18 L74.5 386.18" class="st10"/>
		</g>
		<g id="shape52-122" transform="translate(366.191,-64.125)">
			<title>Rectangle.52</title>
			<desc>U-Boot SPL Hex</desc>
			<rect x="0" y="349.432" width="64.8" height="36.75" class="st7"/>
			<text x="9.88" y="364.81" class="st2">U-Boot SPL<tspan x="24.63" dy="1.2em" class="st3">Hex</tspan></text>		</g>
		<g id="shape53-126" transform="translate(341.362,-153)">
			<title>Dynamic connector.53</title>
			<path d="M0 386.18 L8.83 386.18 L8.83 456.68 L15.02 456.68" class="st5"/>
		</g>
		<g id="shape54-131" transform="translate(366.191,-0.375001)">
			<title>Rectangle.54</title>
			<desc>Core.RBF (Discard)</desc>
			<rect x="0" y="349.432" width="64.8" height="36.75" class="st7"/>
			<text x="13.87" y="364.81" class="st2">Core.RBF<tspan x="14.31" dy="1.2em" class="st3">(Discard)</tspan></text>		</g>
		<g id="shape55-135" transform="translate(457.991,-64.125)">
			<title>Rectangle.55</title>
			<desc>Programming File Generator</desc>
			<rect x="0" y="349.432" width="64.8" height="36.75" rx="5" ry="5" class="st4"/>
			<text x="4.83" y="358.81" class="st2">Programming <tspan x="25.32" dy="1.2em" class="st3">File </tspan><tspan x="11.45"
						dy="1.2em" class="st3">Generator</tspan></text>		</g>
		<g id="shape56-140" transform="translate(430.991,-73.5)">
			<title>Dynamic connector.56</title>
			<path d="M0 377.18 L17.19 377.18" class="st5"/>
		</g>
		<g id="shape57-145" transform="translate(244.983,-367.687)">
			<title>Dynamic connector.57</title>
			<path d="M0 386.18 L245.41 386.18 L245.41 643.18" class="st5"/>
		</g>
		<g id="shape60-150" transform="translate(490.391,-64.125)">
			<title>Dynamic connector.60</title>
			<path d="M0 386.18 L0 395.01 L-91.8 395.01 L-91.8 403.37" class="st5"/>
		</g>
		<g id="shape61-155" transform="translate(621.501,684.978) rotate(150.441)">
			<title>Sheet.61</title>
			<path d="M0 386.18 L74.5 386.18" class="st10"/>
		</g>
		<g id="shape62-158" transform="translate(556.701,13.1369) rotate(29.5589)">
			<title>Sheet.62</title>
			<path d="M0 386.18 L74.5 386.18" class="st10"/>
		</g>
		<g id="shape63-161" transform="translate(457.991,-0.375001)">
			<title>Rectangle.63</title>
			<desc>HPS QSPI Image (JIC)</desc>
			<rect x="0" y="349.432" width="64.8" height="36.75" class="st8"/>
			<text x="13.77" y="358.81" class="st9">HPS QSPI <tspan x="19.91" dy="1.2em" class="st3">Image</tspan><tspan x="23.85"
						dy="1.2em" class="st3">(JIC)</tspan></text>		</g>
		<g id="shape64-166" transform="translate(481.391,-64.125)">
			<title>Dynamic connector.64</title>
			<path d="M9 386.18 L9 403.37" class="st5"/>
		</g>
		<g id="shape65-171" transform="translate(180.183,-215.812)">
			<title>Rectangle.65</title>
			<desc>PR Persona0.rbf</desc>
			<rect x="0" y="349.432" width="64.8" height="36.75" class="st7"/>
			<text x="27.1" y="364.81" class="st2">PR  <tspan x="6.28" dy="1.2em" class="st3">Persona0.rbf</tspan></text>		</g>
		<g id="shape66-175" transform="translate(187.655,-221.062)">
			<title>Rectangle.66</title>
			<desc>Persona0.rbf Persona1.rbf</desc>
			<rect x="0" y="349.432" width="64.8" height="36.75" class="st7"/>
			<text x="6.28" y="364.81" class="st2">Persona0.rbf <tspan x="6.28" dy="1.2em" class="st3">Persona1.rbf</tspan></text>		</g>
		<g id="shape68-179" transform="translate(152.041,-301.312)">
			<title>Dynamic connector.68</title>
			<path d="M0 386.18 L8.83 386.18 L8.83 452.56 L18.33 452.56" class="st5"/>
		</g>
		<g id="shape69-184" transform="translate(203.583,-215.812)">
			<title>Dynamic connector.69</title>
			<path d="M9 386.18 L9 420.81" class="st5"/>
		</g>
		<g id="shape70-189" transform="translate(398.591,-251.062)">
			<title>Dynamic connector.70</title>
			<path d="M0 386.18 L0 446.18 L-186.01 446.18 L-186.01 456.06" class="st5"/>
		</g>
	</g>
</svg>
